<svg width="120" height="76" viewBox="0 0 120 76" fill="none" xmlns="http://www.w3.org/2000/svg">
<path d="M79.3612 0.639034H39.7745C45.6604 0.639034 49.8507 4.51753 49.8507 9.95898C49.8507 15.3863 45.6457 19.2637 39.7745 19.2637H79.3612C85.233 19.2637 89.4152 15.3863 89.4152 9.95898C89.4152 4.51753 85.2469 0.639034 79.3612 0.639034Z" fill="#FCD205"/>
<path fill-rule="evenodd" clip-rule="evenodd" d="M79.3387 19.2634H39.7745C45.6457 19.2634 49.8507 15.386 49.8507 9.95868C49.8507 4.51724 45.6617 0.639812 39.7753 0.638739H79.3387C85.2255 0.638739 89.4152 4.51724 89.4152 9.95868C89.4152 15.386 85.2115 19.2634 79.3387 19.2634ZM79.3387 0.0955715H10.894C7.83086 0.0955715 5.21174 1.10612 3.35542 2.8639C1.49706 4.62211 0.434875 7.09814 0.434875 9.95868C0.434875 12.8122 1.50124 15.2854 3.36175 17.041C5.21936 18.7959 7.83795 19.8076 10.894 19.8076H79.3387C85.4692 19.8076 89.9583 15.7256 89.9583 9.95868C89.9583 4.1776 85.4853 0.0955715 79.3387 0.0955715Z" fill="#232930"/>
<path d="M9.45099 13.9967H11.553V6.36928H9.45099V13.9967ZM10.509 5.64599C11.205 5.64599 11.7552 5.09585 11.7552 4.44458C11.7552 4.1146 11.6244 3.79804 11.3908 3.56532C11.1568 3.3313 10.8403 3.20045 10.509 3.20045C9.79825 3.20045 9.24811 3.75059 9.24811 4.44458C9.24811 5.11044 9.79825 5.64599 10.509 5.64599ZM13.0605 13.9967H15.1634V8.98915C15.4381 8.45329 16.0041 8.07714 16.5694 8.07714C17.3082 8.07714 17.8303 8.65584 17.8303 9.49528V13.9967H19.9332V8.98915C20.1646 8.45329 20.7592 8.07714 21.3533 8.07714C22.0926 8.07714 22.5866 8.65584 22.5866 9.49528V13.9967H24.6882V9.10444C24.6882 7.3107 23.5275 6.16715 21.7312 6.16715C20.7886 6.16715 20.0203 6.51398 19.3964 7.28129C18.9037 6.54329 18.1636 6.16715 17.2361 6.16715C16.3081 6.16715 15.5106 6.558 15.0326 7.22386V6.36928H13.0605V13.9967ZM26.0657 13.9967H28.1677V8.98915C28.4432 8.45329 29.0085 8.07714 29.5741 8.07714C30.3133 8.07714 30.8354 8.65584 30.8354 9.49528V13.9967H32.9374V8.98915C33.169 8.45329 33.7635 8.07714 34.359 8.07714C35.0977 8.07714 35.5904 8.65584 35.5904 9.49528V13.9967H37.6921V9.10444C37.6921 7.3107 36.533 6.16715 34.735 6.16715C33.7924 6.16715 33.0243 6.51398 32.4007 7.28129C31.9081 6.54329 31.1688 6.16715 30.2408 6.16715C29.3133 6.16715 28.5157 6.558 28.0377 7.22386V6.36928H26.0657V13.9967ZM42.6656 14.2139C44.9999 14.2139 46.6961 12.5199 46.6961 10.1906C46.6961 7.84528 45.0146 6.16715 42.6656 6.16715C40.3455 6.16715 38.6348 7.87459 38.6348 10.1906C38.6348 12.506 40.3455 14.2139 42.6656 14.2139ZM42.6656 12.2892C41.5209 12.2892 40.7376 11.4346 40.7376 10.1906C40.7376 8.946 41.5209 8.09185 42.6656 8.09185C43.8397 8.09185 44.594 8.91659 44.594 10.1906C44.594 11.4346 43.8112 12.2892 42.6656 12.2892Z" fill="white"/>
<path fill-rule="evenodd" clip-rule="evenodd" d="M69.9221 9.35059C69.7557 8.47551 69.1204 7.94715 68.2406 7.94715C67.3559 7.94715 66.6799 8.49021 66.4166 9.35059H69.9221ZM64.297 10.1906C64.297 7.87459 65.9931 6.18186 68.2839 6.18186C70.5168 6.18186 71.981 7.74459 71.981 10.1611C71.981 10.422 71.981 10.682 71.9517 10.8853H66.3789C66.6128 11.828 67.337 12.4046 68.3426 12.4046C69.0961 12.4046 69.6902 12.0867 70.0668 11.4933L71.5315 12.6653C70.8937 13.6206 69.7335 14.2139 68.356 14.2139C66.0224 14.2139 64.297 12.4913 64.297 10.1906ZM82.1146 11.8686C81.7518 12.1006 81.3889 12.2167 80.9692 12.2167C80.3026 12.2167 79.9118 11.8552 79.9118 11.2472V8.23656H82.5064V6.36928H79.9118V4.53185H77.7649V6.36928H76.3158V8.23656H77.7649V11.4346C77.7649 13.1426 78.8964 14.2139 80.6944 14.2139C81.521 14.2139 82.2316 14.0113 82.8681 13.5912L82.1146 11.8686ZM58.9037 6.36928L60.6544 10.8782L62.0788 6.36928H64.2102L61.7308 13.9958H59.614L57.8261 9.22402L56.0762 13.9958H53.9595L51.4525 6.36928H53.6988L55.116 10.895L56.8595 6.36928H58.9037ZM75.1565 11.4212C75.1565 11.9559 75.3883 12.2167 75.866 12.2167C76.071 12.2146 76.2739 12.1706 76.4607 12.0867L76.7215 13.8373C76.3448 14.0113 75.881 14.0973 75.3883 14.0973C73.9086 14.0973 73.0104 13.2147 73.0104 11.724V3.88058H75.1565V11.4212Z" fill="#232930"/>
<path d="M0.459222 34.2219H3.96051V47.6367H0.459222V34.2219ZM0 30.2614C0 29.0349 0.970722 28.0126 2.24845 28.0126C3.47498 28.0126 4.47083 29.0349 4.47083 30.2614C4.47083 31.4364 3.47498 32.4071 2.24845 32.4071C0.970722 32.4071 0 31.4628 0 30.2614Z" fill="white"/>
<path d="M27.2628 38.9752V47.6367H23.7616V39.5879C23.7616 38.054 22.8424 37.0322 21.4629 37.0322C20.3642 37.0322 19.2907 37.7483 18.8555 38.7454V47.6367H15.355V39.5879C15.355 38.0808 14.4359 37.0322 13.0299 37.0322C12.0081 37.0322 10.9346 37.7483 10.4243 38.7454V47.6367H6.92303V34.2219H10.2448V35.7557C11.1652 34.5288 12.5188 33.8387 14.129 33.8387C15.7643 33.8387 17.0672 34.5288 17.9359 35.8321C19.0597 34.4773 20.4141 33.8387 22.101 33.8387C25.2187 33.8387 27.2628 35.8567 27.2628 38.9752Z" fill="white"/>
<path d="M50.3065 38.9752V47.6367H46.8065V39.5879C46.8065 38.054 45.886 37.0322 44.5065 37.0322C43.4078 37.0322 42.3343 37.7483 41.9003 38.7454V47.6367H38.3999V39.5879C38.3999 38.0808 37.4795 37.0322 36.0735 37.0322C35.0517 37.0322 33.9794 37.7483 33.4679 38.7454V47.6367H29.9674V34.2219H33.2897V35.7557C34.2088 34.5288 35.5632 33.8387 37.1734 33.8387C38.8088 33.8387 40.112 34.5288 40.9795 35.8321C42.1046 34.4773 43.459 33.8387 45.1459 33.8387C48.2623 33.8387 50.3065 35.8567 50.3065 38.9752Z" fill="white"/>
<path d="M62.5429 40.9434C62.5429 38.5668 61.2402 37.0589 59.1444 37.0589C57.1002 37.0589 55.771 38.5914 55.771 40.9434C55.771 43.2685 57.1258 44.8003 59.1444 44.8003C61.2141 44.8003 62.5429 43.2933 62.5429 40.9434ZM52.2457 40.9434C52.2457 36.7514 55.0816 33.8394 59.1444 33.8394C63.2583 33.8394 66.0435 36.7267 66.0435 40.9434C66.0435 45.1085 63.2332 47.9951 59.1444 47.9951C55.0816 47.9951 52.2457 45.1085 52.2457 40.9434Z" fill="white"/>
<path d="M86.8153 34.2219L82.88 47.6367H79.4814L76.6958 39.0511L73.8855 47.6367H70.4623L66.4502 34.2219H70.0785L72.3534 42.7827L75.2649 34.2219H78.2555L81.1421 42.8074L83.4167 34.2219H86.8153Z" fill="white"/>
<path d="M90.6711 39.4095H96.9057C96.6491 37.6458 95.5768 36.6755 93.8646 36.6755C92.2555 36.6755 91.0801 37.6975 90.6711 39.4095ZM100.201 41.9653H90.6195C90.9523 43.9063 92.1782 45.0313 94.0943 45.0313C95.346 45.0313 96.3947 44.4431 97.0581 43.4211L99.5625 45.1332C98.489 46.9224 96.4452 47.9951 93.9666 47.9951C90.1086 47.9951 87.2468 45.0053 87.2468 40.9165C87.2468 36.8546 90.0828 33.8394 93.9151 33.8394C97.7741 33.8394 100.277 36.5732 100.277 40.7384C100.277 41.1216 100.253 41.6583 100.201 41.9653Z" fill="white"/>
<path d="M106.484 47.8408C103.981 47.8408 102.473 46.3078 102.473 43.8044V28.4982H105.974V43.344C105.974 44.1865 106.383 44.5957 107.252 44.5957C107.584 44.5957 107.967 44.5195 108.324 44.3659L108.785 47.3813C108.12 47.6613 107.354 47.8408 106.484 47.8408Z" fill="white"/>
<path d="M120 46.9224C118.85 47.6621 117.599 47.9951 116.244 47.9951C113.152 47.9951 111.262 46.1819 111.262 43.2429V37.2882H108.604V34.2226H111.262V30.4152H114.762V34.2226H119.336V37.2882H114.762V42.9616C114.762 44.2141 115.401 44.8003 116.704 44.8003C117.394 44.8003 118.008 44.6221 118.646 44.2141L120 46.9224Z" fill="white"/>
<path d="M7.48573 65.8623C9.35171 65.8623 10.3476 64.8144 10.3476 63.1786C10.3476 61.4673 9.35171 60.42 7.48573 60.42H4.31775V65.8623H7.48573ZM0.715027 57.1748H7.86938C11.5237 57.1748 13.9005 59.705 13.9005 63.1292C13.9005 66.6287 11.4978 69.0826 7.86938 69.0826H4.31775V75.5469H0.715027V57.1748Z" fill="white"/>
<path d="M22.9677 71.6112V69.7986L20.1059 70.2569C18.7779 70.4619 18.2412 70.9211 18.2412 71.7144C18.2412 72.6088 19.0078 73.1455 20.2854 73.1455C21.4868 73.1455 22.431 72.582 22.9677 71.6112ZM26.443 66.782V75.5466H23.1988V74.0643C22.4063 75.2912 21.1283 75.9043 19.4928 75.9043C16.7078 75.9043 14.7914 74.2949 14.7914 71.9698C14.7914 69.747 16.197 68.3158 18.8798 67.9071L22.9677 67.2672V66.9858C22.9677 65.6067 22.0486 64.7638 20.5915 64.7638C19.2887 64.7638 18.1901 65.4788 17.5766 66.6285L15.1495 64.9173C16.1203 62.9239 18.1385 61.7486 20.8221 61.7486C24.271 61.7486 26.443 63.6903 26.443 66.782Z" fill="white"/>
<path d="M29.1497 62.132H32.472V63.8949C33.647 62.4389 35.0265 61.8767 37.3005 62.0041V65.3771C35.0781 65.3008 33.4679 65.991 32.6503 67.3706V75.5469H29.1497V62.132Z" fill="white"/>
<path d="M49.103 74.8316C47.9541 75.5713 46.7011 75.9043 45.3472 75.9043C42.2555 75.9043 40.3644 74.0911 40.3644 71.1521V65.1973H37.7072V62.1318H40.3644V58.3243H43.8657V62.1318H48.4396V65.1973H43.8657V70.8708C43.8657 72.1237 44.5039 72.7095 45.8072 72.7095C46.497 72.7095 47.1105 72.5313 47.7499 72.1237L49.103 74.8316Z" fill="white"/>
<path d="M50.405 62.132H53.7268V63.6659C54.6975 62.4134 56.0523 61.7488 57.7124 61.7488C60.7537 61.7488 62.7715 63.8701 62.7715 67.0644V75.5469H59.2715V67.6519C59.2715 66.0158 58.2748 64.9423 56.7417 64.9423C55.5668 64.9423 54.4673 65.6069 53.9054 66.6556V75.5469H50.405V62.132Z" fill="white"/>
<path d="M68.1623 67.3187H74.3962C74.1404 65.555 73.0678 64.5847 71.3549 64.5847C69.746 64.5847 68.5711 65.6067 68.1623 67.3187ZM77.692 69.8745H68.1106C68.4428 71.8155 69.6697 72.9405 71.5859 72.9405C72.8377 72.9405 73.8855 72.3522 74.5493 71.3303L77.0533 73.0424C75.9798 74.8316 73.9363 75.9043 71.4577 75.9043C67.5991 75.9043 64.7373 72.9145 64.7373 68.8257C64.7373 64.7638 67.5739 61.7486 71.4066 61.7486C75.2649 61.7486 77.7682 64.4824 77.7682 68.6475C77.7682 69.0308 77.7435 69.5675 77.692 69.8745Z" fill="white"/>
<path d="M79.9634 62.132H83.2857V63.8949C84.4612 62.4389 85.8416 61.8767 88.1152 62.0041V65.3771C85.8931 65.3008 84.283 65.991 83.465 67.3706V75.5469H79.9634V62.132Z" fill="white"/>
</svg>
