<svg width="65" height="72" viewBox="0 0 65 72" fill="none" xmlns="http://www.w3.org/2000/svg">
<path d="M40.625 55.5C37.4054 55.5032 34.2471 54.5254 31.4956 52.6734C28.7441 50.8215 26.5056 48.1668 25.025 45H40.625V39H23.2375C23.1021 38.01 23.0208 37.02 23.0208 36C23.0208 34.98 23.1021 33.99 23.2375 33H40.625V27H25.025C26.5082 23.8355 28.7474 21.1829 31.4982 19.3314C34.2491 17.4798 37.4061 16.5004 40.625 16.5C44.9854 16.5 48.9937 18.27 52.0812 21.21L56.875 15.9C52.4155 11.4524 46.6258 8.99399 40.625 9C30.0083 9 21.0167 16.53 17.6583 27H8.125V33H16.4125C16.1932 34.9926 16.1932 37.0074 16.4125 39H8.125V45H17.6583C21.0167 55.47 30.0083 63 40.625 63C46.8812 63 52.5687 60.39 56.875 56.1L52.0542 50.79C48.9937 53.73 45.0125 55.5 40.625 55.5Z" fill="white"/>
</svg>
