<svg width="155" height="33" viewBox="0 0 155 33" fill="none" xmlns="http://www.w3.org/2000/svg">
<path d="M6.14 2.6H4.1V8H2.15V2.6H0.1V0.9H6.14V2.6ZM8.47039 8.1C8.01039 8.1 7.60039 8.03 7.24039 7.89C6.88039 7.74333 6.57706 7.54667 6.33039 7.3C6.09039 7.05333 5.90706 6.77 5.78039 6.45C5.65372 6.13 5.59039 5.79333 5.59039 5.44C5.59039 4.93333 5.70039 4.47 5.92039 4.05C6.14039 3.62333 6.46372 3.28333 6.89039 3.03C7.31706 2.77 7.84372 2.64 8.47039 2.64C9.09706 2.64 9.62372 2.76667 10.0504 3.02C10.4771 3.27333 10.8004 3.60667 11.0204 4.02C11.2404 4.43333 11.3504 4.88333 11.3504 5.37C11.3504 5.47 11.3437 5.57333 11.3304 5.68C11.3237 5.78 11.3137 5.87 11.3004 5.95H7.61039C7.62372 6.13667 7.67372 6.29 7.76039 6.41C7.85372 6.52333 7.96706 6.60667 8.10039 6.66C8.24039 6.71333 8.38372 6.74 8.53039 6.74C8.73706 6.74 8.93039 6.69333 9.11039 6.6C9.29706 6.50667 9.42039 6.37667 9.48039 6.21L11.0904 6.67C10.9504 6.95 10.7537 7.19667 10.5004 7.41C10.2537 7.62333 9.96039 7.79333 9.62039 7.92C9.28039 8.04 8.89706 8.1 8.47039 8.1ZM7.57039 4.81H9.31039C9.29039 4.63667 9.24039 4.49 9.16039 4.37C9.08706 4.25 8.98706 4.15667 8.86039 4.09C8.74039 4.02333 8.60039 3.99 8.44039 3.99C8.28039 3.99 8.13706 4.02333 8.01039 4.09C7.89039 4.15667 7.79039 4.25 7.71039 4.37C7.63706 4.49 7.59039 4.63667 7.57039 4.81ZM11.9341 0.7H13.8341V5.91C13.8341 6.10333 13.8741 6.25333 13.9541 6.36C14.0408 6.46 14.1641 6.51 14.3241 6.51C14.4041 6.51 14.4908 6.49667 14.5841 6.47C14.6775 6.44333 14.7641 6.40667 14.8441 6.36L15.0841 7.76C14.8575 7.86667 14.6008 7.95 14.3141 8.01C14.0341 8.07 13.7675 8.1 13.5141 8.1C13.0075 8.1 12.6175 7.97 12.3441 7.71C12.0708 7.44333 11.9341 7.06667 11.9341 6.58V0.7ZM18.1188 8.1C17.6588 8.1 17.2488 8.03 16.8888 7.89C16.5288 7.74333 16.2255 7.54667 15.9788 7.3C15.7388 7.05333 15.5555 6.77 15.4288 6.45C15.3022 6.13 15.2388 5.79333 15.2388 5.44C15.2388 4.93333 15.3488 4.47 15.5688 4.05C15.7888 3.62333 16.1122 3.28333 16.5388 3.03C16.9655 2.77 17.4922 2.64 18.1188 2.64C18.7455 2.64 19.2722 2.76667 19.6988 3.02C20.1255 3.27333 20.4488 3.60667 20.6688 4.02C20.8888 4.43333 20.9988 4.88333 20.9988 5.37C20.9988 5.47 20.9922 5.57333 20.9788 5.68C20.9722 5.78 20.9622 5.87 20.9488 5.95H17.2588C17.2722 6.13667 17.3222 6.29 17.4088 6.41C17.5022 6.52333 17.6155 6.60667 17.7488 6.66C17.8888 6.71333 18.0322 6.74 18.1788 6.74C18.3855 6.74 18.5788 6.69333 18.7588 6.6C18.9455 6.50667 19.0688 6.37667 19.1288 6.21L20.7388 6.67C20.5988 6.95 20.4022 7.19667 20.1488 7.41C19.9022 7.62333 19.6088 7.79333 19.2688 7.92C18.9288 8.04 18.5455 8.1 18.1188 8.1ZM17.2188 4.81H18.9588C18.9388 4.63667 18.8888 4.49 18.8088 4.37C18.7355 4.25 18.6355 4.15667 18.5088 4.09C18.3888 4.02333 18.2488 3.99 18.0888 3.99C17.9288 3.99 17.7855 4.02333 17.6588 4.09C17.5388 4.15667 17.4388 4.25 17.3588 4.37C17.2855 4.49 17.2388 4.63667 17.2188 4.81ZM21.9926 8V4.78H21.3426V3.35H21.9926V2.78C21.9926 2.34 22.0726 1.95667 22.2326 1.63C22.3926 1.30333 22.6159 1.05 22.9026 0.869999C23.1959 0.69 23.5359 0.6 23.9226 0.6C24.1492 0.6 24.3826 0.626666 24.6226 0.679999C24.8626 0.726666 25.1159 0.8 25.3826 0.9L25.0626 2.34C24.9559 2.3 24.8359 2.26667 24.7026 2.24C24.5692 2.21333 24.4526 2.2 24.3526 2.2C24.1992 2.2 24.0826 2.24333 24.0026 2.33C23.9292 2.41 23.8926 2.53667 23.8926 2.71V3.35H25.0426V4.78H23.8926V8H21.9926ZM28.236 8.1C27.7693 8.1 27.356 8.02667 26.996 7.88C26.636 7.73333 26.3327 7.53333 26.086 7.28C25.846 7.02 25.6627 6.72667 25.536 6.4C25.416 6.07333 25.356 5.73 25.356 5.37C25.356 5.01 25.416 4.66667 25.536 4.34C25.6627 4.00667 25.846 3.71333 26.086 3.46C26.3327 3.20667 26.636 3.00667 26.996 2.86C27.356 2.71333 27.7693 2.64 28.236 2.64C28.7093 2.64 29.1227 2.71333 29.476 2.86C29.836 3.00667 30.136 3.20667 30.376 3.46C30.6227 3.71333 30.806 4.00667 30.926 4.34C31.0527 4.66667 31.116 5.01 31.116 5.37C31.116 5.73 31.0527 6.07333 30.926 6.4C30.806 6.72667 30.6227 7.02 30.376 7.28C30.136 7.53333 29.836 7.73333 29.476 7.88C29.1227 8.02667 28.7093 8.1 28.236 8.1ZM27.306 5.37C27.306 5.60333 27.346 5.80667 27.426 5.98C27.506 6.14667 27.616 6.27667 27.756 6.37C27.896 6.45667 28.056 6.5 28.236 6.5C28.416 6.5 28.576 6.45667 28.716 6.37C28.856 6.27667 28.966 6.14667 29.046 5.98C29.126 5.80667 29.166 5.60333 29.166 5.37C29.166 5.13667 29.126 4.93667 29.046 4.77C28.966 4.59667 28.856 4.46667 28.716 4.38C28.576 4.28667 28.416 4.24 28.236 4.24C28.056 4.24 27.896 4.28667 27.756 4.38C27.616 4.46667 27.506 4.59667 27.426 4.77C27.346 4.93667 27.306 5.13667 27.306 5.37ZM37.0786 8H35.1786V5.04C35.1786 4.78 35.1186 4.59333 34.9986 4.48C34.8853 4.36 34.7519 4.3 34.5986 4.3C34.4919 4.3 34.3786 4.33333 34.2586 4.4C34.1386 4.46 34.0286 4.54667 33.9286 4.66C33.8286 4.77333 33.7486 4.90333 33.6886 5.05V8H31.7886V2.74H33.4986V3.52C33.6253 3.32667 33.7853 3.16667 33.9786 3.04C34.1719 2.90667 34.3953 2.80667 34.6486 2.74C34.9019 2.67333 35.1786 2.64 35.4786 2.64C35.8386 2.64 36.1253 2.70333 36.3386 2.83C36.5519 2.95667 36.7119 3.12 36.8186 3.32C36.9253 3.52 36.9953 3.73 37.0286 3.95C37.0619 4.16333 37.0786 4.36 37.0786 4.54V8ZM47.6117 5.07C47.6117 5.65667 47.5017 6.18 47.2817 6.64C47.0617 7.09333 46.7617 7.45 46.3817 7.71C46.0017 7.97 45.5684 8.1 45.0817 8.1C44.5951 8.1 44.1617 7.97 43.7817 7.71C43.4017 7.45 43.1017 7.09333 42.8817 6.64C42.6617 6.18 42.5517 5.65667 42.5517 5.07C42.5517 4.48333 42.6617 3.96333 42.8817 3.51C43.1017 3.05 43.4017 2.69 43.7817 2.43C44.1617 2.16333 44.5951 2.03 45.0817 2.03C45.5684 2.03 46.0017 2.16333 46.3817 2.43C46.7617 2.69 47.0617 3.05 47.2817 3.51C47.5017 3.96333 47.6117 4.48333 47.6117 5.07ZM46.7217 5.07C46.7217 4.63 46.6517 4.24333 46.5117 3.91C46.3717 3.57667 46.1784 3.31667 45.9317 3.13C45.6851 2.94333 45.4017 2.85 45.0817 2.85C44.7551 2.85 44.4684 2.94333 44.2217 3.13C43.9751 3.31667 43.7817 3.57667 43.6417 3.91C43.5017 4.24333 43.4317 4.63 43.4317 5.07C43.4317 5.51 43.5017 5.89667 43.6417 6.23C43.7817 6.55667 43.9751 6.81333 44.2217 7C44.4684 7.18667 44.7551 7.28 45.0817 7.28C45.4017 7.28 45.6851 7.18667 45.9317 7C46.1784 6.81333 46.3717 6.55667 46.5117 6.23C46.6517 5.89667 46.7217 5.51 46.7217 5.07ZM51.6043 9.27V7.58H48.3943V6.8L51.8843 2.29H52.4843V6.78H53.3643V7.58H52.4843V9.27H51.6043ZM49.3043 6.78H51.6943V3.65L49.3043 6.78ZM54.1605 8C54.1605 7.73333 54.1805 7.48333 54.2205 7.25C54.2671 7.01667 54.3471 6.79333 54.4605 6.58C54.5805 6.36667 54.7471 6.16333 54.9605 5.97C55.1738 5.77 55.4505 5.57667 55.7905 5.39C55.9905 5.27667 56.1905 5.17 56.3905 5.07C56.5971 4.97 56.7871 4.86333 56.9605 4.75C57.1405 4.63667 57.2838 4.51333 57.3905 4.38C57.4971 4.24 57.5505 4.08 57.5505 3.9C57.5505 3.74667 57.5038 3.6 57.4105 3.46C57.3238 3.31333 57.1905 3.19667 57.0105 3.11C56.8371 3.01667 56.6205 2.97 56.3605 2.97C56.1605 2.97 55.9771 2.99667 55.8105 3.05C55.6505 3.10333 55.5038 3.17333 55.3705 3.26C55.2438 3.34 55.1305 3.42667 55.0305 3.52C54.9371 3.60667 54.8571 3.68667 54.7905 3.76L54.2405 3.14C54.2938 3.08 54.3838 3 54.5105 2.9C54.6371 2.79333 54.7971 2.68667 54.9905 2.58C55.1838 2.47333 55.4071 2.38333 55.6605 2.31C55.9205 2.23 56.2038 2.19 56.5105 2.19C56.9238 2.19 57.2771 2.26333 57.5705 2.41C57.8705 2.55 58.1005 2.74333 58.2605 2.99C58.4205 3.23 58.5005 3.5 58.5005 3.8C58.5005 4.06 58.4438 4.28667 58.3305 4.48C58.2238 4.67333 58.0838 4.84333 57.9105 4.99C57.7438 5.13667 57.5671 5.26333 57.3805 5.37C57.2005 5.47 57.0371 5.55667 56.8905 5.63C56.5905 5.77667 56.3338 5.91 56.1205 6.03C55.9071 6.15 55.7305 6.27 55.5905 6.39C55.4571 6.50333 55.3471 6.62333 55.2605 6.75C55.1805 6.87667 55.1205 7.02667 55.0805 7.2H58.6105V8H54.1605ZM63.342 7.2V8H59.752V7.2H61.172V3.3C61.112 3.38 61.0187 3.46667 60.892 3.56C60.7654 3.64667 60.622 3.73 60.462 3.81C60.302 3.89 60.142 3.95667 59.982 4.01C59.822 4.05667 59.6754 4.08 59.542 4.08V3.24C59.6887 3.24 59.8487 3.2 60.022 3.12C60.202 3.03333 60.3754 2.93333 60.542 2.82C60.7087 2.70667 60.8487 2.6 60.962 2.5C61.082 2.4 61.152 2.33 61.172 2.29H62.072V7.2H63.342ZM69.634 0.9L64.834 8H63.854L68.644 0.9H69.634ZM76.0214 5.64C76.3081 5.68667 76.5547 5.79333 76.7614 5.96C76.9681 6.12 77.1281 6.32667 77.2414 6.58C77.3547 6.82667 77.4114 7.10667 77.4114 7.42C77.4114 7.82667 77.3114 8.18333 77.1114 8.49C76.9181 8.80333 76.6414 9.04333 76.2814 9.21C75.9214 9.38333 75.5014 9.47 75.0214 9.47C74.5147 9.47 74.0681 9.37333 73.6814 9.18C73.3014 8.99333 73.0047 8.72667 72.7914 8.38L73.3814 7.79C73.5347 8.05667 73.7414 8.27 74.0014 8.43C74.2681 8.59 74.6081 8.67 75.0214 8.67C75.4814 8.67 75.8414 8.56333 76.1014 8.35C76.3681 8.14333 76.5014 7.83333 76.5014 7.42C76.5014 7 76.3581 6.66667 76.0714 6.42C75.7914 6.16667 75.3814 6.04 74.8414 6.04H74.5814V5.3H74.8614C75.3414 5.3 75.7081 5.18333 75.9614 4.95C76.2214 4.71667 76.3514 4.42667 76.3514 4.08C76.3514 3.84 76.2947 3.64333 76.1814 3.49C76.0681 3.33667 75.9147 3.22333 75.7214 3.15C75.5281 3.07 75.3047 3.03 75.0514 3.03C74.6847 3.03 74.3614 3.11 74.0814 3.27C73.8081 3.42333 73.5947 3.64 73.4414 3.92L72.9014 3.36C73.0214 3.13333 73.1914 2.93667 73.4114 2.77C73.6381 2.60333 73.8981 2.47333 74.1914 2.38C74.4914 2.28667 74.8081 2.24 75.1414 2.24C75.5614 2.24 75.9314 2.31333 76.2514 2.46C76.5781 2.60667 76.8314 2.81333 77.0114 3.08C77.1914 3.34667 77.2814 3.66 77.2814 4.02C77.2814 4.28 77.2314 4.52667 77.1314 4.76C77.0314 4.98667 76.8847 5.18 76.6914 5.34C76.5047 5.49333 76.2814 5.59333 76.0214 5.64ZM83.3318 5.99C83.3318 6.41 83.2151 6.77667 82.9818 7.09C82.7551 7.40333 82.4485 7.64667 82.0618 7.82C81.6818 7.99333 81.2651 8.08 80.8118 8.08C80.3385 8.08 79.9151 7.98667 79.5418 7.8C79.1685 7.60667 78.8718 7.35 78.6518 7.03C78.4385 6.71 78.3318 6.35 78.3318 5.95C78.3318 5.65667 78.3985 5.39333 78.5318 5.16C78.6651 4.92667 78.8318 4.73 79.0318 4.57C79.2385 4.40333 79.4485 4.28 79.6618 4.2C79.4685 4.11333 79.2885 4 79.1218 3.86C78.9551 3.72 78.8218 3.55667 78.7218 3.37C78.6218 3.18333 78.5718 2.98 78.5718 2.76C78.5718 2.46 78.6385 2.19667 78.7718 1.97C78.9051 1.73667 79.0818 1.54 79.3018 1.38C79.5218 1.22 79.7651 1.1 80.0318 1.02C80.2985 0.94 80.5651 0.9 80.8318 0.9C81.0985 0.9 81.3651 0.94 81.6318 1.02C81.8985 1.1 82.1418 1.22 82.3618 1.38C82.5885 1.53333 82.7685 1.72667 82.9018 1.96C83.0351 2.18667 83.1018 2.45 83.1018 2.75C83.1018 2.97 83.0518 3.17667 82.9518 3.37C82.8518 3.55667 82.7151 3.72 82.5418 3.86C82.3751 4 82.1918 4.11333 81.9918 4.2C82.2318 4.29333 82.4518 4.42667 82.6518 4.6C82.8585 4.76667 83.0218 4.96667 83.1418 5.2C83.2685 5.43333 83.3318 5.69667 83.3318 5.99ZM82.4418 5.93C82.4418 5.71667 82.3951 5.52667 82.3018 5.36C82.2085 5.18667 82.0818 5.04333 81.9218 4.93C81.7618 4.81 81.5851 4.72 81.3918 4.66C81.2051 4.6 81.0151 4.57 80.8218 4.57C80.5551 4.57 80.2985 4.62667 80.0518 4.74C79.8118 4.85333 79.6151 5.01333 79.4618 5.22C79.3085 5.42 79.2318 5.66 79.2318 5.94C79.2318 6.14667 79.2785 6.33333 79.3718 6.5C79.4651 6.66667 79.5885 6.81 79.7418 6.93C79.9018 7.05 80.0751 7.14 80.2618 7.2C80.4551 7.26 80.6485 7.29 80.8418 7.29C81.1085 7.29 81.3618 7.23333 81.6018 7.12C81.8485 7.00667 82.0485 6.84667 82.2018 6.64C82.3618 6.43333 82.4418 6.19667 82.4418 5.93ZM79.4618 2.79C79.4618 3.02333 79.5318 3.22333 79.6718 3.39C79.8118 3.55667 79.9885 3.68333 80.2018 3.77C80.4151 3.85 80.6251 3.89 80.8318 3.89C81.0451 3.89 81.2551 3.84667 81.4618 3.76C81.6751 3.67333 81.8518 3.54667 81.9918 3.38C82.1318 3.21333 82.2018 3.01 82.2018 2.77C82.2018 2.54333 82.1351 2.35 82.0018 2.19C81.8751 2.03 81.7051 1.90667 81.4918 1.82C81.2851 1.73333 81.0618 1.69 80.8218 1.69C80.5885 1.69 80.3651 1.73667 80.1518 1.83C79.9451 1.91667 79.7785 2.04333 79.6518 2.21C79.5251 2.37 79.4618 2.56333 79.4618 2.79ZM91.8377 5.99C91.8377 6.41 91.721 6.77667 91.4877 7.09C91.261 7.40333 90.9543 7.64667 90.5677 7.82C90.1877 7.99333 89.771 8.08 89.3177 8.08C88.8443 8.08 88.421 7.98667 88.0477 7.8C87.6743 7.60667 87.3777 7.35 87.1577 7.03C86.9443 6.71 86.8377 6.35 86.8377 5.95C86.8377 5.65667 86.9043 5.39333 87.0377 5.16C87.171 4.92667 87.3377 4.73 87.5377 4.57C87.7443 4.40333 87.9543 4.28 88.1677 4.2C87.9743 4.11333 87.7943 4 87.6277 3.86C87.461 3.72 87.3277 3.55667 87.2277 3.37C87.1277 3.18333 87.0777 2.98 87.0777 2.76C87.0777 2.46 87.1443 2.19667 87.2777 1.97C87.411 1.73667 87.5877 1.54 87.8077 1.38C88.0277 1.22 88.271 1.1 88.5377 1.02C88.8043 0.94 89.071 0.9 89.3377 0.9C89.6043 0.9 89.871 0.94 90.1377 1.02C90.4043 1.1 90.6477 1.22 90.8677 1.38C91.0943 1.53333 91.2743 1.72667 91.4077 1.96C91.541 2.18667 91.6077 2.45 91.6077 2.75C91.6077 2.97 91.5577 3.17667 91.4577 3.37C91.3577 3.55667 91.221 3.72 91.0477 3.86C90.881 4 90.6977 4.11333 90.4977 4.2C90.7377 4.29333 90.9577 4.42667 91.1577 4.6C91.3643 4.76667 91.5277 4.96667 91.6477 5.2C91.7743 5.43333 91.8377 5.69667 91.8377 5.99ZM90.9477 5.93C90.9477 5.71667 90.901 5.52667 90.8077 5.36C90.7143 5.18667 90.5877 5.04333 90.4277 4.93C90.2677 4.81 90.091 4.72 89.8977 4.66C89.711 4.6 89.521 4.57 89.3277 4.57C89.061 4.57 88.8043 4.62667 88.5577 4.74C88.3177 4.85333 88.121 5.01333 87.9677 5.22C87.8143 5.42 87.7377 5.66 87.7377 5.94C87.7377 6.14667 87.7843 6.33333 87.8777 6.5C87.971 6.66667 88.0943 6.81 88.2477 6.93C88.4077 7.05 88.581 7.14 88.7677 7.2C88.961 7.26 89.1543 7.29 89.3477 7.29C89.6143 7.29 89.8677 7.23333 90.1077 7.12C90.3543 7.00667 90.5543 6.84667 90.7077 6.64C90.8677 6.43333 90.9477 6.19667 90.9477 5.93ZM87.9677 2.79C87.9677 3.02333 88.0377 3.22333 88.1777 3.39C88.3177 3.55667 88.4943 3.68333 88.7077 3.77C88.921 3.85 89.131 3.89 89.3377 3.89C89.551 3.89 89.761 3.84667 89.9677 3.76C90.181 3.67333 90.3577 3.54667 90.4977 3.38C90.6377 3.21333 90.7077 3.01 90.7077 2.77C90.7077 2.54333 90.641 2.35 90.5077 2.19C90.381 2.03 90.211 1.90667 89.9977 1.82C89.791 1.73333 89.5677 1.69 89.3277 1.69C89.0943 1.69 88.871 1.73667 88.6577 1.83C88.451 1.91667 88.2843 2.04333 88.1577 2.21C88.031 2.37 87.9677 2.56333 87.9677 2.79ZM96.2442 2.98H92.5942V2.17H97.6342L94.0642 9.27H93.0642L96.2442 2.98ZM100.635 8C100.635 7.73333 100.655 7.48333 100.695 7.25C100.742 7.01667 100.822 6.79333 100.935 6.58C101.055 6.36667 101.222 6.16333 101.435 5.97C101.648 5.77 101.925 5.57667 102.265 5.39C102.465 5.27667 102.665 5.17 102.865 5.07C103.072 4.97 103.262 4.86333 103.435 4.75C103.615 4.63667 103.758 4.51333 103.865 4.38C103.972 4.24 104.025 4.08 104.025 3.9C104.025 3.74667 103.978 3.6 103.885 3.46C103.798 3.31333 103.665 3.19667 103.485 3.11C103.312 3.01667 103.095 2.97 102.835 2.97C102.635 2.97 102.452 2.99667 102.285 3.05C102.125 3.10333 101.978 3.17333 101.845 3.26C101.718 3.34 101.605 3.42667 101.505 3.52C101.412 3.60667 101.332 3.68667 101.265 3.76L100.715 3.14C100.768 3.08 100.858 3 100.985 2.9C101.112 2.79333 101.272 2.68667 101.465 2.58C101.658 2.47333 101.882 2.38333 102.135 2.31C102.395 2.23 102.678 2.19 102.985 2.19C103.398 2.19 103.752 2.26333 104.045 2.41C104.345 2.55 104.575 2.74333 104.735 2.99C104.895 3.23 104.975 3.5 104.975 3.8C104.975 4.06 104.918 4.28667 104.805 4.48C104.698 4.67333 104.558 4.84333 104.385 4.99C104.218 5.13667 104.042 5.26333 103.855 5.37C103.675 5.47 103.512 5.55667 103.365 5.63C103.065 5.77667 102.808 5.91 102.595 6.03C102.382 6.15 102.205 6.27 102.065 6.39C101.932 6.50333 101.822 6.62333 101.735 6.75C101.655 6.87667 101.595 7.02667 101.555 7.2H105.085V8H100.635ZM109.007 9.27V7.58H105.797V6.8L109.287 2.29H109.887V6.78H110.767V7.58H109.887V9.27H109.007ZM106.707 6.78H109.097V3.65L106.707 6.78ZM115.053 2.98H111.403V2.17H116.443L112.873 9.27H111.873L115.053 2.98ZM116.87 5.67V4.87H119.82V5.67H116.87ZM126.059 5.07C126.059 5.65667 125.949 6.18 125.729 6.64C125.509 7.09333 125.209 7.45 124.829 7.71C124.449 7.97 124.016 8.1 123.529 8.1C123.042 8.1 122.609 7.97 122.229 7.71C121.849 7.45 121.549 7.09333 121.329 6.64C121.109 6.18 120.999 5.65667 120.999 5.07C120.999 4.48333 121.109 3.96333 121.329 3.51C121.549 3.05 121.849 2.69 122.229 2.43C122.609 2.16333 123.042 2.03 123.529 2.03C124.016 2.03 124.449 2.16333 124.829 2.43C125.209 2.69 125.509 3.05 125.729 3.51C125.949 3.96333 126.059 4.48333 126.059 5.07ZM125.169 5.07C125.169 4.63 125.099 4.24333 124.959 3.91C124.819 3.57667 124.626 3.31667 124.379 3.13C124.132 2.94333 123.849 2.85 123.529 2.85C123.202 2.85 122.916 2.94333 122.669 3.13C122.422 3.31667 122.229 3.57667 122.089 3.91C121.949 4.24333 121.879 4.63 121.879 5.07C121.879 5.51 121.949 5.89667 122.089 6.23C122.229 6.55667 122.422 6.81333 122.669 7C122.916 7.18667 123.202 7.28 123.529 7.28C123.849 7.28 124.132 7.18667 124.379 7C124.626 6.81333 124.819 6.55667 124.959 6.23C125.099 5.89667 125.169 5.51 125.169 5.07ZM131.622 2.39C131.542 2.29667 131.435 2.20667 131.302 2.12C131.168 2.03333 131.018 1.95667 130.852 1.89C130.685 1.81667 130.502 1.76 130.302 1.72C130.108 1.67333 129.905 1.65 129.692 1.65C129.145 1.65 128.742 1.75333 128.482 1.96C128.222 2.16667 128.092 2.45 128.092 2.81C128.092 3.06333 128.158 3.26333 128.292 3.41C128.425 3.55667 128.628 3.67667 128.902 3.77C129.182 3.86333 129.535 3.96 129.962 4.06C130.455 4.16667 130.882 4.29667 131.242 4.45C131.602 4.60333 131.878 4.81 132.072 5.07C132.265 5.32333 132.362 5.66333 132.362 6.09C132.362 6.43 132.295 6.72667 132.162 6.98C132.035 7.22667 131.855 7.43333 131.622 7.6C131.388 7.76 131.115 7.88 130.802 7.96C130.488 8.03333 130.148 8.07 129.782 8.07C129.422 8.07 129.068 8.03333 128.722 7.96C128.382 7.88 128.058 7.76667 127.752 7.62C127.445 7.47333 127.158 7.29 126.892 7.07L127.322 6.31C127.428 6.42333 127.565 6.53667 127.732 6.65C127.905 6.75667 128.098 6.85667 128.312 6.95C128.532 7.04333 128.768 7.12 129.022 7.18C129.275 7.23333 129.535 7.26 129.802 7.26C130.308 7.26 130.702 7.17 130.982 6.99C131.262 6.80333 131.402 6.53333 131.402 6.18C131.402 5.91333 131.322 5.7 131.162 5.54C131.008 5.38 130.778 5.24667 130.472 5.14C130.165 5.03333 129.792 4.92667 129.352 4.82C128.872 4.7 128.468 4.57 128.142 4.43C127.815 4.28333 127.568 4.09333 127.402 3.86C127.242 3.62667 127.162 3.32333 127.162 2.95C127.162 2.49667 127.272 2.11333 127.492 1.8C127.712 1.48667 128.015 1.25 128.402 1.09C128.788 0.93 129.225 0.85 129.712 0.85C130.032 0.85 130.328 0.883333 130.602 0.95C130.882 1.01667 131.142 1.11 131.382 1.23C131.622 1.35 131.842 1.49333 132.042 1.66L131.622 2.39ZM5.67 29.3V31H0.61V23.9H5.58V25.6H2.56V26.6H5.14V28.18H2.56V29.3H5.67ZM6.4668 29.09V27.39H9.5968V29.09H6.4668ZM16.0777 31V27.26L14.8877 29.89H13.8477L12.6577 27.26V31H10.7077V23.9H12.8377L14.3677 27.24L15.9077 23.9H18.0277V31H16.0777ZM18.7447 29.41C18.7447 29.0567 18.8414 28.7467 19.0347 28.48C19.228 28.2067 19.4947 27.9933 19.8347 27.84C20.1814 27.6867 20.5747 27.61 21.0147 27.61C21.2214 27.61 21.4147 27.6267 21.5947 27.66C21.7814 27.6933 21.9414 27.7433 22.0747 27.81V27.65C22.0747 27.4033 22.0014 27.22 21.8547 27.1C21.7147 26.98 21.4847 26.92 21.1647 26.92C20.8714 26.92 20.5947 26.97 20.3347 27.07C20.0814 27.1633 19.8147 27.3033 19.5347 27.49L18.9847 26.31C19.338 26.0833 19.708 25.9167 20.0947 25.81C20.488 25.6967 20.908 25.64 21.3547 25.64C22.188 25.64 22.8314 25.83 23.2847 26.21C23.7447 26.5833 23.9747 27.14 23.9747 27.88V28.9C23.9747 29.08 24.0014 29.2067 24.0547 29.28C24.108 29.3467 24.2014 29.3867 24.3347 29.4V31C24.1814 31.0333 24.0347 31.0567 23.8947 31.07C23.7614 31.09 23.6414 31.1 23.5347 31.1C23.1947 31.1 22.9347 31.04 22.7547 30.92C22.5814 30.7933 22.468 30.61 22.4147 30.37L22.3747 30.18C22.1414 30.48 21.8714 30.71 21.5647 30.87C21.258 31.0233 20.9314 31.1 20.5847 31.1C20.238 31.1 19.9247 31.0267 19.6447 30.88C19.3647 30.7333 19.1447 30.5333 18.9847 30.28C18.8247 30.02 18.7447 29.73 18.7447 29.41ZM21.8247 29.54C21.898 29.4867 21.958 29.43 22.0047 29.37C22.0514 29.3033 22.0747 29.2367 22.0747 29.17V28.78C21.968 28.74 21.8447 28.7067 21.7047 28.68C21.5714 28.6533 21.4514 28.64 21.3447 28.64C21.118 28.64 20.9247 28.6967 20.7647 28.81C20.6114 28.9233 20.5347 29.0667 20.5347 29.24C20.5347 29.3333 20.5614 29.42 20.6147 29.5C20.668 29.5733 20.7414 29.6333 20.8347 29.68C20.928 29.72 21.0347 29.74 21.1547 29.74C21.268 29.74 21.3847 29.7233 21.5047 29.69C21.6314 29.65 21.738 29.6 21.8247 29.54ZM25.021 31V25.74H26.921V31H25.021ZM25.021 25.3V23.7H26.921V25.3H25.021ZM27.8423 23.7H29.7423V28.91C29.7423 29.1033 29.7823 29.2533 29.8623 29.36C29.949 29.46 30.0723 29.51 30.2323 29.51C30.3123 29.51 30.399 29.4967 30.4923 29.47C30.5857 29.4433 30.6723 29.4067 30.7523 29.36L30.9923 30.76C30.7657 30.8667 30.509 30.95 30.2223 31.01C29.9423 31.07 29.6757 31.1 29.4223 31.1C28.9157 31.1 28.5257 30.97 28.2523 30.71C27.979 30.4433 27.8423 30.0667 27.8423 29.58V23.7ZM43.7959 31V25.78H44.6759V31H43.7959ZM43.7959 24.8V23.7H44.6759V24.8H43.7959ZM50.6306 31H49.7506V28.08C49.7506 27.5267 49.664 27.1233 49.4906 26.87C49.324 26.61 49.0673 26.48 48.7206 26.48C48.4806 26.48 48.2406 26.54 48.0006 26.66C47.7673 26.78 47.5573 26.9433 47.3706 27.15C47.1906 27.35 47.0606 27.5833 46.9806 27.85V31H46.1006V25.78H46.9006V26.9C47.0406 26.6533 47.2206 26.44 47.4406 26.26C47.6606 26.08 47.9106 25.94 48.1906 25.84C48.4706 25.74 48.764 25.69 49.0706 25.69C49.3706 25.69 49.6206 25.7467 49.8206 25.86C50.0273 25.9667 50.1873 26.12 50.3006 26.32C50.4206 26.5133 50.504 26.7433 50.5506 27.01C50.604 27.2767 50.6306 27.5667 50.6306 27.88V31ZM52.2302 31V26.47H51.5202V25.78H52.2302V25.67C52.2302 25.2433 52.2936 24.8767 52.4202 24.57C52.5536 24.2567 52.7402 24.0167 52.9802 23.85C53.2202 23.6833 53.5036 23.6 53.8302 23.6C54.0369 23.6 54.2402 23.63 54.4402 23.69C54.6402 23.7433 54.8202 23.82 54.9802 23.92L54.7602 24.57C54.6669 24.5033 54.5502 24.45 54.4102 24.41C54.2769 24.37 54.1436 24.35 54.0102 24.35C53.7236 24.35 53.5002 24.4633 53.3402 24.69C53.1869 24.91 53.1102 25.2267 53.1102 25.64V25.78H54.5002V26.47H53.1102V31H52.2302ZM57.531 31.1C57.1377 31.1 56.781 31.03 56.461 30.89C56.141 30.7433 55.8643 30.5467 55.631 30.3C55.3977 30.0467 55.2177 29.7567 55.091 29.43C54.9643 29.1033 54.901 28.76 54.901 28.4C54.901 28.0333 54.9643 27.6867 55.091 27.36C55.2177 27.0333 55.3977 26.7467 55.631 26.5C55.8643 26.2467 56.141 26.05 56.461 25.91C56.7877 25.7633 57.1443 25.69 57.531 25.69C57.9243 25.69 58.281 25.7633 58.601 25.91C58.921 26.05 59.1977 26.2467 59.431 26.5C59.671 26.7467 59.8543 27.0333 59.981 27.36C60.1077 27.6867 60.171 28.0333 60.171 28.4C60.171 28.76 60.1077 29.1033 59.981 29.43C59.8543 29.7567 59.6743 30.0467 59.441 30.3C59.2077 30.5467 58.9277 30.7433 58.601 30.89C58.281 31.03 57.9243 31.1 57.531 31.1ZM55.801 28.41C55.801 28.77 55.8777 29.0967 56.031 29.39C56.191 29.6833 56.401 29.9167 56.661 30.09C56.921 30.2567 57.211 30.34 57.531 30.34C57.851 30.34 58.141 30.2533 58.401 30.08C58.6677 29.9067 58.8777 29.6733 59.031 29.38C59.191 29.08 59.271 28.75 59.271 28.39C59.271 28.03 59.191 27.7033 59.031 27.41C58.8777 27.1167 58.6677 26.8833 58.401 26.71C58.141 26.5367 57.851 26.45 57.531 26.45C57.211 26.45 56.921 26.54 56.661 26.72C56.401 26.8933 56.191 27.1267 56.031 27.42C55.8777 27.7133 55.801 28.0433 55.801 28.41ZM64.7173 24.97C65.2107 24.97 65.6773 25.06 66.1173 25.24C66.5573 25.4133 66.9473 25.6667 67.2873 26C67.6273 26.3333 67.894 26.7367 68.0873 27.21C68.2873 27.6767 68.3873 28.2 68.3873 28.78C68.3873 28.8933 68.3773 29.0467 68.3573 29.24C68.344 29.4333 68.3107 29.64 68.2573 29.86C68.204 30.08 68.124 30.29 68.0173 30.49C67.9107 30.6833 67.764 30.8433 67.5773 30.97C67.3973 31.0967 67.1707 31.16 66.8973 31.16C66.6707 31.16 66.4973 31.1167 66.3773 31.03C66.2573 30.9433 66.174 30.8333 66.1273 30.7C66.0807 30.56 66.0473 30.4167 66.0273 30.27C65.8407 30.47 65.5973 30.64 65.2973 30.78C65.004 30.9133 64.6807 30.98 64.3273 30.98C63.8407 30.98 63.464 30.85 63.1973 30.59C62.9373 30.33 62.8073 30.0067 62.8073 29.62C62.8073 29.2667 62.9007 28.99 63.0873 28.79C63.274 28.59 63.5107 28.4467 63.7973 28.36C64.0907 28.2733 64.384 28.23 64.6773 28.23C64.964 28.23 65.214 28.26 65.4273 28.32C65.6407 28.3733 65.8007 28.42 65.9073 28.46C65.9073 28.1667 65.874 27.91 65.8073 27.69C65.7407 27.4633 65.6173 27.2867 65.4373 27.16C65.264 27.0333 65.0173 26.97 64.6973 26.97C64.4307 26.97 64.1807 27.0133 63.9473 27.1C63.714 27.18 63.504 27.29 63.3173 27.43L63.1173 26.94C63.3573 26.78 63.6173 26.6567 63.8973 26.57C64.1773 26.4767 64.4707 26.43 64.7773 26.43C65.1707 26.43 65.4807 26.4933 65.7073 26.62C65.934 26.74 66.1007 26.9033 66.2073 27.11C66.314 27.31 66.384 27.5333 66.4173 27.78C66.4507 28.02 66.4673 28.2567 66.4673 28.49V29.68C66.4673 29.8733 66.4773 30.05 66.4973 30.21C66.5173 30.37 66.564 30.4967 66.6373 30.59C66.7107 30.6767 66.824 30.72 66.9773 30.72C67.1773 30.72 67.3407 30.6533 67.4673 30.52C67.6007 30.38 67.7007 30.2067 67.7673 30C67.8407 29.7867 67.8907 29.57 67.9173 29.35C67.9507 29.1233 67.9673 28.9267 67.9673 28.76C67.9673 28.28 67.884 27.8367 67.7173 27.43C67.5573 27.0167 67.3307 26.6567 67.0373 26.35C66.744 26.0433 66.3973 25.8033 65.9973 25.63C65.604 25.4567 65.1707 25.37 64.6973 25.37C64.2373 25.37 63.8073 25.4533 63.4073 25.62C63.0073 25.78 62.6573 26.01 62.3573 26.31C62.064 26.61 61.8307 26.9633 61.6573 27.37C61.4907 27.7767 61.4073 28.22 61.4073 28.7C61.4073 29.1667 61.4873 29.6033 61.6473 30.01C61.8073 30.4167 62.0307 30.7733 62.3173 31.08C62.604 31.3867 62.944 31.6267 63.3373 31.8C63.7307 31.9733 64.1607 32.06 64.6273 32.06C64.9207 32.06 65.1873 32.0233 65.4273 31.95C65.674 31.8833 65.9207 31.7933 66.1673 31.68L66.3073 32.06C66.0407 32.1933 65.764 32.2933 65.4773 32.36C65.1907 32.4267 64.904 32.46 64.6173 32.46C64.1173 32.46 63.6473 32.3667 63.2073 32.18C62.774 32 62.3907 31.74 62.0573 31.4C61.724 31.0667 61.4607 30.67 61.2673 30.21C61.0807 29.75 60.9873 29.2467 60.9873 28.7C60.9873 28.1267 61.0873 27.61 61.2873 27.15C61.494 26.69 61.7707 26.3 62.1173 25.98C62.4707 25.6533 62.8707 25.4033 63.3173 25.23C63.764 25.0567 64.2307 24.97 64.7173 24.97ZM65.2873 30.24C65.4607 30.16 65.5907 30.07 65.6773 29.97C65.764 29.8633 65.8207 29.7533 65.8473 29.64C65.8807 29.52 65.8973 29.4033 65.8973 29.29V28.92C65.8107 28.9067 65.6573 28.8667 65.4373 28.8C65.224 28.7333 64.9673 28.7 64.6673 28.7C64.4407 28.7 64.2273 28.7267 64.0273 28.78C63.834 28.8333 63.6773 28.9267 63.5573 29.06C63.4373 29.1867 63.3773 29.36 63.3773 29.58C63.3773 29.7467 63.4173 29.8967 63.4973 30.03C63.584 30.1633 63.7007 30.27 63.8473 30.35C63.994 30.4233 64.1673 30.46 64.3673 30.46C64.5273 30.46 64.6873 30.44 64.8473 30.4C65.014 30.3533 65.1607 30.3 65.2873 30.24ZM74.1658 31H73.2858V28.08C73.2858 27.5467 73.1891 27.1467 72.9958 26.88C72.8091 26.6133 72.5391 26.48 72.1858 26.48C71.9591 26.48 71.7291 26.54 71.4958 26.66C71.2691 26.78 71.0691 26.9433 70.8958 27.15C70.7224 27.35 70.5958 27.5833 70.5158 27.85V31H69.6358V23.7H70.5158V26.9C70.7224 26.5267 71.0024 26.2333 71.3558 26.02C71.7158 25.8 72.1024 25.69 72.5158 25.69C72.8291 25.69 73.0891 25.7467 73.2958 25.86C73.5091 25.9667 73.6791 26.12 73.8058 26.32C73.9324 26.52 74.0224 26.7533 74.0758 27.02C74.1358 27.28 74.1658 27.5667 74.1658 27.88V31ZM78.2942 26.55C77.8542 26.5567 77.4642 26.67 77.1242 26.89C76.7909 27.1033 76.5542 27.4 76.4142 27.78V31H75.5342V25.78H76.3542V26.99C76.5342 26.63 76.7709 26.34 77.0642 26.12C77.3642 25.8933 77.6776 25.7667 78.0042 25.74C78.0709 25.74 78.1276 25.74 78.1742 25.74C78.2209 25.74 78.2609 25.7433 78.2942 25.75V26.55ZM81.3501 31.1C80.9567 31.1 80.5967 31.03 80.2701 30.89C79.9501 30.7433 79.6701 30.5467 79.4301 30.3C79.1967 30.0467 79.0134 29.7567 78.8801 29.43C78.7534 29.1033 78.6901 28.7567 78.6901 28.39C78.6901 27.8967 78.8034 27.4467 79.0301 27.04C79.2567 26.6333 79.5701 26.3067 79.9701 26.06C80.3767 25.8133 80.8401 25.69 81.3601 25.69C81.8867 25.69 82.3434 25.8167 82.7301 26.07C83.1234 26.3167 83.4267 26.6433 83.6401 27.05C83.8601 27.45 83.9701 27.8833 83.9701 28.35C83.9701 28.4167 83.9667 28.4833 83.9601 28.55C83.9601 28.61 83.9567 28.6567 83.9501 28.69H79.6201C79.6467 29.03 79.7401 29.3333 79.9001 29.6C80.0667 29.86 80.2801 30.0667 80.5401 30.22C80.8001 30.3667 81.0801 30.44 81.3801 30.44C81.7001 30.44 82.0001 30.36 82.2801 30.2C82.5667 30.04 82.7634 29.83 82.8701 29.57L83.6301 29.78C83.5167 30.0333 83.3467 30.26 83.1201 30.46C82.9001 30.66 82.6367 30.8167 82.3301 30.93C82.0301 31.0433 81.7034 31.1 81.3501 31.1ZM79.5901 28.08H83.1501C83.1234 27.74 83.0267 27.44 82.8601 27.18C82.6934 26.92 82.4801 26.7167 82.2201 26.57C81.9601 26.4233 81.6734 26.35 81.3601 26.35C81.0534 26.35 80.7701 26.4233 80.5101 26.57C80.2501 26.7167 80.0367 26.92 79.8701 27.18C79.7101 27.44 79.6167 27.74 79.5901 28.08ZM84.8783 28.67V27.87H87.8283V28.67H84.8783ZM89.1768 31V25.78H90.0568V31H89.1768ZM89.1768 24.8V23.7H90.0568V24.8H89.1768ZM99.3515 31H98.4715V28.08C98.4715 27.5333 98.3815 27.13 98.2015 26.87C98.0282 26.61 97.7682 26.48 97.4215 26.48C97.0682 26.48 96.7482 26.61 96.4615 26.87C96.1748 27.1233 95.9715 27.4533 95.8515 27.86V31H94.9715V28.08C94.9715 27.5267 94.8848 27.1233 94.7115 26.87C94.5382 26.61 94.2782 26.48 93.9315 26.48C93.5848 26.48 93.2648 26.6067 92.9715 26.86C92.6848 27.1067 92.4815 27.4367 92.3615 27.85V31H91.4815V25.78H92.2815V26.9C92.4948 26.5133 92.7715 26.2167 93.1115 26.01C93.4515 25.7967 93.8348 25.69 94.2615 25.69C94.6948 25.69 95.0415 25.81 95.3015 26.05C95.5615 26.2833 95.7215 26.5867 95.7815 26.96C96.0148 26.5467 96.2982 26.2333 96.6315 26.02C96.9648 25.8 97.3448 25.69 97.7715 25.69C98.0715 25.69 98.3215 25.7467 98.5215 25.86C98.7282 25.9667 98.8915 26.12 99.0115 26.32C99.1315 26.5133 99.2182 26.7433 99.2715 27.01C99.3248 27.2767 99.3515 27.5667 99.3515 27.88V31ZM108.59 31H107.71V28.08C107.71 27.5333 107.62 27.13 107.44 26.87C107.266 26.61 107.006 26.48 106.66 26.48C106.306 26.48 105.986 26.61 105.7 26.87C105.413 27.1233 105.21 27.4533 105.09 27.86V31H104.21V28.08C104.21 27.5267 104.123 27.1233 103.95 26.87C103.776 26.61 103.516 26.48 103.17 26.48C102.823 26.48 102.503 26.6067 102.21 26.86C101.923 27.1067 101.72 27.4367 101.6 27.85V31H100.72V25.78H101.52V26.9C101.733 26.5133 102.01 26.2167 102.35 26.01C102.69 25.7967 103.073 25.69 103.5 25.69C103.933 25.69 104.28 25.81 104.54 26.05C104.8 26.2833 104.96 26.5867 105.02 26.96C105.253 26.5467 105.536 26.2333 105.87 26.02C106.203 25.8 106.583 25.69 107.01 25.69C107.31 25.69 107.56 25.7467 107.76 25.86C107.966 25.9667 108.13 26.12 108.25 26.32C108.37 26.5133 108.456 26.7433 108.51 27.01C108.563 27.2767 108.59 27.5667 108.59 27.88V31ZM112.238 31.1C111.845 31.1 111.488 31.03 111.168 30.89C110.848 30.7433 110.571 30.5467 110.338 30.3C110.105 30.0467 109.925 29.7567 109.798 29.43C109.671 29.1033 109.608 28.76 109.608 28.4C109.608 28.0333 109.671 27.6867 109.798 27.36C109.925 27.0333 110.105 26.7467 110.338 26.5C110.571 26.2467 110.848 26.05 111.168 25.91C111.495 25.7633 111.851 25.69 112.238 25.69C112.631 25.69 112.988 25.7633 113.308 25.91C113.628 26.05 113.905 26.2467 114.138 26.5C114.378 26.7467 114.561 27.0333 114.688 27.36C114.815 27.6867 114.878 28.0333 114.878 28.4C114.878 28.76 114.815 29.1033 114.688 29.43C114.561 29.7567 114.381 30.0467 114.148 30.3C113.915 30.5467 113.635 30.7433 113.308 30.89C112.988 31.03 112.631 31.1 112.238 31.1ZM110.508 28.41C110.508 28.77 110.585 29.0967 110.738 29.39C110.898 29.6833 111.108 29.9167 111.368 30.09C111.628 30.2567 111.918 30.34 112.238 30.34C112.558 30.34 112.848 30.2533 113.108 30.08C113.375 29.9067 113.585 29.6733 113.738 29.38C113.898 29.08 113.978 28.75 113.978 28.39C113.978 28.03 113.898 27.7033 113.738 27.41C113.585 27.1167 113.375 26.8833 113.108 26.71C112.848 26.5367 112.558 26.45 112.238 26.45C111.918 26.45 111.628 26.54 111.368 26.72C111.108 26.8933 110.898 27.1267 110.738 27.42C110.585 27.7133 110.508 28.0433 110.508 28.41ZM118.624 31.1C118.218 31.1 117.848 31 117.514 30.8C117.181 30.6 116.918 30.34 116.724 30.02V31H115.944V23.7H116.824V26.82C117.044 26.48 117.314 26.2067 117.634 26C117.954 25.7933 118.328 25.69 118.754 25.69C119.114 25.69 119.438 25.7667 119.724 25.92C120.011 26.0667 120.254 26.27 120.454 26.53C120.661 26.7833 120.818 27.0733 120.924 27.4C121.038 27.72 121.094 28.0567 121.094 28.41C121.094 28.7767 121.031 29.1233 120.904 29.45C120.784 29.77 120.611 30.0567 120.384 30.31C120.158 30.5567 119.894 30.75 119.594 30.89C119.301 31.03 118.978 31.1 118.624 31.1ZM118.404 30.34C118.664 30.34 118.904 30.2867 119.124 30.18C119.344 30.0733 119.534 29.93 119.694 29.75C119.854 29.57 119.978 29.3633 120.064 29.13C120.151 28.8967 120.194 28.6567 120.194 28.41C120.194 28.07 120.121 27.75 119.974 27.45C119.834 27.15 119.634 26.91 119.374 26.73C119.121 26.5433 118.824 26.45 118.484 26.45C118.238 26.45 118.008 26.5067 117.794 26.62C117.581 26.7333 117.391 26.8833 117.224 27.07C117.064 27.25 116.931 27.45 116.824 27.67V29.18C116.858 29.3467 116.928 29.5 117.034 29.64C117.141 29.78 117.271 29.9033 117.424 30.01C117.578 30.11 117.738 30.19 117.904 30.25C118.078 30.31 118.244 30.34 118.404 30.34ZM122.175 31V25.78H123.055V31H122.175ZM122.175 24.8V23.7H123.055V24.8H122.175ZM124.5 23.7H125.38V29.65C125.38 29.9367 125.42 30.1133 125.5 30.18C125.58 30.2467 125.676 30.28 125.79 30.28C125.93 30.28 126.063 30.2667 126.19 30.24C126.316 30.2067 126.423 30.1733 126.51 30.14L126.65 30.86C126.503 30.92 126.33 30.97 126.13 31.01C125.93 31.05 125.753 31.07 125.6 31.07C125.26 31.07 124.99 30.9733 124.79 30.78C124.596 30.5867 124.5 30.3167 124.5 29.97V23.7ZM127.341 31V25.78H128.221V31H127.341ZM127.341 24.8V23.7H128.221V24.8H127.341ZM131.956 31.1C131.562 31.1 131.202 31.03 130.876 30.89C130.556 30.7433 130.276 30.5467 130.036 30.3C129.802 30.0467 129.619 29.7567 129.486 29.43C129.359 29.1033 129.296 28.7567 129.296 28.39C129.296 27.8967 129.409 27.4467 129.636 27.04C129.862 26.6333 130.176 26.3067 130.576 26.06C130.982 25.8133 131.446 25.69 131.966 25.69C132.492 25.69 132.949 25.8167 133.336 26.07C133.729 26.3167 134.032 26.6433 134.246 27.05C134.466 27.45 134.576 27.8833 134.576 28.35C134.576 28.4167 134.572 28.4833 134.566 28.55C134.566 28.61 134.562 28.6567 134.556 28.69H130.226C130.252 29.03 130.346 29.3333 130.506 29.6C130.672 29.86 130.886 30.0667 131.146 30.22C131.406 30.3667 131.686 30.44 131.986 30.44C132.306 30.44 132.606 30.36 132.886 30.2C133.172 30.04 133.369 29.83 133.476 29.57L134.236 29.78C134.122 30.0333 133.952 30.26 133.726 30.46C133.506 30.66 133.242 30.8167 132.936 30.93C132.636 31.0433 132.309 31.1 131.956 31.1ZM130.196 28.08H133.756C133.729 27.74 133.632 27.44 133.466 27.18C133.299 26.92 133.086 26.7167 132.826 26.57C132.566 26.4233 132.279 26.35 131.966 26.35C131.659 26.35 131.376 26.4233 131.116 26.57C130.856 26.7167 130.642 26.92 130.476 27.18C130.316 27.44 130.222 27.74 130.196 28.08ZM140.084 31H139.204V28.08C139.204 27.5267 139.117 27.1233 138.944 26.87C138.777 26.61 138.52 26.48 138.174 26.48C137.934 26.48 137.694 26.54 137.454 26.66C137.22 26.78 137.01 26.9433 136.824 27.15C136.644 27.35 136.514 27.5833 136.434 27.85V31H135.554V25.78H136.354V26.9C136.494 26.6533 136.674 26.44 136.894 26.26C137.114 26.08 137.364 25.94 137.644 25.84C137.924 25.74 138.217 25.69 138.524 25.69C138.824 25.69 139.074 25.7467 139.274 25.86C139.48 25.9667 139.64 26.12 139.754 26.32C139.874 26.5133 139.957 26.7433 140.004 27.01C140.057 27.2767 140.084 27.5667 140.084 27.88V31ZM141.382 31V29.88H142.122V31H141.382ZM143.134 28.4C143.134 27.9067 143.234 27.4567 143.434 27.05C143.64 26.6367 143.92 26.3067 144.274 26.06C144.634 25.8133 145.044 25.69 145.504 25.69C145.924 25.69 146.3 25.8 146.634 26.02C146.967 26.24 147.227 26.5067 147.414 26.82V23.7H148.294V30C148.294 30.1067 148.314 30.1867 148.354 30.24C148.4 30.2867 148.474 30.3133 148.574 30.32V31C148.407 31.0267 148.277 31.04 148.184 31.04C148.01 31.04 147.857 30.98 147.724 30.86C147.597 30.74 147.534 30.6067 147.534 30.46V30.02C147.327 30.3533 147.05 30.6167 146.704 30.81C146.357 31.0033 145.997 31.1 145.624 31.1C145.264 31.1 144.93 31.03 144.624 30.89C144.324 30.7433 144.06 30.5433 143.834 30.29C143.614 30.0367 143.44 29.75 143.314 29.43C143.194 29.1033 143.134 28.76 143.134 28.4ZM147.414 29.17V27.67C147.334 27.4433 147.204 27.24 147.024 27.06C146.844 26.8733 146.64 26.7267 146.414 26.62C146.194 26.5067 145.974 26.45 145.754 26.45C145.494 26.45 145.257 26.5067 145.044 26.62C144.837 26.7267 144.657 26.8733 144.504 27.06C144.357 27.24 144.244 27.4467 144.164 27.68C144.084 27.9133 144.044 28.1567 144.044 28.41C144.044 28.67 144.087 28.9167 144.174 29.15C144.267 29.3833 144.394 29.59 144.554 29.77C144.72 29.95 144.91 30.09 145.124 30.19C145.344 30.29 145.58 30.34 145.834 30.34C145.994 30.34 146.157 30.31 146.324 30.25C146.497 30.19 146.66 30.1067 146.814 30C146.967 29.8933 147.097 29.77 147.204 29.63C147.31 29.4833 147.38 29.33 147.414 29.17ZM152.073 31.1C151.679 31.1 151.319 31.03 150.993 30.89C150.673 30.7433 150.393 30.5467 150.153 30.3C149.919 30.0467 149.736 29.7567 149.603 29.43C149.476 29.1033 149.413 28.7567 149.413 28.39C149.413 27.8967 149.526 27.4467 149.753 27.04C149.979 26.6333 150.293 26.3067 150.693 26.06C151.099 25.8133 151.563 25.69 152.083 25.69C152.609 25.69 153.066 25.8167 153.453 26.07C153.846 26.3167 154.149 26.6433 154.363 27.05C154.583 27.45 154.693 27.8833 154.693 28.35C154.693 28.4167 154.689 28.4833 154.683 28.55C154.683 28.61 154.679 28.6567 154.673 28.69H150.343C150.369 29.03 150.463 29.3333 150.623 29.6C150.789 29.86 151.003 30.0667 151.263 30.22C151.523 30.3667 151.803 30.44 152.103 30.44C152.423 30.44 152.723 30.36 153.003 30.2C153.289 30.04 153.486 29.83 153.593 29.57L154.353 29.78C154.239 30.0333 154.069 30.26 153.843 30.46C153.623 30.66 153.359 30.8167 153.053 30.93C152.753 31.0433 152.426 31.1 152.073 31.1ZM150.313 28.08H153.873C153.846 27.74 153.749 27.44 153.583 27.18C153.416 26.92 153.203 26.7167 152.943 26.57C152.683 26.4233 152.396 26.35 152.083 26.35C151.776 26.35 151.493 26.4233 151.233 26.57C150.973 26.7167 150.759 26.92 150.593 27.18C150.433 27.44 150.339 27.74 150.313 28.08Z" fill="white"/>
</svg>
