<svg width="283" height="44" viewBox="0 0 283 44" fill="none" xmlns="http://www.w3.org/2000/svg">
<g clip-path="url(#clip0_1717_4143)">
<path d="M155 3V41.2351" stroke="white" stroke-miterlimit="10"/>
<path d="M67.6829 29.9867C66.5584 29.999 65.4417 29.8004 64.3895 29.4007C63.4848 29.079 62.6667 28.5497 62 27.855L62.5199 27.0447C63.1422 27.6605 63.884 28.1401 64.699 28.4534C65.6445 28.831 66.6533 29.0215 67.6704 29.0144C68.5344 29.0507 69.3968 28.9151 70.2085 28.6154C70.798 28.3945 71.3101 28.0044 71.6818 27.4934C72.0136 27.0483 72.188 26.5042 72.1771 25.9477C72.2197 25.3444 72.024 24.7484 71.6323 24.2897C71.2483 23.8566 70.7693 23.5194 70.2333 23.305C69.6093 23.0672 68.9677 22.8797 68.3142 22.744L66.2467 22.2328C65.5851 22.0445 64.9426 21.7941 64.3276 21.4849C63.7664 21.1868 63.2828 20.7597 62.9162 20.2383C62.5604 19.6271 62.3844 18.9268 62.4085 18.2188C62.4108 17.4962 62.6122 16.7885 62.9905 16.1744C63.4303 15.4663 64.0737 14.9097 64.8352 14.5787C65.8297 14.1601 66.9028 13.9645 67.98 14.0053C68.8437 14.0045 69.7028 14.1305 70.5304 14.3793C71.2998 14.6035 72.0274 14.9531 72.6848 15.414L72.2267 16.3364C71.5803 15.8916 70.8648 15.5587 70.1094 15.3516C69.4073 15.1346 68.6774 15.0212 67.9428 15.015C67.0973 14.9845 66.2546 15.1287 65.4667 15.4389C64.8749 15.662 64.365 16.0623 64.0057 16.5858C63.6858 17.045 63.5208 17.5957 63.5352 18.1565C63.5053 18.7541 63.69 19.3425 64.0552 19.8144C64.4416 20.2537 64.9249 20.5954 65.4667 20.8117C66.0895 21.0657 66.7311 21.27 67.3856 21.4226C68.079 21.5846 68.7848 21.7591 69.4657 21.9586C70.121 22.1307 70.7561 22.3732 71.3599 22.6816C71.9206 22.9756 72.401 23.4037 72.7589 23.9282C73.14 24.5163 73.3303 25.2088 73.3038 25.9102C73.3054 26.6409 73.0945 27.3559 72.6971 27.9672C72.239 28.649 71.5937 29.1818 70.84 29.5005C69.8333 29.8848 68.7574 30.0504 67.6829 29.9867ZM74.5543 29.8745L81.8094 14.1549H82.9733L90.1666 29.8745H88.9284L82.1561 14.9153H82.639L75.8419 29.8745H74.5543ZM77.1542 25.449L77.538 24.4892H86.9227L87.2942 25.449H77.1542ZM95.6266 29.8745V24.1775L95.8989 24.913L89.3246 14.1549H90.5627L96.5179 23.9407H95.8989L101.854 14.1549H103.092L96.5179 24.913L96.7903 24.1775V29.8745H95.6266ZM102.374 29.8745L109.555 14.1549H110.706L117.887 29.8745H116.649L109.865 14.9153H110.347L103.588 29.8745H102.374ZM105.011 25.449L105.333 24.5515H114.681L115.065 25.5114L105.011 25.449ZM132.25 14.1424H133.388V29.8621H132.25V14.1424ZM121.812 29.8621H120.673V14.1424H121.812V29.8621ZM132.385 22.3825H121.75V21.3478H132.435L132.385 22.3825ZM138.848 29.8621V14.1424H140V29.8621H138.848Z" fill="white"/>
<path d="M23.5031 36.5016L0 20L19.8515 40.2508L23.5031 44L27.1738 40.2508L47 20L23.5031 36.5016Z" fill="white"/>
<path d="M20.2131 0L9 19L24 3.84548L20.2131 0Z" fill="white"/>
<path d="M23.2092 15L18 27L27 18.5343L23.2092 15Z" fill="white"/>
<path d="M184 19.6862C184 23.2061 181.275 25.3847 176.878 25.3847H173.111V30H170V14.0001H176.878C181.275 13.9877 184 16.1416 184 19.6862ZM180.876 19.6862C180.876 17.6801 179.462 16.5108 176.736 16.5108H173.111V22.8615H176.736C179.462 22.8615 180.876 21.7046 180.876 19.6862Z" fill="white"/>
<path d="M197.114 26.3077H188.809L187.176 30H184L191.476 14H194.499L202 30H198.773L197.114 26.3077ZM196.094 23.9815L192.968 16.9784L189.855 23.9815H196.094Z" fill="white"/>
<path d="M213.714 30L210.365 25.318C210.155 25.3301 209.945 25.3301 209.736 25.318H206.034V29.9754H203V14H209.736C214.041 14 216.71 16.1505 216.71 19.6898C216.759 20.785 216.447 21.8666 215.819 22.7756C215.191 23.6848 214.281 24.3734 213.223 24.7404L217 29.9877L213.714 30ZM209.597 16.4823H206.034V22.8479H209.597C212.254 22.8479 213.638 21.619 213.638 19.6529C213.638 17.6866 212.254 16.5315 209.597 16.5315V16.4823Z" fill="white"/>
<path d="M223.486 16.5134H218V14H232V16.5134H226.502V30H223.435L223.486 16.5134Z" fill="white"/>
<path d="M249 14V30H246.407L237.111 19.157V30H234V14H236.593L245.889 24.843V14H249Z" fill="white"/>
<path d="M266 27.5385V30H253V14H265.641V16.4616H256.21V20.6215H264.588V23.0831H256.21V27.5016L266 27.5385Z" fill="white"/>
<path d="M279.691 30L276.346 25.318C276.137 25.3301 275.926 25.3301 275.718 25.318H272.019V29.9754H269V14H275.742C280.044 14 282.698 16.1505 282.698 19.6898C282.75 20.7838 282.441 21.8653 281.815 22.7745C281.191 23.6838 280.283 24.373 279.226 24.7404L283 29.9877L279.691 30ZM275.579 16.4823H272.019V22.8479H275.579C278.233 22.8479 279.617 21.619 279.617 19.6529C279.617 17.6866 278.258 16.5315 275.603 16.5315L275.579 16.4823Z" fill="white"/>
</g>
<defs>
<clipPath id="clip0_1717_4143">
<rect width="283" height="44" fill="white"/>
</clipPath>
</defs>
</svg>
