<svg width="229" height="39" viewBox="0 0 229 39" fill="none" xmlns="http://www.w3.org/2000/svg">
<path d="M37.036 24V14.074H38.968V18.792L43.14 14.06H45.268L41.46 18.47L45.506 24H43.322L40.228 19.716L38.968 21.032V24H37.036ZM50.069 24.07C49.341 24.07 48.6783 23.93 48.081 23.65C47.493 23.37 46.9843 22.992 46.555 22.516C46.135 22.0307 45.8083 21.4893 45.575 20.892C45.3417 20.2853 45.225 19.6647 45.225 19.03C45.225 18.3673 45.3463 17.7373 45.589 17.14C45.841 16.5333 46.1817 15.9967 46.611 15.53C47.0497 15.054 47.563 14.6807 48.151 14.41C48.7483 14.13 49.4017 13.99 50.111 13.99C50.8297 13.99 51.483 14.1347 52.071 14.424C52.6683 14.7133 53.177 15.1007 53.597 15.586C54.017 16.0713 54.3437 16.6127 54.577 17.21C54.8103 17.8073 54.927 18.4233 54.927 19.058C54.927 19.7113 54.8057 20.3413 54.563 20.948C54.3203 21.5453 53.9797 22.082 53.541 22.558C53.1117 23.0247 52.5983 23.3933 52.001 23.664C51.413 23.9347 50.769 24.07 50.069 24.07ZM47.185 19.03C47.185 19.4593 47.2503 19.8747 47.381 20.276C47.5117 20.6773 47.6983 21.0367 47.941 21.354C48.193 21.662 48.4963 21.9093 48.851 22.096C49.215 22.2733 49.6257 22.362 50.083 22.362C50.5497 22.362 50.965 22.2687 51.329 22.082C51.693 21.886 51.9963 21.6293 52.239 21.312C52.4817 20.9853 52.6637 20.626 52.785 20.234C52.9157 19.8327 52.981 19.4313 52.981 19.03C52.981 18.6007 52.911 18.19 52.771 17.798C52.6403 17.3967 52.449 17.042 52.197 16.734C51.9543 16.4167 51.651 16.1693 51.287 15.992C50.9323 15.8053 50.531 15.712 50.083 15.712C49.607 15.712 49.187 15.81 48.823 16.006C48.4683 16.1927 48.1697 16.4447 47.927 16.762C47.6843 17.0793 47.4977 17.434 47.367 17.826C47.2457 18.218 47.185 18.6193 47.185 19.03ZM58.341 17.616V24H56.409V14.06H57.949L63.087 20.612V14.074H65.019V24H63.409L58.341 17.616ZM74.5208 15.754H71.3428V24H69.4248V15.754H66.2468V14.06H74.5208V15.754ZM77.5271 14.06H79.4871L83.1411 24H81.1531L80.2291 21.522H76.7571L75.8471 24H73.8591L77.5271 14.06ZM79.8791 20.164L78.5071 16.062L77.0791 20.164H79.8791ZM84.2313 24V14.074H86.1633V18.792L90.3353 14.06H92.4633L88.6553 18.47L92.7013 24H90.5173L87.4233 19.716L86.1633 21.032V24H84.2313ZM101.031 15.754H97.8525V24H95.9345V15.754H92.7565V14.06H101.031V15.754ZM107.482 14.06H109.442L113.096 24H111.108L110.184 21.522H106.712L105.802 24H103.814L107.482 14.06ZM109.834 20.164L108.462 16.062L107.034 20.164H109.834ZM118.004 24.07C117.211 24.07 116.534 23.9393 115.974 23.678C115.423 23.4073 114.975 23.0387 114.63 22.572C114.294 22.1053 114.047 21.578 113.888 20.99C113.729 20.3927 113.65 19.772 113.65 19.128V14.06H115.582V19.128C115.582 19.5387 115.619 19.94 115.694 20.332C115.778 20.7147 115.913 21.06 116.1 21.368C116.287 21.676 116.534 21.9187 116.842 22.096C117.15 22.2733 117.533 22.362 117.99 22.362C118.457 22.362 118.844 22.2733 119.152 22.096C119.469 21.9093 119.717 21.662 119.894 21.354C120.081 21.046 120.216 20.7007 120.3 20.318C120.384 19.926 120.426 19.5293 120.426 19.128V14.06H122.344V19.128C122.344 19.8093 122.26 20.4487 122.092 21.046C121.933 21.6433 121.677 22.1707 121.322 22.628C120.977 23.076 120.529 23.4307 119.978 23.692C119.427 23.944 118.769 24.07 118.004 24.07ZM124.29 24V14.06H130.968V15.754H126.222V18.316H130.17V19.884H126.222V24H124.29ZM134.261 17.616V24H132.329V14.06H133.869L139.007 20.612V14.074H140.939V24H139.329L134.261 17.616ZM151.365 14.06V24H149.447V19.758H144.939V24H143.007V14.06H144.939V18.078H149.447V14.06H151.365ZM160.34 22.306V24H153.438V14.06H160.214V15.754H155.37V18.148H159.556V19.716H155.37V22.306H160.34ZM169.953 24V17.476L167.405 22.334H166.327L163.779 17.476V24H161.847V14.06H163.919L166.859 19.716L169.827 14.06H171.885V24H169.953ZM180.862 22.306V24H173.96V14.06H180.736V15.754H175.892V18.148H180.078V19.716H175.892V22.306H180.862ZM184.3 17.616V24H182.368V14.06H183.908L189.046 20.612V14.074H190.978V24H189.368L184.3 17.616Z" fill="#535252"/>
<rect x="0.5" y="0.5" width="228" height="38" stroke="#535252"/>
</svg>
