<svg width="213" height="39" viewBox="0 0 213 39" fill="none" xmlns="http://www.w3.org/2000/svg">
<path d="M36.42 22.544L41.964 15.754H36.574V14.06H44.26V15.516L38.898 22.306H44.302V24H36.42V22.544ZM50.0273 24.07C49.234 24.07 48.5573 23.9393 47.9973 23.678C47.4467 23.4073 46.9987 23.0387 46.6533 22.572C46.3173 22.1053 46.07 21.578 45.9113 20.99C45.7527 20.3927 45.6733 19.772 45.6733 19.128V14.06H47.6053V19.128C47.6053 19.5387 47.6427 19.94 47.7173 20.332C47.8013 20.7147 47.9367 21.06 48.1233 21.368C48.31 21.676 48.5573 21.9187 48.8653 22.096C49.1733 22.2733 49.556 22.362 50.0133 22.362C50.48 22.362 50.8673 22.2733 51.1753 22.096C51.4927 21.9093 51.74 21.662 51.9173 21.354C52.104 21.046 52.2393 20.7007 52.3233 20.318C52.4073 19.926 52.4493 19.5293 52.4493 19.128V14.06H54.3673V19.128C54.3673 19.8093 54.2833 20.4487 54.1153 21.046C53.9567 21.6433 53.7 22.1707 53.3453 22.628C53 23.076 52.552 23.4307 52.0013 23.692C51.4507 23.944 50.7927 24.07 50.0273 24.07ZM59.6766 24V14.06H63.2886C64.3713 14.06 65.2766 14.284 66.0046 14.732C66.7326 15.1707 67.2786 15.768 67.6426 16.524C68.0066 17.2707 68.1886 18.1013 68.1886 19.016C68.1886 20.024 67.988 20.9013 67.5866 21.648C67.1853 22.3947 66.616 22.9733 65.8786 23.384C65.1506 23.7947 64.2873 24 63.2886 24H59.6766ZM66.2426 19.016C66.2426 18.372 66.126 17.8073 65.8926 17.322C65.6593 16.8273 65.3233 16.4447 64.8846 16.174C64.446 15.894 63.914 15.754 63.2886 15.754H61.6086V22.306H63.2886C63.9233 22.306 64.46 22.166 64.8986 21.886C65.3373 21.5967 65.6686 21.2047 65.8926 20.71C66.126 20.206 66.2426 19.6413 66.2426 19.016ZM76.6001 22.306V24H69.6981V14.06H76.4741V15.754H71.6301V18.148H75.8161V19.716H71.6301V22.306H76.6001ZM80.0383 17.616V24H78.1063V14.06H79.6463L84.7843 20.612V14.074H86.7163V24H85.1063L80.0383 17.616ZM94.4118 14.06H96.3718L100.026 24H98.0378L97.1138 21.522H93.6418L92.7318 24H90.7438L94.4118 14.06ZM96.7638 20.164L95.3918 16.062L93.9638 20.164H96.7638ZM103.048 17.616V24H101.116V14.06H102.656L107.794 20.612V14.074H109.726V24H108.116L103.048 17.616ZM115.924 24.07C115.28 24.07 114.668 23.9393 114.09 23.678C113.52 23.4167 113.016 23.0573 112.578 22.6C112.148 22.1333 111.812 21.592 111.57 20.976C111.327 20.36 111.206 19.6927 111.206 18.974C111.206 18.2927 111.327 17.6533 111.57 17.056C111.812 16.4493 112.153 15.9173 112.592 15.46C113.03 15.0027 113.544 14.6433 114.132 14.382C114.72 14.1207 115.359 13.99 116.05 13.99C116.983 13.99 117.781 14.1907 118.444 14.592C119.116 14.984 119.62 15.5067 119.956 16.16L118.514 17.224C118.262 16.7293 117.907 16.3513 117.45 16.09C117.002 15.8287 116.512 15.698 115.98 15.698C115.56 15.698 115.177 15.7867 114.832 15.964C114.486 16.1413 114.188 16.384 113.936 16.692C113.684 17 113.488 17.3547 113.348 17.756C113.217 18.1573 113.152 18.582 113.152 19.03C113.152 19.506 113.222 19.9447 113.362 20.346C113.511 20.7473 113.716 21.0973 113.978 21.396C114.248 21.6947 114.561 21.9327 114.916 22.11C115.27 22.278 115.662 22.362 116.092 22.362C116.596 22.362 117.076 22.2313 117.534 21.97C118 21.7087 118.434 21.326 118.836 20.822V22.726C118.005 23.622 117.034 24.07 115.924 24.07ZM118.696 20.304H116.694V18.89H120.292V24H118.696V20.304ZM128.84 22.306V24H121.938V14.06H128.714V15.754H123.87V18.148H128.056V19.716H123.87V22.306H128.84ZM138.355 21.438C138.355 21.998 138.21 22.4693 137.921 22.852C137.631 23.2253 137.239 23.51 136.745 23.706C136.259 23.902 135.727 24 135.149 24H130.347V14.06H135.667C136.133 14.06 136.535 14.186 136.871 14.438C137.216 14.6807 137.477 14.998 137.655 15.39C137.841 15.7727 137.935 16.174 137.935 16.594C137.935 17.07 137.813 17.5227 137.571 17.952C137.328 18.3813 136.973 18.6987 136.507 18.904C137.076 19.072 137.524 19.3753 137.851 19.814C138.187 20.2527 138.355 20.794 138.355 21.438ZM136.409 21.074C136.409 20.822 136.357 20.598 136.255 20.402C136.152 20.1967 136.012 20.038 135.835 19.926C135.667 19.8047 135.471 19.744 135.247 19.744H132.279V22.362H135.149C135.382 22.362 135.592 22.306 135.779 22.194C135.975 22.0727 136.129 21.914 136.241 21.718C136.353 21.522 136.409 21.3073 136.409 21.074ZM132.279 15.712V18.218H134.855C135.069 18.218 135.265 18.1667 135.443 18.064C135.62 17.9613 135.76 17.8167 135.863 17.63C135.975 17.4433 136.031 17.2193 136.031 16.958C136.031 16.706 135.979 16.4867 135.877 16.3C135.783 16.1133 135.653 15.9687 135.485 15.866C135.326 15.7633 135.144 15.712 134.939 15.712H132.279ZM144.104 24.07C143.376 24.07 142.714 23.93 142.116 23.65C141.528 23.37 141.02 22.992 140.59 22.516C140.17 22.0307 139.844 21.4893 139.61 20.892C139.377 20.2853 139.26 19.6647 139.26 19.03C139.26 18.3673 139.382 17.7373 139.624 17.14C139.876 16.5333 140.217 15.9967 140.646 15.53C141.085 15.054 141.598 14.6807 142.186 14.41C142.784 14.13 143.437 13.99 144.146 13.99C144.865 13.99 145.518 14.1347 146.106 14.424C146.704 14.7133 147.212 15.1007 147.632 15.586C148.052 16.0713 148.379 16.6127 148.612 17.21C148.846 17.8073 148.962 18.4233 148.962 19.058C148.962 19.7113 148.841 20.3413 148.598 20.948C148.356 21.5453 148.015 22.082 147.576 22.558C147.147 23.0247 146.634 23.3933 146.036 23.664C145.448 23.9347 144.804 24.07 144.104 24.07ZM141.22 19.03C141.22 19.4593 141.286 19.8747 141.416 20.276C141.547 20.6773 141.734 21.0367 141.976 21.354C142.228 21.662 142.532 21.9093 142.886 22.096C143.25 22.2733 143.661 22.362 144.118 22.362C144.585 22.362 145 22.2687 145.364 22.082C145.728 21.886 146.032 21.6293 146.274 21.312C146.517 20.9853 146.699 20.626 146.82 20.234C146.951 19.8327 147.016 19.4313 147.016 19.03C147.016 18.6007 146.946 18.19 146.806 17.798C146.676 17.3967 146.484 17.042 146.232 16.734C145.99 16.4167 145.686 16.1693 145.322 15.992C144.968 15.8053 144.566 15.712 144.118 15.712C143.642 15.712 143.222 15.81 142.858 16.006C142.504 16.1927 142.205 16.4447 141.962 16.762C141.72 17.0793 141.533 17.434 141.402 17.826C141.281 18.218 141.22 18.6193 141.22 19.03ZM157.632 15.754H154.454V24H152.536V15.754H149.358V14.06H157.632V15.754ZM165.768 22.306V24H158.866V14.06H165.642V15.754H160.798V18.148H164.984V19.716H160.798V22.306H165.768ZM169.206 17.616V24H167.274V14.06H168.814L173.952 20.612V14.074H175.884V24H174.274L169.206 17.616Z" fill="#535252"/>
<rect x="0.5" y="0.5" width="212" height="38" stroke="#535252"/>
</svg>
