<svg width="331" height="39" viewBox="0 0 331 39" fill="none" xmlns="http://www.w3.org/2000/svg">
<path d="M45.142 24V17.476L42.594 22.334H41.516L38.968 17.476V24H37.036V14.06H39.108L42.048 19.716L45.016 14.06H47.074V24H45.142ZM56.0513 22.306V24H49.1493V14.06H55.9253V15.754H51.0813V18.148H55.2673V19.716H51.0813V22.306H56.0513ZM57.5575 24V14.06H59.4895V24H57.5575ZM63.4953 17.616V24H61.5633V14.06H63.1033L68.2413 20.612V14.074H70.1733V24H68.5633L63.4953 17.616ZM79.1431 22.306V24H72.2411V14.06H79.0171V15.754H74.1731V18.148H78.3591V19.716H74.1731V22.306H79.1431ZM84.0126 24V14.06H85.9446V24H84.0126ZM96.1244 24V17.476L93.5764 22.334H92.4984L89.9504 17.476V24H88.0184V14.06H90.0904L93.0304 19.716L95.9984 14.06H98.0564V24H96.1244ZM108.238 24V17.476L105.69 22.334H104.612L102.064 17.476V24H100.132V14.06H102.204L105.144 19.716L108.112 14.06H110.17V24H108.238ZM116.487 24.07C115.759 24.07 115.096 23.93 114.499 23.65C113.911 23.37 113.402 22.992 112.973 22.516C112.553 22.0307 112.226 21.4893 111.993 20.892C111.76 20.2853 111.643 19.6647 111.643 19.03C111.643 18.3673 111.764 17.7373 112.007 17.14C112.259 16.5333 112.6 15.9967 113.029 15.53C113.468 15.054 113.981 14.6807 114.569 14.41C115.166 14.13 115.82 13.99 116.529 13.99C117.248 13.99 117.901 14.1347 118.489 14.424C119.086 14.7133 119.595 15.1007 120.015 15.586C120.435 16.0713 120.762 16.6127 120.995 17.21C121.228 17.8073 121.345 18.4233 121.345 19.058C121.345 19.7113 121.224 20.3413 120.981 20.948C120.738 21.5453 120.398 22.082 119.959 22.558C119.53 23.0247 119.016 23.3933 118.419 23.664C117.831 23.9347 117.187 24.07 116.487 24.07ZM113.603 19.03C113.603 19.4593 113.668 19.8747 113.799 20.276C113.93 20.6773 114.116 21.0367 114.359 21.354C114.611 21.662 114.914 21.9093 115.269 22.096C115.633 22.2733 116.044 22.362 116.501 22.362C116.968 22.362 117.383 22.2687 117.747 22.082C118.111 21.886 118.414 21.6293 118.657 21.312C118.9 20.9853 119.082 20.626 119.203 20.234C119.334 19.8327 119.399 19.4313 119.399 19.03C119.399 18.6007 119.329 18.19 119.189 17.798C119.058 17.3967 118.867 17.042 118.615 16.734C118.372 16.4167 118.069 16.1693 117.705 15.992C117.35 15.8053 116.949 15.712 116.501 15.712C116.025 15.712 115.605 15.81 115.241 16.006C114.886 16.1927 114.588 16.4447 114.345 16.762C114.102 17.0793 113.916 17.434 113.785 17.826C113.664 18.218 113.603 18.6193 113.603 19.03ZM130.835 21.438C130.835 21.998 130.69 22.4693 130.401 22.852C130.112 23.2253 129.72 23.51 129.225 23.706C128.74 23.902 128.208 24 127.629 24H122.827V14.06H128.147C128.614 14.06 129.015 14.186 129.351 14.438C129.696 14.6807 129.958 14.998 130.135 15.39C130.322 15.7727 130.415 16.174 130.415 16.594C130.415 17.07 130.294 17.5227 130.051 17.952C129.808 18.3813 129.454 18.6987 128.987 18.904C129.556 19.072 130.004 19.3753 130.331 19.814C130.667 20.2527 130.835 20.794 130.835 21.438ZM128.889 21.074C128.889 20.822 128.838 20.598 128.735 20.402C128.632 20.1967 128.492 20.038 128.315 19.926C128.147 19.8047 127.951 19.744 127.727 19.744H124.759V22.362H127.629C127.862 22.362 128.072 22.306 128.259 22.194C128.455 22.0727 128.609 21.914 128.721 21.718C128.833 21.522 128.889 21.3073 128.889 21.074ZM124.759 15.712V18.218H127.335C127.55 18.218 127.746 18.1667 127.923 18.064C128.1 17.9613 128.24 17.8167 128.343 17.63C128.455 17.4433 128.511 17.2193 128.511 16.958C128.511 16.706 128.46 16.4867 128.357 16.3C128.264 16.1133 128.133 15.9687 127.965 15.866C127.806 15.7633 127.624 15.712 127.419 15.712H124.759ZM132.343 24V14.06H134.275V24H132.343ZM136.349 24V14.06H138.281V22.306H143.349V24H136.349ZM144.524 24V14.06H146.456V24H144.524ZM155.432 22.306V24H148.53V14.06H155.306V15.754H150.462V18.148H154.648V19.716H150.462V22.306H155.432ZM168.31 21.438C168.31 21.998 168.165 22.4693 167.876 22.852C167.586 23.2253 167.194 23.51 166.7 23.706C166.214 23.902 165.682 24 165.104 24H160.302V14.06H165.622C166.088 14.06 166.49 14.186 166.826 14.438C167.171 14.6807 167.432 14.998 167.61 15.39C167.796 15.7727 167.89 16.174 167.89 16.594C167.89 17.07 167.768 17.5227 167.526 17.952C167.283 18.3813 166.928 18.6987 166.462 18.904C167.031 19.072 167.479 19.3753 167.806 19.814C168.142 20.2527 168.31 20.794 168.31 21.438ZM166.364 21.074C166.364 20.822 166.312 20.598 166.21 20.402C166.107 20.1967 165.967 20.038 165.79 19.926C165.622 19.8047 165.426 19.744 165.202 19.744H162.234V22.362H165.104C165.337 22.362 165.547 22.306 165.734 22.194C165.93 22.0727 166.084 21.914 166.196 21.718C166.308 21.522 166.364 21.3073 166.364 21.074ZM162.234 15.712V18.218H164.81C165.024 18.218 165.22 18.1667 165.398 18.064C165.575 17.9613 165.715 17.8167 165.818 17.63C165.93 17.4433 165.986 17.2193 165.986 16.958C165.986 16.706 165.934 16.4867 165.832 16.3C165.738 16.1133 165.608 15.9687 165.44 15.866C165.281 15.7633 165.099 15.712 164.894 15.712H162.234ZM176.719 22.306V24H169.817V14.06H176.593V15.754H171.749V18.148H175.935V19.716H171.749V22.306H176.719ZM181.627 14.088H183.419L184.553 17.378L185.701 14.088H187.479L185.771 18.61L187.031 21.774L189.845 14.06H191.945L187.969 24H186.303L184.553 19.828L182.817 24H181.151L177.189 14.06H179.261L182.089 21.774L183.321 18.61L181.627 14.088ZM199.866 22.306V24H192.964V14.06H199.74V15.754H194.896V18.148H199.082V19.716H194.896V22.306H199.866ZM201.372 24V14.06H205.768C206.225 14.06 206.645 14.1533 207.028 14.34C207.42 14.5267 207.756 14.7787 208.036 15.096C208.325 15.4133 208.545 15.768 208.694 16.16C208.853 16.552 208.932 16.9533 208.932 17.364C208.932 17.784 208.857 18.19 208.708 18.582C208.568 18.9647 208.363 19.3007 208.092 19.59C207.821 19.8793 207.504 20.1033 207.14 20.262L209.408 24H207.28L205.236 20.668H203.304V24H201.372ZM203.304 18.974H205.726C205.969 18.974 206.183 18.904 206.37 18.764C206.557 18.6147 206.706 18.4187 206.818 18.176C206.93 17.9333 206.986 17.6627 206.986 17.364C206.986 17.0467 206.921 16.7713 206.79 16.538C206.659 16.2953 206.491 16.104 206.286 15.964C206.09 15.824 205.875 15.754 205.642 15.754H203.304V18.974ZM218.007 15.754H214.829V24H212.911V15.754H209.733V14.06H218.007V15.754ZM226.143 22.306V24H219.241V14.06H226.017V15.754H221.173V18.148H225.359V19.716H221.173V22.306H226.143ZM229.581 17.616V24H227.649V14.06H229.189L234.327 20.612V14.074H236.259V24H234.649L229.581 17.616ZM241.69 24V14.06H243.622V22.306H248.69V24H241.69ZM252.568 14.06H254.528L258.182 24H256.194L255.27 21.522H251.798L250.888 24H248.9L252.568 14.06ZM254.92 20.164L253.548 16.062L252.12 20.164H254.92ZM265.071 16.664C265.006 16.5987 264.885 16.51 264.707 16.398C264.539 16.286 264.329 16.1787 264.077 16.076C263.835 15.9733 263.569 15.8847 263.279 15.81C262.99 15.726 262.696 15.684 262.397 15.684C261.875 15.684 261.478 15.782 261.207 15.978C260.946 16.174 260.815 16.4493 260.815 16.804C260.815 17.0747 260.899 17.2893 261.067 17.448C261.235 17.6067 261.487 17.742 261.823 17.854C262.159 17.966 262.579 18.0873 263.083 18.218C263.737 18.3767 264.301 18.5727 264.777 18.806C265.263 19.03 265.631 19.3287 265.883 19.702C266.145 20.066 266.275 20.5513 266.275 21.158C266.275 21.69 266.177 22.1473 265.981 22.53C265.785 22.9033 265.515 23.2067 265.169 23.44C264.824 23.6733 264.432 23.846 263.993 23.958C263.555 24.0607 263.088 24.112 262.593 24.112C262.099 24.112 261.604 24.0607 261.109 23.958C260.615 23.8553 260.139 23.7107 259.681 23.524C259.224 23.328 258.804 23.0947 258.421 22.824L259.275 21.158C259.359 21.242 259.509 21.354 259.723 21.494C259.938 21.6247 260.199 21.76 260.507 21.9C260.815 22.0307 261.151 22.1427 261.515 22.236C261.879 22.3293 262.248 22.376 262.621 22.376C263.144 22.376 263.541 22.2873 263.811 22.11C264.082 21.9327 264.217 21.6807 264.217 21.354C264.217 21.0553 264.11 20.822 263.895 20.654C263.681 20.486 263.382 20.3413 262.999 20.22C262.617 20.0893 262.164 19.9493 261.641 19.8C261.016 19.6227 260.493 19.4267 260.073 19.212C259.653 18.988 259.341 18.708 259.135 18.372C258.93 18.036 258.827 17.616 258.827 17.112C258.827 16.4307 258.986 15.8613 259.303 15.404C259.63 14.9373 260.069 14.5873 260.619 14.354C261.17 14.1113 261.781 13.99 262.453 13.99C262.92 13.99 263.359 14.0413 263.769 14.144C264.189 14.2467 264.581 14.382 264.945 14.55C265.309 14.718 265.636 14.9 265.925 15.096L265.071 16.664ZM273.657 16.664C273.592 16.5987 273.471 16.51 273.293 16.398C273.125 16.286 272.915 16.1787 272.663 16.076C272.421 15.9733 272.155 15.8847 271.865 15.81C271.576 15.726 271.282 15.684 270.983 15.684C270.461 15.684 270.064 15.782 269.793 15.978C269.532 16.174 269.401 16.4493 269.401 16.804C269.401 17.0747 269.485 17.2893 269.653 17.448C269.821 17.6067 270.073 17.742 270.409 17.854C270.745 17.966 271.165 18.0873 271.669 18.218C272.323 18.3767 272.887 18.5727 273.363 18.806C273.849 19.03 274.217 19.3287 274.469 19.702C274.731 20.066 274.861 20.5513 274.861 21.158C274.861 21.69 274.763 22.1473 274.567 22.53C274.371 22.9033 274.101 23.2067 273.755 23.44C273.41 23.6733 273.018 23.846 272.579 23.958C272.141 24.0607 271.674 24.112 271.179 24.112C270.685 24.112 270.19 24.0607 269.695 23.958C269.201 23.8553 268.725 23.7107 268.267 23.524C267.81 23.328 267.39 23.0947 267.007 22.824L267.861 21.158C267.945 21.242 268.095 21.354 268.309 21.494C268.524 21.6247 268.785 21.76 269.093 21.9C269.401 22.0307 269.737 22.1427 270.101 22.236C270.465 22.3293 270.834 22.376 271.207 22.376C271.73 22.376 272.127 22.2873 272.397 22.11C272.668 21.9327 272.803 21.6807 272.803 21.354C272.803 21.0553 272.696 20.822 272.481 20.654C272.267 20.486 271.968 20.3413 271.585 20.22C271.203 20.0893 270.75 19.9493 270.227 19.8C269.602 19.6227 269.079 19.4267 268.659 19.212C268.239 18.988 267.927 18.708 267.721 18.372C267.516 18.036 267.413 17.616 267.413 17.112C267.413 16.4307 267.572 15.8613 267.889 15.404C268.216 14.9373 268.655 14.5873 269.205 14.354C269.756 14.1113 270.367 13.99 271.039 13.99C271.506 13.99 271.945 14.0413 272.355 14.144C272.775 14.2467 273.167 14.382 273.531 14.55C273.895 14.718 274.222 14.9 274.511 15.096L273.657 16.664ZM283.223 22.306V24H276.321V14.06H283.097V15.754H278.253V18.148H282.439V19.716H278.253V22.306H283.223ZM286.661 17.616V24H284.729V14.06H286.269L291.407 20.612V14.074H293.339V24H291.729L286.661 17.616Z" fill="#535252"/>
<rect x="0.5" y="0.5" width="330" height="38" stroke="#535252"/>
</svg>
