<svg width="77" height="66" viewBox="0 0 77 66" fill="none" xmlns="http://www.w3.org/2000/svg">
<path fill-rule="evenodd" clip-rule="evenodd" d="M38.043 6.5299L71.4738 36.831L71.2816 63.2209C71.2816 65.23 71.2816 63.5683 71.2816 65.4788C69.5525 65.4788 70.8084 65.4788 68.5918 65.4788L4.61231 65.6525C4.61231 63.3946 4.6123 63.2209 4.61231 61.6578C4.61231 60.0946 4.61231 60.0863 4.61231 58.0772V36.831L38.043 6.5299ZM65.902 2.5251L66.0941 26.921L54.7584 20.6149V2.5251L57.5443 0L65.902 2.5251Z" fill="white"/>
<path fill-rule="evenodd" clip-rule="evenodd" d="M35.0713 4.11158C36.0176 3.25639 37.3009 2.77597 38.639 2.77597C39.977 2.77597 41.2603 3.25639 42.2066 4.11158L76.6808 36.821L74.9516 38.2105L73.7988 39.0789C73.7988 39.0789 72.6498 38.0867 72.176 37.6584L38.639 7.33671L5.10189 37.6584C4.0554 38.6044 3.86334 38.8225 3.86334 38.8225L0.319255 35.5225L35.0713 4.11158Z" fill="white"/>
</svg>
