<svg width="105" height="106" viewBox="0 0 105 106" fill="none" xmlns="http://www.w3.org/2000/svg">
<path fill-rule="evenodd" clip-rule="evenodd" d="M52.0823 5.96769L82.6348 33.66L82.4592 57.7778C82.4592 59.6139 82.4592 58.0952 82.4592 59.8413C80.8789 59.8413 82.0267 59.8413 80.0009 59.8413L21.5299 60C21.5299 57.9365 21.5299 57.7778 21.5299 56.3492C21.5299 54.9206 21.5299 54.913 21.5299 53.0769V33.66L52.0823 5.96769ZM77.5427 2.30769L77.7183 24.6032L67.3585 18.84V2.30769L69.9046 0L77.5427 2.30769Z" fill="white"/>
<path fill-rule="evenodd" clip-rule="evenodd" d="M49.3665 3.75772C50.2313 2.97617 51.4041 2.53711 52.627 2.53711C53.8499 2.53711 55.0227 2.97617 55.8875 3.75772L87.3935 33.651L85.8132 34.9208L84.7597 35.7144C84.7597 35.7144 83.7096 34.8077 83.2766 34.4163L52.627 6.70518L21.9774 34.4163C21.021 35.2808 20.8455 35.4801 20.8455 35.4801L17.6065 32.4643L49.3665 3.75772Z" fill="white"/>
<rect width="104" height="31" transform="translate(0.5 75)" fill="#474F5D" fill-opacity="0.6"/>
<path d="M18.9017 88.5V82.82H19.7977V88.5H18.9017ZM25.8574 88.5V84.452L24.1854 87.524H23.6574L21.9774 84.452V88.5H21.0814V82.82H22.0414L23.9214 86.292L25.8014 82.82H26.7614V88.5H25.8574ZM32.8183 88.5V84.452L31.1463 87.524H30.6183L28.9383 84.452V88.5H28.0423V82.82H29.0023L30.8823 86.292L32.7623 82.82H33.7223V88.5H32.8183ZM37.3633 88.54C36.9526 88.54 36.5819 88.46 36.2513 88.3C35.9206 88.14 35.6353 87.924 35.3953 87.652C35.1553 87.3747 34.9686 87.0653 34.8353 86.724C34.7073 86.3773 34.6433 86.0227 34.6433 85.66C34.6433 85.2813 34.7126 84.9213 34.8513 84.58C34.9899 84.2333 35.1819 83.9267 35.4273 83.66C35.6726 83.388 35.9606 83.1747 36.2913 83.02C36.6273 82.86 36.9899 82.78 37.3793 82.78C37.7846 82.78 38.1526 82.8627 38.4833 83.028C38.8193 83.1933 39.1046 83.4147 39.3393 83.692C39.5793 83.9693 39.7633 84.2787 39.8913 84.62C40.0246 84.9613 40.0913 85.3107 40.0913 85.668C40.0913 86.0467 40.0219 86.4093 39.8833 86.756C39.7499 87.0973 39.5606 87.404 39.3153 87.676C39.0699 87.9427 38.7793 88.1533 38.4433 88.308C38.1126 88.4627 37.7526 88.54 37.3633 88.54ZM35.5553 85.66C35.5553 85.9267 35.5979 86.1853 35.6833 86.436C35.7686 86.6867 35.8886 86.9107 36.0433 87.108C36.2033 87.3 36.3953 87.452 36.6193 87.564C36.8433 87.676 37.0939 87.732 37.3713 87.732C37.6593 87.732 37.9153 87.6733 38.1393 87.556C38.3633 87.4387 38.5499 87.2813 38.6993 87.084C38.8539 86.8813 38.9713 86.6573 39.0513 86.412C39.1313 86.1613 39.1713 85.9107 39.1713 85.66C39.1713 85.3933 39.1286 85.1373 39.0433 84.892C38.9633 84.6413 38.8433 84.42 38.6833 84.228C38.5233 84.0307 38.3313 83.876 38.1073 83.764C37.8886 83.652 37.6433 83.596 37.3713 83.596C37.0833 83.596 36.8273 83.6547 36.6033 83.772C36.3793 83.8893 36.1899 84.0467 36.0353 84.244C35.8806 84.4413 35.7606 84.6627 35.6753 84.908C35.5953 85.1533 35.5553 85.404 35.5553 85.66ZM45.4829 87.036C45.4829 87.34 45.4029 87.6013 45.2429 87.82C45.0882 88.0387 44.8776 88.2067 44.6109 88.324C44.3442 88.4413 44.0509 88.5 43.7309 88.5H41.0189V82.82H43.9469C44.2136 82.82 44.4429 82.892 44.6349 83.036C44.8322 83.1747 44.9816 83.356 45.0829 83.58C45.1896 83.7987 45.2429 84.028 45.2429 84.268C45.2429 84.5453 45.1709 84.8067 45.0269 85.052C44.8882 85.292 44.6882 85.4707 44.4269 85.588C44.7522 85.684 45.0082 85.86 45.1949 86.116C45.3869 86.3667 45.4829 86.6733 45.4829 87.036ZM44.5629 86.868C44.5629 86.708 44.5282 86.564 44.4589 86.436C44.3949 86.3027 44.3042 86.196 44.1869 86.116C44.0749 86.0307 43.9416 85.988 43.7869 85.988H41.9149V87.724H43.7309C43.8909 87.724 44.0322 87.6867 44.1549 87.612C44.2829 87.532 44.3816 87.428 44.4509 87.3C44.5256 87.1667 44.5629 87.0227 44.5629 86.868ZM41.9149 83.596V85.268H43.5629C43.7122 85.268 43.8456 85.2333 43.9629 85.164C44.0802 85.0893 44.1736 84.9907 44.2429 84.868C44.3122 84.74 44.3469 84.596 44.3469 84.436C44.3469 84.2707 44.3149 84.1267 44.2509 84.004C44.1869 83.876 44.0989 83.7773 43.9869 83.708C43.8802 83.6333 43.7549 83.596 43.6109 83.596H41.9149ZM46.4173 88.5V82.82H47.3133V88.5H46.4173ZM48.597 88.5V82.82H49.493V87.708H52.541V88.5H48.597ZM53.2689 88.5V82.82H54.1649V88.5H53.2689ZM59.3446 87.708V88.5H55.4486V82.82H59.2726V83.612H56.3446V85.228H58.8806V85.972H56.3446V87.708H59.3446ZM61.6827 87.5C61.7681 87.564 61.8987 87.628 62.0747 87.692C62.2507 87.7507 62.4587 87.78 62.6987 87.78C62.9334 87.78 63.1227 87.7427 63.2667 87.668C63.4161 87.588 63.5281 87.4707 63.6027 87.316C63.6827 87.156 63.7361 86.9533 63.7627 86.708C63.7947 86.4627 63.8107 86.172 63.8107 85.836V82.82H64.7147V85.708C64.7147 86.1293 64.6907 86.516 64.6427 86.868C64.6001 87.22 64.5121 87.5267 64.3787 87.788C64.2454 88.044 64.0454 88.2413 63.7787 88.38C63.5174 88.5187 63.1654 88.588 62.7227 88.588C62.4614 88.588 62.2294 88.5587 62.0267 88.5C61.8241 88.4413 61.6374 88.3533 61.4667 88.236L61.6827 87.5ZM69.829 87.708V88.5H65.933V82.82H69.757V83.612H66.829V85.228H69.365V85.972H66.829V87.708H69.829ZM74.9213 83.612H73.0333V88.5H72.1293V83.612H70.2333V82.82H74.9213V83.612ZM75.291 87.812L78.723 83.612H75.371V82.82H79.787V83.508L76.443 87.708H79.795V88.5H75.291V87.812ZM84.8822 83.612H82.9942V88.5H82.0902V83.612H80.1942V82.82H84.8822V83.612ZM17.8345 96.036C17.8345 96.34 17.7545 96.6013 17.5945 96.82C17.4398 97.0387 17.2291 97.2067 16.9625 97.324C16.6958 97.4413 16.4025 97.5 16.0825 97.5H13.3705V91.82H16.2985C16.5651 91.82 16.7945 91.892 16.9865 92.036C17.1838 92.1747 17.3331 92.356 17.4345 92.58C17.5411 92.7987 17.5945 93.028 17.5945 93.268C17.5945 93.5453 17.5225 93.8067 17.3785 94.052C17.2398 94.292 17.0398 94.4707 16.7785 94.588C17.1038 94.684 17.3598 94.86 17.5465 95.116C17.7385 95.3667 17.8345 95.6733 17.8345 96.036ZM16.9145 95.868C16.9145 95.708 16.8798 95.564 16.8105 95.436C16.7465 95.3027 16.6558 95.196 16.5385 95.116C16.4265 95.0307 16.2931 94.988 16.1385 94.988H14.2665V96.724H16.0825C16.2425 96.724 16.3838 96.6867 16.5065 96.612C16.6345 96.532 16.7331 96.428 16.8025 96.3C16.8771 96.1667 16.9145 96.0227 16.9145 95.868ZM14.2665 92.596V94.268H15.9145C16.0638 94.268 16.1971 94.2333 16.3145 94.164C16.4318 94.0893 16.5251 93.9907 16.5945 93.868C16.6638 93.74 16.6985 93.596 16.6985 93.436C16.6985 93.2707 16.6665 93.1267 16.6025 93.004C16.5385 92.876 16.4505 92.7773 16.3385 92.708C16.2318 92.6333 16.1065 92.596 15.9625 92.596H14.2665ZM22.6649 96.708V97.5H18.7689V91.82H22.5929V92.612H19.6649V94.228H22.2009V94.972H19.6649V96.708H22.6649ZM25.6052 91.844H26.4452L27.1492 93.772L27.8612 91.844H28.7012L27.7252 94.372L28.5732 96.46L30.3412 91.82H31.3252L28.9972 97.5H28.2212L27.1572 94.956L26.0852 97.5H25.3012L22.9812 91.82H23.9572L25.7332 96.46L26.5812 94.372L25.6052 91.844ZM35.8915 96.708V97.5H31.9955V91.82H35.8195V92.612H32.8915V94.228H35.4275V94.972H32.8915V96.708H35.8915ZM36.8158 97.5V91.82H39.2878C39.5438 91.82 39.7784 91.8733 39.9918 91.98C40.2051 92.0867 40.3891 92.228 40.5438 92.404C40.7038 92.58 40.8264 92.7773 40.9118 92.996C41.0024 93.2147 41.0478 93.4387 41.0478 93.668C41.0478 93.9187 41.0024 94.1587 40.9118 94.388C40.8211 94.6173 40.6904 94.8147 40.5198 94.98C40.3544 95.1453 40.1598 95.2653 39.9358 95.34L41.2718 97.5H40.2638L39.0318 95.524H37.7118V97.5H36.8158ZM37.7118 94.732H39.2798C39.4451 94.732 39.5918 94.684 39.7198 94.588C39.8478 94.492 39.9491 94.364 40.0238 94.204C40.0984 94.0387 40.1358 93.86 40.1358 93.668C40.1358 93.4707 40.0931 93.2947 40.0078 93.14C39.9224 92.98 39.8104 92.852 39.6718 92.756C39.5384 92.66 39.3918 92.612 39.2318 92.612H37.7118V94.732ZM46.2182 92.612H44.3302V97.5H43.4262V92.612H41.5302V91.82H46.2182V92.612ZM50.8758 96.708V97.5H46.9798V91.82H50.8038V92.612H47.8758V94.228H50.4118V94.972H47.8758V96.708H50.8758ZM52.6962 93.484V97.5H51.8002V91.82H52.5362L55.7522 95.924V91.828H56.6562V97.5H55.8722L52.6962 93.484ZM59.9095 97.5V91.82H60.8055V96.708H63.8535V97.5H59.9095ZM66.2214 91.82H67.0694L69.2774 97.5H68.3334L67.7334 95.956H65.5414L64.9494 97.5H63.9974L66.2214 91.82ZM67.5574 95.292L66.6454 92.804L65.7014 95.292H67.5574ZM73.2617 93.156C73.2084 93.0973 73.1311 93.036 73.0297 92.972C72.9284 92.9027 72.8084 92.8387 72.6697 92.78C72.5311 92.7213 72.3817 92.6733 72.2217 92.636C72.0617 92.5987 71.8964 92.58 71.7257 92.58C71.3524 92.58 71.0751 92.6493 70.8937 92.788C70.7124 92.9267 70.6217 93.1187 70.6217 93.364C70.6217 93.5453 70.6724 93.6893 70.7737 93.796C70.8751 93.8973 71.0297 93.9827 71.2377 94.052C71.4457 94.1213 71.7071 94.196 72.0217 94.276C72.4057 94.3667 72.7391 94.476 73.0217 94.604C73.3044 94.7267 73.5204 94.892 73.6697 95.1C73.8191 95.308 73.8937 95.5827 73.8937 95.924C73.8937 96.212 73.8404 96.46 73.7337 96.668C73.6271 96.876 73.4777 97.0467 73.2857 97.18C73.0937 97.308 72.8724 97.404 72.6217 97.468C72.3711 97.5267 72.1017 97.556 71.8137 97.556C71.5311 97.556 71.2484 97.5267 70.9657 97.468C70.6884 97.4093 70.4217 97.324 70.1657 97.212C69.9151 97.0947 69.6831 96.9533 69.4697 96.788L69.8777 96.02C69.9471 96.0893 70.0457 96.1667 70.1737 96.252C70.3071 96.332 70.4591 96.4093 70.6297 96.484C70.8057 96.5587 70.9951 96.6227 71.1977 96.676C71.4057 96.724 71.6164 96.748 71.8297 96.748C72.1871 96.748 72.4591 96.6867 72.6457 96.564C72.8377 96.436 72.9337 96.2547 72.9337 96.02C72.9337 95.828 72.8724 95.676 72.7497 95.564C72.6271 95.4467 72.4484 95.348 72.2137 95.268C71.9791 95.188 71.6991 95.108 71.3737 95.028C71.0004 94.9267 70.6884 94.8173 70.4377 94.7C70.1871 94.5773 69.9977 94.4227 69.8697 94.236C69.7471 94.044 69.6857 93.8013 69.6857 93.508C69.6857 93.1347 69.7764 92.82 69.9577 92.564C70.1391 92.3027 70.3844 92.108 70.6937 91.98C71.0084 91.8467 71.3604 91.78 71.7497 91.78C72.0057 91.78 72.2484 91.8093 72.4777 91.868C72.7071 91.9213 72.9204 91.996 73.1177 92.092C73.3204 92.188 73.5044 92.2973 73.6697 92.42L73.2617 93.156ZM78.1523 93.156C78.099 93.0973 78.0217 93.036 77.9203 92.972C77.819 92.9027 77.699 92.8387 77.5603 92.78C77.4217 92.7213 77.2723 92.6733 77.1123 92.636C76.9523 92.5987 76.787 92.58 76.6163 92.58C76.243 92.58 75.9657 92.6493 75.7843 92.788C75.603 92.9267 75.5123 93.1187 75.5123 93.364C75.5123 93.5453 75.563 93.6893 75.6643 93.796C75.7657 93.8973 75.9203 93.9827 76.1283 94.052C76.3363 94.1213 76.5977 94.196 76.9123 94.276C77.2963 94.3667 77.6297 94.476 77.9123 94.604C78.195 94.7267 78.411 94.892 78.5603 95.1C78.7097 95.308 78.7843 95.5827 78.7843 95.924C78.7843 96.212 78.731 96.46 78.6243 96.668C78.5177 96.876 78.3683 97.0467 78.1763 97.18C77.9843 97.308 77.763 97.404 77.5123 97.468C77.2617 97.5267 76.9923 97.556 76.7043 97.556C76.4217 97.556 76.139 97.5267 75.8563 97.468C75.579 97.4093 75.3123 97.324 75.0563 97.212C74.8057 97.0947 74.5737 96.9533 74.3603 96.788L74.7683 96.02C74.8377 96.0893 74.9363 96.1667 75.0643 96.252C75.1977 96.332 75.3497 96.4093 75.5203 96.484C75.6963 96.5587 75.8857 96.6227 76.0883 96.676C76.2963 96.724 76.507 96.748 76.7203 96.748C77.0777 96.748 77.3497 96.6867 77.5363 96.564C77.7283 96.436 77.8243 96.2547 77.8243 96.02C77.8243 95.828 77.763 95.676 77.6403 95.564C77.5177 95.4467 77.339 95.348 77.1043 95.268C76.8697 95.188 76.5897 95.108 76.2643 95.028C75.891 94.9267 75.579 94.8173 75.3283 94.7C75.0777 94.5773 74.8883 94.4227 74.7603 94.236C74.6377 94.044 74.5763 93.8013 74.5763 93.508C74.5763 93.1347 74.667 92.82 74.8483 92.564C75.0297 92.3027 75.275 92.108 75.5843 91.98C75.899 91.8467 76.251 91.78 76.6403 91.78C76.8963 91.78 77.139 91.8093 77.3683 91.868C77.5977 91.9213 77.811 91.996 78.0083 92.092C78.211 92.188 78.395 92.2973 78.5603 92.42L78.1523 93.156ZM83.579 96.708V97.5H79.683V91.82H83.507V92.612H80.579V94.228H83.115V94.972H80.579V96.708H83.579ZM85.3993 93.484V97.5H84.5033V91.82H85.2393L88.4553 95.924V91.828H89.3593V97.5H88.5753L85.3993 93.484ZM90.6921 95.476V91.764H91.5721V95.476H90.6921ZM90.6921 97.5V96.404H91.5721V97.5H90.6921Z" fill="white"/>
</svg>
