<svg width="112" height="102" viewBox="0 0 112 102" fill="none" xmlns="http://www.w3.org/2000/svg">
<g clip-path="url(#clip0_1144_3180)">
<path d="M109.183 60.1573C109.328 60.0812 109.458 59.9773 109.563 59.8514C109.668 59.7254 109.747 59.58 109.796 59.4234C109.845 59.2668 109.863 59.102 109.848 58.9386C109.834 58.7751 109.787 58.6162 109.711 58.4708C109.626 58.3087 109.54 58.1482 109.45 57.9893C109.492 57.8155 109.531 57.6387 109.568 57.461C109.634 57.1368 109.569 56.7994 109.387 56.523C109.205 56.2465 108.921 56.0535 108.597 55.9863C108.273 55.919 107.936 55.9831 107.659 56.1643C107.382 56.3456 107.188 56.6293 107.12 56.9532C107.056 57.2589 106.984 57.5606 106.906 57.8565C106.862 58.0187 106.852 58.188 106.876 58.3543C106.899 58.5206 106.956 58.6804 107.042 58.8243C107.202 59.088 107.353 59.3562 107.496 59.629C107.572 59.7745 107.676 59.9036 107.802 60.0089C107.928 60.1142 108.073 60.1937 108.23 60.2428C108.387 60.2918 108.552 60.3095 108.715 60.2949C108.879 60.2802 109.038 60.2335 109.183 60.1573Z" fill="black"/>
<path d="M107.198 50.3984C107.31 51.0156 107.388 51.6387 107.431 52.2646C107.453 52.5802 107.593 52.8758 107.824 53.0918C108.056 53.3078 108.36 53.4282 108.676 53.4286C108.706 53.4286 108.735 53.4276 108.764 53.4257C109.095 53.4028 109.403 53.2496 109.62 52.9996C109.838 52.7496 109.948 52.4234 109.925 52.0927C109.875 51.3745 109.786 50.6595 109.658 49.9511C109.599 49.6249 109.412 49.3356 109.14 49.1469C108.867 48.9581 108.53 48.8854 108.204 48.9447C107.878 49.004 107.589 49.1905 107.4 49.4631C107.211 49.7357 107.139 50.0721 107.198 50.3984Z" fill="black"/>
<path d="M105.684 46.0284C105.844 46.3189 106.112 46.534 106.431 46.6264C106.749 46.7188 107.091 46.6809 107.382 46.5211C107.672 46.3613 107.887 46.0927 107.98 45.7743C108.072 45.4559 108.034 45.1138 107.874 44.8234C107.517 44.171 107.106 43.5497 106.645 42.9659C106.439 42.7076 106.138 42.5417 105.809 42.5045C105.481 42.4673 105.151 42.562 104.892 42.7677C104.633 42.9734 104.466 43.2734 104.427 43.6019C104.389 43.9305 104.483 44.2609 104.687 44.5206C105.061 44.9945 105.394 45.4989 105.684 46.0284Z" fill="black"/>
<path d="M102.071 39.6983C102.075 39.384 101.96 39.0799 101.749 38.8466C101.539 38.6133 101.248 38.4678 100.935 38.4391C100.622 38.4104 100.31 38.5006 100.06 38.6918C99.811 38.883 99.6427 39.1611 99.5891 39.4707C99.5354 39.7832 99.4752 40.0925 99.4085 40.3985C99.3714 40.5688 99.3704 40.745 99.4055 40.9158C99.4406 41.0866 99.511 41.2481 99.6123 41.39C99.7136 41.5319 99.8434 41.6511 99.9935 41.7398C100.144 41.8286 100.311 41.8849 100.484 41.9053C100.749 41.9369 101.012 41.9895 101.269 42.0625C101.577 42.1497 101.907 42.1151 102.191 41.966C102.474 41.8169 102.69 41.5647 102.793 41.2613C102.895 40.958 102.878 40.6267 102.744 40.3358C102.609 40.0449 102.369 39.8167 102.071 39.6983Z" fill="black"/>
<path d="M98.4147 27.4014C98.6276 27.9278 98.8225 28.4805 98.9929 29.043C99.0709 29.2994 99.2293 29.524 99.4445 29.6836C99.6598 29.8432 99.9207 29.9295 100.189 29.9297C100.312 29.9295 100.434 29.9115 100.552 29.876C100.87 29.7796 101.136 29.5611 101.292 29.2687C101.448 28.9762 101.482 28.6337 101.385 28.3165C101.193 27.6827 100.973 27.0596 100.732 26.4639C100.671 26.3113 100.58 26.1723 100.465 26.0549C100.35 25.9374 100.213 25.8439 100.062 25.7795C99.9103 25.7151 99.7478 25.6812 99.5834 25.6797C99.4189 25.6783 99.2559 25.7093 99.1034 25.7709C98.951 25.8326 98.8123 25.9237 98.6951 26.0391C98.578 26.1545 98.4847 26.2918 98.4208 26.4433C98.3568 26.5947 98.3233 26.7573 98.3223 26.9217C98.3213 27.0862 98.3527 27.2492 98.4147 27.4014Z" fill="black"/>
<path d="M96.3173 23.6659C96.5192 23.9287 96.8171 24.1006 97.1457 24.1439C97.4743 24.1871 97.8066 24.0981 98.0696 23.8965C98.3326 23.6948 98.5047 23.397 98.5483 23.0685C98.5918 22.7399 98.5031 22.4076 98.3017 22.1444C97.8918 21.6087 97.4461 21.1013 96.9677 20.6258C96.7322 20.3925 96.4137 20.2622 96.0822 20.2637C95.7508 20.2652 95.4334 20.3982 95.2001 20.6337C94.9667 20.8691 94.8364 21.1876 94.8379 21.5191C94.8394 21.8506 94.9725 22.1679 95.2079 22.4013C95.606 22.7971 95.9766 23.2196 96.3173 23.6659Z" fill="black"/>
<path d="M99.8247 33.3369C99.8789 33.9131 99.9121 34.5039 99.9224 35.0918C99.9283 35.4193 100.063 35.7314 100.296 35.9609C100.53 36.1905 100.844 36.3192 101.172 36.3193H101.195C101.526 36.3133 101.842 36.1759 102.072 35.9372C102.302 35.6986 102.428 35.3784 102.422 35.0469C102.411 34.3955 102.374 33.7412 102.314 33.1025C102.283 32.7726 102.122 32.4687 101.866 32.2575C101.611 32.0463 101.282 31.9452 100.952 31.9762C100.622 32.0073 100.318 32.168 100.107 32.4232C99.8955 32.6783 99.794 33.007 99.8247 33.3369Z" fill="black"/>
<path d="M90.2865 19.9073C90.8079 19.9597 91.3219 20.0704 91.8187 20.2373C91.9744 20.2895 92.1388 20.3104 92.3026 20.299C92.4664 20.2876 92.6263 20.244 92.7733 20.1708C92.9202 20.0976 93.0513 19.9961 93.1591 19.8722C93.2668 19.7483 93.3491 19.6044 93.4012 19.4487C93.4533 19.2931 93.4743 19.1286 93.4629 18.9648C93.4515 18.8011 93.4079 18.6411 93.3347 18.4942C93.2614 18.3472 93.16 18.2161 93.0361 18.1084C92.9122 18.0006 92.7683 17.9184 92.6126 17.8662C91.9387 17.6402 91.2417 17.4902 90.5345 17.419C90.205 17.3869 89.8762 17.4868 89.6202 17.6969C89.3643 17.9069 89.2021 18.2099 89.1693 18.5394C89.1364 18.8688 89.2356 19.1979 89.445 19.4543C89.6545 19.7107 89.9571 19.8736 90.2865 19.9073Z" fill="black"/>
<path d="M85.5552 17.8252C85.2325 17.7496 84.8931 17.8052 84.6114 17.9797C84.3297 18.1542 84.1288 18.4333 84.0527 18.7558C83.9824 19.0556 83.9048 19.3766 83.8198 19.7187C83.7598 19.9611 83.7738 20.2159 83.86 20.4502C83.9462 20.6846 84.1006 20.8877 84.3033 21.0335C84.506 21.1793 84.7478 21.261 84.9974 21.268C85.2469 21.2751 85.4929 21.2073 85.7036 21.0732C85.9488 20.9176 86.2017 20.7745 86.4614 20.6445C86.6821 20.5344 86.8652 20.3614 86.9878 20.1473C87.1103 19.9333 87.1669 19.6878 87.1502 19.4418C87.1336 19.1957 87.0445 18.96 86.8942 18.7645C86.7439 18.5689 86.5391 18.4222 86.3056 18.3428C86.1299 18.0816 85.8617 17.8967 85.5552 17.8252Z" fill="black"/>
<path d="M83.767 14.9149C84.0015 15.0528 84.2257 15.2075 84.4379 15.3778C84.5592 15.4884 84.7011 15.574 84.8555 15.6298C85.0099 15.6856 85.1738 15.7104 85.3378 15.7028C85.5018 15.6952 85.6627 15.6554 85.8113 15.5857C85.9599 15.5159 86.0934 15.4176 86.204 15.2963C86.3146 15.1749 86.4002 15.033 86.456 14.8786C86.5117 14.7242 86.5365 14.5603 86.529 14.3963C86.5214 14.2323 86.4816 14.0714 86.4118 13.9228C86.3421 13.7742 86.2437 13.6408 86.1224 13.5301C85.8054 13.2583 85.465 13.0149 85.1053 12.8026C84.8978 12.6718 84.6663 12.5253 84.4105 12.3485C84.2755 12.2552 84.1234 12.1894 83.9629 12.1549C83.8025 12.1204 83.6368 12.1178 83.4753 12.1473C83.3138 12.1768 83.1598 12.2379 83.0219 12.3269C82.884 12.416 82.765 12.5313 82.6717 12.6664C82.5784 12.8014 82.5127 12.9535 82.4781 13.114C82.4436 13.2744 82.4411 13.4401 82.4706 13.6016C82.5001 13.7631 82.5611 13.9171 82.6502 14.055C82.7392 14.1929 82.8546 14.3118 82.9896 14.4051C83.2757 14.6034 83.535 14.7675 83.767 14.9149Z" fill="black"/>
<path d="M72.2239 14.1085C72.4242 14.1087 72.6216 14.0607 72.7995 13.9686C72.9774 13.8764 73.1305 13.7429 73.2459 13.5792C73.5515 13.1384 73.9096 12.7363 74.3123 12.3819C74.4366 12.2747 74.5385 12.144 74.6123 11.9973C74.686 11.8506 74.7302 11.6909 74.7422 11.5272C74.7542 11.3634 74.7338 11.1989 74.6823 11.0431C74.6307 10.8872 74.549 10.743 74.4417 10.6188C74.3344 10.4945 74.2037 10.3926 74.0571 10.3188C73.9104 10.2451 73.7506 10.2009 73.5869 10.1889C73.4232 10.1769 73.2587 10.1972 73.1028 10.2488C72.947 10.3003 72.8028 10.3821 72.6785 10.4894C72.1219 10.977 71.6267 11.5305 71.2039 12.1378C71.0716 12.3248 70.9934 12.5446 70.9776 12.7731C70.9618 13.0016 71.0091 13.23 71.1144 13.4334C71.2197 13.6368 71.3789 13.8074 71.5745 13.9265C71.7702 14.0455 71.9949 14.1085 72.2239 14.1085Z" fill="black"/>
<path d="M77.7517 11.3769C78.2747 11.4604 78.7846 11.6114 79.2688 11.8262C79.4193 11.8926 79.5815 11.9286 79.7461 11.9322C79.9106 11.9358 80.0742 11.9069 80.2275 11.847C80.3808 11.7872 80.5208 11.6977 80.6395 11.5836C80.7581 11.4696 80.853 11.3332 80.9188 11.1823C80.9846 11.0315 81.0199 10.8691 81.0228 10.7046C81.0256 10.5401 80.996 10.3766 80.9355 10.2235C80.875 10.0705 80.7849 9.93087 80.6703 9.81274C80.5557 9.69462 80.4189 9.60029 80.2678 9.53516C79.5837 9.23235 78.8629 9.02027 78.1238 8.9043C77.7959 8.85496 77.4618 8.9379 77.1951 9.13487C76.9283 9.33184 76.7508 9.6267 76.7014 9.95459C76.6521 10.2825 76.735 10.6166 76.932 10.8833C77.129 11.15 77.4238 11.3276 77.7517 11.3769Z" fill="black"/>
<path d="M67.7646 17.746C68.0142 17.9003 68.2588 18.0673 68.4961 18.246C68.67 18.3764 68.8749 18.4593 69.0906 18.4863C69.3063 18.5134 69.5253 18.4838 69.726 18.4003C69.9267 18.3169 70.1023 18.1826 70.2352 18.0107C70.3682 17.8387 70.4541 17.6351 70.4844 17.4198L70.4951 17.3456C70.6667 17.1894 70.7915 16.9884 70.8553 16.7653C70.9192 16.5422 70.9197 16.3057 70.8568 16.0823C70.7939 15.8589 70.6701 15.6574 70.4992 15.5004C70.3283 15.3434 70.117 15.2371 69.8891 15.1933C69.6978 15.1541 69.5004 15.155 69.3094 15.196C69.1185 15.237 68.9381 15.3172 68.7797 15.4316C68.7622 15.4443 68.7446 15.457 68.7275 15.4706C68.438 15.3973 68.1319 15.4301 67.8645 15.563C67.5971 15.6959 67.3861 15.9202 67.2697 16.1952C67.1533 16.4702 67.1393 16.7777 67.2301 17.0622C67.3208 17.3467 67.5105 17.5893 67.7646 17.746Z" fill="black"/>
<path d="M62.3695 16.5624C62.4215 16.5625 62.4736 16.5593 62.5252 16.5526C63.0417 16.49 63.563 16.4776 64.0819 16.5155C64.4116 16.5356 64.7361 16.426 64.9861 16.2102C65.2362 15.9944 65.392 15.6893 65.4202 15.3602C65.4446 15.0296 65.3366 14.7028 65.1201 14.4517C64.9035 14.2006 64.5961 14.0458 64.2655 14.0214C63.5825 13.9714 62.8963 13.9884 62.2166 14.0722C61.9011 14.1114 61.6124 14.2695 61.4093 14.5141C61.2062 14.7588 61.104 15.0717 61.1234 15.3891C61.1429 15.7064 61.2826 16.0045 61.5141 16.2224C61.7456 16.4404 62.0515 16.562 62.3695 16.5624Z" fill="black"/>
<path d="M56.7842 19.2842C57.1027 19.2847 57.4092 19.1631 57.6406 18.9443C58.0295 18.5777 58.4475 18.2432 58.8906 17.9443C59.0268 17.8527 59.1436 17.735 59.2344 17.5982C59.3251 17.4614 59.388 17.308 59.4195 17.1469C59.4509 16.9857 59.4504 16.82 59.4178 16.659C59.3852 16.4981 59.3212 16.3452 59.2295 16.209C59.1378 16.0728 59.0202 15.956 58.8834 15.8653C58.7465 15.7745 58.5932 15.7116 58.432 15.6802C58.2709 15.6487 58.1051 15.6493 57.9442 15.6819C57.7833 15.7145 57.6304 15.7784 57.4942 15.8701C56.9391 16.2453 56.4153 16.6646 55.9277 17.124C55.7453 17.2956 55.6186 17.5181 55.5641 17.7625C55.5096 18.007 55.5298 18.2622 55.6222 18.495C55.7145 18.7279 55.8746 18.9276 56.0818 19.0683C56.289 19.209 56.5337 19.2842 56.7842 19.2842Z" fill="black"/>
<path d="M105.237 74.581C104.753 74.8209 104.238 74.9922 103.706 75.0898C103.4 75.1466 103.125 75.3158 102.937 75.5642C102.749 75.8126 102.66 76.1223 102.689 76.4326C102.717 76.743 102.86 77.0315 103.09 77.2418C103.32 77.4521 103.62 77.5689 103.932 77.5693C104.009 77.5692 104.085 77.5624 104.161 77.5488C104.92 77.4086 105.656 77.1637 106.348 76.8213C106.495 76.7486 106.627 76.6476 106.735 76.524C106.844 76.4003 106.927 76.2565 106.98 76.1007C107.032 75.945 107.054 75.7803 107.043 75.6162C107.032 75.4521 106.989 75.2918 106.916 75.1444C106.843 74.9971 106.741 74.8656 106.617 74.7575C106.493 74.6494 106.349 74.5668 106.193 74.5144C106.037 74.4621 105.873 74.4411 105.709 74.4525C105.545 74.4639 105.384 74.5076 105.237 74.581Z" fill="black"/>
<path d="M110.333 69.2755C110.177 69.2264 110.012 69.2088 109.848 69.2236C109.685 69.2384 109.526 69.2853 109.38 69.3617C109.235 69.4381 109.106 69.5425 109.001 69.6688C108.896 69.7951 108.817 69.9408 108.769 70.0977C108.6 70.6493 108.379 71.1836 108.108 71.6934C107.952 71.9858 107.919 72.3283 108.015 72.6455C108.111 72.9627 108.33 73.2287 108.622 73.3848C108.914 73.541 109.257 73.5746 109.574 73.4783C109.891 73.382 110.157 73.1636 110.313 72.8712C110.658 72.2223 110.94 71.5421 111.157 70.8399C111.205 70.6831 111.223 70.5183 111.208 70.3548C111.193 70.1913 111.146 70.0324 111.069 69.8871C110.993 69.7418 110.888 69.613 110.762 69.5081C110.636 69.4031 110.49 69.3241 110.333 69.2755Z" fill="black"/>
<path d="M111.457 63.422C111.393 63.0967 111.203 62.81 110.928 62.625C110.653 62.4401 110.315 62.3719 109.99 62.4357C109.665 62.4994 109.378 62.6897 109.193 62.9648C109.008 63.2399 108.94 63.5771 109.004 63.9025C109.12 64.495 109.199 65.0941 109.242 65.6965C109.263 66.0121 109.404 66.3077 109.635 66.5237C109.866 66.7397 110.171 66.8601 110.487 66.8605C110.516 66.8605 110.545 66.8595 110.575 66.8576C110.905 66.8347 111.213 66.6814 111.431 66.4315C111.649 66.1815 111.758 65.8553 111.736 65.5246C111.687 64.8186 111.593 64.1164 111.457 63.422Z" fill="black"/>
<path d="M19.7871 67.419H34.3882V46.584H19.7871V67.419ZM22.2871 49.084H31.8882V64.919H22.2871V49.084Z" fill="black"/>
<path d="M93.8262 57.6982H78.0664V56.7832C78.0656 55.9725 77.7433 55.1951 77.1701 54.6217C76.5968 54.0483 75.8196 53.7257 75.0088 53.7247H73.8145C73.0036 53.7257 72.2263 54.0483 71.653 54.6216C71.0797 55.195 70.7572 55.9724 70.7563 56.7832V57.6982H67.9106V48.2812H77.5806L38.79 0L0 48.2812H9.18359V90.2764H67.9106V85.2002H70.7563V97.9473C70.7572 98.7581 71.0797 99.5355 71.653 100.109C72.2263 100.682 73.0036 101.005 73.8145 101.006H75.0088C75.8196 101.005 76.5968 100.682 77.1701 100.109C77.7433 99.5354 78.0656 98.7581 78.0664 97.9473V85.2002H93.8262C95.6319 85.1982 97.363 84.48 98.6399 83.2032C99.9167 81.9265 100.635 80.1953 100.637 78.3896V64.5088C100.635 62.7031 99.9167 60.972 98.6399 59.6952C97.363 58.4184 95.6319 57.7003 93.8262 57.6982ZM73.2563 56.7832C73.2582 56.6358 73.3176 56.4948 73.4218 56.3905C73.5261 56.2861 73.667 56.2266 73.8145 56.2247H75.0088C75.1562 56.2267 75.297 56.2863 75.4011 56.3906C75.5053 56.4949 75.5646 56.6358 75.5664 56.7832V57.6982H73.2563V56.7832ZM65.4106 87.7764H11.6836V45.7812H5.21582L38.79 3.99219L72.3648 45.7812H65.4106V57.6982H56.2422V46.584H41.6411V67.419H48.186V78.3897C48.1881 80.1954 48.9064 81.9265 50.1833 83.2033C51.4602 84.48 53.1913 85.1982 54.997 85.2002H65.4106V87.7764ZM48.186 64.5088V64.919H44.1411V49.084H53.7422V57.8191C52.1822 58.113 50.7736 58.9421 49.7593 60.1633C48.745 61.3845 48.1886 62.9213 48.186 64.5088ZM75.5664 97.9473C75.5646 98.0947 75.5053 98.2356 75.4011 98.3399C75.297 98.4442 75.1562 98.5038 75.0088 98.5059H73.8145C73.667 98.5039 73.5261 98.4444 73.4218 98.34C73.3176 98.2357 73.2582 98.0948 73.2563 97.9473V85.2002H75.5664V97.9473ZM98.1372 78.3896C98.1358 79.5325 97.6812 80.6282 96.873 81.4363C96.0648 82.2444 94.9691 82.699 93.8262 82.7002H54.9971C53.8542 82.699 52.7585 82.2444 51.9503 81.4363C51.1421 80.6282 50.6874 79.5325 50.6861 78.3896V64.5088C50.6874 63.3659 51.1421 62.2702 51.9503 61.4621C52.7585 60.654 53.8542 60.1995 54.9971 60.1982H93.8262C94.9691 60.1995 96.0648 60.654 96.873 61.4621C97.6812 62.2702 98.1358 63.3659 98.1372 64.5088L98.1372 78.3896Z" fill="black"/>
<path d="M75.4487 67.0627C76.1097 67.055 76.7645 67.1903 77.3683 67.4594C77.972 67.7285 78.5104 68.125 78.9465 68.6218L80.7852 66.643C80.1068 65.9082 79.2806 65.3252 78.3609 64.9326C77.4411 64.5399 76.4486 64.3464 75.4487 64.3647C73.8306 64.3673 72.2586 64.9033 70.9759 65.8896C69.6932 66.876 68.7714 68.2576 68.3533 69.8208H66.9744L66.5547 70.9602H68.1535C68.1335 71.2002 68.1134 71.4597 68.1134 71.6995C68.1134 71.9394 68.1335 72.1794 68.1535 72.4193H66.9744L66.5547 73.5385H68.3533C68.7578 75.1125 69.6747 76.507 70.9594 77.5022C72.2441 78.4974 73.8236 79.0367 75.4487 79.0349C76.4486 79.0531 77.4411 78.8595 78.3608 78.4668C79.2805 78.0741 80.1068 77.4912 80.7852 76.7564L78.9465 74.7777C78.5105 75.2744 77.9721 75.671 77.3683 75.9401C76.7645 76.2092 76.1097 76.3445 75.4487 76.3368C74.5467 76.345 73.6629 76.0828 72.9112 75.584C72.1596 75.0853 71.5746 74.3728 71.2316 73.5385H77.0479L77.4275 72.4193H70.9316C70.8917 72.1814 70.8716 71.9407 70.8715 71.6995C70.8708 71.4518 70.8909 71.2045 70.9316 70.9602H77.9469L78.3466 69.8208H71.2516C71.5982 68.9962 72.1825 68.2936 72.93 67.8024C73.6775 67.3112 74.5543 67.0537 75.4487 67.0627Z" fill="black"/>
</g>
<defs>
<clipPath id="clip0_1144_3180">
<rect width="111.739" height="101.006" fill="white"/>
</clipPath>
</defs>
</svg>
