<svg width="100" height="110" viewBox="0 0 100 110" fill="none" xmlns="http://www.w3.org/2000/svg">
<g clip-path="url(#clip0_1144_3358)">
<path d="M41.9999 8.49985C42.2999 8.79985 42.6999 8.99985 42.9999 8.99985C43.2999 8.99985 43.5999 8.89985 43.7999 8.69985C44.2999 8.29984 44.3999 7.49985 43.9999 6.89985L42.6999 5.29985C42.2999 4.79985 41.4999 4.69985 40.8999 5.09985C40.3999 5.49985 40.2999 6.29985 40.6999 6.89985L41.9999 8.49985Z" fill="black"/>
<path d="M46.6005 14.1998C46.8005 14.4998 47.2005 14.6998 47.6005 14.6998C47.9005 14.6998 48.2005 14.5998 48.4005 14.3998C48.9005 13.9998 49.0005 13.1998 48.6005 12.5998L47.3005 10.9998C46.9005 10.4998 46.1005 10.3998 45.5005 10.7998C45.0005 11.1998 44.9005 11.9998 45.3005 12.5998L46.6005 14.1998Z" fill="black"/>
<path d="M51.2001 19.9C51.4001 20.2 51.8001 20.4 52.2001 20.4C52.5001 20.4 52.8001 20.3 53.0001 20.1C53.5001 19.7 53.6001 18.9 53.2001 18.3L51.9001 16.7C51.5001 16.2 50.7001 16.1 50.1001 16.5C49.6001 16.9 49.5001 17.7 49.9001 18.3L51.2001 19.9Z" fill="black"/>
<path d="M55.7997 25.5999C55.9997 25.8999 56.3997 26.0999 56.7997 26.0999C57.0997 26.0999 57.3997 25.9999 57.5997 25.7999C58.0997 25.3999 58.1997 24.5999 57.7997 23.9999L56.4997 22.3999C56.0997 21.8999 55.2997 21.7999 54.6997 22.1999C54.1997 22.5999 54.0997 23.3999 54.4997 23.9999L55.7997 25.5999Z" fill="black"/>
<path d="M37.7999 3.0999C37.9999 3.1999 38.1999 3.2999 38.3999 3.2999C38.6999 3.2999 38.9999 3.1999 39.1999 2.9999C39.6999 2.5999 39.7999 1.7999 39.3999 1.1999L38.7999 0.399902C38.5999 0.0999023 38.1999 -0.100098 37.7999 -0.100098C37.3999 -0.100098 37.0999 0.0999023 36.7999 0.399902L36.1999 1.1999C35.7999 1.6999 35.8999 2.4999 36.3999 2.9999C36.7999 3.2999 37.3999 3.3999 37.7999 3.0999Z" fill="black"/>
<path d="M32.6003 8.99985C33.0003 8.99985 33.3003 8.79985 33.6003 8.49985L34.9003 6.89985C35.3003 6.39985 35.2003 5.59985 34.7003 5.09985C34.2003 4.69985 33.4003 4.79985 32.9003 5.29985L31.6003 6.89985C31.2003 7.39985 31.3003 8.19985 31.8003 8.69985C32.1003 8.89985 32.3003 8.99985 32.6003 8.99985Z" fill="black"/>
<path d="M5.10033 43.1998C5.50033 43.1998 5.80033 42.9998 6.10033 42.6998L7.40033 41.0998C7.80033 40.5998 7.70033 39.7998 7.20033 39.2998C6.70033 38.8998 5.90033 38.9998 5.40033 39.4998L4.10033 41.0998C3.70033 41.5998 3.80033 42.3998 4.30033 42.8998C4.60033 43.0998 4.90033 43.1998 5.10033 43.1998Z" fill="black"/>
<path d="M23.4997 20.3998C23.8997 20.3998 24.1997 20.1998 24.4997 19.8998L25.7997 18.2998C26.1997 17.7998 26.0997 16.9998 25.5997 16.4998C25.0997 15.9998 24.2997 16.1998 23.7997 16.6998L22.4997 18.2998C22.0997 18.7998 22.1997 19.5998 22.6997 20.0998C22.8997 20.2998 23.1997 20.3998 23.4997 20.3998Z" fill="black"/>
<path d="M14.3005 31.7999C14.7005 31.7999 15.0005 31.5999 15.3005 31.2999L16.6005 29.6999C17.0005 29.1999 16.9005 28.3999 16.4005 27.8999C15.9005 27.4999 15.1005 27.5999 14.6005 28.0999L13.3005 29.6999C12.9005 30.1999 13.0005 30.9999 13.5005 31.4999C13.8005 31.6999 14.0005 31.7999 14.3005 31.7999Z" fill="black"/>
<path d="M27.9997 14.6998C28.3997 14.6998 28.6997 14.4998 28.9997 14.1998L30.2997 12.5998C30.6997 12.0998 30.5997 11.2998 30.0997 10.7998C29.5997 10.3998 28.7997 10.4998 28.2997 10.9998L26.9997 12.5998C26.5997 13.0998 26.6997 13.8998 27.1997 14.3998C27.4997 14.5998 27.7997 14.6998 27.9997 14.6998Z" fill="black"/>
<path d="M18.9001 26.0999C19.3001 26.0999 19.6001 25.8999 19.9001 25.5999L21.2001 23.9999C21.6001 23.4999 21.5001 22.6999 21.0001 22.1999C20.5001 21.7999 19.7001 21.8999 19.2001 22.3999L17.9001 23.9999C17.5001 24.4999 17.6001 25.2999 18.1001 25.7999C18.3001 25.9999 18.6001 26.0999 18.9001 26.0999Z" fill="black"/>
<path d="M9.69994 37.4999C10.0999 37.4999 10.3999 37.2999 10.6999 36.9999L11.9999 35.3999C12.3999 34.8999 12.2999 34.0999 11.7999 33.5999C11.2999 33.0999 10.4999 33.2999 9.99994 33.7999L8.69994 35.3999C8.29994 35.8999 8.39994 36.6999 8.89994 37.1999C9.19994 37.3999 9.39994 37.4999 9.69994 37.4999Z" fill="black"/>
<path d="M3.50015 46.8C3.50015 46.4 3.40015 46.1 3.10015 45.9C3.10015 45.6 2.90015 45.3 2.60015 45C2.10015 44.6 1.30015 44.7 0.800146 45.2L0.300146 46C0.000145584 46.4 -0.0998544 46.9 0.100146 47.3C0.300146 47.7 0.800146 48 1.30015 48H2.30015C2.90015 48 3.50015 47.5 3.50015 46.8Z" fill="black"/>
<path d="M6.90039 46.7998C6.90039 47.3998 7.30039 47.8998 7.90039 47.9998C8.00039 48.5998 8.50039 48.9998 9.10039 48.9998C9.80039 48.9998 10.3004 48.3998 10.3004 47.7998V46.7998C10.3004 46.0998 9.70039 45.5998 9.10039 45.5998H8.10039C7.50039 45.4998 6.90039 46.0998 6.90039 46.7998Z" fill="black"/>
<path d="M10.4 52.7999C10.4 52.0999 9.8 51.5999 9.2 51.5999C8.6 51.5999 8 52.1999 8 52.7999V54.7999C8 55.4999 8.6 55.9999 9.2 55.9999C9.8 55.9999 10.4 55.3999 10.4 54.7999V52.7999Z" fill="black"/>
<path d="M10.4 59.9C10.4 59.2 9.8 58.7 9.2 58.7C8.6 58.7 8 59.3 8 59.9V61.9C8 62.6 8.6 63.0999 9.2 63.0999C9.8 63.0999 10.4 62.5 10.4 61.9V59.9Z" fill="black"/>
<path d="M9.2 65.7C8.5 65.7 8 66.3 8 66.9V68.9C8 69.6 8.6 70.1 9.2 70.1C9.8 70.1 10.4 69.5 10.4 68.9V66.9C10.4 66.3 9.8 65.7 9.2 65.7Z" fill="black"/>
<path d="M55.3003 35.4998C54.2003 35.5998 53.1003 35.8998 52.0003 36.2998C48.4003 37.6998 45.6003 40.2998 44.1003 43.7998C42.5003 47.2998 42.4003 51.0998 43.8003 54.6998C45.2003 58.2998 47.8003 61.0998 51.3003 62.5998C53.6003 63.5998 56.1003 63.9998 58.6003 63.7998C59.8003 63.6998 61.0003 63.3998 62.2003 62.8998C63.1003 62.5998 63.9003 62.0998 64.7003 61.5998V61.8998C64.7003 62.5998 65.3003 63.0998 65.9003 63.0998C66.5003 63.0998 67.1003 62.4998 67.1003 61.8998V59.8998C67.1003 59.7999 67.1003 59.6998 67.1003 59.6998C69.7003 57.0998 71.2003 53.5998 71.3003 49.8998C76.8003 49.1998 81.6003 45.2998 83.2003 39.6998C85.3003 32.0998 80.9003 24.2998 73.4003 22.0998C69.7003 21.0998 65.9003 21.4998 62.6003 23.3998C59.3003 25.2998 56.9003 28.2998 55.8003 31.8998C55.5003 33.0998 55.3003 34.2998 55.3003 35.4998ZM57.9003 32.4998C58.8003 29.3998 60.8003 26.7998 63.7003 25.1998C66.5003 23.5998 69.8003 23.1998 72.9003 24.0998C73.9003 24.3998 74.9003 24.7998 75.8003 25.2998C80.4003 27.9998 82.8003 33.5998 81.3003 38.9998C79.5003 45.3998 72.8003 49.1998 66.3003 47.2998C63.2003 46.3998 60.6003 44.3998 59.0003 41.4998C57.4003 38.7998 57.0003 35.5998 57.9003 32.4998ZM50.2003 50.3998L48.8003 50.9998V52.2998L50.4003 51.6998C50.5003 51.8998 50.5003 52.1998 50.6003 52.3998C50.7003 52.5998 50.8003 52.8998 50.9003 53.0998L49.7003 53.4998V54.7998L51.5003 54.0998C53.5003 56.8998 57.2003 58.0998 60.5003 56.7998C62.7003 55.9998 64.2003 54.3998 64.9003 52.5998L62.4003 51.2998C62.0003 52.4998 61.0003 53.5998 59.6003 54.0998C57.7003 54.7998 55.7003 54.2999 54.4003 52.8998L60.1003 50.6998V49.4998L53.7003 51.9998C53.6003 51.7998 53.5003 51.5998 53.4003 51.2998C53.3003 50.9998 53.2003 50.7998 53.2003 50.5998L60.0003 47.9998V46.6998L53.0003 49.3998C53.1003 47.5998 54.2003 45.8998 56.1003 45.0998C57.0003 44.7998 57.8003 44.6998 58.6003 44.7998C59.6003 46.0998 60.9003 47.1998 62.3003 47.9998C63.4003 48.5998 64.5003 49.0998 65.7003 49.4998C66.9003 49.7998 68.1003 49.9998 69.3003 49.9998C69.1003 54.6998 66.2003 59.0998 61.5003 60.8998C58.5003 62.0998 55.2003 61.9998 52.2003 60.5998C49.2003 59.2998 47.0003 56.8998 45.8003 53.8998C44.6003 50.8998 44.7003 47.5998 46.1003 44.5998C47.4003 41.5998 49.8003 39.3998 52.8003 38.1998C53.7003 37.8998 54.5003 37.6998 55.4003 37.4998C55.6003 38.9998 56.1003 40.4998 56.7003 41.8998C56.1003 41.9998 55.6003 42.0998 55.0003 42.2998C51.8003 43.6998 49.8003 47.0998 50.2003 50.3998Z" fill="black"/>
<path d="M68 43.6C70.2 44.2 72.4 43.9 74 42.8L72.7 40.3C71.6 41 70.3 41.3 68.7 40.9C66.7 40.3 65.5 38.7 65.2 36.9L71.1 38.6L71.8 37.6L65.2 35.7C65.2 35.4 65.3 35.2 65.3 35C65.4 34.7 65.5 34.5 65.6 34.3L72.7 36.3L73.4 35.3L66.2 33.3C67.3 31.9 69.2 31.2 71.2 31.7C73 32 74 33 74.5 34.1L76.9 32.6C76.1 30.9 74.4 29.4 72.2 28.8C68.8 27.8 65.2 29.3 63.5 32.3L62.1 31.9L61.3 32.9L62.9 33.4C62.8 33.6 62.7 33.9 62.6 34.1C62.5 34.3 62.5 34.6 62.4 34.8L61.2 34.5L60.5 35.5L62.3 36C62.3 39.5 64.5 42.7 68 43.6Z" fill="black"/>
<path d="M97.7006 64.1999C97.7006 64.0999 97.6006 64.0999 97.6006 63.9999C96.3006 62.6999 94.5006 61.8999 92.5006 61.8999C90.6006 61.8999 88.8006 62.6999 87.4006 63.9999L76.5006 74.5999C75.5006 71.3999 72.6006 68.9999 69.0006 68.9999H67.2006V66.9999C67.2006 66.2999 66.6006 65.7999 66.0006 65.7999C65.4006 65.7999 64.8006 66.3999 64.8006 66.9999V68.9999H47.0006C44.1006 68.9999 41.5006 68.6999 40.5006 68.1999C38.0006 66.8999 35.3006 66.0999 32.7006 66.0999C25.0006 66.0999 22.1006 68.6999 15.7006 76.2999L15.2006 75.7999C13.9006 74.4999 11.8006 74.3999 10.3006 75.2999V73.9999C10.3006 73.2999 9.70059 72.7999 9.10059 72.7999C8.50059 72.7999 7.90059 73.3999 7.90059 73.9999V75.9999C7.90059 76.3999 8.10059 76.7999 8.50059 76.9999L2.60059 82.9999C1.10059 84.4999 1.10059 86.8999 2.60059 88.3999L22.7006 108.5C23.4006 109.2 24.4006 109.6 25.4006 109.6C26.4006 109.6 27.4006 109.2 28.1006 108.5L35.3006 101.3C36.4006 100.2 36.7006 98.6999 36.2006 97.2999H36.3006H66.0006H66.2006C66.6006 97.2999 67.1006 97.2999 67.6006 97.2999C70.6006 97.2999 74.9006 96.9999 77.6006 94.4999L97.5006 74.1999C98.9006 72.7999 99.6006 70.9999 99.6006 69.0999C99.7006 67.2999 99.0006 65.4999 97.7006 64.1999ZM33.6006 99.4999L26.4006 106.7C25.9006 107.2 25.0006 107.2 24.5006 106.7L4.40059 86.5999C3.90059 86.0999 3.90059 85.1999 4.40059 84.6999L11.6006 77.4999C11.8006 77.2999 12.2006 77.0999 12.5006 77.0999C12.9006 77.0999 13.2006 77.1999 13.4006 77.4999L33.5006 97.5999C34.1006 98.0999 34.1006 98.9999 33.6006 99.4999ZM95.8006 72.4999L75.9006 92.6999C73.5006 94.8999 68.8006 94.7999 66.3006 94.7999H36.3006C35.3006 94.7999 34.4006 94.4999 33.6006 93.8999C33.4006 93.7999 33.2006 93.6999 33.0006 93.6999L17.5006 77.9999C24.2006 70.1999 26.3006 68.5999 32.7006 68.5999C35.5006 68.5999 37.8006 69.5999 39.3006 70.3999C41.2006 71.3999 44.9006 71.5999 47.0006 71.4999H69.0006C71.9006 71.4999 74.3006 73.8999 74.3006 76.7999C74.3006 79.2999 72.2006 81.3999 69.7006 81.3999H50.5006C49.8006 81.3999 49.3006 81.9999 49.3006 82.5999C49.3006 83.1999 49.9006 83.7999 50.5006 83.7999H69.7006C73.2006 83.7999 76.2006 81.1999 76.7006 77.7999L89.1006 65.6999C90.0006 64.7999 91.2006 64.2999 92.4006 64.2999C93.6006 64.2999 94.7006 64.6999 95.6006 65.4999C95.6006 65.5999 95.7006 65.5999 95.7006 65.5999C97.6006 67.5999 97.6006 70.5999 95.8006 72.4999Z" fill="black"/>
<path d="M32.4002 63.7999H33.4002C34.1002 63.7999 34.6002 63.1999 34.6002 62.5999V61.5999C34.6002 60.8999 34.0002 60.3999 33.4002 60.3999C32.8002 60.3999 32.3002 60.7999 32.2002 61.3999C31.6002 61.4999 31.2002 61.9999 31.2002 62.5999C31.2002 63.1999 31.8002 63.7999 32.4002 63.7999Z" fill="black"/>
<path d="M28.1002 61.2998H26.4002C25.7002 61.2998 25.2002 61.8998 25.2002 62.4998C25.2002 63.0998 25.8002 63.6998 26.4002 63.6998H28.1002C28.8002 63.6998 29.3002 63.0998 29.3002 62.4998C29.3002 61.8998 28.8002 61.2998 28.1002 61.2998Z" fill="black"/>
<path d="M19.7002 62.4998C19.7002 63.1998 20.3002 63.6998 20.9002 63.6998H21.9002C22.6002 63.6998 23.1002 63.0998 23.1002 62.4998C23.1002 61.8998 22.7002 61.3998 22.1002 61.2998C22.0002 60.6998 21.5002 60.2998 20.9002 60.2998C20.2002 60.2998 19.7002 60.8998 19.7002 61.4998V62.4998Z" fill="black"/>
<path d="M21 57.1999C21.7 57.1999 22.2 56.5999 22.2 55.9999V53.7999C22.2 53.0999 21.6 52.5999 21 52.5999C20.4 52.5999 19.8 53.1999 19.8 53.7999V55.9999C19.7 56.6999 20.3 57.1999 21 57.1999Z" fill="black"/>
<path d="M19.7002 47.2V48.2C19.7002 48.9 20.3002 49.4 20.9002 49.4C21.5002 49.4 22.0002 49 22.1002 48.4C22.7002 48.3 23.1002 47.8 23.1002 47.2C23.1002 46.5 22.5002 46 21.9002 46H20.9002C20.3002 45.9 19.7002 46.5 19.7002 47.2Z" fill="black"/>
<path d="M25.1006 47.2C25.1006 47.9 25.7006 48.4 26.3006 48.4H28.0006C28.7006 48.4 29.2006 47.8 29.2006 47.2C29.2006 46.6 28.6006 46 28.0006 46H26.3006C25.6006 45.9 25.1006 46.5 25.1006 47.2Z" fill="black"/>
<path d="M32.2006 48.4C32.3006 49 32.8006 49.4 33.4006 49.4C34.1006 49.4 34.6006 48.8 34.6006 48.2V47.2C34.6006 46.5 34.0006 46 33.4006 46H32.4006C31.7006 46 31.1006 46.6 31.1006 47.2C31.2006 47.8 31.6006 48.3 32.2006 48.4Z" fill="black"/>
<path d="M33.4002 52.5C32.7002 52.5 32.2002 53.1 32.2002 53.7V56C32.2002 56.7 32.8002 57.2 33.4002 57.2C34.0002 57.2 34.6002 56.6 34.6002 56V53.8C34.7002 53 34.1002 52.5 33.4002 52.5Z" fill="black"/>
</g>
<defs>
<clipPath id="clip0_1144_3358">
<rect width="99.7" height="109.6" fill="white"/>
</clipPath>
</defs>
</svg>
