<svg width="122" height="92" viewBox="0 0 122 92" fill="none" xmlns="http://www.w3.org/2000/svg">
<g clip-path="url(#clip0_1144_3228)">
<path d="M23.7577 45.0169C23.6914 44.9048 23.6317 44.7889 23.5767 44.6709C23.4148 44.3272 23.2727 43.9744 23.1509 43.6145C23.1264 43.5124 23.1124 43.4081 23.1092 43.3032L23.0975 43.3047C22.4461 43.5195 21.8094 43.7393 21.1873 43.9639C21.0325 44.0192 20.8902 44.1046 20.7684 44.2151C20.6467 44.3255 20.5479 44.4589 20.4778 44.6076C20.4077 44.7563 20.3676 44.9173 20.3598 45.0815C20.352 45.2458 20.3767 45.4099 20.4325 45.5645C20.4882 45.7192 20.5739 45.8613 20.6847 45.9828C20.7954 46.1043 20.9291 46.2027 21.0779 46.2725C21.2268 46.3422 21.3879 46.3819 21.5522 46.3893C21.7164 46.3967 21.8805 46.3716 22.035 46.3154C22.6375 46.0986 23.2534 45.8861 23.8826 45.6777C23.972 45.6402 24.0566 45.592 24.1343 45.5341C23.9972 45.3704 23.8714 45.1976 23.7577 45.0169Z" fill="black"/>
<path d="M41.0653 87.2198C40.4081 87.1271 39.76 87.0301 39.121 86.9288C38.7936 86.8768 38.459 86.9569 38.1907 87.1516C37.9224 87.3463 37.7424 87.6396 37.6903 87.9669C37.6383 88.2943 37.7184 88.629 37.9131 88.8973C38.1077 89.1656 38.401 89.3455 38.7284 89.3976C39.3827 89.5011 40.0451 89.6001 40.7157 89.6945C40.7742 89.703 40.8333 89.7073 40.8925 89.7072C41.2086 89.7066 41.5127 89.5863 41.7436 89.3705C41.9746 89.1547 42.1152 88.8593 42.1371 88.544C42.159 88.2287 42.0606 87.9168 41.8617 87.6711C41.6629 87.4254 41.3783 87.2641 41.0653 87.2198Z" fill="black"/>
<path d="M22.0051 82.7032C21.382 82.4786 20.774 82.2487 20.1809 82.0137C19.8728 81.8926 19.5293 81.8986 19.2257 82.0304C18.9221 82.1622 18.6832 82.4091 18.5614 82.7169C18.4395 83.0246 18.4448 83.3682 18.5759 83.6721C18.7071 83.976 18.9534 84.2154 19.2609 84.3379C19.8772 84.5821 20.5087 84.821 21.1555 85.0547C21.3099 85.1105 21.4738 85.1353 21.6378 85.1278C21.8018 85.1202 21.9627 85.0805 22.1113 85.0107C22.2599 84.941 22.3934 84.8427 22.504 84.7214C22.6146 84.6001 22.7003 84.4582 22.7561 84.3037C22.8118 84.1493 22.8367 83.9855 22.8291 83.8215C22.8216 83.6575 22.7818 83.4966 22.7121 83.3479C22.6423 83.1993 22.544 83.0659 22.4227 82.9552C22.3014 82.8446 22.1595 82.7589 22.0051 82.7032Z" fill="black"/>
<path d="M31.3994 85.4395C30.7529 85.2901 30.1175 85.1358 29.4932 84.9766C29.3339 84.9358 29.1681 84.9268 29.0054 84.9502C28.8426 84.9735 28.6861 85.0288 28.5447 85.1127C28.4033 85.1966 28.2799 85.3076 28.1814 85.4393C28.083 85.571 28.0115 85.7209 27.9711 85.8802C27.9306 86.0396 27.922 86.2054 27.9457 86.3681C27.9694 86.5308 28.0249 86.6872 28.1092 86.8284C28.1934 86.9696 28.3047 87.0928 28.4366 87.191C28.5685 87.2891 28.7185 87.3603 28.8779 87.4004C29.5205 87.5635 30.1735 87.7217 30.8369 87.875C30.9294 87.8967 31.0241 87.9075 31.1191 87.9073C31.426 87.907 31.7221 87.7938 31.9509 87.5893C32.1798 87.3848 32.3254 87.1033 32.36 86.7984C32.3946 86.4935 32.3159 86.1864 32.1387 85.9358C31.9616 85.6852 31.6984 85.5086 31.3994 85.4395Z" fill="black"/>
<path d="M5.37039 53.1494C4.86551 53.6504 4.38601 54.1679 3.94656 54.6894C3.73288 54.9429 3.62868 55.271 3.65688 55.6014C3.68508 55.9318 3.84337 56.2374 4.09693 56.4511C4.35049 56.6648 4.67855 56.769 5.00894 56.7408C5.33933 56.7126 5.64499 56.5543 5.85867 56.3007C6.24929 55.8369 6.67703 55.374 7.12918 54.9267C7.36487 54.6935 7.49826 54.3762 7.5 54.0446C7.50174 53.7131 7.37169 53.3944 7.13846 53.1587C6.90523 52.923 6.58792 52.7896 6.25635 52.7879C5.92477 52.7861 5.60608 52.9161 5.37039 53.1494Z" fill="black"/>
<path d="M13.7461 47.209C13.1299 47.5342 12.5345 47.8649 11.9599 48.2012C11.6742 48.369 11.4668 48.6434 11.3832 48.964C11.2996 49.2846 11.3467 49.6253 11.5141 49.9113C11.6816 50.1972 11.9556 50.405 12.2762 50.489C12.5967 50.5731 12.9374 50.5264 13.2236 50.3594C13.7666 50.0411 14.3294 49.7279 14.9121 49.42C15.2053 49.2653 15.425 49.0006 15.523 48.6839C15.621 48.3673 15.5892 48.0247 15.4346 47.7315C15.2799 47.4383 15.0152 47.2185 14.6985 47.1206C14.3819 47.0226 14.0393 47.0544 13.7461 47.209Z" fill="black"/>
<path d="M4.72166 71.2275C4.63005 71.0909 4.5124 70.9738 4.37544 70.8827C4.23848 70.7917 4.08491 70.7286 3.92352 70.6971C3.76213 70.6655 3.59611 70.6661 3.43495 70.6988C3.27379 70.7315 3.12067 70.7957 2.98436 70.8877C2.84805 70.9797 2.73123 71.0977 2.6406 71.2349C2.54996 71.3721 2.48729 71.5258 2.45617 71.6873C2.42506 71.8488 2.42611 72.0148 2.45927 72.1759C2.49243 72.3369 2.55704 72.4899 2.6494 72.6259C3.04526 73.2102 3.47129 73.7735 3.92576 74.3134C4.13903 74.5669 4.4442 74.7254 4.77422 74.7539C5.10425 74.7825 5.43212 74.6789 5.68579 74.4659C5.93946 74.2529 6.09818 73.9478 6.12706 73.6178C6.15595 73.2878 6.05264 72.9599 5.83983 72.706C5.44194 72.2327 5.06872 71.7392 4.72166 71.2275Z" fill="black"/>
<path d="M2.65235 62.7383C2.70795 62.412 2.63189 62.0771 2.44084 61.8068C2.2498 61.5366 1.95938 61.3532 1.63329 61.2968C1.30719 61.2405 0.97205 61.3157 0.701377 61.5061C0.430704 61.6965 0.246601 61.9865 0.189452 62.3125C0.0645744 63.0337 0.00119645 63.7642 1.73315e-06 64.4961C-0.00027163 64.6602 0.0317948 64.8228 0.0943699 64.9746C0.156945 65.1264 0.248803 65.2643 0.364698 65.3806C0.480593 65.4968 0.618254 65.5891 0.769822 65.6522C0.921389 65.7152 1.08389 65.7478 1.24805 65.7481H1.25C1.58118 65.748 1.89882 65.6166 2.13318 65.3826C2.36753 65.1486 2.49946 64.8312 2.5 64.5C2.50105 63.9095 2.55201 63.3202 2.65235 62.7383Z" fill="black"/>
<path d="M13.1972 78.6552C12.6299 78.3222 12.0853 77.984 11.5635 77.6406C11.4264 77.5498 11.2727 77.4869 11.1113 77.4555C10.9498 77.4242 10.7838 77.425 10.6227 77.4579C10.4616 77.4909 10.3086 77.5553 10.1724 77.6475C10.0362 77.7396 9.91954 77.8578 9.82909 77.9951C9.73865 78.1325 9.67619 78.2863 9.6453 78.4478C9.61441 78.6093 9.61569 78.7754 9.64907 78.9364C9.68246 79.0974 9.74728 79.2502 9.83984 79.3862C9.9324 79.5221 10.0509 79.6384 10.1885 79.7285C10.7461 80.0957 11.3271 80.4567 11.9316 80.8115C12.2176 80.9793 12.5585 81.0267 12.8793 80.9432C13.2002 80.8597 13.4747 80.6521 13.6426 80.3662C13.8104 80.0802 13.8578 79.7393 13.7742 79.4185C13.6907 79.0976 13.4832 78.8231 13.1972 78.6552Z" fill="black"/>
<path d="M50.8639 88.2569C50.2028 88.2091 49.5475 88.1573 48.8981 88.1016C48.7341 88.0848 48.5683 88.1012 48.4107 88.1497C48.2532 88.1983 48.107 88.2781 47.9808 88.3843C47.8547 88.4906 47.7513 88.6211 47.6767 88.7682C47.6021 88.9152 47.5578 89.0758 47.5466 89.2403C47.5325 89.4038 47.5509 89.5685 47.6005 89.7249C47.6502 89.8814 47.7301 90.0265 47.8359 90.152C47.9416 90.2775 48.0711 90.381 48.2168 90.4564C48.3625 90.5319 48.5217 90.5779 48.6852 90.5919C49.3434 90.6485 50.0091 90.7016 50.6823 90.751C50.7126 90.753 50.7438 90.754 50.7741 90.754C51.0978 90.7538 51.4087 90.6281 51.6416 90.4033C51.8744 90.1785 52.011 89.8722 52.0227 89.5488C52.0343 89.2253 51.9201 88.91 51.704 88.669C51.4879 88.4281 51.1867 88.2804 50.8639 88.2569Z" fill="black"/>
<path d="M99.359 82.5497C98.7545 82.7724 98.1393 82.9908 97.5133 83.205C97.3578 83.2578 97.2141 83.3407 97.0906 83.449C96.9671 83.5573 96.8662 83.6889 96.7936 83.8363C96.721 83.9837 96.6782 84.1439 96.6676 84.3078C96.6571 84.4718 96.6789 84.6362 96.7319 84.7917C96.785 84.9472 96.8681 85.0906 96.9767 85.214C97.0852 85.3373 97.217 85.438 97.3645 85.5103C97.512 85.5826 97.6723 85.6251 97.8363 85.6354C98.0002 85.6457 98.1646 85.6235 98.32 85.5702C98.9655 85.3505 99.6002 85.1256 100.224 84.8954C100.379 84.8388 100.52 84.7524 100.641 84.641C100.762 84.5296 100.86 84.3955 100.929 84.2463C100.998 84.0971 101.036 83.9357 101.043 83.7715C101.049 83.6073 101.024 83.4434 100.967 83.2892C100.91 83.135 100.823 82.9935 100.711 82.8728C100.6 82.7522 100.466 82.6547 100.316 82.5861C100.167 82.5174 100.005 82.4788 99.8412 82.4726C99.677 82.4663 99.5131 82.4926 99.359 82.5497Z" fill="black"/>
<path d="M115.649 72.6152C115.252 73.0654 114.815 73.5195 114.347 73.9648C114.108 74.1937 113.969 74.5081 113.961 74.8392C113.954 75.1702 114.078 75.4907 114.306 75.7305C114.534 75.9702 114.848 76.1096 115.179 76.118C115.51 76.1264 115.831 76.0032 116.072 75.7753C116.592 75.2792 117.081 74.7714 117.526 74.2656C117.634 74.1423 117.717 73.9989 117.77 73.8436C117.823 73.6883 117.845 73.524 117.834 73.3602C117.824 73.1965 117.781 73.0364 117.709 72.8891C117.636 72.7418 117.536 72.6102 117.412 72.5019C117.289 72.3935 117.146 72.3105 116.99 72.2575C116.835 72.2046 116.671 72.1827 116.507 72.1932C116.343 72.2038 116.183 72.2464 116.036 72.3188C115.889 72.3912 115.757 72.4919 115.649 72.6152Z" fill="black"/>
<path d="M111.911 50.249C111.35 49.8857 110.768 49.5292 110.165 49.1796C109.879 49.0131 109.537 48.9673 109.217 49.0523C108.896 49.1372 108.623 49.346 108.456 49.6328C108.29 49.9195 108.244 50.2606 108.329 50.5811C108.414 50.9016 108.623 51.1752 108.909 51.3417C109.477 51.6708 110.026 52.0065 110.556 52.3486C110.694 52.4381 110.848 52.4995 111.01 52.5293C111.171 52.5591 111.337 52.5568 111.498 52.5224C111.659 52.488 111.811 52.4222 111.946 52.3288C112.081 52.2354 112.197 52.1163 112.286 51.9782C112.375 51.8401 112.436 51.6858 112.466 51.5241C112.495 51.3624 112.492 51.1965 112.457 51.0358C112.423 50.8752 112.356 50.723 112.263 50.588C112.169 50.453 112.05 50.3378 111.911 50.249Z" fill="black"/>
<path d="M60.6912 88.6933C60.0389 88.6816 59.3917 88.6669 58.7498 88.6493C58.4187 88.641 58.0978 88.7643 57.8576 88.9923C57.6173 89.2202 57.4773 89.5342 57.4682 89.8652C57.4592 90.1963 57.5818 90.5174 57.8093 90.7582C58.0367 90.9989 58.3504 91.1396 58.6814 91.1493C59.3308 91.1669 59.9861 91.1816 60.6687 91.1933H60.7029C60.8652 91.1929 61.0259 91.1606 61.1757 91.0981C61.3255 91.0356 61.4615 90.9442 61.576 90.8291C61.6905 90.714 61.7811 90.5775 61.8428 90.4273C61.9044 90.2772 61.9359 90.1163 61.9353 89.954C61.9345 89.6228 61.8036 89.3051 61.571 89.0694C61.3383 88.8336 61.0224 88.6985 60.6912 88.6933Z" fill="black"/>
<path d="M108.18 78.4765C107.633 78.7939 107.067 79.1057 106.485 79.412C106.339 79.4882 106.21 79.5923 106.105 79.7184C106 79.8445 105.92 79.9901 105.871 80.147C105.822 80.3038 105.805 80.4687 105.82 80.6324C105.834 80.796 105.881 80.9551 105.958 81.1005C106.034 81.246 106.138 81.375 106.265 81.4801C106.391 81.5852 106.537 81.6644 106.694 81.7131C106.851 81.7618 107.016 81.7791 107.179 81.7639C107.343 81.7488 107.502 81.7016 107.647 81.6249C108.261 81.3027 108.857 80.9739 109.434 80.6386C109.72 80.4721 109.929 80.1987 110.014 79.8787C110.098 79.5586 110.053 79.218 109.887 78.9316C109.721 78.6452 109.448 78.4364 109.128 78.3511C108.808 78.2657 108.467 78.3108 108.18 78.4765Z" fill="black"/>
<path d="M118.861 56.4463C118.453 55.8713 118.015 55.3181 117.548 54.7891C117.33 54.5409 117.021 54.3897 116.691 54.3685C116.361 54.3474 116.036 54.4581 115.787 54.6763C115.538 54.8945 115.386 55.2025 115.364 55.5326C115.342 55.8628 115.452 56.1882 115.669 56.4375C116.078 56.9026 116.462 57.3879 116.822 57.8916C116.917 58.0258 117.037 58.1399 117.176 58.2275C117.315 58.3151 117.47 58.3745 117.632 58.4022C117.794 58.4299 117.959 58.4254 118.119 58.389C118.28 58.3526 118.431 58.285 118.565 58.19C118.699 58.095 118.813 57.9745 118.9 57.8354C118.988 57.6964 119.047 57.5414 119.075 57.3795C119.102 57.2175 119.097 57.0517 119.061 56.8916C119.024 56.7315 118.956 56.5802 118.861 56.4463Z" fill="black"/>
<path d="M120.368 63.2646C120.204 63.2646 120.042 63.297 119.89 63.3598C119.738 63.4226 119.6 63.5147 119.484 63.6307C119.368 63.7468 119.276 63.8846 119.213 64.0363C119.151 64.1879 119.118 64.3505 119.118 64.5146C119.118 65.1005 119.065 65.6852 118.961 66.2617C118.903 66.5879 118.976 66.9239 119.165 67.196C119.354 67.468 119.644 67.6539 119.97 67.7126C120.296 67.7714 120.632 67.6983 120.904 67.5093C121.177 67.3204 121.363 67.0311 121.422 66.7051C121.552 65.9822 121.618 65.2492 121.618 64.5146C121.618 64.3505 121.586 64.1879 121.523 64.0363C121.46 63.8846 121.368 63.7468 121.252 63.6307C121.136 63.5147 120.998 63.4226 120.847 63.3598C120.695 63.297 120.532 63.2646 120.368 63.2646Z" fill="black"/>
<path d="M72.7629 38.3536C72.0998 38.296 71.8235 38.2432 71.1526 38.1944C70.8219 38.1706 70.4952 38.2791 70.2445 38.4961C69.9938 38.7131 69.8396 39.0209 69.8157 39.3516C69.7919 39.6824 69.9004 40.009 70.1175 40.2598C70.3345 40.5105 70.6422 40.6647 70.973 40.6885C71.6321 40.7354 71.8966 40.7881 72.548 40.8438C72.5841 40.8467 72.6212 40.8487 72.6564 40.8487C72.9784 40.8484 73.288 40.7238 73.5205 40.5009C73.7529 40.278 73.8903 39.9739 73.9041 39.6521C73.9178 39.3303 73.8068 39.0156 73.5941 38.7737C73.3815 38.5318 73.0837 38.3813 72.7629 38.3536Z" fill="black"/>
<path d="M70.5494 88.3438C69.897 88.3907 69.2414 88.433 68.5825 88.4708C68.2575 88.489 67.9524 88.6332 67.7321 88.8729C67.5118 89.1125 67.3937 89.4286 67.4028 89.754C67.412 90.0794 67.5477 90.3884 67.7812 90.6153C68.0146 90.8421 68.3273 90.969 68.6529 90.9688C68.6763 90.9688 68.7007 90.9678 68.7251 90.9669C69.396 90.9288 70.0634 90.8858 70.7271 90.838C71.0578 90.8143 71.3656 90.6603 71.5828 90.4098C71.8 90.1593 71.9088 89.8328 71.8853 89.5021C71.8756 89.3376 71.833 89.1768 71.7602 89.029C71.6873 88.8813 71.5857 88.7495 71.4612 88.6416C71.3367 88.5337 71.192 88.4518 71.0354 88.4006C70.8788 88.3495 70.7135 88.3302 70.5494 88.3438Z" fill="black"/>
<path d="M80.3353 87.2675C79.6908 87.3642 79.0407 87.4563 78.3851 87.5439C78.0709 87.5859 77.7844 87.7458 77.5836 87.9911C77.3827 88.2364 77.2826 88.5489 77.3035 88.8652C77.3243 89.1815 77.4646 89.4781 77.6959 89.695C77.9271 89.9118 78.2321 90.0327 78.5491 90.0331C78.6053 90.033 78.6614 90.0294 78.7172 90.0224C79.3861 89.9326 80.0492 89.8385 80.7064 89.7402C80.8688 89.7158 81.0247 89.6597 81.1654 89.575C81.3061 89.4904 81.4287 89.3789 81.5263 89.2468C81.6239 89.1148 81.6945 88.9649 81.7341 88.8055C81.7737 88.6462 81.7816 88.4806 81.7572 88.3183C81.7328 88.1559 81.6767 88 81.5921 87.8593C81.5074 87.7186 81.3959 87.596 81.2639 87.4984C81.1318 87.4008 80.9819 87.3302 80.8226 87.2906C80.6632 87.251 80.4976 87.2431 80.3353 87.2675Z" fill="black"/>
<path d="M89.9832 85.3858C89.3513 85.5392 88.7127 85.6883 88.0672 85.8331C87.744 85.9059 87.4629 86.104 87.2856 86.384C87.1084 86.6639 87.0496 87.0027 87.1221 87.326C87.1946 87.6493 87.3924 87.9306 87.6722 88.1081C87.9519 88.2856 88.2907 88.3447 88.6141 88.2726C89.2752 88.1241 89.9282 87.9718 90.5731 87.8156C90.7326 87.7768 90.8829 87.7071 91.0155 87.6102C91.1481 87.5134 91.2603 87.3914 91.3457 87.2512C91.4311 87.111 91.4881 86.9554 91.5134 86.7931C91.5386 86.6309 91.5317 86.4653 91.493 86.3058C91.4542 86.1463 91.3845 85.9959 91.2876 85.8633C91.1908 85.7308 91.0688 85.6186 90.9286 85.5331C90.7884 85.4477 90.6328 85.3908 90.4706 85.3655C90.3083 85.3402 90.1427 85.3471 89.9832 85.3858Z" fill="black"/>
<path d="M59.7007 0C55.0122 0.0076476 50.5074 1.82331 47.124 5.06899C43.7406 8.31466 41.7394 12.7402 41.5371 17.4243C42.5263 17.5962 43.4158 18.1309 44.0316 18.9238C44.0096 18.6748 43.9976 18.4341 43.9976 18.2031C44.0009 14.0406 45.6568 10.0496 48.6013 7.10743C51.5459 4.16523 55.5381 2.51252 59.7007 2.51252C63.8632 2.51252 67.8555 4.16523 70.8 7.10743C73.7446 10.0496 75.4005 14.0406 75.4038 18.2031C75.4038 25.7666 63.312 43.3174 59.7007 48.3906C58.2629 46.3706 55.4802 42.3706 52.6521 37.8124C52.762 38.7398 52.7723 39.6764 52.683 40.606C52.6712 40.8144 52.6166 41.0182 52.5225 41.2045C52.4285 41.3908 52.297 41.5558 52.1362 41.689C55.4898 46.9102 58.4083 50.8824 58.6949 51.2705L59.7007 52.6329L60.7066 51.2705C61.4087 50.3194 77.9038 27.8672 77.9038 18.2032C77.8983 13.3771 75.9787 8.75022 72.5662 5.33765C69.1536 1.92509 64.5268 0.00549458 59.7007 0Z" fill="black"/>
<path d="M90.083 78.0942L89.0771 76.7319C88.375 75.7808 71.8799 53.3276 71.8799 43.6645C71.8799 41.274 72.3507 38.9069 73.2655 36.6983C74.1804 34.4898 75.5212 32.483 77.2116 30.7927C78.902 29.1023 80.9087 27.7614 83.1173 26.8466C85.3258 25.9318 87.693 25.4609 90.0835 25.4609C92.474 25.4609 94.8411 25.9318 97.0497 26.8466C99.2583 27.7614 101.265 29.1023 102.955 30.7927C104.646 32.483 105.987 34.4898 106.901 36.6983C107.816 38.9069 108.287 41.274 108.287 43.6645C108.287 53.3276 91.791 75.7808 91.0889 76.7319L90.083 78.0942ZM90.083 27.9604C85.9196 27.9652 81.928 29.6213 78.9841 32.5654C76.0402 35.5095 74.3844 39.5011 74.3799 43.6645C74.3799 51.23 86.4717 68.7798 90.083 73.8521C93.6943 68.7788 105.787 51.227 105.787 43.6645C105.782 39.501 104.126 35.5094 101.182 32.5653C98.2382 29.6212 94.2465 27.9652 90.083 27.9604Z" fill="black"/>
<path d="M36.8926 68.7569L35.8867 67.3946C35.1846 66.4434 18.6895 43.9913 18.6895 34.3272C18.6877 31.9356 19.1572 29.5671 20.0712 27.357C20.9852 25.147 22.3258 23.1387 24.0163 21.4469C25.7067 19.7552 27.714 18.4132 29.9234 17.4975C32.1328 16.5819 34.501 16.1106 36.8926 16.1106C39.2842 16.1106 41.6524 16.5819 43.8617 17.4975C46.0711 18.4132 48.0784 19.7552 49.7689 21.4469C51.4594 23.1387 52.8 25.147 53.714 27.357C54.628 29.5671 55.0975 31.9356 55.0957 34.3272C55.0957 43.9913 38.6006 66.4434 37.8984 67.3946L36.8926 68.7569ZM36.8926 18.6241C32.7293 18.6286 28.7378 20.2845 25.7938 23.2285C22.8499 26.1724 21.194 30.1639 21.1895 34.3272C21.1895 41.8907 33.2813 59.4415 36.8926 64.5147C40.5039 59.4415 52.5957 41.8907 52.5957 34.3272C52.5912 30.1639 50.9353 26.1724 47.9914 23.2284C45.0474 20.2845 41.0559 18.6286 36.8926 18.6241Z" fill="black"/>
<path d="M36.8926 41.8497C35.1908 41.8496 33.5271 41.3448 32.1121 40.3993C30.6971 39.4537 29.5943 38.1098 28.943 36.5374C28.2918 34.9651 28.1214 33.2349 28.4535 31.5658C28.7855 29.8966 29.605 28.3634 30.8084 27.16C32.0118 25.9566 33.5451 25.1371 35.2142 24.805C36.8834 24.473 38.6135 24.6433 40.1859 25.2946C41.7582 25.9458 43.1021 27.0487 44.0477 28.4637C44.9933 29.8787 45.498 31.5423 45.4981 33.2442C45.4955 35.5257 44.5881 37.7131 42.9748 39.3263C41.3615 40.9396 39.1741 41.8471 36.8926 41.8497ZM36.8926 27.1397C35.6852 27.1397 34.5049 27.4979 33.5009 28.1688C32.497 28.8397 31.7146 29.7932 31.2526 30.9088C30.7906 32.0244 30.6698 33.2519 30.9055 34.4362C31.1411 35.6204 31.7227 36.7082 32.5766 37.5619C33.4304 38.4156 34.5183 38.997 35.7025 39.2324C36.8868 39.4679 38.1143 39.3469 39.2298 38.8847C40.3453 38.4226 41.2987 37.64 41.9695 36.636C42.6402 35.632 42.9982 34.4516 42.9981 33.2441C42.9961 31.6256 42.3522 30.0739 41.2076 28.9295C40.063 27.7851 38.5112 27.1414 36.8926 27.1397Z" fill="black"/>
<path d="M59.7002 25.9786C57.9983 25.9785 56.3347 25.4737 54.9196 24.5281C53.5046 23.5825 52.4017 22.2385 51.7505 20.6661C51.0993 19.0937 50.929 17.3635 51.2611 15.6943C51.5933 14.0251 52.4129 12.4919 53.6164 11.2886C54.8199 10.0852 56.3532 9.26574 58.0224 8.93381C59.6917 8.60187 61.4218 8.77238 62.9942 9.42376C64.5665 10.0751 65.9103 11.1781 66.8558 12.5933C67.8012 14.0084 68.3058 15.6721 68.3057 17.3741C68.3029 19.6554 67.3954 21.8425 65.7821 23.4556C64.1688 25.0687 61.9816 25.976 59.7002 25.9786ZM59.7002 11.2686C58.4928 11.2687 57.3125 11.6268 56.3087 12.2976C55.3048 12.9685 54.5223 13.922 54.0603 15.0375C53.5983 16.153 53.4775 17.3805 53.713 18.5647C53.9486 19.7489 54.53 20.8367 55.3838 21.6904C56.2376 22.5442 57.3254 23.1257 58.5096 23.3612C59.6938 23.5968 60.9212 23.4759 62.0368 23.0139C63.1523 22.5519 64.1058 21.7695 64.7766 20.7656C65.4475 19.7617 65.8056 18.5815 65.8057 17.374C65.8038 15.7554 65.1599 14.2036 64.0153 13.059C62.8707 11.9144 61.3189 11.2705 59.7002 11.2686Z" fill="black"/>
<path d="M90.0821 51.5113C88.3802 51.5112 86.7165 51.0064 85.3015 50.0608C83.8864 49.1152 82.7836 47.7712 82.1324 46.1988C81.4812 44.6264 81.3109 42.8962 81.643 41.227C81.9751 39.5579 82.7947 38.0246 83.9982 36.8213C85.2017 35.6179 86.7351 34.7984 88.4043 34.4665C90.0735 34.1346 91.8037 34.3051 93.376 34.9565C94.9483 35.6079 96.2922 36.7109 97.2376 38.126C98.1831 39.5412 98.6876 41.2049 98.6875 42.9068C98.6848 45.1882 97.7773 47.3753 96.164 48.9884C94.5507 50.6015 92.3635 51.5088 90.0821 51.5113ZM90.0821 36.8013C88.8746 36.8014 87.6944 37.1595 86.6905 37.8303C85.6866 38.5012 84.9042 39.4547 84.4422 40.5702C83.9802 41.6857 83.8593 42.9132 84.0949 44.0974C84.3304 45.2816 84.9119 46.3694 85.7656 47.2231C86.6194 48.0769 87.7072 48.6584 88.8914 48.8939C90.0756 49.1295 91.3031 49.0087 92.4186 48.5467C93.5341 48.0846 94.4876 47.3022 95.1584 46.2983C95.8293 45.2945 96.1874 44.1142 96.1875 42.9068C96.1858 41.288 95.542 39.7361 94.3974 38.5915C93.2528 37.4468 91.7008 36.803 90.0821 36.8013Z" fill="black"/>
</g>
<defs>
<clipPath id="clip0_1144_3228">
<rect width="121.618" height="91.1934" fill="white"/>
</clipPath>
</defs>
</svg>
