<svg width="141" height="93" viewBox="0 0 141 93" fill="none" xmlns="http://www.w3.org/2000/svg">
<g clip-path="url(#clip0_1144_3202)">
<path d="M43.4879 10.7138C43.8003 10.7143 44.1016 10.5971 44.3316 10.3856C44.7243 10.0207 45.1722 9.72012 45.6588 9.49501C45.9607 9.358 46.1959 9.10664 46.3126 8.79621C46.4293 8.48579 46.4178 8.14174 46.2808 7.83974C46.1438 7.53774 45.8925 7.30255 45.582 7.18588C45.2716 7.06922 44.9275 7.08065 44.6256 7.21766C43.8996 7.5523 43.231 7.99918 42.6441 8.54189C42.4583 8.712 42.3283 8.93424 42.271 9.17952C42.2138 9.42479 42.2319 9.68165 42.3231 9.91643C42.4143 10.1512 42.5743 10.353 42.7822 10.4952C42.99 10.6375 43.236 10.7137 43.4879 10.7138Z" fill="black"/>
<path d="M6.52261 37.9932C6.60462 38.0094 6.68801 38.0176 6.77161 38.0176C7.06008 38.0173 7.33958 37.9173 7.56276 37.7345C7.78594 37.5517 7.93907 37.2974 7.99622 37.0147C8.12222 36.3907 8.27649 35.7793 8.45622 35.1973C8.55387 34.8805 8.52168 34.538 8.36674 34.2449C8.21181 33.9519 7.94681 33.7324 7.63005 33.6348C7.47321 33.5865 7.30838 33.5695 7.14498 33.5848C6.98157 33.6002 6.82279 33.6476 6.6777 33.7243C6.38467 33.8792 6.1652 34.1442 6.06755 34.461C5.86345 35.1221 5.68767 35.8145 5.54509 36.5205C5.47972 36.8454 5.54594 37.183 5.72921 37.4591C5.91249 37.7352 6.19784 37.9273 6.52261 37.9932Z" fill="black"/>
<path d="M20.7958 28.5604C20.8193 28.5614 20.8417 28.5624 20.8652 28.5624C21.1847 28.5622 21.492 28.4396 21.7239 28.2199C21.9559 28.0001 22.0948 27.6998 22.1122 27.3808C22.1462 26.7604 22.214 26.1423 22.3154 25.5292C22.3422 25.3673 22.3368 25.2016 22.2996 25.0417C22.2624 24.8818 22.194 24.7308 22.0984 24.5973C22.0028 24.4638 21.8819 24.3505 21.7425 24.2637C21.6031 24.177 21.448 24.1185 21.2861 24.0917C21.1241 24.0649 20.9584 24.0703 20.7985 24.1075C20.6386 24.1447 20.4876 24.2131 20.3541 24.3087C20.2207 24.4042 20.1073 24.5252 20.0206 24.6646C19.9338 24.8039 19.8754 24.959 19.8486 25.121C19.7326 25.824 19.655 26.5327 19.6161 27.2441C19.6071 27.408 19.6305 27.572 19.6849 27.7269C19.7393 27.8818 19.8237 28.0244 19.9333 28.1466C20.0428 28.2689 20.1754 28.3683 20.3234 28.4393C20.4714 28.5103 20.6319 28.5515 20.7958 28.5604Z" fill="black"/>
<path d="M2.08862 50.3945C2.21396 50.4362 2.34521 50.4573 2.47729 50.457C2.7408 50.4571 2.99758 50.3739 3.21088 50.2192C3.42418 50.0645 3.58307 49.8462 3.66479 49.5957C3.84983 49.0238 4.07903 48.4671 4.35034 47.9307C4.50161 47.6357 4.52949 47.2927 4.42785 46.9771C4.32622 46.6616 4.10339 46.3993 3.80839 46.2481C3.51339 46.0968 3.17038 46.0689 2.85482 46.1705C2.53926 46.2722 2.277 46.495 2.12573 46.79C1.79448 47.4432 1.51497 48.1214 1.28979 48.8183C1.23861 48.9743 1.21868 49.1388 1.23114 49.3024C1.2436 49.4661 1.2882 49.6257 1.3624 49.7721C1.43659 49.9185 1.53892 50.0488 1.66354 50.1556C1.78815 50.2624 1.9326 50.3436 2.08862 50.3945Z" fill="black"/>
<path d="M2.70146 62.8243C2.58126 62.247 2.51393 61.6599 2.50029 61.0704C2.48896 60.7402 2.34904 60.4276 2.11039 60.1991C1.87174 59.9707 1.55327 59.8446 1.22294 59.8477C0.891465 59.8551 0.576486 59.9938 0.347225 60.2333C0.117963 60.4728 -0.00682391 60.7936 0.000288155 61.1251C0.0178734 61.8669 0.102856 62.6056 0.254188 63.3321C0.31242 63.6133 0.465798 63.866 0.688495 64.0474C0.911191 64.2288 1.1896 64.328 1.47685 64.3281C1.5625 64.3285 1.64795 64.3196 1.73173 64.3018C1.89245 64.2685 2.04504 64.2039 2.18077 64.1116C2.31651 64.0193 2.43272 63.9012 2.52278 63.764C2.61284 63.6268 2.67498 63.4732 2.70563 63.3119C2.73629 63.1507 2.73487 62.985 2.70146 62.8243Z" fill="black"/>
<path d="M1.29007 57.3447C1.31448 57.3457 1.33792 57.3467 1.36233 57.3467C1.68136 57.3465 1.98824 57.2243 2.2201 57.0051C2.45195 56.786 2.59123 56.4865 2.6094 56.168C2.64749 55.5068 2.69632 54.8603 2.76077 54.2314C2.77757 54.0682 2.76205 53.9032 2.7151 53.746C2.66815 53.5887 2.59068 53.4422 2.48713 53.3149C2.38357 53.1876 2.25595 53.0819 2.11155 53.0039C1.96715 52.9259 1.80881 52.8771 1.64555 52.8603C1.4823 52.8435 1.31733 52.859 1.16007 52.906C1.00282 52.9529 0.856345 53.0304 0.729026 53.134C0.601707 53.2375 0.496031 53.3651 0.418033 53.5095C0.340036 53.6539 0.291243 53.8123 0.274441 53.9755C0.206081 54.6415 0.152371 55.3248 0.113311 56.0253C0.0946659 56.3563 0.208115 56.6811 0.428748 56.9285C0.64938 57.1758 0.959161 57.3255 1.29007 57.3447Z" fill="black"/>
<path d="M4.46145 66.9844C4.37322 66.8459 4.25857 66.7261 4.12406 66.6319C3.98954 66.5377 3.83778 66.471 3.67746 66.4354C3.51713 66.3999 3.35137 66.3962 3.18965 66.4248C3.02792 66.4533 2.8734 66.5134 2.73489 66.6016C2.59639 66.6898 2.47662 66.8045 2.38242 66.939C2.28823 67.0735 2.22145 67.2253 2.1859 67.3856C2.15035 67.5459 2.14673 67.7117 2.17524 67.8734C2.20375 68.0351 2.26384 68.1896 2.35207 68.3281C2.73521 68.9272 3.14952 69.5059 3.59328 70.0615C3.69534 70.1904 3.82181 70.2978 3.96544 70.3776C4.10908 70.4575 4.26705 70.5082 4.43032 70.5269C4.5936 70.5457 4.75896 70.532 4.91694 70.4867C5.07492 70.4414 5.22242 70.3654 5.35098 70.2631C5.47955 70.1607 5.58666 70.034 5.66619 69.8902C5.74571 69.7463 5.79608 69.5883 5.81441 69.4249C5.83275 69.2616 5.81868 69.0963 5.77303 68.9384C5.72738 68.7805 5.65103 68.6332 5.54836 68.5049C5.15962 68.0175 4.79681 67.51 4.46145 66.9844Z" fill="black"/>
<path d="M49.5643 9.51865C50.1097 9.72801 50.6328 9.99137 51.1258 10.3048C51.4066 10.4812 51.7459 10.5388 52.0691 10.465C52.3924 10.3912 52.6731 10.192 52.8495 9.91124C53.0258 9.63048 53.0835 9.29116 53.0097 8.96791C52.9359 8.64467 52.7367 8.36398 52.4559 8.1876C51.8219 7.78647 51.1497 7.4492 50.4491 7.18076C50.1391 7.06344 49.7951 7.07407 49.4929 7.21033C49.1908 7.34658 48.9551 7.5973 48.8377 7.90732C48.7204 8.21735 48.7311 8.56128 48.8673 8.86346C49.0036 9.16565 49.2543 9.40133 49.5643 9.51865Z" fill="black"/>
<path d="M55.137 13.2285C55.6477 13.5654 55.6536 13.6299 55.677 13.8691C55.7064 14.1783 55.85 14.4655 56.0796 14.6745C56.3093 14.8836 56.6086 14.9997 56.9192 15C56.9592 15 56.9993 14.998 57.0403 14.9941C57.3702 14.9625 57.6741 14.8011 57.8851 14.5454C58.096 14.2898 58.1968 13.9608 58.1653 13.6309C58.1175 13.1121 57.9418 12.6133 57.6539 12.179C57.3661 11.7448 56.9751 11.3887 56.5159 11.1426C56.2393 10.9597 55.9013 10.8943 55.5765 10.9606C55.2516 11.0269 54.9663 11.2195 54.7835 11.4961C54.6006 11.7727 54.5351 12.1106 54.6014 12.4355C54.6677 12.7604 54.8604 13.0457 55.137 13.2285Z" fill="black"/>
<path d="M36.4785 77.8516H36.4667L34.4677 77.8594C34.1362 77.8597 33.8184 77.9916 33.5842 78.2262C33.3499 78.4608 33.2185 78.7789 33.2188 79.1104C33.219 79.4419 33.351 79.7598 33.5856 79.994C33.8202 80.2282 34.1382 80.3597 34.4697 80.3594H34.4717L36.4903 80.3516C36.6545 80.3508 36.8168 80.3177 36.9682 80.2542C37.1196 80.1907 37.2569 80.0979 37.3725 79.9813C37.488 79.8647 37.5794 79.7265 37.6415 79.5745C37.7036 79.4226 37.7352 79.2599 37.7344 79.0957C37.7337 78.9316 37.7006 78.7692 37.637 78.6178C37.5735 78.4664 37.4808 78.3291 37.3642 78.2135C37.2476 78.098 37.1093 78.0066 36.9574 77.9445C36.8054 77.8824 36.6426 77.8508 36.4785 77.8516Z" fill="black"/>
<path d="M7.74834 43.586C7.67315 42.9561 7.62534 42.3223 7.60577 41.7022C7.59345 41.3725 7.45124 41.0611 7.21017 40.8358C6.96909 40.6106 6.64872 40.4898 6.31895 40.4998C5.98917 40.5099 5.67675 40.65 5.44985 40.8895C5.22295 41.129 5.09998 41.4485 5.10777 41.7784C5.12828 42.4717 5.18199 43.1807 5.26597 43.8829C5.30227 44.1862 5.44838 44.4657 5.6767 44.6687C5.90502 44.8716 6.19975 44.984 6.50523 44.9844C6.55549 44.9844 6.6057 44.9815 6.65562 44.9757C6.98475 44.9362 7.28472 44.7676 7.48962 44.507C7.69452 44.2464 7.78758 43.9152 7.74834 43.586Z" fill="black"/>
<path d="M33.5565 14.7157C34.1368 14.7662 34.7104 14.8759 35.2684 15.0429C35.4258 15.0902 35.5911 15.106 35.7547 15.0894C35.9182 15.0728 36.0769 15.024 36.2217 14.946C36.3664 14.868 36.4943 14.7622 36.5981 14.6346C36.7019 14.5071 36.7795 14.3604 36.8265 14.2028C36.8735 14.0452 36.8889 13.88 36.872 13.7164C36.855 13.5529 36.806 13.3943 36.7277 13.2497C36.6493 13.1051 36.5433 12.9774 36.4155 12.8739C36.2878 12.7704 36.1409 12.6931 35.9832 12.6464C35.2621 12.4312 34.521 12.2902 33.7713 12.2255C33.6072 12.2082 33.4413 12.2242 33.2835 12.2725C33.1258 12.3208 32.9794 12.4005 32.8531 12.5067C32.7268 12.6129 32.6232 12.7435 32.5486 12.8907C32.474 13.0379 32.4298 13.1986 32.4188 13.3632C32.4045 13.5267 32.4227 13.6915 32.4722 13.848C32.5217 14.0045 32.6015 14.1497 32.7072 14.2754C32.8129 14.401 32.9423 14.5045 33.088 14.5801C33.2337 14.6557 33.3929 14.7018 33.5565 14.7157Z" fill="black"/>
<path d="M22.5482 18.1513C22.1484 18.7525 21.7882 19.3791 21.4701 20.0273C21.3963 20.1748 21.3524 20.3355 21.3409 20.5001C21.3295 20.6646 21.3507 20.8298 21.4034 20.9862C21.4561 21.1425 21.5392 21.2868 21.648 21.4109C21.7568 21.5349 21.889 21.6362 22.0371 21.7089C22.1852 21.7816 22.3462 21.8243 22.5109 21.8344C22.6755 21.8446 22.8406 21.8221 22.9965 21.7681C23.1524 21.7142 23.2961 21.63 23.4193 21.5202C23.5425 21.4105 23.6427 21.2775 23.7143 21.1289C23.9835 20.579 24.2888 20.0475 24.6283 19.538C24.8096 19.2622 24.8744 18.9258 24.8086 18.6024C24.7428 18.2789 24.5517 17.9946 24.2771 17.8115C24.0024 17.6284 23.6665 17.5614 23.3426 17.625C23.0187 17.6887 22.7332 17.8779 22.5482 18.1513Z" fill="black"/>
<path d="M27.0524 16.5304C27.3042 16.5307 27.5501 16.4544 27.7575 16.3116C28.2444 15.9771 28.7608 15.6878 29.3005 15.4474C29.6035 15.3127 29.8406 15.0631 29.9597 14.7536C30.0787 14.4441 30.0699 14.1 29.9352 13.797C29.8006 13.4939 29.551 13.2568 29.2415 13.1378C28.932 13.0187 28.5879 13.0275 28.2848 13.1622C27.6067 13.4649 26.9575 13.8287 26.3453 14.2491C26.1251 14.4 25.9589 14.6174 25.8712 14.8696C25.7834 15.1217 25.7787 15.3954 25.8578 15.6504C25.9368 15.9054 26.0954 16.1284 26.3104 16.2868C26.5253 16.4451 26.7854 16.5305 27.0524 16.5304Z" fill="black"/>
<path d="M39.1626 15.9141C39.4079 16.0293 39.6748 16.0912 39.9458 16.0957C41.186 16.0957 41.6655 14.8428 41.8247 14.4277L41.9536 14.0996C42.0789 13.7927 42.0772 13.4486 41.9489 13.1429C41.8205 12.8372 41.5759 12.5951 41.269 12.4698C41.117 12.4077 40.9543 12.3762 40.7902 12.377C40.626 12.3778 40.4637 12.4109 40.3123 12.4745C40.0067 12.6029 39.7645 12.8474 39.6392 13.1543C39.5972 13.2578 39.5552 13.3623 39.5152 13.4668C39.2164 13.4697 38.9286 13.5794 38.7037 13.7761C38.4788 13.9728 38.3317 14.2435 38.2891 14.5392C38.2466 14.8349 38.3112 15.1361 38.4714 15.3883C38.6316 15.6405 38.8768 15.827 39.1626 15.9141Z" fill="black"/>
<path d="M29.459 77.8623H29.457L27.4541 77.8633C27.1226 77.8633 26.8046 77.995 26.5702 78.2294C26.3358 78.4638 26.2041 78.7818 26.2041 79.1133C26.2041 79.4448 26.3358 79.7628 26.5702 79.9972C26.8046 80.2316 27.1226 80.3633 27.4541 80.3633L29.4609 80.3623C29.7925 80.362 30.1103 80.2301 30.3445 79.9955C30.5788 79.7609 30.7102 79.4428 30.7099 79.1113C30.7097 78.7798 30.5777 78.4619 30.3431 78.2277C30.1085 77.9935 29.7906 77.862 29.459 77.8623Z" fill="black"/>
<path d="M9.76446 27.9122C9.25362 28.4413 8.7872 29.0116 8.36993 29.6173C8.2754 29.7521 8.20846 29.9044 8.17295 30.0652C8.13744 30.226 8.13407 30.3923 8.16302 30.5544C8.19198 30.7166 8.2527 30.8714 8.34168 31.01C8.43067 31.1486 8.54617 31.2682 8.68154 31.362C8.81691 31.4558 8.96949 31.5219 9.13051 31.5566C9.29153 31.5912 9.4578 31.5937 9.61978 31.5639C9.78176 31.5341 9.93625 31.4725 10.0744 31.3828C10.2125 31.2931 10.3315 31.177 10.4246 31.0411C10.7645 30.5481 11.144 30.0837 11.5593 29.6524C11.7888 29.4141 11.9144 29.0946 11.9087 28.7639C11.903 28.4332 11.7665 28.1182 11.529 27.888C11.2915 27.6577 10.9725 27.531 10.6417 27.5355C10.311 27.5401 9.99553 27.6755 9.76446 27.9122Z" fill="black"/>
<path d="M8.87755 71.8907C8.752 71.7851 8.60686 71.7052 8.45043 71.6556C8.294 71.606 8.12933 71.5877 7.96583 71.6018C7.80233 71.6158 7.6432 71.6619 7.49753 71.7375C7.35185 71.813 7.22248 71.9166 7.11681 72.0421C7.01114 72.1677 6.93123 72.3128 6.88165 72.4692C6.83206 72.6257 6.81378 72.7903 6.82783 72.9538C6.84189 73.1173 6.88801 73.2765 6.96357 73.4221C7.03912 73.5678 7.14263 73.6972 7.26818 73.8028C7.8004 74.2521 8.3463 74.6818 8.90099 75.0919C9.03296 75.1895 9.18285 75.2601 9.34212 75.2998C9.50139 75.3395 9.66691 75.3474 9.82923 75.3231C9.99155 75.2988 10.1475 75.2427 10.2882 75.1582C10.4288 75.0736 10.5515 74.9621 10.6491 74.8302C10.7466 74.6982 10.8173 74.5483 10.857 74.389C10.8966 74.2298 10.9045 74.0643 10.8802 73.9019C10.8559 73.7396 10.7999 73.5837 10.7153 73.443C10.6307 73.3023 10.5193 73.1797 10.3873 73.0821C9.8756 72.7032 9.37071 72.3048 8.87755 71.8907Z" fill="black"/>
<path d="M17.0482 25.0019C16.2608 24.9178 15.4652 24.952 14.6879 25.1035C14.383 25.1628 14.1111 25.3335 13.9253 25.5824C13.7394 25.8312 13.6528 26.1403 13.6825 26.4495C13.7121 26.7587 13.8558 27.0457 14.0855 27.2548C14.3153 27.4638 14.6146 27.5797 14.9252 27.5801C15.0055 27.5805 15.0857 27.5726 15.1644 27.5566C15.6968 27.4541 16.2415 27.4311 16.7806 27.4883C17.1104 27.5238 17.4407 27.4268 17.6989 27.2188C17.9571 27.0107 18.1221 26.7086 18.1576 26.3789C18.1931 26.0492 18.0961 25.7189 17.8881 25.4607C17.68 25.2024 17.3779 25.0374 17.0482 25.0019Z" fill="black"/>
<path d="M22.4426 77.8662L20.6477 77.8672L20.5383 77.8594C20.2078 77.8324 19.8802 77.9379 19.6274 78.1525C19.3747 78.3672 19.2176 78.6734 19.1907 79.0039C19.1637 79.3344 19.2692 79.662 19.4838 79.9148C19.6985 80.1675 20.0047 80.3246 20.3352 80.3515L22.4426 80.3662C22.7741 80.3662 23.0921 80.2345 23.3265 80.0001C23.5609 79.7657 23.6926 79.4477 23.6926 79.1162C23.6926 78.7847 23.5609 78.4667 23.3265 78.2323C23.0921 77.9979 22.7741 77.8662 22.4426 77.8662Z" fill="black"/>
<path d="M16.1826 76.5C15.6269 76.251 15.0478 75.9659 14.4619 75.6534C14.1694 75.499 13.8276 75.4668 13.5114 75.5638C13.1952 75.6609 12.9303 75.8793 12.7748 76.1712C12.6192 76.4632 12.5857 76.8048 12.6816 77.1214C12.7774 77.438 12.9948 77.7037 13.2861 77.8604C13.9219 78.1992 14.5518 78.5088 15.1592 78.7813C15.4614 78.9152 15.8044 78.924 16.1131 78.8057C16.4218 78.6874 16.6711 78.4517 16.8064 78.1501C16.9417 77.8485 16.952 77.5055 16.8351 77.1963C16.7182 76.8871 16.4836 76.6367 16.1826 76.5Z" fill="black"/>
<path d="M137.934 80.083L119.817 61.9663C122.568 57.4059 123.861 52.1145 123.524 46.7993C123.188 41.4841 121.236 36.3984 117.932 32.2218C114.627 28.0452 110.126 24.9768 105.031 23.4266C99.9358 21.8765 94.4888 21.9184 89.418 23.5469L70.5 0L31.7109 48.2812H40.8935V90.2764H99.6211V74.5306C103.013 74.2469 106.315 73.2989 109.341 71.7407L127.809 90.208C128.494 90.8971 129.309 91.4441 130.206 91.8177C131.104 92.1912 132.066 92.3839 133.038 92.3848C133.977 92.3899 134.908 92.2071 135.775 91.8471C136.642 91.4872 137.428 90.9574 138.088 90.2889C138.747 89.6204 139.266 88.8268 139.614 87.9547C139.962 87.0826 140.132 86.1497 140.114 85.2109C140.087 83.2821 139.304 81.441 137.934 80.083ZM121.079 48.4619C121.079 53.1431 119.691 57.7192 117.091 61.6115C114.49 65.5038 110.793 68.5375 106.469 70.329C102.144 72.1205 97.3849 72.5893 92.7936 71.6761C88.2024 70.763 83.985 68.5089 80.6749 65.1988C77.3647 61.8888 75.1104 57.6716 74.1971 53.0803C73.2837 48.4891 73.7523 43.7302 75.5436 39.4053C77.3349 35.0804 80.3685 31.3839 84.2607 28.783C88.1529 26.1822 92.7289 24.794 97.4101 24.7939C103.685 24.8011 109.701 27.297 114.138 31.734C118.576 36.171 121.072 42.1869 121.079 48.4619ZM43.3935 87.7764V45.7812H36.9258L70.5 3.99219L86.9595 24.4782C81.4694 26.8687 76.9655 31.0702 74.1999 36.3812C71.4343 41.6922 70.5743 47.7912 71.7635 53.6598C72.9528 59.5285 76.1193 64.8115 80.7343 68.6269C85.3493 72.4422 91.1335 74.5589 97.1211 74.6235V87.7764H43.3935ZM136.284 88.5576C135.378 89.4296 134.163 89.9069 132.906 89.8849C131.649 89.8629 130.451 89.3435 129.576 88.4404L111.581 70.4448C114.212 68.7446 116.519 66.5891 118.395 64.0794L136.166 81.8506C137.075 82.7491 137.595 83.9683 137.614 85.2461C137.627 85.8592 137.516 86.4686 137.287 87.0377C137.059 87.6067 136.718 88.1237 136.284 88.5576Z" fill="black"/>
<path d="M51.498 67.419H66.0986V46.584H51.498V67.419ZM53.998 49.084H63.5986V64.919H53.998V49.084Z" fill="black"/>
<path d="M97.4101 66.8076C101.039 66.8076 104.586 65.7317 107.602 63.7158C110.619 61.7 112.971 58.8348 114.359 55.4825C115.748 52.1303 116.111 48.4416 115.403 44.8829C114.695 41.3241 112.948 38.0553 110.383 35.4896C107.817 32.9239 104.548 31.1766 100.989 30.4687C97.4305 29.7609 93.7418 30.1242 90.3896 31.5127C87.0373 32.9012 84.1721 35.2527 82.1563 38.2696C80.1404 41.2865 79.0645 44.8335 79.0645 48.4619C79.0698 53.3259 81.0044 57.989 84.4437 61.4284C87.883 64.8677 92.5462 66.8023 97.4101 66.8076ZM97.4101 32.6162C100.544 32.6162 103.608 33.5456 106.214 35.2867C108.819 37.0279 110.85 39.5026 112.05 42.398C113.249 45.2935 113.563 48.4795 112.951 51.5533C112.34 54.627 110.831 57.4505 108.615 59.6665C106.399 61.8826 103.575 63.3918 100.502 64.0032C97.4277 64.6146 94.2417 64.3008 91.3463 63.1015C88.4508 61.9021 85.9761 59.8712 84.2349 57.2653C82.4938 54.6595 81.5645 51.5959 81.5645 48.4619C81.5692 44.2609 83.2402 40.2332 86.2108 37.2626C89.1814 34.292 93.2091 32.621 97.4101 32.6162Z" fill="black"/>
<path d="M86.4326 51.4189H88.7449C89.2649 53.4424 90.4437 55.2353 92.0954 56.5147C93.7471 57.7941 95.7777 58.4873 97.867 58.4851C99.1524 58.5085 100.428 58.2596 101.611 57.7548C102.793 57.2499 103.855 56.5005 104.728 55.5559L102.364 53.0119C101.803 53.6506 101.111 54.1604 100.335 54.5064C99.5586 54.8524 98.7167 55.0264 97.8669 55.0163C96.7073 55.0269 95.5711 54.6898 94.6047 54.0486C93.6384 53.4074 92.8863 52.4915 92.4453 51.4189H99.9228L100.411 49.9799H92.0597C92.0084 49.6742 91.9826 49.3647 91.9824 49.0547C91.9815 48.7362 92.0073 48.4183 92.0597 48.1042H101.079L101.593 46.6394H92.4711C92.9167 45.5793 93.6679 44.676 94.6289 44.0445C95.5898 43.4129 96.7171 43.0819 97.867 43.0935C98.7167 43.0835 99.5586 43.2574 100.335 43.6034C101.111 43.9494 101.803 44.4592 102.364 45.0978L104.728 42.5539C103.855 41.6091 102.793 40.8597 101.611 40.3549C100.428 39.85 99.1524 39.6012 97.867 39.6248C95.7867 39.6282 93.7656 40.3173 92.1165 41.5853C90.4675 42.8534 89.2824 44.6297 88.7449 46.6393H86.9722L86.4326 48.1042H88.488C88.4623 48.4125 88.4365 48.7463 88.4365 49.0546C88.4365 49.363 88.4623 49.6715 88.488 49.9799H86.9722L86.4326 51.4189Z" fill="black"/>
</g>
<defs>
<clipPath id="clip0_1144_3202">
<rect width="140.115" height="92.3848" fill="white"/>
</clipPath>
</defs>
</svg>
