<svg width="200" height="192" viewBox="0 0 200 192" fill="none" xmlns="http://www.w3.org/2000/svg">
<path d="M197.215 103.256C200.858 99.1046 200.858 92.895 197.215 88.7436L183.728 73.3778C181.735 71.1075 180.764 68.1176 181.042 65.1096L182.921 44.7708C183.429 39.2754 179.786 34.2545 174.404 33.032L154.42 28.4927C151.479 27.8247 148.942 25.9785 147.401 23.386L136.947 5.79624C134.126 1.05003 128.224 -0.869741 123.15 1.30877L104.34 9.38603C101.569 10.576 98.4308 10.576 95.6597 9.38603L76.8496 1.30877C71.7764 -0.869741 65.8742 1.05003 63.0534 5.79624L52.6078 23.3713C51.0619 25.9724 48.5127 27.8219 45.5602 28.4843L25.6263 32.9571C20.2306 34.1677 16.5725 39.1958 17.0812 44.7022L18.959 65.027C19.2363 68.0282 18.27 71.0117 16.2859 73.2805L2.76103 88.7453C-0.870294 92.8975 -0.864779 99.0972 2.77393 103.243L16.273 118.623C18.265 120.893 19.2364 123.881 18.9593 126.888L17.0762 147.325C16.57 152.82 20.2126 157.839 25.5933 159.061L45.5797 163.601C48.5206 164.269 51.0582 166.115 52.5991 168.708L63.041 186.277C65.8672 191.032 71.785 192.949 76.8623 190.753L95.6495 182.631C98.4264 181.43 101.575 181.426 104.355 182.62L123.15 190.691C128.224 192.869 134.126 190.95 136.947 186.203L147.401 168.614C148.942 166.021 151.479 164.175 154.42 163.507L174.404 158.968C179.786 157.745 183.429 152.724 182.921 147.229L181.042 126.89C180.764 123.882 181.735 120.892 183.728 118.622L197.215 103.256ZM88.9448 135.305C84.649 139.601 77.6842 139.601 73.3885 135.305L50.1451 112.062C46.4751 108.392 46.4751 102.441 50.1451 98.7713C53.8101 95.1063 59.7505 95.1005 63.4226 98.7585L73.3885 108.686C77.6867 112.967 84.6399 112.961 88.9298 108.671L136.537 61.064C140.225 57.3753 146.209 57.3859 149.885 61.0876C153.542 64.7708 153.531 70.7183 149.861 74.3886L88.9448 135.305Z" fill="#787878"/>
</svg>
