<svg width="138" height="133" viewBox="0 0 138 133" fill="none" xmlns="http://www.w3.org/2000/svg">
<path d="M68.7141 32.5795C60.9135 32.5809 53.3404 35.2073 47.2138 40.0358C41.0872 44.8643 36.7637 51.614 34.9393 59.1982C33.1148 66.7825 33.8957 74.76 37.156 81.8466C40.4164 88.9332 45.9666 94.7164 52.9131 98.2654V122.872C52.9182 125.101 53.8065 127.237 55.3834 128.812C56.9604 130.388 59.0974 131.273 61.3263 131.276H75.7571C77.9876 131.273 80.126 130.386 81.7033 128.809C83.2805 127.232 84.1677 125.093 84.1702 122.863V98.4091C91.1689 94.9142 96.7833 89.1597 100.105 82.0771C103.426 74.9945 104.261 66.9983 102.473 59.3826C100.685 51.767 96.3787 44.9775 90.2522 40.1133C84.1257 35.249 76.5369 32.5945 68.7141 32.5795ZM53.8713 111.546H83.212V116.673H53.8713V111.546ZM62.3324 76.2263H58.2791C56.5594 76.2238 54.9109 75.5395 53.6948 74.3235C52.4788 73.1075 51.7945 71.4589 51.792 69.7392V69.6242C51.7853 68.3633 52.2643 67.1483 53.1297 66.2312C53.995 65.3141 55.1802 64.7654 56.4394 64.699H56.976C58.1801 64.6558 59.359 65.0505 60.2945 65.8098C61.23 66.5691 61.8587 67.6417 62.0641 68.8289C62.3262 70.2276 62.4163 71.6532 62.3324 73.0738V76.2263ZM75.3642 68.3019C75.52 67.3297 75.9716 66.4292 76.6574 65.7228C77.3432 65.0165 78.23 64.5385 79.1971 64.354C80.0976 64.1628 81.0354 64.2609 81.8769 64.6343C82.7183 65.0077 83.4203 65.6373 83.8828 66.4333C84.4632 67.4192 84.7731 68.541 84.7809 69.685C84.7888 70.8291 84.4944 71.955 83.9275 72.9487C83.3606 73.9425 82.5413 74.769 81.5525 75.3445C80.5637 75.92 79.4404 76.2242 78.2963 76.2263H75.1342V73.9074C75.0252 72.0359 75.1023 70.1582 75.3642 68.3019ZM74.176 110.588H63.2906V77.1846H74.176V110.588ZM53.8713 117.631H83.212V122.757H53.8713V117.631ZM75.7571 130.318H61.3263C59.5027 130.317 57.7427 129.647 56.3796 128.436C55.0164 127.224 54.1445 125.555 53.9288 123.744H83.1545C82.9369 125.554 82.0644 127.222 80.7016 128.433C79.3389 129.644 77.5801 130.314 75.7571 130.318ZM83.4803 97.7384L83.212 97.8725V110.655H75.1342V77.1846H78.3059C79.6191 77.1824 80.9085 76.8334 82.0435 76.1729C83.1785 75.5123 84.1189 74.5637 84.7695 73.423C85.4201 72.2822 85.7579 70.9899 85.7485 69.6767C85.7392 68.3635 85.3831 67.076 84.7164 65.9447C84.1562 64.9761 83.3039 64.2097 82.2814 63.7552C81.259 63.3008 80.1189 63.1817 79.0246 63.415C77.858 63.627 76.7868 64.1981 75.9605 65.0484C75.1342 65.8988 74.5941 66.986 74.4156 68.1581C74.1473 70.0621 74.067 71.9878 74.176 73.9074V76.2072H63.2906V73.0738C63.3771 71.5792 63.2806 70.0797 63.0032 68.6085C62.7178 67.1055 61.8725 65.7669 60.638 64.8633C59.4035 63.9597 57.8721 63.5585 56.3531 63.7407C54.8551 63.8197 53.4452 64.4734 52.4171 65.5657C51.389 66.6581 50.8218 68.105 50.8338 69.605V69.7392C50.8363 71.7131 51.6215 73.6053 53.0173 75.0011C54.413 76.3968 56.3053 77.182 58.2791 77.1846H62.3324V110.588H53.8713V97.6329L53.603 97.4988C46.7812 94.0868 41.3146 88.467 38.0925 81.5535C34.8703 74.6399 34.0823 66.8396 35.8567 59.4213C37.631 52.003 41.8632 45.4034 47.8648 40.696C53.8664 35.9887 61.2843 33.4505 68.9117 33.4946C76.539 33.5386 83.9271 36.1622 89.874 40.9385C95.8208 45.7149 99.9766 52.363 101.665 59.8012C103.354 67.2395 102.476 75.0302 99.1739 81.9061C95.8722 88.782 90.3411 94.3383 83.4803 97.6713V97.7384Z" fill="#7F7F7F" stroke="#7F7F7F" stroke-width="3"/>
<path d="M69.0207 0H68.0625V21.8282H69.0207V0Z" fill="#7F7F7F" stroke="#7F7F7F" stroke-width="3"/>
<path d="M90.1165 14.7525L84.8408 25.3989L85.6994 25.8244L90.9751 15.1779L90.1165 14.7525Z" fill="#7F7F7F" stroke="#7F7F7F" stroke-width="3"/>
<path d="M116.184 19.1347L101.21 34.1089L101.888 34.7864L116.862 19.8123L116.184 19.1347Z" fill="#7F7F7F" stroke="#7F7F7F" stroke-width="3"/>
<path d="M120.47 45.3772L110.73 49.8856L111.133 50.7552L120.872 46.2468L120.47 45.3772Z" fill="#7F7F7F" stroke="#7F7F7F" stroke-width="3"/>
<path d="M136 66.2607H114.172V67.219H136V66.2607Z" fill="#7F7F7F" stroke="#7F7F7F" stroke-width="3"/>
<path d="M111.149 83.6311L110.721 84.4882L120.456 89.3571L120.885 88.5001L111.149 83.6311Z" fill="#7F7F7F" stroke="#7F7F7F" stroke-width="3"/>
<path d="M101.894 98.6859L101.208 99.3553L116.177 114.684L116.863 114.015L101.894 98.6859Z" fill="#7F7F7F" stroke="#7F7F7F" stroke-width="3"/>
<path d="M35.5555 98.6809L19.9512 114.285L20.6287 114.963L36.233 99.3584L35.5555 98.6809Z" fill="#7F7F7F" stroke="#7F7F7F" stroke-width="3"/>
<path d="M25.7687 83.6235L15.1299 88.4921L15.5286 89.3634L26.1674 84.4948L25.7687 83.6235Z" fill="#7F7F7F" stroke="#7F7F7F" stroke-width="3"/>
<path d="M22.0007 66.2607H0V67.219H22.0007V66.2607Z" fill="#7F7F7F" stroke="#7F7F7F" stroke-width="3"/>
<path d="M15.5603 44.1311L15.1035 44.9734L25.7423 50.7425L26.199 49.9002L15.5603 44.1311Z" fill="#7F7F7F" stroke="#7F7F7F" stroke-width="3"/>
<path d="M20.6397 18.2505L19.9346 18.8993L35.5392 35.8573L36.2443 35.2085L20.6397 18.2505Z" fill="#7F7F7F" stroke="#7F7F7F" stroke-width="3"/>
<path d="M46.0582 14.7393L45.2129 15.1907L50.8952 25.8326L51.7404 25.3813L46.0582 14.7393Z" fill="#7F7F7F" stroke="#7F7F7F" stroke-width="3"/>
</svg>
