<svg width="148" height="192" viewBox="0 0 148 192" fill="none" xmlns="http://www.w3.org/2000/svg">
<path d="M0 0V117.943C0 159.155 33.1309 192 74 192C114.869 192 148 159.155 148 117.943V0H0Z" fill="#00FFD0"/>
<path d="M35.0229 119.279C35.0229 124.621 31.5687 127.114 24.4463 127.114H21.5261V135.233H17.4663V111.551H24.4463C31.5332 111.551 35.0229 113.902 35.0229 119.279ZM30.8565 119.279C30.8565 115.824 28.6485 114.863 24.2684 114.863H21.5261V123.767H24.2684C28.6127 123.767 30.8565 122.734 30.8565 119.279V119.279Z" fill="#333333"/>
<path d="M54.1102 132.028V134.805C53.3979 135.269 52.4721 135.482 51.5461 135.482C49.2668 135.482 47.8779 134.023 47.8779 131.956V131.921H47.8069C46.9877 134.023 45.1358 135.732 42.0374 135.732C38.512 135.732 36.0905 133.665 36.0905 130.497C36.0905 126.757 39.5804 125.476 44.744 124.656L47.593 124.193C47.593 121.772 46.5604 120.277 44.1387 120.277C42.2156 120.277 40.9336 121.166 39.9008 122.734L37.23 120.917C38.1914 118.673 40.72 117.036 44.1387 117.036C48.9466 117.036 51.5106 119.386 51.5106 123.908V130.852C51.5106 131.992 51.9022 132.455 52.6144 132.455C53.1841 132.455 53.5757 132.348 54.11 132.028L54.1102 132.028ZM47.593 126.9V126.828L44.9581 127.22C42.2158 127.612 40.1149 128.111 40.1149 130.069C40.1149 131.815 41.2187 132.526 42.9993 132.526C45.6347 132.526 47.5931 130.639 47.5931 126.9H47.593Z" fill="#333333"/>
<path d="M56.6376 117.533H59.4866L60.3058 121.344H60.3767C61.5521 117.676 63.9024 117.036 65.5764 117.036C66.9293 117.036 67.4991 117.284 67.784 117.428L67.25 120.952C66.8226 120.739 66.1462 120.489 65.1844 120.489C62.7982 120.489 60.5549 122.342 60.5549 127.363V135.233H56.6376V117.533V117.533Z" fill="#333333"/>
<path d="M80.7809 131.814V134.984C79.7838 135.482 78.5734 135.625 77.5763 135.625C73.8369 135.625 72.1633 133.845 72.1633 129.82V120.454H69.1361V117.533H72.1633V112.869L76.0803 112.049V117.533H80.0689V120.454H76.0803V129.357C76.0803 131.529 76.7217 132.491 78.4311 132.491C79.3212 132.491 80.1758 132.17 80.7811 131.814L80.7809 131.814Z" fill="#333333"/>
<path d="M83.7362 117.533H86.5852L87.4399 120.632H87.5111C88.6149 117.961 90.5737 117.036 92.8528 117.036C96.414 117.036 98.9427 119.279 98.9427 123.908V135.233H95.0249V124.3C95.0249 121.594 93.9569 120.348 91.8203 120.348C89.3628 120.348 87.6535 121.95 87.6535 125.547V135.233H83.7362V117.533V117.533Z" fill="#333333"/>
<path d="M119.525 127.577H105.601C105.957 130.39 108.022 132.455 110.729 132.455C113.614 132.455 114.753 131.208 115.999 129.464L118.813 131.707C117.281 134.164 114.86 135.732 110.8 135.732C105.387 135.732 101.576 131.885 101.576 126.437C101.576 120.917 105.351 117.036 110.729 117.036C115.893 117.036 119.525 120.917 119.525 126.401V127.577H119.525ZM105.707 124.763H115.536C115.181 122.128 113.222 120.276 110.729 120.276C108.201 120.276 106.242 122.128 105.707 124.763V124.763Z" fill="#333333"/>
<path d="M122.444 117.533H125.293L126.112 121.344H126.184C127.359 117.676 129.709 117.036 131.383 117.036C132.736 117.036 133.306 117.284 133.591 117.428L133.057 120.952C132.629 120.739 131.953 120.489 130.991 120.489C128.605 120.489 126.362 122.342 126.362 127.363V135.233H122.444V117.533V117.533Z" fill="#333333"/>
<path d="M136.261 95H13V92H139L136.261 95Z" fill="#333333"/>
<path d="M106.646 48.6861C106.662 49.0439 106.536 49.3936 106.296 49.6586L105.831 49.5131C105.831 49.5131 102.398 48.304 97.118 46.7532C97.118 46.7532 92.4454 45.3664 90.5479 44.7424C90.5479 44.7424 90.1403 44.5868 89.3439 44.6646C88.5474 44.7424 85.7925 44.9521 83.9728 45.1415L81.1976 45.4543C76.1868 46.0293 73.897 46.1308 73.897 46.1308C65.9487 46.9003 64.0411 47.0423 64.0411 47.0423C59.8437 47.3484 57.1684 47.8507 50.8874 48.2583L39.0648 49.442L38.2192 49.5283L37.9046 49.5571C37.7576 49.477 37.6492 49.3411 37.6036 49.18L37.6153 48.742C38.1226 48.5611 37.5544 48.0232 37.5544 48.0232C37.2973 47.9133 37.3852 47.7256 37.3852 47.7256C37.391 47.6949 37.4037 47.666 37.4225 47.6411C37.4514 47.5999 37.4767 47.5563 37.4986 47.5109C37.4411 47.3688 37.7033 46.8597 37.7033 46.8597C37.5714 46.6906 37.6238 46.7244 37.4901 46.557C37.4056 46.4505 37.365 46.1326 37.3447 45.9059C37.3311 45.7487 37.6119 45.4391 37.5375 45.3546C37.4174 45.2142 37.294 45.0891 37.1757 44.942C37.1284 44.8726 37.0962 44.7943 37.081 44.712C37.0728 44.6528 37.0866 44.5926 37.1199 44.5428C37.2044 44.4227 37.2062 44.4177 37.1013 44.2249C37.0608 44.1539 37.015 44.0947 36.9728 44.0254C36.8798 43.8749 37.1809 43.5418 37.1538 43.3236C37.1377 43.2198 37.1135 43.1175 37.081 43.0175C37.0608 42.9515 37.0387 42.8602 37.0184 42.7655C37.0184 42.7468 37.0032 42.7266 36.9948 42.7063C36.978 42.6603 36.9739 42.6107 36.983 42.5625C36.9723 42.4896 36.9723 42.4155 36.983 42.3426C36.9491 42.2361 36.917 42.1295 36.8849 42.023C36.859 41.957 36.8627 41.8831 36.895 41.82C36.9052 41.8064 36.9137 41.7896 36.9254 41.7845C36.9864 41.749 36.9643 41.6002 36.9915 41.5173L36.9542 41.4717C36.9102 41.4192 36.895 41.3821 36.9086 41.3432C36.9234 41.2384 36.9263 41.1324 36.9171 41.027C36.9212 40.9037 36.8993 40.781 36.8528 40.6667C36.8326 40.611 36.8207 40.5517 36.8055 40.4976C36.7845 40.4432 36.7845 40.383 36.8055 40.3284C36.8393 40.2693 36.8782 40.2219 36.9137 40.1593C36.9382 40.0884 36.9339 40.0107 36.9019 39.9429C36.8766 39.8837 36.8494 39.8278 36.8225 39.7737C36.7955 39.7196 36.7379 39.652 36.6956 39.6046C36.5863 39.4841 36.5367 39.3208 36.5603 39.1599C36.5852 39.0699 36.5593 38.9733 36.4926 38.9079C36.4462 38.857 36.4069 38.8002 36.3759 38.7387C36.2491 38.4885 36.2558 38.4123 36.4013 38.392C36.5467 38.3718 36.5552 38.3396 36.5129 38.0691C36.4706 37.7986 36.4774 37.6582 36.6126 37.6226C36.6837 37.6023 36.7479 37.5211 36.7192 37.3199C36.6904 37.1187 36.7801 36.7449 36.6634 36.6975C36.5113 36.6333 36.4943 36.3762 36.4114 36.2223C36.4114 36.2223 36.4216 36.1631 36.4301 36.1665C36.4385 36.1699 36.4791 36.2139 36.5028 36.2223C36.5308 36.2265 36.5593 36.2265 36.5873 36.2223C36.5717 36.1638 36.5502 36.1072 36.523 36.0531C36.44 35.9479 36.4011 35.8144 36.4148 35.6811C36.4148 35.4664 36.4013 35.1738 36.2119 35.0233C36.1709 34.9464 36.1474 34.8617 36.1426 34.7747C36.1445 34.7261 36.1705 34.6817 36.2119 34.6563C36.2457 34.6361 36.2931 34.6563 36.3286 34.6428C36.3625 34.6206 36.3932 34.5939 36.4199 34.5633C36.3975 34.496 36.3698 34.4304 36.337 34.3672C36.2886 34.2959 36.2319 34.2307 36.1679 34.1727C36.0664 34.0781 36.0139 33.9106 36.0816 33.8346C36.1916 33.7144 36.1037 33.6131 36.0326 33.4845C35.9911 33.4123 35.9566 33.3364 35.9294 33.2578C35.9188 33.2071 35.9188 33.1547 35.9294 33.1039C35.9852 32.9817 36.1079 32.904 36.2423 32.9059C36.3318 32.9059 36.3438 32.7876 36.3403 32.7571C36.3132 32.6894 36.0952 32.7469 36.0664 32.7182C35.9886 32.6471 36.0664 32.6201 35.9953 32.5642C35.8825 32.4262 35.8173 32.2554 35.8093 32.0772C35.8229 32.0214 35.8753 32.0079 35.9159 31.9977C35.9564 31.9876 36.0579 32.0299 35.9548 31.7998C35.8871 31.6493 35.9159 31.7119 35.9548 31.5292C35.9785 31.4378 36.0259 31.4751 35.992 31.3702L36.0563 31.3144C36.0563 31.3144 37.0591 31.1673 37.1995 31.1453C37.4854 31.1165 37.2451 30.7293 37.2451 30.7293C37.2002 30.4622 37.1928 30.1901 37.2231 29.9209C37.1876 29.505 37.0421 29.4424 36.8746 29.3393C36.8168 29.2534 36.7786 29.1557 36.763 29.0534C36.7545 29.0179 36.8086 28.9351 36.8459 28.9367C36.8831 28.9384 36.9271 28.9045 36.9913 28.9367C37.0116 28.9485 37.0302 28.8589 37.0489 28.8741C37.0489 28.8285 37.076 28.8419 37.0606 28.8166C37.0183 28.7337 36.9845 28.7946 36.9405 28.7117C36.9041 28.6435 36.8768 28.5706 36.8593 28.4953C36.8593 28.4649 36.9083 28.4191 36.9422 28.4108C36.976 28.4024 37.0301 28.2416 36.9675 28.0726C36.9302 27.9907 36.9019 27.9051 36.883 27.8173C36.834 27.589 36.8593 27.4486 36.9472 27.3641C37.0352 27.2796 37.0402 27.1611 36.9118 26.965C36.9019 26.9477 36.8905 26.9313 36.8779 26.9159C36.8053 26.856 36.7663 26.7646 36.773 26.6708C36.773 26.5135 36.8897 26.4019 36.9422 26.4137C36.9946 26.4255 36.9979 26.3359 37.0031 26.3088C37.0284 26.1396 37.0217 26.1887 36.976 26.0957C36.9302 26.0027 36.8068 25.9925 36.7088 25.9806C36.5143 25.9569 36.5396 25.8809 36.4331 25.7438C36.3265 25.6067 36.3113 25.5747 36.3874 25.4715C36.4418 25.4399 36.5039 25.4241 36.5667 25.4259C36.6429 25.4344 36.6141 25.3735 36.6225 25.2264C36.6267 25.1899 36.6352 25.1542 36.6478 25.1198C36.724 24.8729 36.7222 24.8729 36.6343 24.4958C36.5717 24.2269 36.5261 23.9783 36.6343 23.7956C36.7036 23.6739 36.6529 23.2748 36.7442 23.2528C36.7983 23.2411 36.8018 23.0837 36.8153 23.0042C36.8289 22.9248 36.8339 22.9265 36.8644 22.923C36.8948 22.9196 36.9067 22.8639 36.9185 22.8284C36.9405 22.7573 36.822 22.6406 36.7951 22.5814C36.7477 22.4783 36.7021 22.3819 36.648 22.2889C36.5752 22.1586 36.5177 22.0539 36.6293 22.0048C36.7037 21.971 36.6834 21.8103 36.6293 21.741C36.5318 21.5754 36.4707 21.3909 36.45 21.1999C36.4436 21.1771 36.4384 21.154 36.4348 21.1306C36.4247 21.0105 36.2944 20.9057 36.352 20.7924C36.3842 20.7349 36.462 20.7721 36.5076 20.7349C36.5921 20.6656 36.7748 20.5657 36.6767 20.4879C36.648 20.4642 36.6767 20.3188 36.6599 20.2918C36.6166 20.2069 36.5626 20.1279 36.4992 20.0568C36.3791 19.9502 36.4332 19.9993 36.347 19.7997L36.3302 19.6966C36.2964 19.5866 36.4299 19.5799 36.4299 19.5799L37.7152 19.4107C37.7152 19.4107 41.0974 19.0505 44.3106 18.7342C44.3106 18.7342 46.7626 18.4942 57.0582 17.4506C57.0582 17.4506 61.4095 17.0701 66.3696 16.4038C66.3696 16.4038 70.7074 15.8846 79.6467 15.1625C79.6467 15.1625 85.7483 14.5368 90.1317 14.0024C90.1317 14.0024 91.7417 13.7522 92.8645 14.3085C92.8645 14.3085 100.023 17.3204 102.553 18.2793L114.572 23.4406C114.878 23.6098 114.677 23.7382 114.677 23.7382C114.653 23.7641 114.622 23.7839 114.589 23.7958C114.531 23.821 114.474 23.8504 114.42 23.8837C114.421 24.0172 114.448 24.1493 114.499 24.2727C114.609 24.4418 114.55 24.4096 114.668 24.5855C114.739 24.6988 114.651 24.9761 114.579 25.1706C114.528 25.3059 114.004 25.4834 114.071 25.5748C114.176 25.727 114.293 25.8657 114.391 26.0246C114.425 26.0921 114.435 26.1687 114.421 26.2428C114.411 26.2918 114.342 26.3459 114.295 26.3662C114.126 26.4423 114.117 26.4456 114.18 26.6368C114.202 26.7079 114.24 26.7704 114.268 26.8398C114.33 26.992 113.76 27.178 113.706 27.3724C113.681 27.4627 113.669 27.5561 113.669 27.6498C113.666 27.7264 113.658 27.8027 113.645 27.8781V27.9339C113.647 27.9797 113.63 28.0243 113.598 28.0573C113.58 28.1241 113.55 28.1867 113.508 28.2416V28.5358C113.51 28.6084 113.468 28.6751 113.402 28.705C113.384 28.7147 113.365 28.7215 113.346 28.7252C113.246 28.737 113.209 28.8673 113.136 28.9282C113.146 28.9451 113.156 28.9621 113.168 28.9789C113.204 29.033 113.209 29.0703 113.168 29.0972C113.082 29.1633 113.069 29.2883 112.999 29.3712C112.916 29.4812 112.945 29.6046 112.938 29.7247C112.938 29.7619 112.938 29.7974 112.927 29.8347C112.925 29.8948 112.891 29.9496 112.839 29.9785C112.766 30.0174 112.692 30.0478 112.617 30.0834C112.557 30.1243 112.526 30.1961 112.538 30.2677C112.547 30.3247 112.558 30.3811 112.573 30.4369C112.602 30.5004 112.635 30.5619 112.671 30.6212C112.768 30.7422 112.763 30.9154 112.66 31.0305C112.58 31.1218 112.583 31.1794 112.641 31.2588C112.68 31.3094 112.71 31.3666 112.729 31.428C112.793 31.6731 112.751 31.7357 112.541 31.7104C112.331 31.685 112.304 31.7104 112.242 31.9472C112.179 32.184 112.108 32.2989 111.904 32.2854C111.768 32.277 111.647 32.3712 111.621 32.5052C111.569 32.6845 111.599 32.9059 111.74 32.9787C111.922 33.0751 111.829 33.2949 111.878 33.4471C111.878 33.4471 111.836 33.4945 111.826 33.4876C111.816 33.4808 111.78 33.4352 111.751 33.4216C111.715 33.407 111.676 33.3972 111.636 33.3929C111.63 33.4494 111.633 33.5067 111.646 33.562C111.714 33.6664 111.708 33.8024 111.631 33.9002C111.535 34.0795 111.428 34.3212 111.619 34.5073C111.65 34.5361 111.635 34.6765 111.606 34.734C111.577 34.7915 111.509 34.8051 111.457 34.8118C111.405 34.8185 111.345 34.7898 111.288 34.7915C111.233 34.7988 111.179 34.8125 111.127 34.8321C111.128 34.8951 111.137 34.9575 111.154 35.0181C111.193 35.0952 111.243 35.1664 111.301 35.2294C111.401 35.3376 111.4 35.4916 111.273 35.5339C111.066 35.6015 111.144 35.703 111.185 35.8384C111.209 35.9093 111.223 35.9833 111.227 36.0582C111.227 36.1005 111.187 36.185 111.166 36.1866C110.997 36.2053 110.828 36.3862 110.672 36.2357C110.649 36.212 110.598 36.2357 110.561 36.2255C110.561 36.2898 110.561 36.3811 110.583 36.4115C110.661 36.4867 110.746 36.5558 110.835 36.6178C110.929 36.7533 110.944 36.9284 110.874 37.0777C110.821 37.1138 110.755 37.1265 110.693 37.1132C110.605 37.1132 110.51 37.0455 110.551 37.2672C110.578 37.4126 110.536 37.5648 110.368 37.5682C110.231 37.5682 110.218 37.7204 110.218 37.8184C110.234 37.998 110.143 38.1702 109.984 38.2565C109.905 38.3021 109.815 38.3444 109.962 38.4256C110.109 38.5068 110.164 38.6505 110.131 38.894C110.104 39.0919 110.074 39.3405 110.26 39.4757C110.302 39.5061 110.302 39.655 110.289 39.7463C110.289 39.7785 110.172 39.8309 110.12 39.8191C110.038 39.7876 109.962 39.7431 109.895 39.6872C109.873 39.6736 109.852 39.6533 109.83 39.6365C109.819 39.6754 109.788 39.7244 109.795 39.7498C109.819 39.831 109.866 39.8969 109.888 39.9781C109.911 40.0503 109.916 40.1267 109.903 40.2013C109.903 40.2285 109.802 40.2504 109.751 40.247C109.665 40.247 109.616 40.2317 109.628 40.389C109.622 40.5138 109.602 40.6374 109.568 40.7577C109.56 40.9278 109.444 41.0733 109.279 41.1179C109.092 41.172 109.061 41.2599 109.151 41.4561C109.156 41.4744 109.165 41.4915 109.176 41.5068C109.225 41.571 109.281 41.6302 109.213 41.7418C109.146 41.8534 109.092 41.7621 109.031 41.7418C108.97 41.7215 108.884 41.7418 108.875 41.757C108.835 41.8596 108.818 41.97 108.826 42.0799C108.863 42.1777 108.921 42.2665 108.995 42.3403C109.108 42.458 109.212 42.584 109.305 42.7174C109.379 42.8459 109.33 42.9153 109.193 42.9102C109.144 42.9089 109.095 42.9015 109.048 42.8882C108.945 42.8487 108.828 42.8941 108.779 42.9931C108.756 43.0247 108.729 43.0527 108.698 43.0759C108.481 43.2587 108.485 43.2587 108.439 43.5985C108.407 43.842 108.358 44.0618 108.133 44.1852C107.984 44.2664 107.878 44.6131 107.74 44.6046C107.661 44.6046 107.588 44.728 107.532 44.7924C107.477 44.8568 107.473 44.8516 107.428 44.8448C107.382 44.8381 107.365 44.7958 107.335 44.8211C107.27 44.8736 107.362 45.0934 107.373 45.1593C107.391 45.256 107.414 45.3515 107.445 45.4452C107.488 45.5736 107.521 45.6785 107.346 45.687C107.261 45.6977 107.201 45.7755 107.211 45.8608C107.213 45.8769 107.218 45.8923 107.225 45.907C107.287 46.0699 107.29 46.2495 107.233 46.4143C107.232 46.4354 107.228 46.4564 107.223 46.4769C107.184 46.58 107.318 46.7052 107.189 46.7796C107.12 46.8185 107.029 46.7644 106.949 46.7796C106.799 46.8154 106.651 46.8622 106.508 46.92C106.477 46.9708 106.468 47.0313 106.481 47.0891C106.522 47.1862 106.579 47.276 106.65 47.3547C106.773 47.4832 106.852 47.6471 106.876 47.8231C106.911 47.9643 106.87 48.1136 106.768 48.2172C106.659 48.3467 106.614 48.519 106.646 48.6856L106.646 48.6861Z" fill="white"/>
<path d="M66.1212 28.1141C65.2575 27.3796 64.1569 26.9829 63.0231 26.998C60.9177 26.998 59.2603 27.9755 58.5991 29.5752C57.8973 27.6828 56.2062 26.998 54.8093 26.998C53.2501 26.998 51.9632 27.6913 51.2935 28.8734L50.9332 27.3616H48.8159V41.8427H51.4102V32.9339C51.4102 30.8013 52.5939 29.4231 54.4169 29.4231C55.9881 29.4231 56.8894 30.4174 56.8894 32.1492V41.8427H59.4837V32.9339C59.4837 30.8013 60.6674 29.4231 62.4904 29.4231C64.0632 29.4231 64.9646 30.4174 64.9646 32.1492V41.8427H67.5588V31.5049C67.5588 30.1064 67.0616 28.9344 66.1214 28.1142L66.1212 28.1141Z" fill="#333333"/>
<path d="M87.3078 28.1141C86.4443 27.3793 85.3435 26.9826 84.2097 26.998C82.1043 26.998 80.4469 27.9755 79.7874 29.5752C79.0856 27.6828 77.4012 26.998 75.9925 26.998C74.4349 26.998 73.148 27.6913 72.4766 28.8734L72.1181 27.3616H70.0042V41.8427H72.5966V32.9339C72.5966 30.8013 73.7804 29.4231 75.6034 29.4231C77.1762 29.4231 78.0775 30.4174 78.0775 32.1492V41.8427H80.6718V32.9339C80.6718 30.8013 81.8555 29.4231 83.6769 29.4231C85.2497 29.4231 86.151 30.4174 86.151 32.1492V41.8427H88.7453V31.5049C88.7453 30.1064 88.2481 28.9344 87.3078 28.1142V28.1141Z" fill="#333333"/>
<path d="M97.7978 26.9976C96.7518 26.9976 95.7795 27.1908 94.905 27.5671C94.0305 27.9433 93.2539 28.5027 92.5993 29.2349C91.9812 29.9265 91.5023 30.7476 91.1778 31.6542C90.8533 32.5608 90.6833 33.5531 90.6833 34.5873C90.6833 35.6215 90.8525 36.6175 91.1766 37.5275C91.5006 38.4375 91.9796 39.2616 92.5995 39.9515C93.2523 40.6795 94.028 41.2364 94.9025 41.6111C95.777 41.9858 96.7503 42.1787 97.798 42.1787C99.8586 42.1787 101.637 41.3792 102.9 40.0301C104.163 38.681 104.911 36.7823 104.911 34.5839C104.911 32.3855 104.163 30.4888 102.9 29.1419C101.637 27.795 99.8586 26.9976 97.798 26.9976H97.7978ZM97.8249 39.6692C96.7088 39.6692 95.5858 39.2329 94.742 38.3805C93.8982 37.5282 93.3333 36.2599 93.3333 34.5958C93.3333 33.1321 93.8056 31.8688 94.6031 30.9714C95.4007 30.0741 96.5236 29.5426 97.8249 29.5426C99.1102 29.5426 100.219 30.0741 101.007 30.9714C101.794 31.8688 102.261 33.1321 102.261 34.5958C102.261 36.2599 101.703 37.5282 100.87 38.3805C100.036 39.2329 98.9274 39.6692 97.8248 39.6692H97.8249Z" fill="#333333"/>
<path d="M43.5093 22.9559V41.8424H46.2997V21.8955L43.5093 22.9559Z" fill="#333333"/>
<path d="M98.7387 67.5919C102.543 64.668 106.463 61.6415 106.463 57.2207C106.463 53.7577 103.964 51.3398 100.385 51.3398C97.2432 51.3398 93.8587 53.4439 93.8587 58.062C93.8575 58.2708 93.8713 58.4795 93.8979 58.687L96.4549 57.6988C96.4549 55.162 98.3451 53.8285 100.213 53.8285C102.027 53.8285 103.859 54.9812 103.859 57.5572C103.859 60.8949 100.453 63.5052 95.7413 67.1211C95.0644 67.6374 94.3697 68.1726 93.6474 68.7369L93.6056 68.7685V71.2294H106.994V68.5445H97.5063C97.9138 68.2256 98.3274 67.9094 98.7387 67.5918V67.5919Z" fill="#333333"/>
<path d="M33.6938 59.9104L33.4622 59.8167C31.3531 58.9715 29.86 58.22 29.86 56.3322C29.86 54.471 31.3416 53.4994 32.8042 53.4994C33.9886 53.4994 35.4815 54.127 36.0648 55.4971L38.5471 54.5394L38.5104 54.4457C37.5336 52.0177 34.9589 50.9321 32.8333 50.9321C30.0548 50.9321 27.0625 52.6832 27.0625 56.5321C27.0625 60.2898 29.9372 61.4628 32.2564 62.4028L32.5385 62.5179C34.9058 63.4934 36.4506 64.2766 36.4506 66.1998C36.4506 68.1951 34.7742 69.0896 33.1142 69.0896C31.4529 69.0896 29.512 68.2128 28.9325 65.7544L28.9059 65.6469L26.2729 66.6401C27.0662 69.7121 29.6853 71.6847 33.0002 71.6847C34.6678 71.6847 36.214 71.1786 37.3703 70.2525C38.6723 69.2074 39.3593 67.717 39.3593 65.9418C39.3593 62.1676 36.3493 60.9656 33.6935 59.9104H33.6938Z" fill="#333333"/>
<path d="M61.5685 56.4458C59.5157 56.4458 57.7443 57.241 56.4861 58.5841C55.228 59.9272 54.483 61.8181 54.483 64.0094C54.483 66.2007 55.228 68.0908 56.4861 69.4336C57.7443 70.7764 59.5157 71.5717 61.5685 71.5717C63.6213 71.5717 65.3939 70.7765 66.6526 69.4336C67.9111 68.0906 68.6564 66.2001 68.6564 64.0094C68.6564 61.8186 67.9114 59.927 66.653 58.5841C65.3946 57.241 63.6225 56.4458 61.5685 56.4458ZM61.5975 69.1109C60.4752 69.1109 59.3464 68.6731 58.498 67.8166C57.6497 66.96 57.0819 65.6846 57.0819 64.0095C57.0819 62.5387 57.5567 61.2702 58.3586 60.3696C59.1604 59.4689 60.2894 58.9358 61.5976 58.9358C62.8888 58.9358 64.0031 59.4687 64.7948 60.3696C65.5865 61.2704 66.0552 62.5387 66.0552 64.0095C66.0552 65.6847 65.4947 66.96 64.6571 67.8166C63.8197 68.6731 62.7054 69.1109 61.5976 69.1109H61.5975Z" fill="#333333"/>
<path d="M79.5172 65.1023C79.5172 67.7631 77.5662 69.1966 75.7317 69.1966C74.3349 69.1966 72.8431 68.3641 72.8431 66.0271V56.811H70.2987V66.0271C70.2987 70.1201 72.9532 71.5726 75.2268 71.5726C77.0564 71.5726 78.6683 70.6984 79.5034 69.2712L79.988 71.2361H82.0617V56.811H79.5174V65.1022L79.5172 65.1023Z" fill="#333333"/>
<path d="M88.6927 52.6979L86.1471 53.6784V56.8112H83.738V59.1317H86.1471V67.0368C86.1471 70.9844 88.3941 71.5727 89.7328 71.5727C90.3693 71.5638 91.0018 71.4664 91.6117 71.2816L91.6914 71.2601V68.7448L91.5219 68.8535C91.1562 69.0965 90.731 69.2356 90.2921 69.2559C89.2773 69.2559 88.6927 68.5196 88.6927 67.2367V59.1315H91.6913V56.8111H88.6927V52.6978V52.6979Z" fill="#333333"/>
<path d="M118.785 63.7806V57.9277L116.185 58.9322V63.7806H110.349L117.465 51.647H114.578L107.05 64.4487V66.4086H116.185V71.2292H118.785V66.4086H122.148V63.7806H118.785Z" fill="#333333"/>
<path d="M51.43 66.8592C50.7087 68.2282 49.2878 69.0847 47.7405 69.0835C45.5769 69.0835 43.3944 67.5044 43.3944 63.9795C43.3944 61.5503 44.7065 58.9362 47.5811 58.9362C48.9957 58.9273 50.2975 59.703 50.9632 60.9506L53.3887 60.0218L53.3444 59.9281C52.3386 57.7823 50.1319 56.4487 47.5952 56.4487C45.8504 56.4284 44.1689 57.1041 42.9227 58.3251C41.5448 59.6916 40.816 61.6565 40.816 64.011C40.816 69.2073 44.3663 71.5734 47.6508 71.5734C50.2092 71.5734 52.4753 70.1803 53.7152 67.8447L53.7645 67.7536L53.7442 67.7434L51.4301 66.8591L51.43 66.8592Z" fill="#333333"/>
<path d="M35.2577 164.492L36.5046 163.936C36.9651 165.741 38.1164 166.679 39.9006 166.679C41.5315 166.679 42.5673 165.778 42.5673 164.359C42.5673 163.035 41.9725 162.46 39.5167 161.462C37.0034 160.445 36.0826 159.505 36.0826 157.932C36.0826 156.07 37.5599 154.766 39.7088 154.766C41.0327 154.766 41.9919 155.131 42.7974 155.936L42.0495 156.973C41.474 156.339 40.6682 156.013 39.6703 156.013C38.3658 156.013 37.464 156.78 37.464 157.893C37.464 158.891 38.0589 159.447 39.9967 160.234C43.0853 161.481 44.0063 162.402 44.0063 164.224C44.0063 166.431 42.3564 167.927 39.8813 167.927C37.541 167.927 35.8527 166.661 35.2578 164.493L35.2577 164.492Z" fill="#333333"/>
<path d="M55.07 163.285H47.3576C47.4537 165.279 48.854 166.757 50.7149 166.757C52.3842 166.757 53.209 165.932 53.6695 165.26L54.648 165.989C53.9766 167.102 52.7102 167.927 50.6383 167.927C47.8947 167.927 45.9569 165.856 45.9569 162.938C45.9569 160.021 47.8756 157.951 50.5808 157.951C53.209 157.951 55.07 159.985 55.07 162.843V163.285V163.285ZM47.4152 162.23H53.6505C53.4394 160.425 52.1922 159.121 50.5808 159.121C48.95 159.121 47.6646 160.407 47.4152 162.23V162.23Z" fill="#333333"/>
<path d="M57.1168 155.476C57.1168 154.957 57.5388 154.536 58.0761 154.536C58.5941 154.536 59.0161 154.957 59.0161 155.476C59.0161 156.013 58.5941 156.435 58.0761 156.435C57.5388 156.435 57.1168 156.013 57.1168 155.476ZM57.4047 158.258H58.7477V167.659H57.4047V158.258Z" fill="#333333"/>
<path d="M66.3613 166.412V167.543C65.9008 167.773 65.3638 167.87 64.8265 167.87C63.1381 167.87 62.2941 167.006 62.2941 164.973V159.293H60.7018V158.258H62.2941V155.552L63.6371 155.265V158.258H65.9778V159.293H63.6371V164.819C63.6371 166.143 64.059 166.737 65.0759 166.737C65.5557 166.737 65.9968 166.603 66.3613 166.412V166.412Z" fill="#333333"/>
<path d="M80.7821 166.45V167.659H72.5515V166.757L76.5421 162.786C78.0579 161.289 79.2088 159.926 79.2088 158.258C79.2088 156.762 78.2688 156.013 76.7915 156.013C75.6981 156.013 74.9498 156.435 74.3167 157.318L73.338 156.435C74.1056 155.419 75.2757 154.766 76.8106 154.766C79.0747 154.766 80.6286 156.033 80.6286 158.258C80.6286 160.54 79.0747 162.115 77.7699 163.4L74.6427 166.45H80.782H80.7821Z" fill="#333333"/>
<path d="M82.8298 161.347C82.8298 157.241 84.3837 154.766 87.4728 154.766C90.5039 154.766 92.0773 157.24 92.0773 161.347C92.0773 165.453 90.5039 167.928 87.4728 167.928C84.3837 167.928 82.8298 165.452 82.8298 161.347ZM90.6575 161.347C90.6575 157.912 89.6407 156.013 87.4728 156.013C85.3049 156.013 84.2496 157.912 84.2496 161.347C84.2496 164.8 85.3046 166.68 87.4728 166.68C89.6409 166.68 90.6575 164.8 90.6575 161.347Z" fill="#333333"/>
<path d="M102.507 166.45V167.659H94.2767V166.757L98.2673 162.786C99.7831 161.289 100.934 159.926 100.934 158.258C100.934 156.762 99.994 156.013 98.5167 156.013C97.4234 156.013 96.675 156.435 96.0419 157.318L95.0632 156.435C95.8309 155.419 97.001 154.766 98.5358 154.766C100.8 154.766 102.354 156.033 102.354 158.258C102.354 160.54 100.8 162.115 99.4951 163.4L96.3679 166.45H102.507H102.507Z" fill="#333333"/>
<path d="M112.919 166.45V167.659H104.688V166.757L108.679 162.786C110.195 161.289 111.346 159.926 111.346 158.258C111.346 156.762 110.406 156.013 108.928 156.013C107.835 156.013 107.087 156.435 106.454 157.318L105.475 156.435C106.242 155.419 107.413 154.766 108.948 154.766C111.212 154.766 112.766 156.033 112.766 158.258C112.766 160.54 111.212 162.115 109.907 163.4L106.78 166.45H112.919H112.919Z" fill="#333333"/>
</svg>
