<svg width="160" height="43" viewBox="0 0 160 43" fill="none" xmlns="http://www.w3.org/2000/svg">
<path d="M69.3897 11.7637H70.4902V15.2751H74.6769V11.7637H75.7774V20.2585H74.6769V16.2703H70.4902V20.2433H69.3897V11.7637Z" fill="white"/>
<path d="M80.3226 16.5048C80.4166 16.5013 80.5082 16.4719 80.588 16.4195C80.6679 16.367 80.7334 16.2933 80.7779 16.2058C80.8267 16.0787 80.8487 15.9418 80.8424 15.8047C80.851 15.6564 80.8224 15.5084 80.7595 15.3755C80.6966 15.2426 80.6015 15.1296 80.4839 15.048C80.1684 14.8698 79.8123 14.7873 79.4552 14.8096C79.2561 14.7912 79.0556 14.8212 78.8692 14.8973C78.6828 14.9733 78.5154 15.0935 78.3798 15.2485C78.2399 15.4621 78.1581 15.712 78.1432 15.9712H77.222C77.2399 15.2145 77.4765 14.6771 77.9389 14.3782C78.4106 14.0727 78.9555 13.9164 79.5089 13.9279C80.0965 13.9012 80.6796 14.0465 81.1937 14.3479C81.4019 14.4815 81.5714 14.6728 81.6839 14.9009C81.7964 15.1291 81.8475 15.3854 81.8317 15.642V19.2102C81.8281 19.3021 81.8506 19.393 81.8962 19.4713C81.9297 19.509 81.9713 19.5376 82.0175 19.5547C82.0636 19.5718 82.113 19.577 82.1615 19.5697H82.3085C82.3674 19.5643 82.4261 19.5555 82.4841 19.5432V20.3C82.3665 20.3372 82.2468 20.3663 82.1256 20.387C82.017 20.3941 81.9081 20.3941 81.7995 20.387C81.655 20.3998 81.51 20.3714 81.3795 20.3048C81.249 20.2383 81.1378 20.136 81.0575 20.0086C80.9649 19.8323 80.9076 19.6379 80.889 19.4373C80.6544 19.7418 80.3596 19.9885 80.0251 20.16C79.6399 20.3664 79.2132 20.4716 78.7813 20.4665C78.5339 20.4788 78.2866 20.439 78.054 20.3493C77.8213 20.2597 77.608 20.122 77.4263 19.9443C77.258 19.7765 77.1251 19.5733 77.0362 19.3477C76.9473 19.1221 76.9043 18.8793 76.9101 18.6351C76.8968 18.3859 76.9362 18.1368 77.0255 17.9058C77.1148 17.6747 77.2517 17.4676 77.4263 17.2994C77.8053 16.9652 78.2716 16.7607 78.7633 16.7129L80.3226 16.5048ZM78.2436 19.32C78.455 19.4946 78.7171 19.5869 78.9856 19.581C79.3355 19.5809 79.6805 19.494 79.9928 19.3275C80.247 19.2134 80.4619 19.0199 80.6086 18.773C80.7554 18.526 80.8269 18.2376 80.8137 17.9464V17.1064C80.669 17.199 80.5119 17.2679 80.3477 17.3107C80.1641 17.3624 79.9772 17.4003 79.7885 17.4242L79.1935 17.5075C78.9134 17.5334 78.6401 17.6129 78.387 17.7421C78.2415 17.8266 78.1216 17.9528 78.041 18.1061C77.9605 18.2594 77.9226 18.4336 77.9317 18.6086C77.9259 18.7449 77.9512 18.8806 78.0055 19.0044C78.0598 19.1282 78.1414 19.2364 78.2436 19.32Z" fill="white"/>
<path d="M83.2584 14.0651H84.1975V14.9429C84.4335 14.6177 84.7346 14.3515 85.0793 14.1634C85.4028 14.0013 85.7572 13.9197 86.1153 13.9251C86.9469 13.9251 87.5096 14.2353 87.8 14.8483C87.984 15.3017 88.0674 15.7936 88.0437 16.2862V20.2593H87.0401V16.3543C87.0511 16.0418 86.9973 15.7306 86.8824 15.4424C86.7983 15.2548 86.6619 15.0988 86.4915 14.9953C86.3211 14.8918 86.1248 14.8458 85.9289 14.8635C85.734 14.8584 85.5395 14.8839 85.3517 14.9391C85.1056 15.0262 84.883 15.1749 84.7032 15.3726C84.5234 15.5703 84.3917 15.8111 84.3194 16.0743C84.2578 16.3878 84.2301 16.7077 84.237 17.0278V20.2706H83.2476L83.2584 14.0651Z" fill="white"/>
<path d="M89.9292 18.3175C89.9377 18.602 90.0236 18.8778 90.1765 19.1121C90.3399 19.296 90.5415 19.4372 90.7655 19.5246C90.9895 19.6119 91.2296 19.643 91.467 19.6154C91.8036 19.6231 92.1362 19.537 92.4312 19.3657C92.5623 19.2899 92.6703 19.1765 92.7426 19.0385C92.815 18.9005 92.8487 18.7436 92.8399 18.5862C92.843 18.4625 92.8135 18.3404 92.7546 18.2335C92.6958 18.1265 92.6098 18.039 92.5065 17.9808C92.2377 17.8476 91.955 17.7485 91.6641 17.6856L90.8791 17.4775C90.4937 17.3879 90.1237 17.236 89.7822 17.0272C89.5859 16.9112 89.4229 16.7413 89.3106 16.5354C89.1982 16.3296 89.1407 16.0955 89.1442 15.858C89.1359 15.5882 89.1859 15.3199 89.2902 15.0735C89.3945 14.827 89.5505 14.6088 89.7464 14.4353C90.2026 14.051 90.7767 13.8571 91.3594 13.8904C92.2412 13.8904 92.8793 14.1666 93.27 14.7115C93.5106 15.0345 93.6374 15.4358 93.6285 15.8467H92.6965C92.679 15.6124 92.5967 15.3887 92.4599 15.2034C92.302 15.0509 92.1152 14.9356 91.9119 14.8651C91.7086 14.7947 91.4934 14.7707 91.2806 14.7947C90.9835 14.7746 90.6878 14.8527 90.4346 15.018C90.3442 15.0853 90.2708 15.175 90.2208 15.2793C90.1708 15.3835 90.1458 15.499 90.1479 15.6158C90.147 15.7477 90.1799 15.8774 90.243 15.9913C90.306 16.1052 90.397 16.199 90.5063 16.2629C90.7092 16.3815 90.928 16.467 91.1551 16.5164L91.8075 16.6867C92.3083 16.7828 92.792 16.9602 93.2413 17.2126C93.4331 17.3494 93.5871 17.5374 93.6879 17.7573C93.7886 17.9773 93.8324 18.2215 93.8149 18.4651C93.8167 18.7339 93.765 19.0002 93.6631 19.2466C93.5613 19.493 93.4114 19.714 93.2234 19.8954C92.7214 20.3315 92.0796 20.547 91.4311 20.497C90.5565 20.497 89.94 20.2851 89.5743 19.8689C89.2099 19.4423 89.0026 18.8918 88.9901 18.3175H89.9292Z" fill="white"/>
<path d="M97.9407 16.5048C98.0347 16.5013 98.1262 16.4719 98.2061 16.4195C98.286 16.367 98.3515 16.2933 98.3959 16.2058C98.4447 16.0787 98.4668 15.9418 98.4605 15.8047C98.4691 15.6564 98.4405 15.5084 98.3776 15.3755C98.3146 15.2426 98.2196 15.1296 98.102 15.048C97.7865 14.8698 97.4304 14.7873 97.0732 14.8096C96.8712 14.7882 96.6673 14.8167 96.4775 14.8929C96.2878 14.9691 96.1174 15.0908 95.98 15.2485C95.8401 15.4621 95.7583 15.712 95.7434 15.9712H94.8221C94.8413 15.2145 95.0802 14.6834 95.539 14.3782C96.0092 14.072 96.5532 13.9156 97.1055 13.9279C97.693 13.9012 98.2761 14.0465 98.7902 14.3479C98.9984 14.4815 99.168 14.6728 99.2805 14.9009C99.393 15.1291 99.4441 15.3854 99.4283 15.642V19.2102C99.4247 19.3021 99.4471 19.393 99.4928 19.4713C99.5263 19.509 99.5679 19.5376 99.614 19.5547C99.6602 19.5718 99.7096 19.577 99.7581 19.5697H99.905C99.964 19.5643 100.023 19.5555 100.081 19.5432V20.3C99.9631 20.3372 99.8434 20.3663 99.7222 20.387C99.6136 20.3941 99.5047 20.3941 99.396 20.387C99.2516 20.3998 99.1066 20.3714 98.976 20.3048C98.8455 20.2383 98.7343 20.136 98.654 20.0086C98.5615 19.8323 98.5042 19.6379 98.4856 19.4373C98.2519 19.7428 97.9568 19.9896 97.6217 20.16C97.2365 20.3664 96.8098 20.4716 96.3778 20.4665C96.1339 20.4768 95.8904 20.436 95.6616 20.3464C95.4327 20.2567 95.2229 20.1201 95.0444 19.9443C94.8751 19.7772 94.7413 19.5741 94.6517 19.3484C94.5621 19.1228 94.5188 18.8797 94.5246 18.6351C94.5104 18.3865 94.5487 18.1378 94.6367 17.9067C94.7247 17.6757 94.8603 17.4683 95.0336 17.2994C95.4126 16.9652 95.8789 16.7607 96.3707 16.7129L97.9407 16.5048ZM95.8652 19.32C96.075 19.4952 96.3362 19.5876 96.6037 19.581C96.9536 19.5809 97.2986 19.494 97.6109 19.3275C97.865 19.2134 98.0799 19.0199 98.2267 18.773C98.3734 18.526 98.445 18.2376 98.4318 17.9464V17.1064C98.2871 17.199 98.13 17.2679 97.9658 17.3107C97.7833 17.3621 97.5976 17.4 97.4102 17.4242L96.8116 17.5075C96.5315 17.5334 96.2582 17.6129 96.005 17.7421C95.8596 17.8266 95.7397 17.9528 95.6591 18.1061C95.5786 18.2594 95.5407 18.4336 95.5498 18.6086C95.5438 18.7453 95.5694 18.8814 95.6243 19.0054C95.6793 19.1293 95.762 19.2373 95.8652 19.32Z" fill="white"/>
<path d="M104.103 11.764H107.827C108.346 11.7454 108.862 11.8421 109.343 12.0477C109.707 12.2147 110.013 12.498 110.217 12.8577C110.42 13.2174 110.512 13.6355 110.479 14.0532C110.503 14.4747 110.406 14.8938 110.201 15.2562C109.995 15.6186 109.692 15.9074 109.329 16.0851C109.609 16.1886 109.858 16.3719 110.046 16.6149C110.231 16.9367 110.324 17.3091 110.311 17.6857L110.35 18.8209C110.352 19.0639 110.377 19.306 110.426 19.5436C110.443 19.6539 110.485 19.7584 110.547 19.849C110.609 19.9395 110.69 20.0137 110.784 20.0658V20.255H109.447C109.406 20.1652 109.377 20.0696 109.361 19.9712C109.33 19.7492 109.311 19.5256 109.304 19.3014L109.239 17.8825C109.255 17.654 109.209 17.4254 109.105 17.2241C109.002 17.0228 108.845 16.8572 108.655 16.7473C108.341 16.6259 108.007 16.5731 107.673 16.5922H105.192V20.236H104.117L104.103 11.764ZM107.712 15.6538C108.138 15.678 108.56 15.5659 108.924 15.3321C109.085 15.1922 109.21 15.0119 109.289 14.8076C109.367 14.6034 109.395 14.3818 109.372 14.1629C109.397 13.9145 109.35 13.664 109.239 13.4435C109.128 13.2231 108.957 13.0427 108.748 12.9256C108.465 12.7988 108.159 12.7394 107.852 12.7515H105.192V15.6538H107.712Z" fill="white"/>
<path d="M115.423 14.2345C115.782 14.4134 116.09 14.6903 116.315 15.0367C116.52 15.3669 116.654 15.74 116.709 16.1302C116.782 16.5813 116.812 17.0389 116.799 17.4962H112.498C112.488 18.0346 112.635 18.5632 112.92 19.0098C113.063 19.2047 113.25 19.359 113.463 19.4587C113.677 19.5585 113.91 19.6005 114.143 19.5811C114.372 19.5913 114.601 19.5485 114.814 19.4557C115.026 19.3629 115.217 19.2223 115.372 19.0438C115.543 18.835 115.665 18.5878 115.731 18.3211H116.702C116.664 18.5881 116.577 18.8449 116.448 19.0779C116.32 19.3316 116.157 19.5637 115.964 19.7665C115.654 20.0788 115.268 20.2948 114.849 20.3909C114.586 20.4545 114.316 20.4849 114.046 20.4817C113.698 20.488 113.352 20.4164 113.032 20.2716C112.712 20.1268 112.425 19.9121 112.189 19.6417C111.651 18.9926 111.376 18.1456 111.426 17.2843C111.388 16.4046 111.661 15.5415 112.193 14.8626C112.439 14.5586 112.747 14.3167 113.094 14.155C113.441 13.9932 113.818 13.9157 114.197 13.928C114.622 13.9265 115.043 14.0316 115.423 14.2345ZM115.781 16.6676C115.761 16.29 115.666 15.9211 115.501 15.5854C115.367 15.3374 115.168 15.1348 114.929 15.0008C114.69 14.8669 114.42 14.8072 114.15 14.8286C113.936 14.824 113.723 14.8679 113.527 14.9573C113.33 15.0468 113.154 15.1796 113.01 15.347C112.708 15.7119 112.545 16.1829 112.555 16.6676H115.781Z" fill="white"/>
<path d="M121.011 16.5048C121.105 16.5013 121.196 16.4719 121.276 16.4195C121.356 16.367 121.422 16.2934 121.466 16.2058C121.515 16.0787 121.537 15.9418 121.531 15.8048C121.539 15.6565 121.511 15.5084 121.448 15.3755C121.385 15.2426 121.29 15.1296 121.172 15.048C120.858 14.8702 120.503 14.7877 120.147 14.8096C119.944 14.7876 119.74 14.8158 119.549 14.892C119.359 14.9682 119.188 15.0903 119.05 15.2485C118.91 15.4621 118.828 15.7121 118.814 15.9712H117.892C117.911 15.2145 118.15 14.6835 118.609 14.3782C119.081 14.0727 119.626 13.9164 120.179 13.928C120.766 13.9011 121.348 14.0465 121.86 14.348C122.069 14.4814 122.239 14.6725 122.352 14.9006C122.465 15.1287 122.517 15.3851 122.502 15.642V19.2102C122.499 19.3015 122.52 19.3919 122.563 19.4713C122.597 19.5085 122.638 19.5368 122.684 19.5539C122.731 19.5709 122.78 19.5764 122.828 19.5697H122.979C123.033 19.5697 123.09 19.5697 123.154 19.5432V20.3C123.037 20.3368 122.917 20.3659 122.796 20.387C122.686 20.3941 122.576 20.3941 122.466 20.387C122.322 20.4003 122.177 20.3722 122.047 20.3055C121.917 20.2389 121.807 20.1363 121.728 20.0086C121.632 19.8334 121.574 19.6386 121.556 19.4373C121.322 19.7428 121.027 19.9897 120.692 20.16C120.307 20.3664 119.88 20.4716 119.448 20.4665C119.204 20.4768 118.961 20.436 118.732 20.3464C118.503 20.2568 118.293 20.1201 118.115 19.9443C117.945 19.7772 117.811 19.5741 117.722 19.3485C117.632 19.1228 117.589 18.8797 117.595 18.6351C117.581 18.3866 117.62 18.1381 117.708 17.9072C117.796 17.6763 117.931 17.4688 118.104 17.2994C118.483 16.9659 118.949 16.7614 119.441 16.7129L121.011 16.5048ZM118.935 19.32C119.145 19.4947 119.406 19.587 119.674 19.5811C120.024 19.5813 120.369 19.4945 120.681 19.3275C120.936 19.2136 121.151 19.0202 121.298 18.7733C121.446 18.5265 121.518 18.2379 121.506 17.9464V17.1064C121.361 17.1983 121.204 17.2672 121.04 17.3107C120.856 17.3624 120.669 17.4004 120.48 17.4243L119.882 17.5075C119.603 17.5328 119.33 17.6123 119.079 17.7421C118.933 17.8259 118.812 17.952 118.732 18.1054C118.651 18.2589 118.614 18.4334 118.624 18.6086C118.618 18.7449 118.643 18.8806 118.697 19.0044C118.752 19.1282 118.833 19.2364 118.935 19.32Z" fill="white"/>
<path d="M123.975 11.7637H124.961V20.2585H123.975V11.7637Z" fill="white"/>
<path d="M129.481 11.7637H135.349V12.8042H130.542V15.3848H134.987V16.3649H130.542V19.2482H135.431V20.2585H129.481V11.7637Z" fill="white"/>
<path d="M137.156 18.3172C137.168 18.601 137.253 18.8759 137.403 19.1118C137.567 19.2953 137.77 19.4362 137.994 19.5235C138.219 19.6108 138.459 19.6422 138.697 19.6151C139.034 19.6225 139.366 19.5364 139.661 19.3654C139.793 19.2903 139.903 19.1772 139.976 19.0393C140.05 18.9013 140.085 18.744 140.077 18.5859C140.08 18.4623 140.051 18.3401 139.992 18.2332C139.933 18.1263 139.847 18.0388 139.744 17.9805C139.474 17.8468 139.19 17.7478 138.898 17.6853L138.116 17.4772C137.727 17.3889 137.353 17.237 137.009 17.0269C136.813 16.9101 136.651 16.7399 136.54 16.5342C136.428 16.3284 136.371 16.0948 136.374 15.8577C136.366 15.5883 136.416 15.3204 136.519 15.0741C136.623 14.8277 136.778 14.6092 136.973 14.435C137.43 14.052 138.003 13.8582 138.586 13.8901C139.471 13.8901 140.109 14.1663 140.5 14.7112C140.739 15.0351 140.866 15.4358 140.859 15.8464H139.927C139.909 15.6129 139.828 15.3896 139.694 15.2031C139.536 15.0508 139.349 14.9357 139.145 14.8652C138.942 14.7948 138.727 14.7707 138.514 14.7945C138.217 14.7744 137.921 14.8524 137.668 15.0177C137.577 15.0846 137.504 15.1742 137.454 15.2785C137.404 15.3829 137.379 15.4986 137.381 15.6156C137.381 15.7503 137.415 15.8826 137.481 15.9981C137.547 16.1135 137.641 16.2077 137.754 16.2702C137.956 16.3882 138.174 16.4737 138.4 16.5237L139.052 16.694C139.553 16.7907 140.036 16.968 140.486 17.2199C140.677 17.3567 140.832 17.5446 140.932 17.7646C141.033 17.9846 141.077 18.2288 141.059 18.4724C141.062 18.7418 141.011 19.0087 140.908 19.2554C140.805 19.502 140.654 19.7227 140.464 19.9027C139.963 20.3409 139.321 20.5566 138.672 20.5043C137.801 20.5043 137.181 20.2924 136.819 19.8762C136.451 19.4514 136.244 18.8998 136.234 18.3248L137.156 18.3172Z" fill="white"/>
<path d="M142.221 12.335H143.217V14.0642H144.156V14.9156H143.217V18.9567C143.208 19.0427 143.223 19.1296 143.26 19.2069C143.297 19.2841 143.354 19.3484 143.425 19.3919C143.547 19.4425 143.678 19.4645 143.809 19.4562H143.963H144.156V20.2773C144.039 20.3125 143.919 20.3378 143.798 20.353C143.666 20.3687 143.533 20.3763 143.4 20.3757C143.227 20.3975 143.051 20.3745 142.888 20.3085C142.725 20.2426 142.58 20.1358 142.464 19.9973C142.288 19.7094 142.202 19.3708 142.217 19.0286V14.9156H141.425V14.0642H142.217L142.221 12.335Z" fill="white"/>
<path d="M148.128 16.5048C148.222 16.5021 148.314 16.473 148.394 16.4205C148.474 16.3679 148.539 16.2939 148.583 16.2058C148.632 16.0787 148.654 15.9418 148.648 15.8048C148.656 15.6565 148.628 15.5084 148.565 15.3755C148.502 15.2426 148.407 15.1296 148.289 15.048C147.975 14.8698 147.62 14.7873 147.264 14.8096C147.062 14.7876 146.857 14.8158 146.666 14.892C146.476 14.9682 146.305 15.0903 146.167 15.2485C146.027 15.4621 145.946 15.7121 145.931 15.9712H145.013C145.03 15.2145 145.269 14.6835 145.73 14.3782C146.202 14.0727 146.747 13.9164 147.3 13.928C147.886 13.9011 148.468 14.0465 148.981 14.348C149.19 14.4814 149.36 14.6725 149.473 14.9006C149.586 15.1287 149.638 15.3851 149.623 15.642V19.2102C149.62 19.3015 149.641 19.3919 149.684 19.4713C149.717 19.5085 149.759 19.5368 149.805 19.5539C149.851 19.5709 149.901 19.5764 149.949 19.5697H150.099C150.153 19.5697 150.211 19.5697 150.275 19.5432V20.3C150.157 20.3368 150.038 20.3659 149.917 20.387C149.807 20.3942 149.697 20.3942 149.587 20.387C149.443 20.3999 149.298 20.3716 149.168 20.305C149.038 20.2384 148.928 20.136 148.848 20.0086C148.754 19.8327 148.696 19.6382 148.676 19.4373C148.443 19.7428 148.148 19.9897 147.813 20.16C147.427 20.3664 147.001 20.4716 146.569 20.4665C146.325 20.4768 146.081 20.436 145.852 20.3464C145.624 20.2568 145.414 20.1201 145.235 19.9443C145.067 19.7767 144.933 19.5736 144.843 19.348C144.754 19.1225 144.71 18.8796 144.715 18.6351C144.702 18.3863 144.741 18.1373 144.829 17.9063C144.918 17.6752 145.054 17.4679 145.228 17.2994C145.607 16.9646 146.073 16.76 146.565 16.7129L148.128 16.5048ZM146.053 19.32C146.263 19.4947 146.524 19.587 146.791 19.5811C147.142 19.5809 147.488 19.4941 147.802 19.3275C148.055 19.2126 148.27 19.0188 148.416 18.7721C148.563 18.5254 148.635 18.2374 148.623 17.9464V17.1064C148.478 17.1983 148.321 17.2672 148.157 17.3107C147.973 17.3624 147.786 17.4004 147.597 17.4243L146.999 17.5075C146.72 17.5333 146.448 17.6128 146.196 17.7421C146.05 17.8259 145.929 17.952 145.849 18.1054C145.768 18.2589 145.731 18.4334 145.741 18.6086C145.735 18.7449 145.76 18.8806 145.814 19.0044C145.869 19.1282 145.95 19.2364 146.053 19.32Z" fill="white"/>
<path d="M151.268 12.335H152.265V14.0642H153.2V14.9156H152.265V18.9567C152.255 19.0428 152.269 19.1301 152.306 19.2076C152.343 19.285 152.401 19.3492 152.472 19.3919C152.594 19.4429 152.725 19.4649 152.856 19.4562H153.01H153.2V20.2773C153.083 20.3131 152.963 20.3384 152.842 20.353C152.71 20.3687 152.577 20.3763 152.444 20.3757C152.27 20.3975 152.095 20.3745 151.932 20.3085C151.769 20.2426 151.623 20.1358 151.508 19.9973C151.332 19.7094 151.246 19.3708 151.261 19.0286V14.9156H150.465V14.0642H151.268V12.335Z" fill="white"/>
<path d="M157.681 14.2346C158.041 14.4135 158.349 14.6904 158.573 15.0368C158.778 15.367 158.912 15.7401 158.968 16.1304C159.039 16.5816 159.069 17.039 159.057 17.4963H154.756C154.746 18.0348 154.894 18.5633 155.179 19.0099C155.321 19.2042 155.507 19.3582 155.72 19.4579C155.933 19.5576 156.165 19.6 156.398 19.5812C156.628 19.5917 156.857 19.5491 157.07 19.4563C157.283 19.3635 157.474 19.2228 157.631 19.0439C157.801 18.8351 157.924 18.5879 157.989 18.3212H158.96C158.922 18.5882 158.835 18.845 158.706 19.078C158.578 19.3327 158.414 19.565 158.218 19.7667C157.91 20.0789 157.525 20.295 157.107 20.391C156.843 20.4548 156.572 20.4853 156.301 20.4818C155.953 20.4874 155.607 20.4154 155.288 20.2707C154.968 20.126 154.68 19.9117 154.444 19.6418C153.908 18.9916 153.635 18.145 153.684 17.2844C153.646 16.4047 153.92 15.5416 154.451 14.8628C154.697 14.5583 155.005 14.3161 155.352 14.1543C155.699 13.9926 156.076 13.9152 156.455 13.9281C156.881 13.9271 157.301 14.0321 157.681 14.2346ZM158.039 16.6677C158.02 16.2901 157.924 15.9213 157.76 15.5855C157.625 15.3369 157.426 15.1339 157.186 14.9999C156.946 14.8659 156.675 14.8066 156.405 14.8287C156.191 14.8249 155.978 14.8691 155.782 14.9585C155.585 15.0478 155.409 15.1803 155.265 15.3471C154.954 15.7073 154.782 16.1767 154.781 16.6639L158.039 16.6677Z" fill="white"/>
<path d="M80.1828 30.4303V25.9199H80.5807V30.4303H80.1828Z" fill="white"/>
<path d="M82.3264 30.4303V25.9199H82.6848V27.6227C82.8081 27.4716 82.9547 27.3436 83.1185 27.2443C83.2774 27.1437 83.4604 27.0938 83.6455 27.1005C83.8218 27.0901 83.9978 27.127 84.157 27.2077C84.3161 27.2884 84.4534 27.4103 84.5559 27.5621C84.6245 27.6671 84.6687 27.7877 84.685 27.914C84.685 28.0389 84.7029 28.1713 84.7029 28.2924V30.4152H84.3445V28.3151C84.3445 27.7286 84.0971 27.4373 83.5738 27.4373C83.3813 27.4317 83.1932 27.4988 83.0433 27.6264C82.909 27.7439 82.8064 27.8966 82.7457 28.0692C82.6914 28.2696 82.6661 28.4775 82.6705 28.6859V30.4303H82.3264Z" fill="white"/>
<path d="M86.6637 30.4295H86.3052V27.1829H86.6637V27.7921C86.7277 27.5762 86.8528 27.386 87.0221 27.2473C87.2053 27.1415 87.4122 27.0905 87.6208 27.0997V27.5008C87.4701 27.4819 87.3175 27.5072 87.1796 27.5739C87.0418 27.6407 86.924 27.7463 86.8393 27.8792C86.6912 28.1717 86.6218 28.5015 86.6386 28.8327L86.6637 30.4295Z" fill="white"/>
<path d="M91.449 30.4303V25.9199H91.8469V30.4303H91.449Z" fill="white"/>
<path d="M93.8865 30.4299H93.5568V27.1833H93.9152V27.6714C94.0077 27.4924 94.1455 27.3442 94.3133 27.2433C94.481 27.1423 94.6721 27.0928 94.8651 27.1C95.0843 27.0841 95.302 27.1482 95.4817 27.2817C95.6138 27.398 95.712 27.5515 95.7648 27.7244C95.8577 27.5295 96.0017 27.367 96.1796 27.2563C96.3576 27.1456 96.5621 27.0913 96.7685 27.1C96.9446 27.0917 97.1201 27.1267 97.2811 27.2022C97.4009 27.2674 97.4994 27.3689 97.5643 27.4936C97.6303 27.6208 97.6751 27.759 97.6969 27.9022C97.7157 28.0616 97.7253 28.2221 97.7256 28.3828V30.4299H97.3851V28.1898C97.3958 27.9946 97.3468 27.8009 97.2453 27.6374C97.1789 27.5621 97.0964 27.5047 97.0048 27.4698C96.9131 27.435 96.8149 27.4236 96.7183 27.4368C96.5789 27.435 96.4411 27.4684 96.3164 27.5342C96.1917 27.6 96.0837 27.6964 96.0014 27.8152C95.9219 27.939 95.8692 28.0798 95.8473 28.2276C95.8154 28.3805 95.7986 28.5365 95.7971 28.6931V30.4374H95.4566V28.1898C95.4666 27.9952 95.419 27.8021 95.3204 27.6374C95.2536 27.5626 95.1711 27.5055 95.0796 27.4707C94.988 27.4359 94.89 27.4243 94.7934 27.4368C94.6569 27.4371 94.5223 27.4715 94.4008 27.5373C94.2793 27.6031 94.1743 27.6983 94.0944 27.8152C94.0123 27.9379 93.9583 28.0791 93.9367 28.2276C93.9048 28.3805 93.888 28.5365 93.8865 28.6931V30.4299Z" fill="white"/>
<path d="M99.5681 30.4297H99.2275V27.1831H99.5681V27.6712C99.6605 27.4923 99.7983 27.344 99.9661 27.2431C100.134 27.1422 100.325 27.0926 100.518 27.0999C100.737 27.0846 100.955 27.1486 101.135 27.2815C101.267 27.3979 101.365 27.5514 101.418 27.7242C101.51 27.5294 101.655 27.3669 101.833 27.2562C102.011 27.1454 102.215 27.0912 102.421 27.0999C102.596 27.0914 102.771 27.1264 102.93 27.202C103.051 27.2672 103.151 27.3686 103.217 27.4934C103.282 27.6214 103.326 27.7593 103.35 27.9021C103.369 28.0615 103.378 28.222 103.378 28.3826V30.4297H103.038V28.1896C103.056 27.9911 103.012 27.7917 102.912 27.6221C102.846 27.5468 102.764 27.4894 102.672 27.4545C102.58 27.4197 102.482 27.4083 102.386 27.4215C102.246 27.4197 102.108 27.4531 101.984 27.5189C101.859 27.5847 101.751 27.6811 101.669 27.7999C101.589 27.9237 101.536 28.0645 101.514 28.2123C101.483 28.3652 101.466 28.5212 101.464 28.6778V30.4221H101.106V28.1896C101.117 27.9944 101.068 27.8008 100.966 27.6372C100.9 27.5623 100.818 27.505 100.727 27.4701C100.636 27.4353 100.539 27.4238 100.443 27.4367C100.303 27.4348 100.165 27.4682 100.041 27.5341C99.9161 27.5999 99.8081 27.6962 99.7258 27.815C99.6451 27.9386 99.5912 28.0794 99.5681 28.2275C99.5391 28.3808 99.5235 28.5366 99.5215 28.6929L99.5681 30.4297Z" fill="white"/>
<path d="M106.192 30.5209C106.01 30.5242 105.83 30.4864 105.663 30.41C105.496 30.3337 105.347 30.2205 105.225 30.0782C105.08 29.9061 104.97 29.7054 104.9 29.4877C104.829 29.2701 104.801 29.0399 104.816 28.8106C104.804 28.3737 104.93 27.945 105.174 27.5922C105.304 27.4373 105.464 27.3133 105.643 27.2284C105.822 27.1435 106.016 27.0996 106.212 27.0996C106.408 27.0996 106.602 27.1435 106.781 27.2284C106.96 27.3133 107.12 27.4373 107.25 27.5922C107.486 27.9481 107.606 28.3761 107.59 28.8106C107.61 29.2563 107.477 29.6946 107.214 30.0441C107.09 30.2019 106.934 30.3272 106.757 30.41C106.579 30.4927 106.386 30.5307 106.192 30.5209ZM107.21 28.8106C107.227 28.4672 107.147 28.1264 106.981 27.8306C106.892 27.7009 106.772 27.5979 106.634 27.5316C106.496 27.4653 106.344 27.4379 106.192 27.4522C106.04 27.4432 105.887 27.4773 105.751 27.5512C105.615 27.625 105.5 27.7358 105.418 27.8722C105.256 28.1602 105.174 28.4907 105.181 28.8257C105.164 29.1757 105.257 29.5219 105.447 29.8095C105.531 29.9339 105.643 30.0339 105.773 30.1C105.904 30.1662 106.048 30.1964 106.192 30.1879C106.348 30.1977 106.503 30.1632 106.642 30.088C106.781 30.0127 106.898 29.8996 106.981 29.7603C107.138 29.4716 107.217 29.1433 107.21 28.8106Z" fill="white"/>
<path d="M109.433 30.4303H109.074V25.9199H109.433V27.7059C109.541 27.5092 109.7 27.3491 109.892 27.2443C110.08 27.1466 110.287 27.0961 110.497 27.0967C110.692 27.0866 110.885 27.128 111.061 27.2172C111.236 27.3065 111.387 27.4407 111.501 27.6075C111.724 27.9638 111.836 28.3842 111.824 28.8108C111.84 29.2376 111.734 29.6598 111.519 30.0216C111.329 30.2695 111.061 30.4377 110.764 30.496C110.467 30.5542 110.16 30.4988 109.899 30.3395C109.705 30.2331 109.546 30.0668 109.443 29.8627L109.433 30.4303ZM109.433 28.7994C109.419 29.149 109.512 29.4939 109.698 29.7833C109.778 29.9121 109.889 30.0167 110.019 30.087C110.149 30.1573 110.294 30.1908 110.44 30.1843C110.576 30.1869 110.71 30.158 110.834 30.0998C110.958 30.0417 111.068 29.9556 111.157 29.8476C111.359 29.5827 111.461 29.2486 111.444 28.9092C111.477 28.5437 111.399 28.1765 111.221 27.861C111.136 27.723 111.017 27.6112 110.877 27.5368C110.738 27.4624 110.582 27.4281 110.426 27.4373C110.281 27.435 110.138 27.4703 110.009 27.5403C109.88 27.6103 109.77 27.7126 109.687 27.8383C109.506 28.1213 109.417 28.4585 109.433 28.7994Z" fill="white"/>
<path d="M113.447 26.4875V25.9199H113.824V26.4875H113.447ZM113.465 30.4379V27.1837H113.806V30.4303L113.465 30.4379Z" fill="white"/>
<path d="M115.519 30.4303V25.9199H115.878V30.4303H115.519Z" fill="white"/>
<path d="M117.573 26.4875V25.9199H117.932V26.4875H117.573ZM117.573 30.4303V27.1837H117.932V30.4303H117.573Z" fill="white"/>
<path d="M119.785 28.8939C119.776 29.2176 119.865 29.5359 120.039 29.8021C120.148 29.9488 120.294 30.0602 120.46 30.1235C120.626 30.1868 120.806 30.1994 120.978 30.1599C121.151 30.1204 121.309 30.0304 121.435 29.9002C121.562 29.7699 121.651 29.6048 121.692 29.4237H122.075C122.005 29.7113 121.861 29.973 121.66 30.1805C121.379 30.4122 121.025 30.5225 120.67 30.4887C120.315 30.455 119.986 30.2798 119.749 29.9988C119.527 29.6359 119.413 29.2116 119.42 28.7798C119.427 28.3479 119.555 27.928 119.789 27.5734C119.906 27.4122 120.059 27.2829 120.233 27.1961C120.408 27.1092 120.599 27.0674 120.792 27.0739C121.635 27.0739 122.072 27.6793 122.097 28.8675L119.785 28.8939ZM121.735 28.5837C121.746 28.2919 121.663 28.0049 121.498 27.7701C121.413 27.6582 121.303 27.5696 121.178 27.5117C121.054 27.4537 120.917 27.4282 120.781 27.4372C120.645 27.4296 120.509 27.4561 120.385 27.5147C120.26 27.5732 120.15 27.662 120.065 27.7739C119.895 28.0091 119.791 28.2895 119.763 28.5837H121.735Z" fill="white"/>
<path d="M123.957 30.4299H123.599V27.1833H123.957V27.6223C124.08 27.4719 124.225 27.344 124.387 27.2439C124.548 27.1438 124.732 27.0939 124.918 27.1001C125.093 27.0906 125.267 27.1279 125.424 27.2087C125.581 27.2894 125.717 27.4108 125.818 27.5617C125.889 27.6652 125.935 27.7863 125.95 27.9136C125.95 28.0385 125.968 28.1709 125.968 28.292V30.4147H125.61V28.3147C125.61 27.7282 125.362 27.4368 124.839 27.4368C124.647 27.4313 124.459 27.4984 124.309 27.626C124.174 27.7435 124.072 27.8962 124.011 28.0688C123.957 28.2692 123.931 28.4771 123.936 28.6855L123.957 30.4299Z" fill="white"/>
<path d="M127.89 30.4298H127.549V27.1832H127.89V27.6713C127.982 27.4926 128.12 27.3446 128.288 27.2437C128.456 27.1429 128.647 27.0931 128.84 27.1C129.06 27.0844 129.278 27.1484 129.46 27.2816C129.591 27.399 129.689 27.5522 129.743 27.7243C129.836 27.5294 129.98 27.3669 130.158 27.2562C130.336 27.1455 130.54 27.0913 130.746 27.1C130.921 27.0915 131.096 27.1265 131.256 27.2021C131.376 27.2664 131.475 27.3681 131.539 27.4935C131.606 27.6205 131.652 27.7587 131.675 27.9021C131.694 28.0616 131.703 28.222 131.704 28.3827V30.4298H131.345V28.1897C131.357 27.9949 131.309 27.8013 131.209 27.6373C131.142 27.5625 131.06 27.5055 130.968 27.4706C130.877 27.4358 130.779 27.4242 130.682 27.4367C130.542 27.4343 130.404 27.4674 130.28 27.5333C130.155 27.5991 130.047 27.6958 129.965 27.8151C129.884 27.9381 129.831 28.0793 129.811 28.2275C129.779 28.3804 129.762 28.5364 129.761 28.693V30.4373H129.42V28.1897C129.431 27.9945 129.382 27.8008 129.28 27.6373C129.214 27.562 129.132 27.5046 129.04 27.4697C128.948 27.4349 128.85 27.4235 128.753 27.4367C128.617 27.437 128.482 27.4714 128.361 27.5372C128.239 27.603 128.134 27.6982 128.054 27.8151C127.974 27.9386 127.92 28.0795 127.897 28.2275C127.866 28.3806 127.85 28.5365 127.85 28.693L127.89 30.4298Z" fill="white"/>
<path d="M134.7 28.5414L134.937 28.4998C135.013 28.4837 135.087 28.4609 135.159 28.4317C135.212 28.3993 135.25 28.3463 135.267 28.2841C135.277 28.2217 135.283 28.1584 135.285 28.0949C135.288 28.0076 135.275 27.9205 135.246 27.8387C135.217 27.7568 135.173 27.6819 135.116 27.6182C134.952 27.4836 134.746 27.4188 134.539 27.4365C134.335 27.4244 134.132 27.4757 133.955 27.5841C133.872 27.656 133.804 27.7452 133.755 27.8461C133.706 27.947 133.678 28.0575 133.671 28.1706H133.313C133.316 28.0106 133.353 27.8534 133.421 27.7101C133.488 27.5669 133.585 27.4411 133.704 27.3419C133.952 27.1723 134.244 27.0877 134.539 27.0998C134.809 27.089 135.077 27.1641 135.306 27.3155C135.415 27.4109 135.5 27.5326 135.554 27.6704C135.608 27.8081 135.63 27.9577 135.618 28.1063V29.8923C135.618 30.0323 135.636 30.1231 135.693 30.1609C135.751 30.1988 135.84 30.1988 135.98 30.1609V30.4523L135.872 30.4825C135.821 30.5035 135.766 30.5138 135.711 30.5128C135.66 30.5204 135.608 30.5204 135.557 30.5128C135.51 30.5071 135.464 30.4884 135.426 30.4585C135.388 30.4286 135.357 30.3886 135.338 30.3425C135.303 30.2444 135.284 30.1408 135.281 30.0361C135.145 30.2065 134.974 30.3431 134.782 30.436C134.59 30.5288 134.381 30.5758 134.17 30.5734C133.916 30.5606 133.675 30.4533 133.489 30.2707C133.387 30.1902 133.306 30.0845 133.253 29.963C133.2 29.8415 133.176 29.708 133.184 29.5744C133.184 29.0258 133.542 28.7003 134.223 28.5982L134.7 28.5414ZM135.285 28.7268C135.141 28.7859 134.992 28.829 134.84 28.8555C134.691 28.8825 134.54 28.9002 134.388 28.9085C133.836 28.9425 133.553 29.1733 133.546 29.6009C133.543 29.6852 133.56 29.7689 133.596 29.8443C133.631 29.9198 133.685 29.9844 133.75 30.0323C133.878 30.1337 134.035 30.187 134.195 30.1836C134.463 30.1891 134.726 30.1071 134.948 29.949C135.057 29.8713 135.146 29.765 135.205 29.6403C135.264 29.5156 135.291 29.3769 135.285 29.2377V28.7268Z" fill="white"/>
<path d="M137.349 30.4303V25.9199H137.69V28.7276L139.149 27.1837H139.622L138.507 28.3567L139.754 30.4303H139.367L138.253 28.6216L137.69 29.2043V30.4303H137.349Z" fill="white"/>
<path d="M141.127 30.4303V25.9199H141.486V30.4303H141.127Z" fill="white"/>
<path d="M143.339 28.8939C143.329 29.2171 143.417 29.5354 143.59 29.802C143.676 29.926 143.79 30.0255 143.921 30.0915C144.052 30.1576 144.197 30.1881 144.343 30.1804C144.555 30.1938 144.764 30.1238 144.93 29.9841C145.096 29.8444 145.207 29.6448 145.242 29.4236H145.63C145.556 29.711 145.412 29.9723 145.21 30.1804C144.93 30.4119 144.577 30.5221 144.223 30.4883C143.868 30.4546 143.539 30.2795 143.303 29.9988C143.081 29.6359 142.967 29.2116 142.974 28.7797C142.981 28.3479 143.109 27.928 143.343 27.5733C143.46 27.4125 143.612 27.2833 143.786 27.1965C143.96 27.1096 144.15 27.0676 144.343 27.0738C145.189 27.0738 145.625 27.6717 145.651 28.8674L143.339 28.8939ZM145.285 28.5836C145.297 28.2919 145.213 28.0048 145.049 27.7701C144.963 27.6579 144.854 27.5691 144.729 27.5112C144.604 27.4532 144.468 27.4278 144.332 27.4371C144.196 27.4289 144.06 27.4552 143.935 27.5137C143.81 27.5723 143.7 27.6615 143.615 27.7739C143.445 28.0091 143.341 28.2894 143.314 28.5836H145.285Z" fill="white"/>
<path d="M147.526 30.4296H147.185V27.183H147.526V27.7922C147.589 27.5756 147.714 27.3851 147.884 27.2473C148.067 27.1412 148.274 27.0902 148.483 27.0998V27.5009C148.332 27.4821 148.179 27.5074 148.04 27.5742C147.902 27.6409 147.783 27.7464 147.698 27.8793C147.553 28.1731 147.484 28.5019 147.497 28.8328L147.526 30.4296Z" fill="white"/>
<path d="M159.054 22.6426H69.3897V23.021H159.054V22.6426Z" fill="white"/>
<path d="M59.8369 0H0V42.2242H59.8369V0Z" fill="#A6A096"/>
<path d="M4.5882 30.6111V11.6123H8.32688V18.8546H15.3239V11.6123H19.059V30.6111H15.3239V22.1315H8.32688V30.6111H4.5882Z" fill="white"/>
<path d="M34.3866 12.1086C35.0392 12.4053 35.6164 12.8603 36.0713 13.4367C36.4508 13.9164 36.7557 14.4566 36.9746 15.0373C37.2066 15.6743 37.3198 16.3527 37.308 17.0352C37.2998 17.9603 37.0783 18.8693 36.6628 19.6839C36.4371 20.1264 36.131 20.5176 35.762 20.8351C35.3929 21.1526 34.9682 21.3902 34.512 21.5342C35.25 21.8063 35.8749 22.3415 36.2792 23.0477C36.6233 23.6935 36.7954 24.6836 36.7954 26.0181V27.2932C36.778 27.8842 36.8116 28.4757 36.8958 29.0603C36.9317 29.2827 37.0123 29.4943 37.1323 29.681C37.2522 29.8677 37.4087 30.0251 37.5912 30.1425V30.6117H33.451C33.3363 30.1917 33.2539 29.8549 33.2037 29.5938C33.1058 29.0549 33.053 28.5079 33.0459 27.9592L33.0209 26.1921C33.0065 24.9813 32.8082 24.1728 32.4258 23.7667C32.0459 23.3656 31.3505 23.1612 30.2751 23.1612H26.6117V30.6117H22.9411V11.6129H31.544C32.5123 11.5932 33.4757 11.7612 34.3866 12.1086ZM26.6117 14.9124V20.0169H30.6586C31.2702 20.0493 31.8812 19.9435 32.4509 19.7066C33.1678 19.3471 33.5263 18.632 33.5263 17.5687C33.5263 16.4159 33.1822 15.6427 32.4939 15.2492C31.9485 14.9909 31.3522 14.8753 30.7554 14.9124H26.6117Z" fill="white"/>
<path d="M54.8078 14.9762H45.2836V19.0098H54.0264V22.3244H45.2836V27.1981H55.2487V30.6036H41.6059V11.6123H54.8078V14.9762Z" fill="white"/>
</svg>
