<svg width="160" height="40" viewBox="0 0 160 40" fill="none" xmlns="http://www.w3.org/2000/svg">
<path d="M69.3897 11.0166H70.4902V14.305H74.677V11.0166H75.7774V18.9718H74.677V15.2369H70.4902V18.9576H69.3897V11.0166Z" fill="white"/>
<path d="M80.3226 15.4566C80.4166 15.4534 80.5082 15.4258 80.588 15.3767C80.6679 15.3276 80.7334 15.2586 80.7779 15.1767C80.8267 15.0576 80.8487 14.9294 80.8424 14.801C80.851 14.6622 80.8224 14.5235 80.7595 14.3991C80.6966 14.2746 80.6015 14.1688 80.4839 14.0923C80.1684 13.9255 79.8123 13.8483 79.4552 13.8691C79.2561 13.8519 79.0556 13.88 78.8692 13.9512C78.6828 14.0225 78.5154 14.135 78.3798 14.2801C78.2399 14.4802 78.1581 14.7142 78.1432 14.957H77.222C77.2399 14.2483 77.4765 13.7451 77.9389 13.4651C78.4106 13.179 78.9555 13.0326 79.5089 13.0435C80.0965 13.0184 80.6796 13.1545 81.1937 13.4368C81.4019 13.5619 81.5714 13.741 81.6839 13.9546C81.7964 14.1683 81.8475 14.4083 81.8317 14.6487V17.9902C81.8281 18.0763 81.8506 18.1614 81.8962 18.2347C81.9297 18.27 81.9713 18.2968 82.0175 18.3128C82.0636 18.3289 82.113 18.3337 82.1615 18.3269H82.3085C82.3674 18.3218 82.4261 18.3135 82.4841 18.3021V19.0108C82.3665 19.0456 82.2468 19.0728 82.1256 19.0923C82.017 19.0989 81.9081 19.0989 81.7995 19.0923C81.655 19.1042 81.51 19.0776 81.3795 19.0153C81.249 18.953 81.1378 18.8572 81.0575 18.7379C80.9649 18.5728 80.9076 18.3907 80.889 18.2028C80.6544 18.488 80.3596 18.719 80.0251 18.8796C79.6399 19.073 79.2132 19.1714 78.7813 19.1667C78.5339 19.1782 78.2866 19.1409 78.054 19.057C77.8213 18.973 77.608 18.8441 77.4263 18.6777C77.258 18.5206 77.1251 18.3302 77.0362 18.119C76.9473 17.9077 76.9043 17.6803 76.9101 17.4516C76.8968 17.2183 76.9362 16.985 77.0255 16.7686C77.1148 16.5523 77.2517 16.3583 77.4263 16.2007C77.8053 15.8878 78.2716 15.6963 78.7633 15.6515L80.3226 15.4566ZM78.2436 18.093C78.455 18.2566 78.7171 18.343 78.9856 18.3375C79.3355 18.3373 79.6805 18.256 79.9928 18.1001C80.247 17.9932 80.4619 17.812 80.6086 17.5807C80.7554 17.3495 80.8269 17.0794 80.8137 16.8067V16.02C80.669 16.1067 80.5119 16.1712 80.3477 16.2114C80.1641 16.2598 79.9772 16.2953 79.7885 16.3177L79.1935 16.3956C78.9134 16.4199 78.6401 16.4944 78.387 16.6153C78.2415 16.6945 78.1216 16.8127 78.041 16.9562C77.9605 17.0998 77.9226 17.2629 77.9317 17.4268C77.9259 17.5544 77.9512 17.6815 78.0055 17.7975C78.0598 17.9134 78.1414 18.0148 78.2436 18.093Z" fill="white"/>
<path d="M83.2584 13.1709H84.1975V13.993C84.4335 13.6884 84.7346 13.4392 85.0793 13.263C85.4028 13.1111 85.7572 13.0348 86.1153 13.0398C86.9469 13.0398 87.5096 13.3304 87.8 13.9044C87.984 14.329 88.0674 14.7896 88.0437 15.2509V18.9716H87.0401V15.3147C87.0511 15.0221 86.9973 14.7306 86.8824 14.4607C86.7983 14.2851 86.6619 14.139 86.4915 14.0421C86.3211 13.9452 86.1248 13.9021 85.9289 13.9186C85.734 13.9139 85.5395 13.9378 85.3517 13.9894C85.1056 14.0709 84.883 14.2102 84.7032 14.3954C84.5234 14.5805 84.3917 14.806 84.3194 15.0525C84.2578 15.3461 84.2301 15.6457 84.237 15.9455V18.9823H83.2476L83.2584 13.1709Z" fill="white"/>
<path d="M89.9292 17.1538C89.9377 17.4201 90.0236 17.6784 90.1765 17.8979C90.3399 18.0701 90.5415 18.2023 90.7655 18.2841C90.9895 18.366 91.2296 18.3951 91.467 18.3692C91.8036 18.3764 92.1362 18.2958 92.4312 18.1353C92.5623 18.0644 92.6703 17.9582 92.7426 17.8289C92.815 17.6997 92.8487 17.5528 92.8399 17.4053C92.843 17.2896 92.8135 17.1752 92.7546 17.0751C92.6958 16.9749 92.6098 16.893 92.5065 16.8384C92.2377 16.7137 91.955 16.6209 91.6641 16.562L90.8791 16.3671C90.4937 16.2832 90.1237 16.141 89.7822 15.9454C89.5859 15.8368 89.4229 15.6776 89.3106 15.4849C89.1982 15.2921 89.1407 15.0729 89.1442 14.8505C89.1359 14.5978 89.1859 14.3466 89.2902 14.1158C89.3945 13.885 89.5505 13.6806 89.7464 13.5181C90.2026 13.1583 90.7767 12.9767 91.3594 13.0078C92.2412 13.0078 92.8793 13.2665 93.27 13.7768C93.5106 14.0793 93.6374 14.4551 93.6285 14.8398H92.6965C92.679 14.6205 92.5967 14.411 92.4599 14.2374C92.302 14.0946 92.1152 13.9867 91.9119 13.9207C91.7086 13.8547 91.4934 13.8322 91.2806 13.8547C90.9835 13.8359 90.6878 13.909 90.4346 14.0638C90.3442 14.1269 90.2708 14.2109 90.2208 14.3085C90.1708 14.4061 90.1458 14.5143 90.1479 14.6237C90.147 14.7472 90.1799 14.8687 90.243 14.9753C90.306 15.0819 90.397 15.1698 90.5063 15.2296C90.7092 15.3407 90.928 15.4208 91.1551 15.467L91.8075 15.6265C92.3083 15.7165 92.792 15.8827 93.2413 16.119C93.4331 16.2472 93.5871 16.4232 93.6879 16.6291C93.7886 16.8351 93.8324 17.0638 93.8149 17.292C93.8167 17.5437 93.765 17.7931 93.6631 18.0238C93.5613 18.2546 93.4114 18.4616 93.2234 18.6314C92.7214 19.0398 92.0796 19.2416 91.4311 19.1948C90.5565 19.1948 89.94 18.9964 89.5743 18.6066C89.2099 18.2071 89.0026 17.6916 88.9901 17.1538H89.9292Z" fill="white"/>
<path d="M97.9407 15.4566C98.0347 15.4534 98.1262 15.4258 98.2061 15.3767C98.286 15.3276 98.3514 15.2586 98.3959 15.1767C98.4447 15.0576 98.4667 14.9294 98.4604 14.801C98.4691 14.6622 98.4405 14.5235 98.3776 14.3991C98.3146 14.2746 98.2195 14.1688 98.102 14.0923C97.7864 13.9255 97.4304 13.8483 97.0732 13.8691C96.8712 13.8491 96.6673 13.8758 96.4775 13.9471C96.2878 14.0185 96.1174 14.1325 95.9799 14.2801C95.8401 14.4802 95.7582 14.7142 95.7433 14.957H94.8221C94.8412 14.2483 95.0802 13.751 95.539 13.4651C96.0092 13.1783 96.5531 13.0319 97.1055 13.0435C97.693 13.0184 98.2761 13.1545 98.7902 13.4368C98.9984 13.5619 99.168 13.741 99.2804 13.9546C99.3929 14.1683 99.4441 14.4083 99.4283 14.6487V17.9902C99.4247 18.0763 99.4471 18.1614 99.4928 18.2347C99.5263 18.27 99.5678 18.2968 99.614 18.3128C99.6602 18.3289 99.7096 18.3337 99.758 18.3269H99.905C99.964 18.3218 100.023 18.3135 100.081 18.3021V19.0108C99.9631 19.0456 99.8433 19.0728 99.7222 19.0923C99.6136 19.0989 99.5046 19.0989 99.396 19.0923C99.2516 19.1042 99.1065 19.0776 98.976 19.0153C98.8455 18.953 98.7343 18.8572 98.654 18.7379C98.5615 18.5728 98.5041 18.3907 98.4855 18.2028C98.2519 18.4889 97.9568 18.7201 97.6216 18.8796C97.2365 19.073 96.8098 19.1714 96.3778 19.1667C96.1339 19.1764 95.8904 19.1381 95.6615 19.0542C95.4326 18.9703 95.2229 18.8423 95.0443 18.6777C94.8751 18.5212 94.7412 18.331 94.6517 18.1197C94.5621 17.9083 94.5188 17.6807 94.5246 17.4516C94.5104 17.2188 94.5486 16.9859 94.6367 16.7695C94.7247 16.5532 94.8603 16.3589 95.0336 16.2007C95.4126 15.8878 95.8789 15.6963 96.3706 15.6515L97.9407 15.4566ZM95.8652 18.093C96.075 18.2571 96.3362 18.3436 96.6036 18.3375C96.9535 18.3373 97.2985 18.256 97.6109 18.1001C97.865 17.9932 98.0799 17.812 98.2267 17.5807C98.3734 17.3495 98.445 17.0794 98.4318 16.8067V16.02C98.2871 16.1067 98.13 16.1712 97.9658 16.2114C97.7833 16.2594 97.5976 16.295 97.4102 16.3177L96.8115 16.3956C96.5314 16.4199 96.2582 16.4944 96.005 16.6153C95.8595 16.6945 95.7396 16.8127 95.6591 16.9562C95.5786 17.0998 95.5407 17.2629 95.5498 17.4268C95.5438 17.5548 95.5693 17.6823 95.6243 17.7984C95.6793 17.9144 95.7619 18.0155 95.8652 18.093Z" fill="white"/>
<path d="M104.103 11.0163H107.827C108.346 10.9989 108.862 11.0895 109.343 11.282C109.707 11.4384 110.013 11.7037 110.217 12.0405C110.42 12.3774 110.512 12.7689 110.479 13.1601C110.503 13.5548 110.406 13.9473 110.201 14.2867C109.995 14.6261 109.692 14.8965 109.329 15.063C109.609 15.1599 109.858 15.3315 110.046 15.5591C110.231 15.8605 110.324 16.2091 110.311 16.5619L110.35 17.6249C110.352 17.8525 110.377 18.0793 110.426 18.3017C110.443 18.405 110.485 18.5029 110.547 18.5877C110.609 18.6725 110.69 18.742 110.784 18.7907V18.9679H109.447C109.406 18.8839 109.377 18.7944 109.361 18.7022C109.33 18.4943 109.311 18.2849 109.304 18.075L109.239 16.7461C109.255 16.5322 109.209 16.3181 109.105 16.1296C109.002 15.941 108.845 15.786 108.655 15.6831C108.341 15.5694 108.007 15.52 107.673 15.5378H105.192V18.9502H104.117L104.103 11.0163ZM107.712 14.659C108.138 14.6817 108.56 14.5767 108.924 14.3578C109.085 14.2267 109.21 14.0579 109.289 13.8666C109.367 13.6754 109.395 13.4678 109.372 13.2628C109.397 13.0302 109.35 12.7956 109.239 12.5892C109.128 12.3827 108.957 12.2138 108.748 12.1041C108.465 11.9854 108.159 11.9297 107.852 11.9411H105.192V14.659H107.712Z" fill="white"/>
<path d="M115.423 13.3302C115.782 13.4977 116.09 13.757 116.315 14.0814C116.52 14.3907 116.654 14.74 116.709 15.1055C116.782 15.5279 116.812 15.9564 116.799 16.3847H112.498C112.488 16.889 112.635 17.3839 112.921 17.8021C113.063 17.9847 113.25 18.1292 113.463 18.2226C113.677 18.316 113.91 18.3554 114.143 18.3372C114.372 18.3467 114.601 18.3066 114.814 18.2197C115.026 18.1328 115.217 18.0012 115.372 17.834C115.543 17.6385 115.665 17.407 115.731 17.1572H116.702C116.664 17.4073 116.577 17.6478 116.448 17.8659C116.32 18.1035 116.157 18.3209 115.964 18.5108C115.654 18.8033 115.268 19.0055 114.849 19.0955C114.586 19.1551 114.316 19.1836 114.046 19.1806C113.698 19.1865 113.352 19.1194 113.032 18.9838C112.712 18.8482 112.425 18.6472 112.189 18.3939C111.651 17.7861 111.376 16.9928 111.426 16.1863C111.388 15.3624 111.661 14.5541 112.193 13.9184C112.439 13.6337 112.747 13.4072 113.094 13.2557C113.441 13.1042 113.818 13.0316 114.197 13.0432C114.622 13.0418 115.043 13.1402 115.423 13.3302ZM115.781 15.6087C115.761 15.2551 115.666 14.9097 115.501 14.5952C115.367 14.3631 115.168 14.1733 114.929 14.0479C114.69 13.9224 114.42 13.8665 114.15 13.8865C113.936 13.8823 113.723 13.9234 113.527 14.0071C113.33 14.0909 113.154 14.2153 113.01 14.372C112.708 14.7137 112.545 15.1548 112.555 15.6087H115.781Z" fill="white"/>
<path d="M121.011 15.4566C121.105 15.4534 121.196 15.4259 121.276 15.3767C121.356 15.3276 121.422 15.2586 121.466 15.1767C121.515 15.0576 121.537 14.9294 121.531 14.8011C121.539 14.6622 121.511 14.5235 121.448 14.3991C121.385 14.2746 121.29 14.1688 121.172 14.0924C120.858 13.9258 120.503 13.8486 120.147 13.8691C119.944 13.8485 119.74 13.875 119.549 13.9463C119.359 14.0177 119.188 14.132 119.05 14.2802C118.91 14.4802 118.828 14.7143 118.814 14.957H117.892C117.911 14.2483 118.15 13.751 118.609 13.4652C119.081 13.179 119.626 13.0327 120.179 13.0435C120.766 13.0183 121.348 13.1545 121.86 13.4368C122.069 13.5617 122.239 13.7407 122.352 13.9543C122.465 14.1679 122.517 14.4081 122.502 14.6487V17.9902C122.499 18.0757 122.52 18.1603 122.563 18.2347C122.597 18.2696 122.638 18.296 122.684 18.312C122.731 18.328 122.78 18.3331 122.828 18.3269H122.979C123.033 18.3269 123.09 18.3269 123.154 18.3021V19.0108C123.037 19.0452 122.917 19.0725 122.796 19.0923C122.686 19.0989 122.576 19.0989 122.466 19.0923C122.322 19.1047 122.177 19.0783 122.047 19.0159C121.917 18.9536 121.807 18.8575 121.728 18.7379C121.632 18.5738 121.574 18.3914 121.556 18.2029C121.322 18.489 121.027 18.7201 120.692 18.8797C120.307 19.073 119.88 19.1715 119.448 19.1667C119.204 19.1764 118.961 19.1382 118.732 19.0542C118.503 18.9703 118.293 18.8423 118.115 18.6777C117.945 18.5212 117.811 18.331 117.722 18.1197C117.632 17.9084 117.589 17.6807 117.595 17.4516C117.581 17.2189 117.62 16.9862 117.708 16.77C117.796 16.5538 117.931 16.3594 118.104 16.2008C118.483 15.8884 118.949 15.6969 119.441 15.6515L121.011 15.4566ZM118.935 18.093C119.145 18.2566 119.406 18.343 119.674 18.3375C120.024 18.3377 120.369 18.2564 120.681 18.1001C120.936 17.9934 121.151 17.8123 121.298 17.5811C121.446 17.3499 121.518 17.0797 121.506 16.8067V16.02C121.361 16.1061 121.204 16.1706 121.04 16.2114C120.856 16.2598 120.669 16.2953 120.48 16.3177L119.882 16.3957C119.603 16.4193 119.33 16.4938 119.079 16.6154C118.933 16.6939 118.812 16.8119 118.732 16.9556C118.651 17.0993 118.614 17.2628 118.624 17.4268C118.618 17.5544 118.643 17.6816 118.697 17.7975C118.752 17.9134 118.833 18.0148 118.935 18.093Z" fill="white"/>
<path d="M123.975 11.0166H124.961V18.9718H123.975V11.0166Z" fill="white"/>
<path d="M129.481 11.0166H135.349V11.9911H130.542V14.4078H134.987V15.3255H130.542V18.0257H135.431V18.9718H129.481V11.0166Z" fill="white"/>
<path d="M137.156 17.154C137.168 17.4197 137.253 17.6771 137.403 17.8981C137.567 18.0699 137.77 18.2019 137.994 18.2836C138.219 18.3654 138.459 18.3947 138.697 18.3694C139.034 18.3763 139.366 18.2957 139.661 18.1355C139.793 18.0653 139.903 17.9594 139.976 17.8301C140.05 17.7009 140.085 17.5537 140.077 17.4056C140.08 17.2898 140.051 17.1754 139.992 17.0753C139.933 16.9751 139.847 16.8932 139.744 16.8386C139.474 16.7135 139.19 16.6207 138.898 16.5622L138.116 16.3673C137.727 16.2846 137.353 16.1424 137.009 15.9456C136.813 15.8362 136.651 15.6768 136.54 15.4842C136.428 15.2915 136.371 15.0727 136.374 14.8507C136.366 14.5984 136.416 14.3475 136.519 14.1168C136.623 13.8861 136.778 13.6815 136.973 13.5183C137.43 13.1597 138.003 12.9782 138.586 13.0081C139.471 13.0081 140.109 13.2667 140.5 13.777C140.739 14.0803 140.866 14.4556 140.859 14.8401H139.927C139.909 14.6214 139.828 14.4123 139.694 14.2377C139.536 14.095 139.349 13.9872 139.145 13.9212C138.942 13.8553 138.727 13.8327 138.514 13.855C138.217 13.8361 137.921 13.9092 137.668 14.064C137.577 14.1267 137.504 14.2106 137.454 14.3083C137.404 14.406 137.379 14.5144 137.381 14.6239C137.381 14.7501 137.415 14.874 137.481 14.9821C137.547 15.0903 137.641 15.1784 137.754 15.2369C137.956 15.3475 138.174 15.4275 138.4 15.4743L139.052 15.6338C139.553 15.7244 140.036 15.8905 140.486 16.1264C140.677 16.2545 140.832 16.4305 140.932 16.6365C141.033 16.8425 141.077 17.0711 141.059 17.2993C141.062 17.5515 141.011 17.8015 140.908 18.0325C140.805 18.2635 140.654 18.4702 140.464 18.6387C139.963 19.0491 139.321 19.2511 138.672 19.2021C137.801 19.2021 137.181 19.0037 136.819 18.6139C136.451 18.2161 136.244 17.6995 136.234 17.1611L137.156 17.154Z" fill="white"/>
<path d="M142.221 11.5518H143.217V13.1711H144.156V13.9684H143.217V17.7529C143.208 17.8335 143.223 17.9149 143.26 17.9872C143.297 18.0595 143.354 18.1197 143.425 18.1604C143.547 18.2079 143.678 18.2284 143.809 18.2207H143.963H144.156V18.9896C144.039 19.0226 143.919 19.0463 143.798 19.0605C143.666 19.0752 143.533 19.0823 143.4 19.0818C143.227 19.1022 143.051 19.0806 142.888 19.0189C142.725 18.9571 142.58 18.8571 142.464 18.7274C142.288 18.4578 142.202 18.1407 142.217 17.8203V13.9684H141.425V13.1711H142.217L142.221 11.5518Z" fill="white"/>
<path d="M148.128 15.4566C148.222 15.4541 148.314 15.4269 148.394 15.3777C148.474 15.3285 148.539 15.2591 148.583 15.1767C148.632 15.0576 148.654 14.9294 148.648 14.8011C148.656 14.6622 148.628 14.5235 148.565 14.3991C148.502 14.2746 148.407 14.1688 148.289 14.0924C147.975 13.9255 147.62 13.8482 147.264 13.8691C147.062 13.8485 146.857 13.875 146.666 13.9463C146.476 14.0177 146.305 14.132 146.167 14.2802C146.027 14.4802 145.946 14.7143 145.931 14.957H145.013C145.03 14.2483 145.269 13.751 145.73 13.4652C146.202 13.179 146.747 13.0327 147.3 13.0435C147.886 13.0183 148.468 13.1545 148.981 13.4368C149.19 13.5617 149.36 13.7407 149.473 13.9543C149.586 14.1679 149.638 14.4081 149.623 14.6487V17.9902C149.62 18.0757 149.641 18.1603 149.684 18.2347C149.717 18.2696 149.759 18.296 149.805 18.312C149.851 18.328 149.901 18.3331 149.949 18.3269H150.099C150.153 18.3269 150.211 18.3269 150.275 18.3021V19.0108C150.157 19.0452 150.038 19.0725 149.917 19.0923C149.807 19.099 149.697 19.099 149.587 19.0923C149.443 19.1043 149.298 19.0778 149.168 19.0154C149.038 18.9531 148.928 18.8572 148.848 18.7379C148.754 18.5732 148.696 18.391 148.676 18.2029C148.443 18.489 148.148 18.7201 147.813 18.8797C147.427 19.073 147.001 19.1715 146.569 19.1667C146.325 19.1764 146.081 19.1382 145.852 19.0542C145.624 18.9703 145.414 18.8423 145.235 18.6777C145.067 18.5208 144.933 18.3305 144.843 18.1193C144.754 17.9081 144.71 17.6806 144.715 17.4516C144.702 17.2186 144.741 16.9854 144.829 16.7691C144.918 16.5527 145.054 16.3586 145.228 16.2008C145.607 15.8873 146.073 15.6956 146.565 15.6515L148.128 15.4566ZM146.053 18.093C146.263 18.2566 146.524 18.343 146.791 18.3375C147.142 18.3374 147.488 18.2561 147.802 18.1001C148.055 17.9924 148.27 17.811 148.416 17.5799C148.563 17.3489 148.635 17.0792 148.623 16.8067V16.02C148.478 16.1061 148.321 16.1706 148.157 16.2114C147.973 16.2598 147.786 16.2953 147.597 16.3177L146.999 16.3957C146.72 16.4198 146.448 16.4943 146.196 16.6154C146.05 16.6939 145.929 16.8119 145.849 16.9556C145.768 17.0993 145.731 17.2628 145.741 17.4268C145.735 17.5544 145.76 17.6816 145.814 17.7975C145.869 17.9134 145.95 18.0148 146.053 18.093Z" fill="white"/>
<path d="M151.268 11.5518H152.265V13.1711H153.2V13.9684H152.265V17.7529C152.255 17.8336 152.269 17.9153 152.306 17.9878C152.343 18.0604 152.401 18.1204 152.472 18.1604C152.594 18.2082 152.725 18.2288 152.856 18.2207H153.01H153.2V18.9896C153.083 19.0231 152.963 19.0468 152.842 19.0605C152.71 19.0752 152.577 19.0823 152.444 19.0818C152.27 19.1022 152.095 19.0806 151.932 19.0189C151.769 18.9571 151.623 18.8571 151.508 18.7274C151.332 18.4578 151.246 18.1407 151.261 17.8203V13.9684H150.465V13.1711H151.268V11.5518Z" fill="white"/>
<path d="M157.681 13.3303C158.041 13.4978 158.349 13.7571 158.573 14.0815C158.778 14.3908 158.912 14.7401 158.968 15.1056C159.039 15.5282 159.069 15.9566 159.057 16.3848H154.756C154.746 16.8891 154.894 17.384 155.179 17.8022C155.321 17.9842 155.507 18.1284 155.72 18.2218C155.933 18.3152 156.165 18.3549 156.398 18.3373C156.628 18.3471 156.857 18.3072 157.07 18.2203C157.283 18.1334 157.474 18.0016 157.631 17.8341C157.801 17.6386 157.924 17.4071 157.989 17.1573H158.96C158.922 17.4074 158.835 17.6479 158.706 17.866C158.578 18.1046 158.414 18.3221 158.218 18.5109C157.91 18.8034 157.525 19.0057 157.107 19.0956C156.843 19.1554 156.572 19.1839 156.301 19.1807C155.953 19.1859 155.607 19.1185 155.288 18.983C154.968 18.8474 154.68 18.6467 154.444 18.394C153.908 17.7851 153.635 16.9923 153.684 16.1864C153.646 15.3625 153.92 14.5542 154.451 13.9185C154.697 13.6334 155.005 13.4066 155.352 13.2551C155.699 13.1036 156.076 13.0312 156.455 13.0433C156.881 13.0423 157.301 13.1406 157.681 13.3303ZM158.039 15.6088C158.02 15.2552 157.924 14.9098 157.76 14.5954C157.625 14.3626 157.426 14.1724 157.186 14.047C156.946 13.9215 156.675 13.8659 156.405 13.8866C156.191 13.883 155.978 13.9245 155.782 14.0082C155.585 14.0919 155.409 14.2159 155.265 14.3721C154.954 14.7094 154.782 15.149 154.781 15.6053L158.039 15.6088Z" fill="white"/>
<path d="M80.1828 28.4968V24.2729H80.5807V28.4968H80.1828Z" fill="white"/>
<path d="M82.3264 28.4968V24.2729H82.6848V25.8675C82.8081 25.726 82.9547 25.6062 83.1185 25.5132C83.2774 25.419 83.4604 25.3723 83.6455 25.3785C83.8218 25.3688 83.9978 25.4033 84.157 25.4789C84.3161 25.5545 84.4534 25.6687 84.5559 25.8108C84.6245 25.9092 84.6687 26.0221 84.685 26.1404C84.685 26.2573 84.7029 26.3813 84.7029 26.4947V28.4827H84.3445V26.516C84.3445 25.9668 84.0971 25.6939 83.5738 25.6939C83.3813 25.6887 83.1932 25.7516 83.0433 25.8711C82.909 25.9811 82.8064 26.124 82.7457 26.2857C82.6914 26.4734 82.6661 26.6681 82.6705 26.8633V28.4968H82.3264Z" fill="white"/>
<path d="M86.6637 28.4967H86.3052V25.4564H86.6637V26.0269C86.7277 25.8246 86.8528 25.6466 87.0221 25.5166C87.2053 25.4176 87.4122 25.3698 87.6208 25.3784V25.754C87.4701 25.7363 87.3175 25.76 87.1796 25.8226C87.0418 25.8851 86.924 25.984 86.8393 26.1084C86.6912 26.3824 86.6218 26.6912 86.6386 27.0014L86.6637 28.4967Z" fill="white"/>
<path d="M91.449 28.4968V24.2729H91.8469V28.4968H91.449Z" fill="white"/>
<path d="M93.8865 28.497H93.5568V25.4567H93.9152V25.9138C94.0077 25.7462 94.1455 25.6073 94.3133 25.5128C94.481 25.4183 94.6721 25.3719 94.8651 25.3787C95.0843 25.3638 95.302 25.4238 95.4817 25.5488C95.6138 25.6578 95.712 25.8015 95.7648 25.9634C95.8577 25.7809 96.0017 25.6287 96.1796 25.5251C96.3576 25.4214 96.5621 25.3706 96.7685 25.3787C96.9446 25.3709 97.1201 25.4036 97.2811 25.4744C97.4009 25.5355 97.4994 25.6305 97.5643 25.7472C97.6303 25.8664 97.6751 25.9958 97.6969 26.1299C97.7157 26.2792 97.7253 26.4295 97.7256 26.58V28.497H97.3851V26.3992C97.3958 26.2164 97.3468 26.0351 97.2453 25.8819C97.1789 25.8114 97.0964 25.7577 97.0048 25.725C96.9131 25.6923 96.8149 25.6817 96.7183 25.6941C96.5789 25.6924 96.4411 25.7237 96.3164 25.7853C96.1917 25.8469 96.0837 25.9372 96.0014 26.0484C95.9219 26.1644 95.8692 26.2963 95.8473 26.4347C95.8154 26.5779 95.7986 26.7239 95.7971 26.8705V28.5041H95.4566V26.3992C95.4666 26.217 95.419 26.0362 95.3204 25.8819C95.2536 25.8119 95.1711 25.7584 95.0796 25.7258C94.988 25.6932 94.89 25.6823 94.7934 25.6941C94.6569 25.6943 94.5223 25.7266 94.4008 25.7882C94.2793 25.8498 94.1743 25.939 94.0944 26.0484C94.0123 26.1633 93.9583 26.2956 93.9367 26.4347C93.9048 26.5779 93.888 26.7239 93.8865 26.8705V28.497Z" fill="white"/>
<path d="M99.5681 28.4969H99.2275V25.4565H99.5681V25.9136C99.6605 25.746 99.7983 25.6072 99.9661 25.5127C100.134 25.4182 100.325 25.3717 100.518 25.3786C100.737 25.3642 100.955 25.4242 101.135 25.5486C101.267 25.6576 101.365 25.8014 101.418 25.9632C101.51 25.7808 101.655 25.6286 101.833 25.5249C102.011 25.4212 102.215 25.3704 102.421 25.3786C102.596 25.3706 102.771 25.4034 102.93 25.4742C103.051 25.5353 103.151 25.6302 103.217 25.7471C103.282 25.8669 103.326 25.9961 103.35 26.1298C103.369 26.2791 103.378 26.4294 103.378 26.5798V28.4969H103.038V26.3991C103.056 26.2131 103.012 26.0264 102.912 25.8676C102.846 25.7971 102.764 25.7433 102.672 25.7107C102.58 25.678 102.482 25.6674 102.386 25.6798C102.246 25.6781 102.108 25.7093 101.984 25.771C101.859 25.8326 101.751 25.9228 101.669 26.0341C101.589 26.15 101.536 26.2819 101.514 26.4203C101.483 26.5635 101.466 26.7096 101.464 26.8562V28.4898H101.106V26.3991C101.117 26.2163 101.068 26.0349 100.966 25.8817C100.9 25.8116 100.818 25.758 100.727 25.7253C100.636 25.6926 100.539 25.6819 100.443 25.6939C100.303 25.6922 100.165 25.7235 100.041 25.7851C99.9161 25.8468 99.8081 25.937 99.7258 26.0483C99.6451 26.164 99.5912 26.2959 99.5681 26.4345C99.5391 26.5781 99.5235 26.724 99.5215 26.8704L99.5681 28.4969Z" fill="white"/>
<path d="M106.192 28.5819C106.01 28.585 105.83 28.5496 105.663 28.4781C105.496 28.4066 105.347 28.3006 105.224 28.1673C105.08 28.0061 104.97 27.8182 104.9 27.6144C104.829 27.4106 104.801 27.195 104.816 26.9802C104.804 26.5711 104.93 26.1696 105.174 25.8392C105.304 25.6942 105.464 25.5781 105.643 25.4986C105.822 25.419 106.016 25.3779 106.212 25.3779C106.408 25.3779 106.602 25.419 106.781 25.4986C106.96 25.5781 107.12 25.6942 107.25 25.8392C107.486 26.1726 107.606 26.5733 107.59 26.9802C107.61 27.3976 107.477 27.8081 107.214 28.1354C107.09 28.2832 106.934 28.4005 106.756 28.478C106.579 28.5555 106.386 28.5911 106.192 28.5819ZM107.21 26.9802C107.227 26.6587 107.147 26.3395 106.981 26.0625C106.892 25.941 106.772 25.8446 106.634 25.7825C106.496 25.7204 106.344 25.6947 106.192 25.7081C106.04 25.6997 105.887 25.7317 105.751 25.8008C105.615 25.87 105.5 25.9737 105.418 26.1014C105.256 26.3712 105.174 26.6807 105.181 26.9944C105.164 27.3221 105.257 27.6464 105.447 27.9157C105.531 28.0322 105.643 28.1258 105.773 28.1878C105.904 28.2497 106.048 28.278 106.192 28.2701C106.348 28.2792 106.503 28.2469 106.642 28.1765C106.781 28.106 106.898 28.0001 106.981 27.8697C107.138 27.5993 107.217 27.2918 107.21 26.9802Z" fill="white"/>
<path d="M109.433 28.4968H109.074V24.2729H109.433V25.9455C109.541 25.7613 109.7 25.6113 109.892 25.5132C110.08 25.4217 110.287 25.3744 110.497 25.375C110.692 25.3655 110.885 25.4043 111.061 25.4879C111.236 25.5714 111.387 25.6971 111.501 25.8534C111.724 26.187 111.836 26.5807 111.824 26.9802C111.84 27.3799 111.734 27.7752 111.519 28.1141C111.329 28.3463 111.061 28.5038 110.764 28.5583C110.467 28.6129 110.16 28.5609 109.899 28.4118C109.705 28.3122 109.546 28.1564 109.443 27.9653L109.433 28.4968ZM109.433 26.9696C109.419 27.2969 109.512 27.62 109.698 27.8909C109.778 28.0115 109.889 28.1095 110.019 28.1753C110.149 28.2411 110.294 28.2726 110.44 28.2665C110.576 28.2689 110.71 28.2419 110.834 28.1874C110.958 28.1329 111.068 28.0522 111.157 27.9511C111.359 27.7031 111.461 27.3902 111.444 27.0723C111.477 26.7301 111.399 26.3862 111.221 26.0908C111.136 25.9615 111.017 25.8568 110.877 25.7871C110.738 25.7175 110.582 25.6853 110.426 25.6939C110.281 25.6917 110.138 25.7249 110.009 25.7904C109.88 25.8559 109.77 25.9518 109.687 26.0695C109.506 26.3345 109.417 26.6503 109.433 26.9696Z" fill="white"/>
<path d="M113.447 24.8045V24.2729H113.824V24.8045H113.447ZM113.465 28.5039V25.4565H113.806V28.4968L113.465 28.5039Z" fill="white"/>
<path d="M115.519 28.4968V24.2729H115.878V28.4968H115.519Z" fill="white"/>
<path d="M117.573 24.8045V24.2729H117.932V24.8045H117.573ZM117.573 28.4968V25.4565H117.932V28.4968H117.573Z" fill="white"/>
<path d="M119.785 27.0581C119.776 27.3612 119.865 27.6593 120.039 27.9085C120.148 28.0459 120.294 28.1503 120.46 28.2095C120.626 28.2688 120.806 28.2806 120.978 28.2436C121.151 28.2066 121.309 28.1223 121.435 28.0004C121.562 27.8784 121.65 27.7238 121.692 27.5542H122.075C122.005 27.8235 121.861 28.0686 121.66 28.2629C121.379 28.4799 121.025 28.5832 120.67 28.5516C120.315 28.52 119.986 28.3559 119.749 28.0928C119.527 27.7529 119.413 27.3556 119.42 26.9512C119.427 26.5468 119.555 26.1535 119.788 25.8214C119.906 25.6705 120.059 25.5494 120.233 25.4681C120.408 25.3867 120.599 25.3475 120.792 25.3536C121.635 25.3536 122.072 25.9206 122.097 27.0333L119.785 27.0581ZM121.735 26.7675C121.746 26.4943 121.663 26.2255 121.498 26.0057C121.413 25.9009 121.303 25.8179 121.178 25.7636C121.053 25.7094 120.917 25.6854 120.781 25.6938C120.645 25.6867 120.509 25.7116 120.385 25.7664C120.26 25.8212 120.15 25.9044 120.065 26.0092C119.895 26.2295 119.791 26.492 119.763 26.7675H121.735Z" fill="white"/>
<path d="M123.957 28.4971H123.599V25.4568H123.957V25.8678C124.08 25.727 124.225 25.6072 124.387 25.5135C124.548 25.4197 124.732 25.373 124.918 25.3788C125.093 25.3699 125.267 25.4049 125.424 25.4805C125.581 25.5561 125.717 25.6698 125.818 25.8111C125.889 25.9081 125.935 26.0215 125.95 26.1407C125.95 26.2576 125.968 26.3816 125.968 26.495V28.4829H125.61V26.5163C125.61 25.967 125.362 25.6942 124.839 25.6942C124.647 25.689 124.459 25.7518 124.309 25.8713C124.174 25.9813 124.072 26.1243 124.011 26.2859C123.957 26.4736 123.931 26.6684 123.936 26.8635L123.957 28.4971Z" fill="white"/>
<path d="M127.89 28.4969H127.549V25.4566H127.89V25.9137C127.982 25.7464 128.12 25.6077 128.288 25.5133C128.456 25.4188 128.647 25.3722 128.84 25.3786C129.06 25.364 129.278 25.424 129.46 25.5487C129.591 25.6587 129.689 25.8021 129.743 25.9633C129.836 25.7808 129.98 25.6287 130.158 25.525C130.336 25.4213 130.54 25.3705 130.746 25.3786C130.921 25.3707 131.096 25.4035 131.256 25.4743C131.376 25.5345 131.475 25.6297 131.539 25.7471C131.606 25.8661 131.652 25.9955 131.675 26.1298C131.694 26.2791 131.703 26.4294 131.704 26.5799V28.4969H131.345V26.3992C131.357 26.2167 131.309 26.0354 131.209 25.8818C131.142 25.8118 131.06 25.7584 130.968 25.7257C130.877 25.6931 130.779 25.6822 130.682 25.694C130.542 25.6917 130.404 25.7227 130.28 25.7844C130.155 25.8461 130.047 25.9366 129.965 26.0483C129.884 26.1635 129.831 26.2958 129.811 26.4346C129.779 26.5778 129.762 26.7238 129.761 26.8704V28.504H129.42V26.3992C129.431 26.2163 129.382 26.035 129.28 25.8818C129.214 25.8114 129.132 25.7576 129.04 25.7249C128.948 25.6923 128.85 25.6817 128.753 25.694C128.617 25.6942 128.482 25.7265 128.361 25.7881C128.239 25.8497 128.134 25.9389 128.054 26.0483C127.974 26.164 127.92 26.2959 127.897 26.4346C127.866 26.5779 127.85 26.724 127.85 26.8704L127.89 28.4969Z" fill="white"/>
<path d="M134.7 26.7286L134.937 26.6896C135.013 26.6745 135.087 26.6532 135.159 26.6258C135.212 26.5955 135.25 26.5458 135.267 26.4876C135.277 26.4291 135.283 26.3699 135.285 26.3105C135.288 26.2287 135.275 26.1471 135.246 26.0705C135.217 25.9938 135.173 25.9236 135.116 25.864C134.952 25.738 134.746 25.6773 134.539 25.6939C134.335 25.6825 134.132 25.7306 133.955 25.8321C133.872 25.8994 133.804 25.9829 133.755 26.0774C133.706 26.1719 133.678 26.2754 133.671 26.3813H133.313C133.316 26.2315 133.353 26.0843 133.421 25.9501C133.488 25.8159 133.585 25.6982 133.704 25.6053C133.952 25.4464 134.244 25.3672 134.539 25.3785C134.809 25.3684 135.077 25.4388 135.306 25.5805C135.415 25.6698 135.5 25.7839 135.554 25.9129C135.608 26.0418 135.63 26.1819 135.618 26.3211V27.9936C135.618 28.1247 135.636 28.2098 135.693 28.2452C135.751 28.2807 135.84 28.2807 135.98 28.2452V28.5181L135.872 28.5464C135.821 28.5661 135.766 28.5757 135.711 28.5748C135.66 28.5819 135.608 28.5819 135.557 28.5748C135.51 28.5694 135.464 28.5519 135.426 28.5239C135.388 28.4959 135.357 28.4585 135.338 28.4153C135.303 28.3234 135.284 28.2264 135.281 28.1283C135.145 28.2879 134.974 28.4158 134.782 28.5028C134.59 28.5898 134.381 28.6337 134.17 28.6315C133.916 28.6195 133.675 28.519 133.489 28.348C133.387 28.2727 133.306 28.1737 133.253 28.0599C133.2 27.9461 133.176 27.8211 133.184 27.696C133.184 27.1822 133.542 26.8774 134.223 26.7817L134.7 26.7286ZM135.285 26.9022C135.141 26.9575 134.992 26.9979 134.84 27.0227C134.691 27.048 134.54 27.0645 134.388 27.0723C133.836 27.1042 133.553 27.3204 133.546 27.7208C133.543 27.7997 133.56 27.8781 133.596 27.9487C133.631 28.0194 133.685 28.0799 133.75 28.1247C133.878 28.2197 134.035 28.2696 134.195 28.2665C134.463 28.2716 134.726 28.1949 134.948 28.0468C135.057 27.974 135.146 27.8744 135.205 27.7576C135.264 27.6409 135.291 27.511 135.285 27.3806V26.9022Z" fill="white"/>
<path d="M137.349 28.4968V24.2729H137.69V26.9022L139.149 25.4565H139.622L138.507 26.555L139.754 28.4968H139.367L138.253 26.803L137.69 27.3487V28.4968H137.349Z" fill="white"/>
<path d="M141.127 28.4968V24.2729H141.486V28.4968H141.127Z" fill="white"/>
<path d="M143.339 27.058C143.329 27.3607 143.417 27.6588 143.59 27.9085C143.676 28.0246 143.79 28.1177 143.921 28.1796C144.052 28.2414 144.197 28.27 144.343 28.2628C144.555 28.2753 144.764 28.2099 144.93 28.079C145.096 27.9482 145.207 27.7612 145.242 27.5541H145.63C145.556 27.8232 145.412 28.068 145.21 28.2628C144.93 28.4797 144.577 28.5828 144.223 28.5512C143.868 28.5196 143.539 28.3556 143.303 28.0927C143.081 27.7529 142.967 27.3555 142.974 26.9511C142.981 26.5467 143.109 26.1535 143.343 25.8213C143.46 25.6707 143.612 25.5497 143.786 25.4684C143.96 25.3871 144.15 25.3478 144.343 25.3536C145.189 25.3536 145.625 25.9135 145.651 27.0332L143.339 27.058ZM145.285 26.7675C145.297 26.4943 145.213 26.2254 145.049 26.0056C144.963 25.9006 144.854 25.8174 144.729 25.7631C144.604 25.7089 144.468 25.6851 144.332 25.6938C144.196 25.6861 144.059 25.7107 143.935 25.7655C143.81 25.8204 143.7 25.9039 143.615 26.0091C143.445 26.2294 143.341 26.492 143.314 26.7675H145.285Z" fill="white"/>
<path d="M147.526 28.4968H147.185V25.4565H147.526V26.027C147.589 25.8241 147.714 25.6457 147.884 25.5167C148.067 25.4173 148.274 25.3695 148.483 25.3785V25.7541C148.332 25.7365 148.179 25.7603 148.04 25.8228C147.902 25.8852 147.783 25.9841 147.698 26.1085C147.553 26.3836 147.484 26.6916 147.497 27.0014L147.526 28.4968Z" fill="white"/>
<path d="M159.054 21.2046H69.3897V21.5589H159.054V21.2046Z" fill="white"/>
<path d="M59.8369 0H0V39.5422H59.8369V0Z" fill="#A6A096"/>
<path d="M4.58823 28.667V10.875H8.32691V17.6573H15.324V10.875H19.0591V28.667H15.324V20.726H8.32691V28.667H4.58823Z" fill="white"/>
<path d="M34.3866 11.3392C35.0393 11.6171 35.6165 12.0432 36.0713 12.583C36.4508 13.0322 36.7557 13.5381 36.9746 14.0819C37.2067 14.6785 37.3199 15.3138 37.308 15.9529C37.2998 16.8192 37.0784 17.6705 36.6628 18.4333C36.4372 18.8478 36.1311 19.2141 35.762 19.5115C35.393 19.8088 34.9682 20.0313 34.5121 20.1661C35.25 20.4209 35.875 20.9222 36.2792 21.5835C36.6234 22.1883 36.7954 23.1155 36.7954 24.3652V25.5594C36.778 26.1128 36.8116 26.6667 36.8958 27.2142C36.9317 27.4224 37.0123 27.6206 37.1323 27.7955C37.2522 27.9703 37.4087 28.1177 37.5912 28.2276V28.667H33.451C33.3363 28.2737 33.2539 27.9583 33.2037 27.7138C33.1058 27.2091 33.053 26.6969 33.046 26.183L33.0209 24.5282C33.0066 23.3943 32.8082 22.6371 32.4259 22.2568C32.0459 21.8812 31.3505 21.6898 30.2751 21.6898H26.6117V28.667H22.9411V10.875H31.5441C32.5123 10.8566 33.4758 11.0139 34.3866 11.3392ZM26.6117 13.9649V18.7452H30.6587C31.2702 18.7755 31.8812 18.6764 32.4509 18.4546C33.1679 18.1179 33.5263 17.4482 33.5263 16.4525C33.5263 15.3729 33.1822 14.6488 32.494 14.2803C31.9486 14.0384 31.3522 13.9302 30.7555 13.9649H26.6117Z" fill="white"/>
<path d="M54.8078 14.0252H45.2836V17.8026H54.0264V20.9067H45.2836V25.4708H55.2487V28.66H41.6059V10.875H54.8078V14.0252Z" fill="white"/>
</svg>
