<svg width="25" height="25" viewBox="0 0 25 25" fill="none" xmlns="http://www.w3.org/2000/svg">
<path fill-rule="evenodd" clip-rule="evenodd" d="M10.0939 9.36841H13.8079V11.2184C14.3429 10.1544 15.7149 9.19841 17.7759 9.19841C21.7269 9.19841 22.6649 11.3164 22.6649 15.2024V22.3994H18.6649V16.0874C18.6649 13.8744 18.1299 12.6264 16.7679 12.6264C14.8789 12.6264 14.0939 13.9714 14.0939 16.0864V22.3994H10.0939V9.36841ZM3.23489 22.2294H7.23489V9.19841H3.23489V22.2294ZM7.80789 4.94941C7.80803 5.28469 7.74154 5.61665 7.61227 5.926C7.48301 6.23535 7.29354 6.51593 7.05489 6.75141C6.57129 7.23204 5.9167 7.50107 5.23489 7.49941C4.55428 7.49896 3.9012 7.23061 3.41689 6.75241C3.1791 6.51613 2.99027 6.23524 2.86123 5.92585C2.73219 5.61645 2.66547 5.28464 2.66489 4.94941C2.66489 4.27241 2.93489 3.62441 3.41789 3.14641C3.90177 2.66757 4.55513 2.39911 5.23589 2.39941C5.91789 2.39941 6.57189 2.66841 7.05489 3.14641C7.53689 3.62441 7.80789 4.27241 7.80789 4.94941Z" fill="white"/>
</svg>
