<svg width="142" height="137" viewBox="0 0 142 137" fill="none" xmlns="http://www.w3.org/2000/svg">
<g clip-path="url(#clip0_1191_3282)">
<path d="M68.7141 32.5793C60.9135 32.5808 53.3404 35.2072 47.2138 40.0357C41.0872 44.8642 36.7637 51.6139 34.9393 59.1981C33.1148 66.7824 33.8957 74.7599 37.156 81.8465C40.4164 88.933 45.9666 94.7163 52.9131 98.2653V122.872C52.9182 125.101 53.8065 127.237 55.3834 128.812C56.9604 130.387 59.0974 131.273 61.3263 131.276H75.7571C77.9876 131.273 80.126 130.386 81.7033 128.809C83.2805 127.232 84.1677 125.093 84.1702 122.863V98.409C91.1689 94.914 96.7833 89.1596 100.105 82.077C103.426 74.9944 104.261 66.9982 102.473 59.3825C100.685 51.7668 96.3787 44.9774 90.2522 40.1131C84.1257 35.2489 76.5369 32.5944 68.7141 32.5793ZM53.8713 111.546H83.212V116.673H53.8713V111.546ZM62.3324 76.2262H58.2791C56.5594 76.2237 54.9109 75.5394 53.6948 74.3234C52.4788 73.1074 51.7945 71.4588 51.792 69.7391V69.6241C51.7853 68.3632 52.2643 67.1482 53.1297 66.2311C53.995 65.314 55.1802 64.7653 56.4394 64.6988H56.976C58.1801 64.6557 59.359 65.0503 60.2945 65.8097C61.23 66.569 61.8587 67.6415 62.0641 68.8288C62.3262 70.2275 62.4163 71.6531 62.3324 73.0737V76.2262ZM75.3642 68.3017C75.52 67.3296 75.9716 66.4291 76.6574 65.7227C77.3432 65.0163 78.23 64.5384 79.1971 64.3539C80.0976 64.1627 81.0354 64.2608 81.8769 64.6342C82.7183 65.0076 83.4203 65.6372 83.8828 66.4332C84.4632 67.4191 84.7731 68.5408 84.7809 69.6849C84.7888 70.829 84.4944 71.9548 83.9275 72.9486C83.3606 73.9424 82.5413 74.7688 81.5525 75.3444C80.5637 75.9199 79.4404 76.2241 78.2963 76.2262H75.1342V73.9073C75.0252 72.0358 75.1023 70.1581 75.3642 68.3017ZM74.176 110.588H63.2906V77.1844H74.176V110.588ZM53.8713 117.631H83.212V122.757H53.8713V117.631ZM75.7571 130.318H61.3263C59.5027 130.316 57.7427 129.647 56.3796 128.435C55.0164 127.224 54.1445 125.555 53.9288 123.744H83.1545C82.9369 125.554 82.0644 127.222 80.7016 128.433C79.3389 129.644 77.5801 130.314 75.7571 130.318ZM83.4803 97.7382L83.212 97.8724V110.655H75.1342V77.1844H78.3059C79.6191 77.1823 80.9085 76.8333 82.0435 76.1728C83.1785 75.5122 84.1189 74.5636 84.7695 73.4228C85.4201 72.2821 85.7579 70.9897 85.7485 69.6765C85.7392 68.3633 85.3831 67.0759 84.7164 65.9445C84.1562 64.9759 83.3039 64.2095 82.2814 63.7551C81.259 63.3007 80.1189 63.1816 79.0246 63.4148C77.858 63.6269 76.7868 64.198 75.9605 65.0483C75.1342 65.8987 74.5941 66.9858 74.4156 68.158C74.1473 70.062 74.067 71.9877 74.176 73.9073V76.2071H63.2906V73.0737C63.3771 71.5791 63.2806 70.0795 63.0032 68.6084C62.7178 67.1054 61.8725 65.7668 60.638 64.8632C59.4035 63.9596 57.8721 63.5584 56.3531 63.7406C54.8551 63.8195 53.4452 64.4732 52.4171 65.5656C51.389 66.658 50.8218 68.1049 50.8338 69.6049V69.7391C50.8363 71.7129 51.6215 73.6052 53.0173 75.0009C54.413 76.3967 56.3053 77.1819 58.2791 77.1844H62.3324V110.588H53.8713V97.6328L53.603 97.4987C46.7812 94.0867 41.3146 88.4669 38.0925 81.5534C34.8703 74.6398 34.0823 66.8395 35.8567 59.4212C37.631 52.0029 41.8632 45.4033 47.8648 40.6959C53.8664 35.9885 61.2843 33.4504 68.9117 33.4944C76.539 33.5385 83.9271 36.1621 89.874 40.9384C95.8208 45.7148 99.9766 52.3628 101.665 59.8011C103.354 67.2393 102.476 75.0301 99.1739 81.906C95.8722 88.7818 90.3411 94.3382 83.4803 97.6712V97.7382Z" fill="#7F7F7F" stroke="#7F7F7F" stroke-width="3"/>
<path d="M69.0207 0H68.0625V21.8282H69.0207V0Z" fill="#7F7F7F" stroke="#7F7F7F" stroke-width="3"/>
<path d="M90.1165 14.7525L84.8408 25.3989L85.6994 25.8244L90.9751 15.1779L90.1165 14.7525Z" fill="#7F7F7F" stroke="#7F7F7F" stroke-width="3"/>
<path d="M116.184 19.1347L101.21 34.1089L101.888 34.7864L116.862 19.8123L116.184 19.1347Z" fill="#7F7F7F" stroke="#7F7F7F" stroke-width="3"/>
<path d="M120.47 45.3774L110.73 49.8857L111.133 50.7553L120.872 46.2469L120.47 45.3774Z" fill="#7F7F7F" stroke="#7F7F7F" stroke-width="3"/>
<path d="M136 66.2607H114.172V67.219H136V66.2607Z" fill="#7F7F7F" stroke="#7F7F7F" stroke-width="3"/>
<path d="M111.149 83.6313L110.721 84.4883L120.456 89.3572L120.885 88.5002L111.149 83.6313Z" fill="#7F7F7F" stroke="#7F7F7F" stroke-width="3"/>
<path d="M101.894 98.6858L101.208 99.3552L116.177 114.684L116.863 114.015L101.894 98.6858Z" fill="#7F7F7F" stroke="#7F7F7F" stroke-width="3"/>
<path d="M35.5555 98.6809L19.9512 114.285L20.6287 114.963L36.233 99.3584L35.5555 98.6809Z" fill="#7F7F7F" stroke="#7F7F7F" stroke-width="3"/>
<path d="M25.7687 83.6236L15.1299 88.4922L15.5286 89.3635L26.1674 84.4949L25.7687 83.6236Z" fill="#7F7F7F" stroke="#7F7F7F" stroke-width="3"/>
<path d="M22.0007 66.2607H0V67.219H22.0007V66.2607Z" fill="#7F7F7F" stroke="#7F7F7F" stroke-width="3"/>
<path d="M15.5603 44.1311L15.1035 44.9734L25.7423 50.7425L26.199 49.9002L15.5603 44.1311Z" fill="#7F7F7F" stroke="#7F7F7F" stroke-width="3"/>
<path d="M20.6397 18.2506L19.9346 18.8994L35.5392 35.8574L36.2443 35.2086L20.6397 18.2506Z" fill="#7F7F7F" stroke="#7F7F7F" stroke-width="3"/>
<path d="M46.0582 14.7393L45.2129 15.1907L50.8952 25.8326L51.7404 25.3813L46.0582 14.7393Z" fill="#7F7F7F" stroke="#7F7F7F" stroke-width="3"/>
</g>
<defs>
<clipPath id="clip0_1191_3282">
<rect width="141.93" height="136.97" fill="white"/>
</clipPath>
</defs>
</svg>
