<svg width="24" height="25" viewBox="0 0 24 25" fill="none" xmlns="http://www.w3.org/2000/svg">
<path d="M19 4.39941H5C4.20435 4.39941 3.44129 4.71548 2.87868 5.27809C2.31607 5.8407 2 6.60376 2 7.39941V17.3994C2 18.1951 2.31607 18.9581 2.87868 19.5207C3.44129 20.0833 4.20435 20.3994 5 20.3994H19C19.7956 20.3994 20.5587 20.0833 21.1213 19.5207C21.6839 18.9581 22 18.1951 22 17.3994V7.39941C22 6.60376 21.6839 5.8407 21.1213 5.27809C20.5587 4.71548 19.7956 4.39941 19 4.39941ZM18.33 6.39941L12 11.1494L5.67 6.39941H18.33ZM19 18.3994H5C4.73478 18.3994 4.48043 18.2941 4.29289 18.1065C4.10536 17.919 4 17.6646 4 17.3994V7.64941L11.4 13.1994C11.5731 13.3292 11.7836 13.3994 12 13.3994C12.2164 13.3994 12.4269 13.3292 12.6 13.1994L20 7.64941V17.3994C20 17.6646 19.8946 17.919 19.7071 18.1065C19.5196 18.2941 19.2652 18.3994 19 18.3994Z" fill="white"/>
</svg>
