<svg width="68" height="62" viewBox="0 0 68 62" fill="none" xmlns="http://www.w3.org/2000/svg">
<g clip-path="url(#clip0_1243_4037)">
<path d="M0.793945 60.8386H66.9835" stroke="white" stroke-width="2" stroke-linecap="round" stroke-linejoin="round"/>
<path d="M10.5713 24.1338V60.8385" stroke="white" stroke-width="2" stroke-linecap="round" stroke-linejoin="round"/>
<path d="M57.8359 24.1338V60.8385" stroke="white" stroke-width="2" stroke-linecap="round" stroke-linejoin="round"/>
<path d="M42.1376 8.36395L34.0823 1.41614L7.69922 23.3323H45.5808" stroke="white" stroke-width="2" stroke-linecap="round" stroke-linejoin="round"/>
<path d="M48.9539 13.8887L60.7923 23.3323H50.7486L34.082 9.7901L18.0127 23.3323" stroke="white" stroke-width="2" stroke-linecap="round" stroke-linejoin="round"/>
<path d="M17.0283 60.8385V49.6122H28.3267V60.8385H22.6759V49.6122" stroke="white" stroke-width="2" stroke-linecap="round" stroke-linejoin="round"/>
<path d="M38.1924 54.3355V43.999H49.7608V54.3355" stroke="white" stroke-width="2" stroke-linecap="round" stroke-linejoin="round"/>
<path d="M29.8511 29.1222H18.6416V37.4962H29.8511V29.1222Z" stroke="white" stroke-width="2" stroke-linecap="round" stroke-linejoin="round"/>
<path d="M49.4468 29.1222H38.2373V37.4962H49.4468V29.1222Z" stroke="white" stroke-width="2" stroke-linecap="round" stroke-linejoin="round"/>
<path d="M38.1924 52.4645H49.7608" stroke="white" stroke-width="2" stroke-linecap="round" stroke-linejoin="round"/>
<path d="M45.6668 12.3742C46.3597 12.3742 46.9215 11.8162 46.9215 11.1279C46.9215 10.4396 46.3597 9.88159 45.6668 9.88159C44.9738 9.88159 44.4121 10.4396 44.4121 11.1279C44.4121 11.8162 44.9738 12.3742 45.6668 12.3742Z" fill="white"/>
</g>
<defs>
<clipPath id="clip0_1243_4037">
<rect width="67.7778" height="61" fill="white" transform="translate(0 0.627319)"/>
</clipPath>
</defs>
</svg>
