<svg width="46" height="52" viewBox="0 0 46 52" fill="none" xmlns="http://www.w3.org/2000/svg">
<path d="M17.5721 46.328H28.5998C28.6184 46.328 28.6313 46.3344 28.6407 46.3437C28.6455 46.3485 28.6482 46.3529 28.6495 46.356C28.6505 46.3583 28.6514 46.3612 28.6514 46.3666C28.6514 46.372 28.6505 46.3748 28.6495 46.3772C28.6482 46.3802 28.6455 46.3847 28.6407 46.3895C28.6313 46.3988 28.6184 46.4052 28.5998 46.4052H17.5721C17.5535 46.4052 17.5406 46.3988 17.5312 46.3895C17.5264 46.3847 17.5237 46.3802 17.5224 46.3772C17.5214 46.3748 17.5205 46.372 17.5205 46.3666C17.5205 46.3612 17.5214 46.3583 17.5224 46.356C17.5237 46.3529 17.5264 46.3485 17.5312 46.3437C17.5406 46.3344 17.5535 46.328 17.5721 46.328Z" stroke="white" stroke-width="2" stroke-miterlimit="10"/>
<path d="M19.1394 50.5194H27.0315C27.0501 50.5194 27.0629 50.5258 27.0724 50.5351C27.0772 50.5399 27.0799 50.5443 27.0812 50.5474C27.0822 50.5497 27.0831 50.5526 27.0831 50.558C27.0831 50.5634 27.0822 50.5662 27.0812 50.5686C27.0799 50.5716 27.0772 50.5761 27.0724 50.5809C27.0629 50.5902 27.0501 50.5966 27.0315 50.5966H19.1394C19.1209 50.5966 19.108 50.5902 19.0986 50.5809C19.0937 50.5761 19.0911 50.5716 19.0898 50.5686C19.0888 50.5662 19.0879 50.5634 19.0879 50.558C19.0879 50.5526 19.0888 50.5497 19.0898 50.5474C19.0911 50.5443 19.0937 50.5399 19.0986 50.5351C19.108 50.5258 19.1209 50.5194 19.1394 50.5194Z" stroke="white" stroke-width="2" stroke-miterlimit="10"/>
<path d="M15.1519 34.7707C13.1717 33.1549 11.7441 30.9739 11.0642 28.5257C10.3844 26.0775 10.4854 23.4814 11.3534 21.092C12.2215 18.7027 13.8142 16.6367 15.9142 15.1761C18.0141 13.7156 20.5188 12.9318 23.086 12.9318C25.6533 12.9318 28.158 13.7156 30.2579 15.1761C32.3578 16.6367 33.9506 18.7027 34.8187 21.092C35.6867 23.4814 35.7877 26.0775 35.1078 28.5257C34.428 30.9739 33.0004 33.1549 31.0201 34.7707L30.9768 34.8162C29.7279 36.0508 29.0259 37.7254 29.0254 39.4717V41.2219C29.0254 41.5453 28.8955 41.8555 28.6642 42.0842C28.433 42.3129 28.1193 42.4414 27.7923 42.4414H18.7511C18.424 42.4414 18.1104 42.3129 17.8791 42.0842C17.6479 41.8555 17.5179 41.5453 17.5179 41.2219V39.8014C17.5176 38.8436 17.3062 37.8974 16.8985 37.0286C16.4909 36.1598 15.8967 35.3893 15.1574 34.7707H15.1519Z" stroke="white" stroke-width="2" stroke-miterlimit="10"/>
<path d="M23.1152 16.5024C24.3842 16.502 25.6409 16.749 26.8133 17.2293C27.9857 17.7096 29.0509 18.4136 29.948 19.3013C30.8451 20.1889 31.5564 21.2427 32.0414 22.4024C32.5264 23.5622 32.7754 24.805 32.7744 26.06" stroke="white" stroke-width="2" stroke-linecap="round" stroke-linejoin="round"/>
<path d="M23.085 1V8.2178" stroke="white" stroke-width="2" stroke-linecap="round" stroke-linejoin="round"/>
<path d="M9.69434 4.98547L13.4859 10.9302" stroke="white" stroke-width="2" stroke-linecap="round" stroke-linejoin="round"/>
<path d="M1 13.991L7.32559 17.3948" stroke="white" stroke-width="2" stroke-linecap="round" stroke-linejoin="round"/>
<path d="M36.8889 5.27496L33.1543 10.9302" stroke="white" stroke-width="2" stroke-linecap="round" stroke-linejoin="round"/>
<path d="M38.6387 17.3948L44.9995 13.991" stroke="white" stroke-width="2" stroke-linecap="round" stroke-linejoin="round"/>
</svg>
