<svg width="76" height="51" viewBox="0 0 76 51" fill="none" xmlns="http://www.w3.org/2000/svg">
<path d="M35.9532 14.1747H1V1.62732H35.9532L43.6733 7.90211L35.9532 14.1747Z" stroke="white" stroke-width="2" stroke-linecap="round" stroke-linejoin="round"/>
<path d="M6.04694 8.94237L5.48408 10.3916H3.87207L6.47245 4.01233H8.48296L11.2184 10.3916H9.52312L8.92199 8.94237H6.04694ZM8.48521 7.70208C7.88409 6.24174 7.58465 5.49712 7.43606 5.00812C7.29197 5.48601 6.9475 6.45512 6.46345 7.70208H8.48521Z" fill="white"/>
<path d="M51.65 31.7766H1V19.227H51.65L59.3701 25.5018L51.65 31.7766Z" stroke="white" stroke-width="2" stroke-linecap="round" stroke-linejoin="round"/>
<path d="M4.72656 21.6143H8.30181C9.84853 21.6143 10.5194 22.3567 10.5194 23.2569C10.5264 23.5553 10.4367 23.8482 10.2634 24.0929C10.0901 24.3375 9.8422 24.5212 9.55584 24.6172C10.1817 24.8083 10.7558 25.284 10.7558 26.0931C10.7558 27.2889 9.82601 27.9913 8.24327 27.9913H4.72656V21.6143ZM7.9731 24.1104C8.67554 24.1104 8.89843 23.8348 8.89843 23.4436C8.89843 22.9612 8.5292 22.7768 7.99787 22.7768H6.26878V24.1104H7.9731ZM6.26878 26.8399H8.04064C8.64402 26.8399 9.10331 26.6643 9.10331 26.0331C9.10331 25.5241 8.75209 25.2618 8.06991 25.2618H6.26878V26.8399Z" fill="white"/>
<path d="M66.7795 49.3763H1V36.8289H66.7795L74.4974 43.1015L66.7795 49.3763Z" stroke="white" stroke-width="2" stroke-linecap="round" stroke-linejoin="round"/>
<path d="M10.9785 43.5661C10.6791 44.6774 9.7785 45.7266 7.75223 45.7266C5.44228 45.7266 4.33008 44.1507 4.33008 42.408C4.33008 40.6654 5.5571 39.0739 7.83553 39.0739C9.81452 39.0739 10.8006 40.1608 10.9875 41.2255H9.41152C9.27868 40.861 8.92971 40.2742 7.83553 40.2742C6.62877 40.2742 6.00063 41.1833 6.00063 42.3458C6.00063 43.5083 6.57474 44.5307 7.84453 44.5307C8.76311 44.5307 9.16836 44.1773 9.42052 43.5616L10.9785 43.5661Z" fill="white"/>
</svg>
