<svg width="68" height="62" viewBox="0 0 68 62" fill="none" xmlns="http://www.w3.org/2000/svg">
<g clip-path="url(#clip0_1243_4015)">
<path d="M0.787109 60.8386H66.425" stroke="white" stroke-width="2" stroke-linecap="round" stroke-linejoin="round"/>
<path d="M10.4824 24.1338V60.8385" stroke="white" stroke-width="2" stroke-linecap="round" stroke-linejoin="round"/>
<path d="M57.3535 24.1338V60.8385" stroke="white" stroke-width="2" stroke-linecap="round" stroke-linejoin="round"/>
<path d="M41.7861 8.36395L33.798 1.41614L7.63477 23.3323H29.0699" stroke="white" stroke-width="2" stroke-linecap="round" stroke-linejoin="round"/>
<path d="M48.5466 13.8888L60.2864 23.3324H50.3263L33.7987 9.79016L17.8633 23.3324" stroke="white" stroke-width="2" stroke-linecap="round" stroke-linejoin="round"/>
<path d="M16.8867 60.8385V49.6122H28.091V60.8385H22.4873V49.6122" stroke="white" stroke-width="2" stroke-linecap="round" stroke-linejoin="round"/>
<path d="M37.874 54.3355V43.999H49.346V54.3355" stroke="white" stroke-width="2" stroke-linecap="round" stroke-linejoin="round"/>
<path d="M29.6024 29.1222H18.4863V37.4962H29.6024V29.1222Z" stroke="white" stroke-width="2" stroke-linecap="round" stroke-linejoin="round"/>
<path d="M49.034 29.1222H37.918V37.4962H49.034V29.1222Z" stroke="white" stroke-width="2" stroke-linecap="round" stroke-linejoin="round"/>
<path d="M37.874 52.4645H49.346" stroke="white" stroke-width="2" stroke-linecap="round" stroke-linejoin="round"/>
<path d="M45.2862 12.3742C45.9734 12.3742 46.5304 11.8162 46.5304 11.1279C46.5304 10.4396 45.9734 9.88159 45.2862 9.88159C44.599 9.88159 44.042 10.4396 44.042 11.1279C44.042 11.8162 44.599 12.3742 45.2862 12.3742Z" fill="white"/>
<path d="M39.0742 40.1118V37.4961" stroke="white" stroke-width="2" stroke-linecap="round" stroke-linejoin="round"/>
<path d="M41.7861 23.6006V29.1222" stroke="white" stroke-width="2" stroke-linecap="round" stroke-linejoin="round"/>
<path d="M31.8581 44.8036L28.0908 42.8411L31.3825 38.8024L29.6028 37.4961" stroke="white" stroke-width="2" stroke-linecap="round" stroke-linejoin="round"/>
<path d="M19.2271 43.6141L16.8867 40.1118L18.4869 37.4961" stroke="white" stroke-width="2" stroke-linecap="round" stroke-linejoin="round"/>
<path d="M43.4775 56.5032V52.4645" stroke="white" stroke-width="2" stroke-linecap="round" stroke-linejoin="round"/>
<path d="M33.2182 21.9377C33.2182 21.6979 35.294 18.0757 35.294 18.0757L31.8574 15.1666L33.7978 9.80273" stroke="white" stroke-width="2" stroke-linecap="round" stroke-linejoin="round"/>
<path d="M13.6543 6.13635L17.3901 9.7901V15.1603" stroke="white" stroke-width="2" stroke-linecap="round" stroke-linejoin="round"/>
<path d="M21.7783 47.4762L28.0908 49.6123" stroke="white" stroke-width="2" stroke-linecap="round" stroke-linejoin="round"/>
</g>
<defs>
<clipPath id="clip0_1243_4015">
<rect width="67.2129" height="61" fill="white" transform="translate(0 0.627319)"/>
</clipPath>
</defs>
</svg>
