<svg width="50" height="52" viewBox="0 0 50 52" fill="none" xmlns="http://www.w3.org/2000/svg">
<path d="M37.8574 25.2655V1.62732H12.0659L12.0173 7.95862C12.0065 9.24879 11.4806 10.4819 10.5551 11.3871C9.62957 12.2922 8.38022 12.7953 7.08152 12.7859L1 12.7452V48.9037H26.5409" stroke="white" stroke-width="2" stroke-linecap="round" stroke-linejoin="round"/>
<path d="M12.0659 1.62732L1 12.7452" stroke="white" stroke-width="2" stroke-linecap="round" stroke-linejoin="round"/>
<path d="M17.2246 13.2813H31.3671" stroke="white" stroke-width="2" stroke-linecap="round" stroke-linejoin="round"/>
<path d="M6.1582 19.2315H31.3666" stroke="white" stroke-width="2" stroke-linecap="round" stroke-linejoin="round"/>
<path d="M6.1582 25.1842H31.3666" stroke="white" stroke-width="2" stroke-linecap="round" stroke-linejoin="round"/>
<path d="M6.1582 31.1345H25.8758" stroke="white" stroke-width="2" stroke-linecap="round" stroke-linejoin="round"/>
<path d="M6.1582 37.0847H23.7967" stroke="white" stroke-width="2" stroke-linecap="round" stroke-linejoin="round"/>
<path d="M6.1582 43.0349H23.7967" stroke="white" stroke-width="2" stroke-linecap="round" stroke-linejoin="round"/>
<path d="M37.857 50.357C43.857 50.357 48.7209 45.5249 48.7209 39.5643C48.7209 33.6037 43.857 28.7716 37.857 28.7716C31.8571 28.7716 26.9932 33.6037 26.9932 39.5643C26.9932 45.5249 31.8571 50.357 37.857 50.357Z" stroke="white" stroke-width="2" stroke-linecap="round" stroke-linejoin="round"/>
<path d="M37.8574 45.2122C38.3207 45.2122 38.6962 44.8391 38.6962 44.3789C38.6962 43.9186 38.3207 43.5455 37.8574 43.5455C37.3941 43.5455 37.0186 43.9186 37.0186 44.3789C37.0186 44.8391 37.3941 45.2122 37.8574 45.2122Z" fill="white"/>
<path d="M37.8574 33.919V41.4978" stroke="white" stroke-width="2" stroke-linecap="round" stroke-linejoin="round"/>
</svg>
