<svg width="38" height="53" viewBox="0 0 38 53" fill="none" xmlns="http://www.w3.org/2000/svg">
<path d="M1 50.9206V45.2337C1 43.3501 1.7435 41.5437 3.06695 40.2118C4.39039 38.8799 6.18536 38.1317 8.057 38.1317H10.2786L12.8923 35.5092V32.2265" stroke="white" stroke-width="2" stroke-linecap="round" stroke-linejoin="round"/>
<path d="M36.1547 50.9206V45.2337C36.1547 43.3501 35.4112 41.5437 34.0877 40.2118C32.7643 38.8799 30.9693 38.1317 29.0977 38.1317H26.8734L24.2754 35.5171V32.2265" stroke="white" stroke-width="2" stroke-linecap="round" stroke-linejoin="round"/>
<path d="M18.8931 41.1303L14.0473 44.7997L10.2861 38.1238L12.8868 35.5092L18.8931 41.1303Z" stroke="white" stroke-width="2" stroke-linecap="round" stroke-linejoin="round"/>
<path d="M24.2726 35.5092L18.8936 41.1303L23.3342 44.7997L26.8706 38.1238" stroke="white" stroke-width="2" stroke-linecap="round" stroke-linejoin="round"/>
<path d="M30.2158 51.3651V38.2132" stroke="white" stroke-width="2" stroke-linecap="round" stroke-linejoin="round"/>
<path d="M18.8936 50.142V41.1303" stroke="white" stroke-width="2" stroke-linecap="round" stroke-linejoin="round"/>
<path d="M6.94336 51.3651V38.2132" stroke="white" stroke-width="2" stroke-linecap="round" stroke-linejoin="round"/>
<path d="M28.2007 22.2126V23.7145C28.2 26.2083 27.2153 28.5997 25.4631 30.3631C23.7109 32.1265 21.3346 33.1174 18.8567 33.1181C16.3787 33.1174 14.0024 32.1265 12.2503 30.3631C10.4981 28.5997 9.51339 26.2083 9.5127 23.7145V22.2126" stroke="white" stroke-width="2" stroke-linecap="round" stroke-linejoin="round"/>
<path d="M4.87109 18.3171H32.511" stroke="white" stroke-width="2" stroke-linecap="round" stroke-linejoin="round"/>
<path d="M13.7158 13.9796H24.2726" stroke="white" stroke-width="2" stroke-linecap="round" stroke-linejoin="round"/>
<path d="M14.9073 4.00256C12.5884 4.77956 10.5713 6.27133 9.14191 8.26647C7.71251 10.2616 6.94332 12.6589 6.94336 15.1185V18.3302H30.2053V15.1185C30.207 12.8125 29.5324 10.5572 28.2658 8.63548C26.9993 6.71372 25.1972 5.21096 23.0856 4.31558" stroke="white" stroke-width="2" stroke-linecap="round" stroke-linejoin="round"/>
<path d="M22.8815 8.41368V1.62732H15.043V8.41368" stroke="white" stroke-width="2" stroke-linecap="round" stroke-linejoin="round"/>
</svg>
