<svg width="44" height="51" viewBox="0 0 44 51" fill="none" xmlns="http://www.w3.org/2000/svg">
<path d="M21.8645 39.1962C29.5011 39.1962 35.6918 33.0626 35.6918 25.4965C35.6918 17.9303 29.5011 11.7968 21.8645 11.7968C14.2278 11.7968 8.03711 17.9303 8.03711 25.4965C8.03711 33.0626 14.2278 39.1962 21.8645 39.1962Z" stroke="white" stroke-width="2" stroke-linecap="round" stroke-linejoin="round"/>
<path d="M21.8643 1.62732V8.68788" stroke="white" stroke-width="2" stroke-linecap="round" stroke-linejoin="round"/>
<path d="M11.3711 7.48926L13.3806 10.9388" stroke="white" stroke-width="2" stroke-linecap="round" stroke-linejoin="round"/>
<path d="M1 13.5606L7.17124 17.0909" stroke="white" stroke-width="2" stroke-linecap="round" stroke-linejoin="round"/>
<path d="M1 25.4965H4.89937" stroke="white" stroke-width="2" stroke-linecap="round" stroke-linejoin="round"/>
<path d="M1 37.4298L7.17124 33.8995" stroke="white" stroke-width="2" stroke-linecap="round" stroke-linejoin="round"/>
<path d="M11.6006 43.11L13.3809 40.0516" stroke="white" stroke-width="2" stroke-linecap="round" stroke-linejoin="round"/>
<path d="M21.8643 49.3656V42.3051" stroke="white" stroke-width="2" stroke-linecap="round" stroke-linejoin="round"/>
<path d="M32.317 43.4356L30.3457 40.0516" stroke="white" stroke-width="2" stroke-linecap="round" stroke-linejoin="round"/>
<path d="M42.7269 37.4298L36.5557 33.8995" stroke="white" stroke-width="2" stroke-linecap="round" stroke-linejoin="round"/>
<path d="M42.7269 25.4965H38.8301" stroke="white" stroke-width="2" stroke-linecap="round" stroke-linejoin="round"/>
<path d="M42.7269 13.5606L36.5557 17.0909" stroke="white" stroke-width="2" stroke-linecap="round" stroke-linejoin="round"/>
<path d="M32.3552 7.48926L30.3457 10.9388" stroke="white" stroke-width="2" stroke-linecap="round" stroke-linejoin="round"/>
<path d="M24.2638 20.8332L29.4698 21.8198L17.6189 33.8995L21.2737 25.4965H16.9541L21.0521 16.4904H26.2581L24.2638 20.8332Z" stroke="white" stroke-width="2" stroke-linecap="round" stroke-linejoin="round"/>
</svg>
