<svg width="25" height="25" viewBox="0 0 25 25" fill="none" xmlns="http://www.w3.org/2000/svg">
<path fill-rule="evenodd" clip-rule="evenodd" d="M8.12989 1.46541C9.30289 1.41141 9.67689 1.39941 12.6649 1.39941C15.6529 1.39941 16.0269 1.41241 17.1989 1.46541C18.3709 1.51841 19.1709 1.70541 19.8709 1.97641C20.6039 2.25341 21.2689 2.68641 21.8189 3.24641C22.3789 3.79541 22.8109 4.45941 23.0869 5.19341C23.3589 5.89341 23.5449 6.69341 23.5989 7.86341C23.6529 9.03841 23.6649 9.41241 23.6649 12.3994C23.6649 15.3874 23.6519 15.7614 23.5989 16.9344C23.5459 18.1044 23.3589 18.9044 23.0869 19.6044C22.8109 20.3385 22.3782 21.0036 21.8189 21.5534C21.2689 22.1134 20.6039 22.5454 19.8709 22.8214C19.1709 23.0934 18.3709 23.2794 17.2009 23.3334C16.0269 23.3874 15.6529 23.3994 12.6649 23.3994C9.67689 23.3994 9.30289 23.3864 8.12989 23.3334C6.95989 23.2804 6.15989 23.0934 5.45989 22.8214C4.72581 22.5454 4.06071 22.1127 3.51089 21.5534C2.95127 21.0041 2.5182 20.3393 2.24189 19.6054C1.97089 18.9054 1.78489 18.1054 1.73089 16.9354C1.67689 15.7604 1.66489 15.3864 1.66489 12.3994C1.66489 9.41141 1.67789 9.03741 1.73089 7.86541C1.78389 6.69341 1.97089 5.89341 2.24189 5.19341C2.51861 4.4595 2.95201 3.79473 3.51189 3.24541C4.06093 2.68592 4.72536 2.25286 5.45889 1.97641C6.15889 1.70541 6.95889 1.51941 8.12889 1.46541H8.12989ZM17.1099 3.44541C15.9499 3.39241 15.6019 3.38141 12.6649 3.38141C9.72789 3.38141 9.37989 3.39241 8.21989 3.44541C7.14689 3.49441 6.56489 3.67341 6.17689 3.82441C5.66389 4.02441 5.29689 4.26141 4.91189 4.64641C4.54693 5.00147 4.26607 5.4337 4.08989 5.91141C3.93889 6.29941 3.75989 6.88141 3.71089 7.95441C3.65789 9.11441 3.64689 9.46241 3.64689 12.3994C3.64689 15.3364 3.65789 15.6844 3.71089 16.8444C3.75989 17.9174 3.93889 18.4994 4.08989 18.8874C4.26589 19.3644 4.54689 19.7974 4.91189 20.1524C5.26689 20.5174 5.69989 20.7984 6.17689 20.9744C6.56489 21.1254 7.14689 21.3044 8.21989 21.3534C9.37989 21.4064 9.72689 21.4174 12.6649 21.4174C15.6029 21.4174 15.9499 21.4064 17.1099 21.3534C18.1829 21.3044 18.7649 21.1254 19.1529 20.9744C19.6659 20.7744 20.0329 20.5374 20.4179 20.1524C20.7829 19.7974 21.0639 19.3644 21.2399 18.8874C21.3909 18.4994 21.5699 17.9174 21.6189 16.8444C21.6719 15.6844 21.6829 15.3364 21.6829 12.3994C21.6829 9.46241 21.6719 9.11441 21.6189 7.95441C21.5699 6.88141 21.3909 6.29941 21.2399 5.91141C21.0399 5.39841 20.8029 5.03141 20.4179 4.64641C20.0628 4.28149 19.6306 4.00062 19.1529 3.82441C18.7649 3.67341 18.1829 3.49441 17.1099 3.44541ZM11.2599 15.7904C12.0445 16.117 12.9183 16.1611 13.7318 15.9151C14.5454 15.6691 15.2483 15.1483 15.7205 14.4417C16.1927 13.735 16.4049 12.8863 16.3209 12.0405C16.2369 11.1948 15.8619 10.4044 15.2599 9.80441C14.8761 9.42089 14.4121 9.12723 13.9012 8.94456C13.3903 8.7619 12.8453 8.69477 12.3054 8.74803C11.7654 8.80128 11.244 8.97359 10.7787 9.25254C10.3133 9.5315 9.91563 9.91016 9.61419 10.3613C9.31275 10.8124 9.11508 11.3247 9.0354 11.8614C8.95573 12.398 8.99604 12.9457 9.15343 13.4649C9.31081 13.9842 9.58137 14.462 9.94561 14.8641C10.3098 15.2662 10.7587 15.5826 11.2599 15.7904ZM8.66689 8.40141C9.19191 7.87639 9.81521 7.45992 10.5012 7.17578C11.1872 6.89163 11.9224 6.74539 12.6649 6.74539C13.4074 6.74539 14.1426 6.89163 14.8286 7.17578C15.5146 7.45992 16.1379 7.87639 16.6629 8.40141C17.1879 8.92644 17.6044 9.54973 17.8885 10.2357C18.1727 10.9217 18.3189 11.6569 18.3189 12.3994C18.3189 13.1419 18.1727 13.8771 17.8885 14.5631C17.6044 15.2491 17.1879 15.8724 16.6629 16.3974C15.6026 17.4578 14.1644 18.0534 12.6649 18.0534C11.1653 18.0534 9.72722 17.4578 8.66689 16.3974C7.60655 15.3371 7.01086 13.899 7.01086 12.3994C7.01086 10.8999 7.60655 9.46175 8.66689 8.40141ZM19.5729 7.58741C19.703 7.46468 19.8071 7.31709 19.8792 7.15339C19.9512 6.98968 19.9897 6.81318 19.9923 6.63434C19.9949 6.45551 19.9616 6.27796 19.8944 6.11222C19.8271 5.94649 19.7273 5.79592 19.6008 5.66945C19.4744 5.54298 19.3238 5.44317 19.1581 5.37593C18.9923 5.30869 18.8148 5.27539 18.636 5.278C18.4571 5.2806 18.2806 5.31907 18.1169 5.39111C17.9532 5.46315 17.8056 5.56731 17.6829 5.69741C17.4442 5.95044 17.3135 6.28654 17.3186 6.63434C17.3237 6.98215 17.4641 7.31429 17.71 7.56026C17.956 7.80622 18.2881 7.94664 18.636 7.95171C18.9838 7.95678 19.3199 7.8261 19.5729 7.58741Z" fill="white"/>
</svg>
