<svg width="24" height="25" viewBox="0 0 24 25" fill="none" xmlns="http://www.w3.org/2000/svg">
<g clip-path="url(#clip0_60_975)">
<path fill-rule="evenodd" clip-rule="evenodd" d="M17.415 14.7815C17.117 14.6325 15.656 13.9145 15.384 13.8145C15.112 13.7155 14.914 13.6665 14.715 13.9645C14.517 14.2605 13.948 14.9305 13.775 15.1285C13.601 15.3275 13.428 15.3515 13.131 15.2035C12.834 15.0535 11.876 14.7405 10.741 13.7285C9.858 12.9405 9.261 11.9675 9.088 11.6695C8.915 11.3725 9.069 11.2115 9.218 11.0635C9.352 10.9305 9.515 10.7165 9.664 10.5435C9.813 10.3695 9.862 10.2455 9.961 10.0465C10.061 9.84846 10.011 9.67546 9.936 9.52645C9.862 9.37745 9.268 7.91446 9.02 7.31946C8.779 6.74046 8.534 6.81946 8.352 6.80945C8.178 6.80146 7.98 6.79946 7.782 6.79946C7.584 6.79946 7.262 6.87346 6.99 7.17145C6.717 7.46845 5.95 8.18746 5.95 9.65046C5.95 11.1125 7.014 12.5255 7.163 12.7245C7.312 12.9225 9.258 15.9245 12.239 17.2115C12.949 17.5175 13.502 17.7005 13.933 17.8365C14.645 18.0635 15.293 18.0315 15.805 17.9545C16.375 17.8695 17.563 17.2355 17.811 16.5415C18.058 15.8475 18.058 15.2525 17.984 15.1285C17.91 15.0045 17.712 14.9305 17.414 14.7815H17.415ZM11.993 22.1845H11.989C10.2184 22.1848 8.48037 21.7088 6.957 20.8065L6.597 20.5925L2.855 21.5745L3.854 17.9265L3.619 17.5525C2.62914 15.9768 2.10529 14.1532 2.108 12.2925C2.11 6.84245 6.544 2.40846 11.997 2.40846C14.637 2.40846 17.119 3.43846 18.985 5.30646C19.9054 6.22304 20.6349 7.31302 21.1313 8.51335C21.6277 9.71368 21.8811 11.0005 21.877 12.2995C21.875 17.7495 17.441 22.1845 11.993 22.1845ZM20.405 3.88745C19.3032 2.77838 17.9922 1.89899 16.5481 1.30026C15.1039 0.701519 13.5553 0.395338 11.992 0.399455C5.438 0.399455 0.102 5.73446 0.1 12.2915C0.096963 14.3782 0.644374 16.4288 1.687 18.2365L0 24.3995L6.304 22.7455C8.04787 23.6956 10.0021 24.1934 11.988 24.1935H11.993C18.547 24.1935 23.883 18.8585 23.885 12.3005C23.8898 10.7377 23.5848 9.18956 22.9874 7.74549C22.3901 6.30142 21.5124 4.99013 20.405 3.88745Z" fill="white"/>
</g>
<defs>
<clipPath id="clip0_60_975">
<rect width="24" height="24" fill="white" transform="translate(0 0.399414)"/>
</clipPath>
</defs>
</svg>
