<svg width="50" height="50" viewBox="0 0 50 50" fill="none" xmlns="http://www.w3.org/2000/svg">
<rect width="50" height="50" fill="white"/>
<g clip-path="url(#clip0_998_3613)">
<path d="M50.0004 43H-0.000244141V8H50.0004V43ZM1.94871 41.0345H48.0516V9.9658H1.94808L1.94871 41.0345Z" fill="black"/>
<path d="M5.53638 27.7026V14.0854H8.33814V19.2773H13.5845V14.0854H16.3863V27.7026H13.5845V21.6238H8.33814V27.7026H5.53638Z" fill="black"/>
<path d="M28.5139 14.4366C29.0044 14.6472 29.4377 14.9735 29.7774 15.3881C30.0621 15.7314 30.2912 16.1181 30.456 16.5338C30.6227 16.9525 30.7061 17.4298 30.7061 17.9656C30.7061 18.6125 30.5443 19.2484 30.2208 19.8733C29.8972 20.4982 29.3631 20.94 28.6184 21.1989C29.2412 21.4515 29.6823 21.8102 29.9416 22.275C30.201 22.7399 30.3306 23.4497 30.3306 24.4045V25.3191C30.3306 25.9413 30.3554 26.3632 30.405 26.5847C30.4794 26.9358 30.653 27.1945 30.9258 27.3609V27.7026H27.8127C27.727 27.401 27.6659 27.1577 27.6295 26.9727C27.5558 26.5859 27.5159 26.1933 27.5104 25.7994L27.492 24.5338C27.4806 23.6656 27.3319 23.0868 27.0461 22.7974C26.7603 22.5079 26.2245 22.3632 25.4389 22.3632H22.6854V27.7026H19.9294V14.0854H26.3846C27.3071 14.104 28.0169 14.221 28.5139 14.4366ZM22.6854 16.4512V20.1095H25.7202C26.3233 20.1095 26.7755 20.0356 27.0768 19.8879C27.6101 19.6292 27.8768 19.1179 27.8769 18.3541C27.8769 17.529 27.6189 16.9748 27.1029 16.6913C26.8131 16.5313 26.3783 16.4512 25.7986 16.4512H22.6854Z" fill="black"/>
<path d="M44.1558 16.4967H37.0141V19.3882H43.5698V21.7531H37.0141V25.2544H44.4854V27.7026H34.2581V14.0854H44.1558V16.4967Z" fill="black"/>
<path d="M6.05724 32.8696H5.50903V36.9117H6.05724V32.8696Z" fill="black"/>
<path d="M8.30801 33.9651H8.79344V34.3832C8.90978 34.2385 9.01524 34.133 9.10981 34.0667C9.27171 33.9548 9.45533 33.8989 9.66067 33.8989C9.89352 33.8989 10.0808 33.9567 10.2225 34.0722C10.3026 34.1382 10.3753 34.2354 10.4407 34.3639C10.5498 34.2063 10.6779 34.0893 10.8252 34.0131C10.9724 33.9368 11.1379 33.8988 11.3217 33.8989C11.7145 33.8989 11.9816 34.042 12.1233 34.3282C12.1992 34.4823 12.2375 34.6897 12.2381 34.9501V36.912H11.728V34.8647C11.728 34.6689 11.6793 34.5341 11.582 34.4603C11.4848 34.3865 11.3662 34.3499 11.2262 34.3503C11.0413 34.3472 10.8626 34.4173 10.7284 34.5455C10.5894 34.6758 10.5198 34.8932 10.5197 35.1977V36.912H10.0207V34.9886C10.0207 34.7888 9.99708 34.6429 9.94983 34.551C9.87517 34.4134 9.73597 34.3447 9.53223 34.3447C9.34662 34.3447 9.17789 34.417 9.02604 34.5617C8.87418 34.7064 8.79825 34.9688 8.79825 35.3488V36.9117H8.30737L8.30801 33.9651Z" fill="black"/>
<path d="M14.3959 33.9651H14.8813V34.3832C14.9976 34.2385 15.103 34.133 15.1977 34.0667C15.3596 33.9548 15.5432 33.8989 15.7486 33.8989C15.9814 33.8989 16.1687 33.9567 16.3104 34.0722C16.3904 34.1382 16.4631 34.2354 16.5286 34.3639C16.6377 34.2063 16.7658 34.0893 16.913 34.0131C17.0603 33.9368 17.2258 33.8988 17.4096 33.8989C17.8023 33.8989 18.0695 34.042 18.2112 34.3282C18.2871 34.4823 18.3254 34.6897 18.3259 34.9501V36.912H17.8158V34.8647C17.8158 34.6689 17.7672 34.5341 17.6699 34.4603C17.5727 34.3865 17.454 34.3499 17.3141 34.3503C17.1292 34.3472 16.9505 34.4173 16.8162 34.5455C16.6773 34.6758 16.6077 34.8932 16.6076 35.1977V36.912H16.1086V34.9886C16.1086 34.7888 16.085 34.6429 16.0377 34.551C15.9631 34.4134 15.8239 34.3447 15.6201 34.3447C15.4345 34.3447 15.2658 34.417 15.1139 34.5617C14.9621 34.7064 14.8861 34.9688 14.8861 35.3488V36.9117H14.3953L14.3959 33.9651Z" fill="black"/>
<path d="M22.6004 34.2589C22.8585 34.5117 22.9876 34.8837 22.9876 35.3749C22.9876 35.8497 22.8737 36.2419 22.6459 36.5517C22.4181 36.8614 22.0652 37.0163 21.5871 37.0162C21.1881 37.0162 20.8712 36.8792 20.6365 36.6053C20.4018 36.3314 20.2844 35.9634 20.2844 35.5013C20.2844 35.0067 20.4081 34.6127 20.6555 34.3193C20.9028 34.0258 21.235 33.8792 21.652 33.8794C22.0257 33.8794 22.3416 34.0059 22.5999 34.2589M22.2951 36.2174C22.4146 35.9692 22.4744 35.693 22.4745 35.3887C22.4745 35.1139 22.4313 34.8903 22.3449 34.7181C22.2084 34.447 21.973 34.3115 21.6385 34.3115C21.3419 34.3115 21.1261 34.4269 20.9912 34.6577C20.8563 34.8886 20.7888 35.1671 20.7887 35.4932C20.7887 35.8065 20.8562 36.0676 20.9912 36.2765C21.1262 36.4854 21.3401 36.5898 21.633 36.5898C21.9549 36.5898 22.1756 36.4657 22.2951 36.2174Z" fill="black"/>
<path d="M24.9849 32.856H25.4621V34.3226C25.5641 34.186 25.6962 34.0753 25.848 33.9992C25.9998 33.9246 26.1667 33.8864 26.3355 33.8879C26.7003 33.8879 26.9964 34.014 27.2239 34.2662C27.4513 34.5184 27.5649 34.8903 27.5647 35.3819C27.5647 35.8479 27.4524 36.235 27.2279 36.5432C27.0034 36.8513 26.6923 37.0054 26.2945 37.0054C26.0718 37.0054 25.8837 36.9513 25.7303 36.8432C25.6392 36.7789 25.5416 36.6761 25.4374 36.535V36.9119H24.9849V32.856ZM26.8617 36.2489C26.9941 36.0361 27.0602 35.7554 27.0602 35.4068C27.0602 35.0968 26.9941 34.84 26.8617 34.6364C26.7293 34.4328 26.5346 34.3309 26.2775 34.3308C26.0533 34.3308 25.8568 34.4143 25.688 34.5813C25.5191 34.7483 25.4348 35.0235 25.4349 35.4068C25.4349 35.6837 25.4695 35.9084 25.5389 36.0808C25.6683 36.4056 25.91 36.5679 26.264 36.5679C26.5303 36.5679 26.7296 36.4615 26.8618 36.2487" fill="black"/>
<path d="M29.5671 32.8696H30.0661V33.4314H29.5671V32.8696ZM29.5671 33.9786H30.0661V36.9118H29.5671V33.9786Z" fill="black"/>
<path d="M32.748 32.8696H32.2571V36.9117H32.748V32.8696Z" fill="black"/>
<path d="M34.9194 32.8696H35.4184V33.4314H34.9194V32.8696ZM34.9194 33.9786H35.4184V36.9118H34.9194V33.9786Z" fill="black"/>
<path d="M39.3998 34.0457C39.5932 34.1438 39.7405 34.2708 39.8417 34.4268C39.9391 34.5754 40.0042 34.7487 40.0368 34.9467C40.0657 35.0829 40.0801 35.2994 40.0801 35.5961H37.9556C37.9647 35.896 38.0341 36.1365 38.164 36.3178C38.294 36.499 38.4951 36.5896 38.7676 36.5896C39.0218 36.5896 39.2247 36.5039 39.3762 36.3326C39.4612 36.2325 39.5228 36.1143 39.5564 35.9869H40.0392C40.0266 36.0952 39.9844 36.2158 39.9127 36.3487C39.841 36.4815 39.7608 36.5902 39.6722 36.6748C39.5243 36.8216 39.3412 36.9207 39.123 36.972C38.9926 37.0028 38.859 37.0175 38.725 37.0159C38.3636 37.0159 38.0573 36.8825 37.8062 36.6156C37.555 36.3488 37.4294 35.9751 37.4294 35.4945C37.4294 35.0212 37.556 34.6368 37.8091 34.3414C38.0622 34.0459 38.3928 33.8983 38.8011 33.8984C39.0095 33.899 39.2148 33.9495 39.4002 34.0457M39.5759 35.2027C39.5561 34.988 39.5101 34.8165 39.438 34.6882C39.3047 34.4498 39.0821 34.3306 38.7702 34.3306C38.5465 34.3306 38.359 34.4127 38.2077 34.5768C38.0564 34.7409 37.9763 34.9495 37.9673 35.2025L39.5759 35.2027Z" fill="black"/>
<path d="M42.1375 33.9651H42.6037V34.3832C42.742 34.2109 42.8884 34.087 43.0429 34.0117C43.1974 33.9363 43.3692 33.8988 43.5583 33.8989C43.9729 33.8989 44.2529 34.0447 44.3983 34.3364C44.4782 34.496 44.5182 34.7244 44.5183 35.0216V36.912H44.0192V35.0546C44.0192 34.8746 43.9928 34.7297 43.9401 34.6198C43.8529 34.4364 43.6947 34.3446 43.4654 34.3445C43.3491 34.3445 43.2537 34.3565 43.1792 34.3803C43.0447 34.4208 42.9266 34.5017 42.8249 34.6229C42.7431 34.7202 42.6899 34.8206 42.6653 34.9242C42.6406 35.0278 42.6284 35.176 42.6286 35.3687V36.9124H42.1377L42.1375 33.9651Z" fill="black"/>
<path d="M44.4832 30.1094H5.49585V30.4729H44.4832V30.1094Z" fill="black"/>
</g>
<defs>
<clipPath id="clip0_998_3613">
<rect width="50" height="35" fill="white" transform="translate(0 8)"/>
</clipPath>
</defs>
</svg>
