<svg xmlns="http://www.w3.org/2000/svg" viewBox="0 0 207.75 147.75"><defs><style>.cls-1{fill:#fff;}</style></defs><g id="Layer_2" data-name="Layer 2"><g id="Layer_1-2" data-name="Layer 1"><path d="M0,0H207.75V147.75H0ZM5.06,7.92V139.66H200.69c1.74,0,1.74,0,1.74-1.77V9.5c0-1.58,0-1.58-1.67-1.58H5.06Z"/><path class="cls-1" d="M5.06,7.92h195.7c1.67,0,1.67,0,1.67,1.58V137.88c0,1.77,0,1.77-1.74,1.77H5.06ZM94.67,60.74a4.11,4.11,0,0,1,.59-.11c3.91,0,7.82,0,11.73,0a21.78,21.78,0,0,1,3.23.28,5.16,5.16,0,0,1,4.64,4.54,41.44,41.44,0,0,1,.47,5.57c.09,3.7,0,7.4,1,11a1.27,1.27,0,0,0,1.47,1.11c3.7,0,7.4,0,11.11,0a4.27,4.27,0,0,0,1.1-.32,8.55,8.55,0,0,0-.47-1.43,26.18,26.18,0,0,1-1.71-3.22,10,10,0,0,1-.29-3c-.1-3.28,0-6.57-.27-9.85-.29-4.23-2.15-7.54-6.23-9.32a1.93,1.93,0,0,1-.44-.39c5.68-3.49,7.29-5.63,8.3-11a16.39,16.39,0,0,0-8.38-17.32,20.53,20.53,0,0,0-9.22-1.85c-9.12-.09-18.23,0-27.34,0-1,0-1.19.32-1.19,1.23q0,27.63,0,55.27c0,1,.36,1.25,1.31,1.24,3,0,6.07-.07,9.11,0,1.11,0,1.49-.25,1.48-1.44-.06-6.48,0-13,0-19.46ZM55.48,47.34H32.93V45.88c0-6.4,0-12.81,0-19.21,0-.89-.21-1.27-1.18-1.25-3.2,0-6.41,0-9.61,0-1,0-1.18.35-1.18,1.25q0,27.63,0,55.27c0,1,.4,1.23,1.31,1.22,3,0,6,0,9,0,1.65,0,1.65,0,1.65-1.6V59.08c0-.52.06-1,.09-1.57H55.47V83H67.53c0-.4.06-.68.06-1q0-27.69,0-55.39c0-1-.39-1.26-1.31-1.25-3.2,0-6.41,0-9.61,0-1,0-1.25.32-1.25,1.29,0,6.36,0,12.73,0,19.09ZM186.27,25.51c-.47,0-.79-.07-1.12-.07-13.31,0-26.63,0-39.94,0-1.22,0-1.31.52-1.31,1.49q0,27.39,0,54.77c0,.45,0,.89.06,1.37h43.74c0-3-.05-5.91,0-8.81,0-1.17-.35-1.46-1.48-1.45-9.61,0-19.22,0-28.84,0h-1.55V57.92h27.84v-10H155.87V35.6h30.4ZM21.23,95.2H184.76c.5,0,1,0,1.5,0,1.13.08,1.25-.47.92-1.46H24.26c-.71,0-1.42,0-2.12,0C21.15,93.67,20.84,94.06,21.23,95.2Zm22.29,26.33c0-2.44-.05-4.73,0-7a7.23,7.23,0,0,1,.58-2.63,2.7,2.7,0,0,1,3.11-1.26c1.28.32,1.49,1.28,1.48,2.4s0,2.33,0,3.5v5h2.16c0-3.24.14-6.4,0-9.53-.14-2.45-2.18-3.8-4.65-3.22A17.34,17.34,0,0,0,43,110.21a3,3,0,0,0-3.19-1.5A20.65,20.65,0,0,0,36.17,110l-.21-.85H34.23v12.37h1.93c0-.61,0-1.14,0-1.67,0-2,0-4,.09-6a2.84,2.84,0,0,1,1.42-2.74,4,4,0,0,1,2.67-.26c.53.2.91,1.3,1,2a27.24,27.24,0,0,1,.06,3.73v4.89Zm25.36-11a3.1,3.1,0,0,0-3.34-1.77,19.25,19.25,0,0,0-3.61,1.3l-.24-.88c-1.87-.18-1.87-.18-1.87,1.51v10.89h2.09c0-.53,0-1,0-1.42,0-2,0-3.91.05-5.86a6,6,0,0,1,.36-1.82,2.93,2.93,0,0,1,3.19-1.84c1.13.19,1.58.88,1.6,2.56,0,1.37,0,2.74,0,4.11v4.27h2.11c0-2.31,0-4.54,0-6.77a8.16,8.16,0,0,1,.53-2.77A2.77,2.77,0,0,1,73,110.63c1.28.32,1.52,1.26,1.49,2.39s0,2.33,0,3.49v5h2.09c0-3.29.11-6.48-.05-9.67-.09-2-1.47-3.06-3.51-3.17A5.12,5.12,0,0,0,68.88,110.48Zm38-.34c0-1.57,0-3,0-4.35,0-.68.2-1.41-1-1.43s-1,.62-1,1.35c0,4.86,0,9.72,0,14.58,0,.4,0,.8.06,1.18,1,.26,1.9.39,2.05-1,3.72,3.1,7.88.88,8.55-2.93a14.58,14.58,0,0,0-.07-5.27,4.8,4.8,0,0,0-6.56-3.31A16.46,16.46,0,0,0,106.84,110.14Zm62.21,5.77c-.06-1,0-1.78-.15-2.5a5.08,5.08,0,0,0-4.59-4.68,5.52,5.52,0,0,0-5.9,3,8.14,8.14,0,0,0-.61,5.71,5.69,5.69,0,0,0,8.9,3.55,4.23,4.23,0,0,0,2-3.29c-.79.1-1.73.16-2.12.65a3.84,3.84,0,0,1-4.34,1.6c-1.41-.44-2.31-2-2.21-4.07Zm-72.54-.44c0-.78,0-1.19-.07-1.6a5.19,5.19,0,0,0-3.19-4.68,5.66,5.66,0,0,0-5.91.55c-2.25,1.67-2.59,4.13-2.44,6.7.18,3.08,2,5.17,4.78,5.47,3.4.37,5.62-1,6.49-4.22A15.15,15.15,0,0,0,96.51,115.47Zm83.11,6.07c0-.59,0-1.12,0-1.65,0-2.19,0-4.4.18-6.59a3.17,3.17,0,0,1,3.56-2.74c1.47.1,2.16,1,2.24,2.89,0,1.12,0,2.24,0,3.36,0,1.57,0,3.13,0,4.7h2c0-3.17.14-6.24,0-9.29-.16-2.73-2.2-4.09-4.93-3.43a18,18,0,0,0-3.08,1.37l-.16-1c-1.89-.18-1.9-.18-1.9,1.6q0,4.8,0,9.6c0,.39,0,.79.07,1.21Zm-155.14,0c0-5.4,0-10.63,0-15.86,0-.9-.15-1.32-1.21-1.32s-1.21.45-1.21,1.34c0,5,0,9.89,0,14.83,0,.32.06.64.09,1Zm113.41,0V106.08c0-1.85-.17-2-2-1.48v16.93Zm-11.31,0c0-3.88,0-7.61,0-11.34,0-.82-.17-1.19-1.09-1.19s-1.12.37-1.11,1.19c0,3.48,0,7,0,10.45a8,8,0,0,0,.11.89Zm22.49-12.41c-2.09-.19-2.09-.19-2.09,1.73,0,3,0,6,0,9,0,2,0,2,2.09,1.62Zm-23.54-2.49c1,.18,1.06-.35,1.08-1.14s-.26-1.12-1.13-1.13-1.08.38-1.09,1.18S124.64,106.81,125.53,106.64Zm23.51.12V104.3c-.73.14-1.51.07-1.89.43a1.59,1.59,0,0,0,0,1.59C147.53,106.68,148.31,106.62,149,106.76Z"/><path d="M94.67,60.74v1.52c0,6.49,0,13,0,19.46,0,1.19-.37,1.47-1.48,1.44-3-.07-6.08,0-9.11,0-1,0-1.31-.21-1.31-1.24q0-27.64,0-55.27c0-.91.24-1.23,1.19-1.23,9.11,0,18.22,0,27.34,0a20.53,20.53,0,0,1,9.22,1.85,16.39,16.39,0,0,1,8.38,17.32c-1,5.36-2.62,7.5-8.3,11a1.93,1.93,0,0,0,.44.39c4.08,1.78,5.94,5.09,6.23,9.32.23,3.28.17,6.57.27,9.85a10,10,0,0,0,.29,3,26.18,26.18,0,0,0,1.71,3.22,8.55,8.55,0,0,1,.47,1.43,4.27,4.27,0,0,1-1.1.32c-3.71,0-7.41,0-11.11,0a1.27,1.27,0,0,1-1.47-1.11c-1-3.61-1-7.31-1-11a41.44,41.44,0,0,0-.47-5.57,5.16,5.16,0,0,0-4.64-4.54,21.78,21.78,0,0,0-3.23-.28c-3.91,0-7.82,0-11.73,0A4.11,4.11,0,0,0,94.67,60.74Zm0-10a1.84,1.84,0,0,0,.48.16c4.9,0,9.81.14,14.7-.09C115,50.59,117,48.2,116.93,43c0-.2,0-.41,0-.62-.19-4-2.21-6.49-6.24-6.74-5.05-.3-10.13-.18-15.2-.25-.92,0-.81.61-.81,1.19V50.76Z"/><path d="M55.48,47.34V45.79c0-6.36,0-12.73,0-19.09,0-1,.25-1.3,1.25-1.29,3.2.06,6.41.05,9.61,0,.92,0,1.31.21,1.31,1.25q0,27.69,0,55.39c0,.29,0,.57-.06,1H55.47V57.51H33c0,.53-.08,1.05-.09,1.57V81.54c0,1.6,0,1.6-1.65,1.6-3,0-6,0-9,0-.91,0-1.32-.17-1.31-1.22q0-27.64,0-55.27c0-.9.21-1.27,1.18-1.25,3.2,0,6.41,0,9.61,0,1,0,1.18.36,1.18,1.25,0,6.4,0,12.81,0,19.21v1.46Z"/><path d="M186.27,25.51V35.6h-30.4V47.94h27.85v10H155.88V72.8h1.55c9.62,0,19.23,0,28.84,0,1.13,0,1.51.28,1.48,1.45-.08,2.9,0,5.8,0,8.81H144c0-.48-.06-.92-.06-1.37q0-27.37,0-54.77c0-1,.09-1.49,1.31-1.49,13.31,0,26.63,0,39.94,0C185.48,25.44,185.8,25.48,186.27,25.51Z"/><path d="M21.23,95.2c-.39-1.14-.08-1.53.91-1.46.7.05,1.41,0,2.12,0H187.18c.33,1,.21,1.54-.92,1.46-.49,0-1,0-1.5,0H21.23Z"/><path d="M43.52,121.53H41.41v-4.89a27.24,27.24,0,0,0-.06-3.73c-.09-.74-.47-1.84-1-2a4,4,0,0,0-2.67.26,2.84,2.84,0,0,0-1.42,2.74c-.06,2-.07,4-.09,6,0,.53,0,1.06,0,1.67H34.23V109.15H36l.21.85a20.65,20.65,0,0,1,3.65-1.29,3,3,0,0,1,3.19,1.5,17.34,17.34,0,0,1,3.17-1.44c2.47-.58,4.51.77,4.65,3.22.18,3.13,0,6.29,0,9.53H48.71v-5c0-1.17,0-2.33,0-3.5s-.2-2.08-1.48-2.4a2.7,2.7,0,0,0-3.11,1.26,7.23,7.23,0,0,0-.58,2.63C43.47,116.8,43.52,119.09,43.52,121.53Z"/><path d="M68.88,110.48a5.12,5.12,0,0,1,4.1-1.82c2,.11,3.42,1.16,3.51,3.17.16,3.19.05,6.38.05,9.67H74.45v-5c0-1.16,0-2.32,0-3.49S74.24,111,73,110.63A2.77,2.77,0,0,0,69.78,112a8.16,8.16,0,0,0-.53,2.77c-.07,2.23,0,4.46,0,6.77H67.12v-4.27c0-1.37,0-2.74,0-4.11,0-1.68-.47-2.37-1.6-2.56a2.93,2.93,0,0,0-3.19,1.84,6,6,0,0,0-.36,1.82c-.05,2,0,3.91-.05,5.86,0,.45,0,.89,0,1.42H59.82V110.64c0-1.69,0-1.69,1.87-1.51l.24.88a19.25,19.25,0,0,1,3.61-1.3A3.1,3.1,0,0,1,68.88,110.48Z"/><path d="M106.84,110.14a16.46,16.46,0,0,1,2-1.14,4.8,4.8,0,0,1,6.56,3.31,14.58,14.58,0,0,1,.07,5.27c-.67,3.81-4.83,6-8.55,2.93-.15,1.35-1,1.22-2.05,1,0-.38-.06-.78-.06-1.18,0-4.86,0-9.72,0-14.58,0-.73-.08-1.36,1-1.35s1,.75,1,1.43C106.84,107.18,106.84,108.57,106.84,110.14Zm6.94,5.28a21.66,21.66,0,0,0-.49-2.52,2.86,2.86,0,0,0-2.85-2.34,3.3,3.3,0,0,0-3.3,2.19,7.42,7.42,0,0,0,.22,5.59,3,3,0,0,0,3,1.79,2.78,2.78,0,0,0,2.72-2A22.53,22.53,0,0,0,113.78,115.42Z"/><path d="M169.05,115.91H160c-.1,2.06.8,3.63,2.21,4.07a3.84,3.84,0,0,0,4.34-1.6c.39-.49,1.33-.55,2.12-.65a4.23,4.23,0,0,1-2,3.29,5.69,5.69,0,0,1-8.9-3.55,8.14,8.14,0,0,1,.61-5.71,5.52,5.52,0,0,1,5.9-3,5.08,5.08,0,0,1,4.59,4.68C169,114.13,169,114.88,169.05,115.91ZM160,114h6.66c0-2.16-1.12-3.38-3.12-3.43A3.32,3.32,0,0,0,160,114Z"/><path d="M96.51,115.47a15.15,15.15,0,0,1-.34,2.22c-.87,3.18-3.09,4.59-6.49,4.22-2.76-.3-4.6-2.39-4.78-5.47-.15-2.57.19-5,2.44-6.7a5.66,5.66,0,0,1,5.91-.55,5.19,5.19,0,0,1,3.19,4.68C96.47,114.28,96.48,114.69,96.51,115.47Zm-2-.48a13.79,13.79,0,0,0-.78-2.77,3.36,3.36,0,0,0-5.62-.37,6.44,6.44,0,0,0-.51,6.19,3,3,0,0,0,3.31,2.08,2.89,2.89,0,0,0,2.93-2.23C94.09,117,94.23,116.05,94.47,115Z"/><path d="M179.62,121.54h-2c0-.42-.07-.82-.07-1.21q0-4.8,0-9.6c0-1.78,0-1.78,1.9-1.6l.16,1a18,18,0,0,1,3.08-1.37c2.73-.66,4.77.7,4.93,3.43.18,3,0,6.12,0,9.29h-2c0-1.57,0-3.13,0-4.7,0-1.12,0-2.24,0-3.36-.08-1.92-.77-2.79-2.24-2.89a3.17,3.17,0,0,0-3.56,2.74c-.17,2.19-.14,4.4-.18,6.59C179.61,120.42,179.62,121,179.62,121.54Z"/><path d="M24.48,121.54h-2.3c0-.37-.09-.69-.09-1,0-4.94,0-9.88,0-14.83,0-.89.13-1.34,1.21-1.34s1.22.42,1.21,1.32C24.46,110.91,24.48,116.14,24.48,121.54Z"/><path d="M137.89,121.53h-2V104.6c1.87-.49,2-.37,2,1.48v15.45Z"/><path d="M126.58,121.54h-2a8,8,0,0,1-.11-.89c0-3.48,0-7,0-10.45,0-.82.2-1.19,1.11-1.19s1.1.37,1.09,1.19C126.57,113.93,126.58,117.66,126.58,121.54Z"/><path d="M149.07,109.13v12.31c-2.06.39-2.08.37-2.09-1.62,0-3,0-6,0-9C147,108.94,147,108.94,149.07,109.13Z"/><path d="M125.53,106.64c-.89.17-1.15-.25-1.14-1.09s.17-1.19,1.09-1.18,1.15.28,1.13,1.13S126.49,106.82,125.53,106.64Z"/><path d="M149,106.76c-.73-.14-1.51-.08-1.9-.44a1.59,1.59,0,0,1,0-1.59c.38-.36,1.16-.29,1.89-.43Z"/><path class="cls-1" d="M94.67,50.76V36.62c0-.58-.11-1.21.81-1.19,5.07.07,10.15,0,15.2.25,4,.25,6,2.7,6.24,6.74,0,.21,0,.42,0,.62.06,5.16-2,7.55-7.08,7.79-4.89.23-9.8.08-14.7.09A1.84,1.84,0,0,1,94.67,50.76Z"/><path class="cls-1" d="M113.78,115.42a22.53,22.53,0,0,1-.68,2.72,2.78,2.78,0,0,1-2.72,2,3,3,0,0,1-3-1.79,7.42,7.42,0,0,1-.22-5.59,3.3,3.3,0,0,1,3.3-2.19,2.86,2.86,0,0,1,2.85,2.34A21.66,21.66,0,0,1,113.78,115.42Z"/><path class="cls-1" d="M160,114a3.32,3.32,0,0,1,3.54-3.43c2,0,3.13,1.27,3.12,3.43Z"/><path class="cls-1" d="M94.47,115c-.24,1.06-.38,2-.67,2.9a2.89,2.89,0,0,1-2.93,2.23A3,3,0,0,1,87.56,118a6.44,6.44,0,0,1,.51-6.19,3.36,3.36,0,0,1,5.62.37A13.79,13.79,0,0,1,94.47,115Z"/></g></g></svg>