<svg xmlns="http://www.w3.org/2000/svg" viewBox="0 0 3951.09 2741.17"><defs><style>.cls-1{fill:#fff;}</style></defs><title>HRE_WHITE</title><g id="Capa_2" data-name="Capa 2"><g id="Capa_1-2" data-name="Capa 1"><path class="cls-1" d="M-2675,6608.29H-6626.14V3867.12H-2675Zm-3797.13-153.94H-2829V4021.08H-6472.18Z" transform="translate(6626.14 -3867.12)"/><polygon class="cls-1" points="437.49 1543.08 437.49 476.6 658.89 476.6 658.89 883.22 1073.47 883.22 1073.47 476.6 1294.87 476.6 1294.87 1543.08 1073.47 1543.08 1073.47 1067 658.89 1067 658.89 1543.08 437.49 1543.08"/><path class="cls-1" d="M-4372.92,4371.22a263.39,263.39,0,0,1,99.84,74.52,332,332,0,0,1,53.63,89.73q19.76,49.19,19.76,112.14,0,76-38.35,149.41t-126.62,103.82q73.82,29.67,104.56,84.28t30.74,166.78v71.63q0,73.1,5.88,99.12,8.82,41.25,41.15,60.79v26.76h-246q-10.16-35.43-14.48-57.16a526.48,526.48,0,0,1-9.41-91.89l-1.45-99.12q-1.36-102-35.24-136t-127-34H-4833.5V5410.2h-217.78V4343.72h510.1q109.35,2.18,168.26,27.5M-4833.5,4529v286.52h239.82q71.48,0,107.2-17.36,63.21-30.39,63.22-120.12,0-96.93-61.16-130.23-34.35-18.8-103.07-18.81Z" transform="translate(6626.14 -3867.12)"/><polygon class="cls-1" points="3489.28 665.45 2924.93 665.45 2924.93 891.91 3442.97 891.91 3442.97 1077.12 2924.93 1077.12 2924.93 1351.34 3515.32 1351.34 3515.32 1543.08 2707.14 1543.08 2707.14 476.6 3489.28 476.6 3489.28 665.45"/><rect class="cls-1" x="435.33" y="1947.77" width="43.32" height="316.57"/><path class="cls-1" d="M-5969.63,5900.67h38.36v32.75q13.79-17,25-24.79,19.19-13.14,43.53-13.14,27.6,0,44.4,13.57,9.49,7.75,17.24,22.85,12.93-18.52,30.38-27.48t39.24-8.94q46.55,0,63.34,33.62,9,18.11,9.07,48.71v153.65h-40.31V5971.13q0-23-11.53-31.67t-28.12-8.62a55.9,55.9,0,0,0-39.34,15.29q-16.47,15.31-16.49,51.08v134.26h-39.43V5980.83q0-23.47-5.6-34.27-8.85-16.16-33-16.16-22,0-40,17t-18,61.64v122.41h-38.79Z" transform="translate(6626.14 -3867.12)"/><path class="cls-1" d="M-5488.55,5900.67h38.36v32.75q13.78-17,25-24.79,19.19-13.14,43.53-13.14,27.6,0,44.4,13.57,9.48,7.75,17.24,22.85,12.93-18.52,30.38-27.48t39.24-8.94q46.55,0,63.34,33.62,9,18.11,9.07,48.71v153.65h-40.31V5971.13q0-23-11.53-31.67t-28.12-8.62a55.9,55.9,0,0,0-39.34,15.29q-16.47,15.31-16.49,51.08v134.26h-39.43V5980.83q0-23.47-5.6-34.27-8.85-16.16-33-16.16-22,0-40,17t-18,61.64v122.41h-38.79Z" transform="translate(6626.14 -3867.12)"/><path class="cls-1" d="M-4840.22,5923.7q30.6,29.7,30.6,87.41,0,55.77-27,92.16t-83.67,36.38q-47.3,0-75.12-32.18t-27.82-86.46q0-58.11,29.32-92.58t78.75-34.45q44.29,0,74.9,29.72m-24.08,153.39q14.16-29.16,14.17-64.9,0-32.29-10.24-52.52-16.17-31.85-55.82-31.85-35.16,0-51.15,27.12t-16,65.43q0,36.81,16,61.35t50.72,24.54q38.15,0,52.32-29.17" transform="translate(6626.14 -3867.12)"/><path class="cls-1" d="M-4651.8,5813.81h37.71v114.87a86.19,86.19,0,0,1,30.5-25.33,86.22,86.22,0,0,1,38.52-8.72q43.24,0,70.2,29.63t26.93,87.38q0,54.75-26.61,90.95t-73.76,36.2q-26.4,0-44.58-12.7-10.8-7.56-23.15-24.14v29.52h-35.76Zm148.31,265.73q15.69-25,15.69-65.95,0-36.42-15.69-60.34t-46.16-23.93q-26.58,0-46.59,19.62t-20,64.65q0,32.53,8.22,52.79,15.34,38.15,57.3,38.15,31.57,0,47.24-25" transform="translate(6626.14 -3867.12)"/><path class="cls-1" d="M-4289.69,5814.89h39.43v44h-39.43Zm0,86.85h39.43v229.73h-39.43Z" transform="translate(6626.14 -3867.12)"/><rect class="cls-1" x="2549.01" y="1947.77" width="38.79" height="316.57"/><path class="cls-1" d="M-3866.74,5814.89h39.43v44h-39.43Zm0,86.85h39.43v229.73h-39.43Z" transform="translate(6626.14 -3867.12)"/><path class="cls-1" d="M-3512.69,5907q22.93,11.53,34.92,29.85,11.55,17.46,15.42,40.72,3.42,16,3.42,50.86h-167.88q1.07,35.23,16.47,56.52t47.69,21.29q30.14,0,48.1-20.13a68.83,68.83,0,0,0,14.24-27.07h38.15q-1.5,12.72-10,28.33t-19,25.54q-17.54,17.25-43.4,23.28a131.57,131.57,0,0,1-31.45,3.44q-42.84,0-72.61-31.35t-29.77-87.81q0-55.6,30-90.31t78.39-34.69a104.09,104.09,0,0,1,47.34,11.53m13.89,90.62q-2.35-25.22-10.9-40.3-15.8-28-52.77-28-26.52,0-44.45,19.28t-19,49Z" transform="translate(6626.14 -3867.12)"/><path class="cls-1" d="M-3296.37,5900.67h36.84v32.75q16.4-20.25,34.71-29.1t40.73-8.83q49.14,0,66.38,34.26,9.47,18.75,9.48,53.67v148.05h-39.44V5986q0-21.14-6.25-34.05-10.34-21.55-37.51-21.56-13.79,0-22.62,2.8-15.94,4.76-28,19-9.69,11.43-12.61,23.6t-2.9,34.81v120.9h-38.79Z" transform="translate(6626.14 -3867.12)"/><rect class="cls-1" x="434.29" y="1731.58" width="3080.85" height="28.47"/></g></g></svg>